<?xml version="1.0" encoding="UTF-8"?>
<svg xmlns="http://www.w3.org/2000/svg" id="Layer_1" data-name="Layer 1" viewBox="0 0 24 24">
  <path d="m18.214,9.098c.387.394.381,1.027-.014,1.414l-4.426,4.345c-.783.768-1.791,1.151-2.799,1.151-.998,0-1.997-.376-2.777-1.129l-1.899-1.868c-.394-.387-.399-1.02-.012-1.414.387-.395,1.019-.4,1.414-.012l1.893,1.861c.778.75,2.002.746,2.781-.018l4.425-4.344c.393-.388,1.024-.381,1.414.013Zm5.143,5.422l-3.5,6c-.894,1.53-2.548,2.48-4.319,2.48h-7.072c-1.771,0-3.426-.951-4.319-2.48L.646,14.52c-.907-1.554-.907-3.485,0-5.039l3.5-6c.893-1.53,2.547-2.48,4.319-2.48h7.072c1.771,0,3.426.951,4.318,2.48l3.501,6c.906,1.554.906,3.485,0,5.039Zm-1.729-4.031l-3.5-6c-.535-.918-1.528-1.488-2.591-1.488h-7.072c-1.063,0-2.056.57-2.591,1.488l-3.5,6c-.544.933-.544,2.091,0,3.023l3.5,6c.536.918,1.528,1.488,2.591,1.488h7.072c1.062,0,2.056-.57,2.592-1.488l3.499-6c.544-.933.544-2.091,0-3.023Z"/>
</svg>
