<?xml version="1.0" encoding="UTF-8"?>
<svg xmlns="http://www.w3.org/2000/svg" id="Layer_1" data-name="Layer 1" viewBox="0 0 24 24" width="512" height="512"><path d="M22.943,1.714c-.671-.571-1.561-.816-2.439-.674-1.428,.232-2.504,1.55-2.504,3.067v4.077c-.314-.112-.648-.184-1-.184-.771,0-1.468,.301-2,.78-.532-.48-1.229-.78-2-.78-.352,0-.686,.072-1,.184V3.107C12,1.59,10.924,.272,9.497,.041c-.879-.144-1.768,.103-2.439,.674-.672,.571-1.057,1.404-1.057,2.286V13.698l-.955-.891c-1.207-1.129-3.108-1.064-4.236,.143-1.129,1.208-1.066,3.11,.129,4.231l4.457,4.297c1.686,1.626,3.905,2.521,6.247,2.521h7.357c2.757,0,5-2.243,5-5V4c0-.881-.385-1.714-1.057-2.286Zm-5.943,8.286c.551,0,1,.449,1,1v2c0,.551-.449,1-1,1s-1-.449-1-1v-2c0-.551,.449-1,1-1Zm-4,0c.551,0,1,.449,1,1v2c0,.551-.449,1-1,1s-1-.449-1-1v-2c0-.551,.449-1,1-1Zm9,9c0,1.654-1.346,3-3,3h-7.357c-1.822,0-3.547-.696-4.858-1.96L2.317,15.733c-.403-.378-.424-1.013-.047-1.417,.182-.194,.429-.306,.695-.315,.272,.008,.52,.086,.715,.269l2.637,2.462c.292,.272,.716,.344,1.081,.186,.365-.159,.602-.519,.602-.917V3c0-.294,.128-.572,.353-.762,.228-.193,.52-.273,.823-.223,.462,.075,.824,.555,.824,1.092V13c0,1.654,1.346,3,3,3,.771,0,1.468-.301,2-.78,.532,.48,1.229,.78,2,.78,1.654,0,3-1.346,3-3V4.107c0-.538,.362-1.018,.825-1.093,.303-.046,.595,.031,.823,.224,.224,.19,.353,.468,.353,.762v15Z"/></svg>
