<?xml version="1.0" encoding="UTF-8"?>
<svg xmlns="http://www.w3.org/2000/svg" id="Layer_1" data-name="Layer 1" viewBox="0 0 24 24" width="512" height="512"><path d="m18.338,9.188l-3.328-2.219V1.005C15.01.453,14.562.005,14.01.005h-4c-.553,0-1,.448-1,1v5.964l-3.328,2.219c-1.674,1.115-2.673,2.981-2.673,4.992v4.824c0,2.757,2.243,5,5,5h8.001c2.757,0,5-2.243,5-5v-4.824c0-2.011-.999-3.877-2.672-4.992Zm.672,9.816c0,1.654-1.346,3-3,3h-8.001c-1.654,0-3-1.346-3-3v-3.999h11.001c.553,0,1-.449,1-1.001s-.448-1-1-1H5.185c.267-.869.826-1.633,1.606-2.152l3.773-2.516c.278-.186.445-.498.445-.832v-3.5h2v3.5c0,.334.167.646.445.832l3.773,2.516c1.115.743,1.781,1.987,1.781,3.328v4.824Z"/></svg>
