<?xml version="1.0" encoding="UTF-8"?>
<svg xmlns="http://www.w3.org/2000/svg" id="Layer_1" data-name="Layer 1" viewBox="0 0 24 24" width="512" height="512"><path d="m23.707,22.293l-.885-.885c.35-.896.166-1.952-.557-2.675s-1.779-.907-2.675-.557l-1.275-1.275c.472-.608.848-1.266,1.121-1.958l2.19.549c.082.021.164.03.244.03.448,0,.855-.303.969-.757.135-.535-.191-1.079-.727-1.213l-2.187-.548c.083-.658.084-1.324.004-1.982l2.183-.547c.536-.134.861-.678.727-1.213-.134-.535-.678-.859-1.213-.727l-2.182.547c-.273-.701-.651-1.368-1.129-1.983l1.276-1.276c.283.111.588.177.91.177,1.381,0,2.5-1.119,2.5-2.5s-1.119-2.5-2.5-2.5-2.5,1.119-2.5,2.5c0,.322.066.627.177.909l-1.276,1.276c-.654-.508-1.369-.9-2.118-1.177l.565-2.252c.135-.535-.19-1.079-.726-1.213-.536-.136-1.079.189-1.213.727l-.572,2.28c-.641-.067-1.286-.051-1.925.037l-.581-2.317c-.134-.536-.679-.861-1.213-.727-.536.134-.861.678-.727,1.213l.587,2.338c-.662.269-1.293.637-1.877,1.091l-1.273-1.273c.353-.898.169-1.957-.557-2.683s-1.785-.909-2.683-.557l-.88-.88C1.316-.098.684-.098.293.293S-.098,1.316.293,1.707l6.049,6.049s0,.001,0,.001.001,0,.001,0l9.897,9.897s0,.001,0,.001.001,0,.001,0l6.049,6.049c.195.195.451.293.707.293s.512-.098.707-.293c.391-.391.391-1.023,0-1.414Zm-7.464-14.535c2.097,2.098,2.299,5.365.636,7.706L8.536,7.122c2.341-1.663,5.609-1.462,7.707.636Zm-6.743,8.243c-.828,0-1.5-.672-1.5-1.5s.672-1.5,1.5-1.5,1.5.672,1.5,1.5-.672,1.5-1.5,1.5Zm6.5-6.5c0,.828-.672,1.5-1.5,1.5s-1.5-.672-1.5-1.5.672-1.5,1.5-1.5,1.5.672,1.5,1.5Zm-.652,12.27c.134.536-.191,1.079-.727,1.213-.082.021-.164.03-.244.03-.448,0-.855-.303-.969-.757l-.576-2.298c-.645.067-1.287.049-1.917-.036l-.586,2.334c-.114.454-.521.757-.969.757-.081,0-.163-.01-.245-.03-.536-.134-.861-.678-.726-1.213l.595-2.369c-.669-.273-1.306-.631-1.888-1.084l-1.273,1.273c.11.282.176.586.176.907,0,1.379-1.119,2.497-2.5,2.497s-2.5-1.118-2.5-2.497,1.119-2.497,2.5-2.497c.322,0,.627.066.909.176l1.273-1.273c-.485-.621-.863-1.303-1.141-2.021l-2.429.609c-.082.021-.164.03-.244.03-.448,0-.855-.303-.969-.757-.135-.535.191-1.079.727-1.213l2.426-.609c-.072-.615-.075-1.243,0-1.872l-2.422-.597c-.536-.132-.864-.674-.731-1.21.132-.537.675-.869,1.21-.731l3.333.821c.536.132.863.673.732,1.209-.505,2.059.088,4.182,1.584,5.679,1.472,1.472,3.563,2.069,5.596,1.604.532-.126,1.062.203,1.195.731l.8,3.192Z"/></svg>
