<?xml version="1.0" encoding="UTF-8"?>
<svg xmlns="http://www.w3.org/2000/svg" id="Layer_1" data-name="Layer 1" viewBox="0 0 24 24" width="512" height="512"><path d="M10.27,23c-.6,0-1.18-.21-1.66-.6C5.39,19.67,0,13.81,0,9.01c-.07-1.92,.61-3.79,1.87-5.1,1.2-1.25,2.81-1.91,4.64-1.91,2.28,.05,4.36,1.29,5.46,3.26,.2,.3,1.02,1.67,1.02,3.73h0v11.26c0,1.08-.61,2.03-1.6,2.49-.37,.17-.75,.26-1.14,.26ZM6.5,4.01c-1.26,0-2.37,.45-3.18,1.3-.89,.92-1.36,2.26-1.31,3.68,0,3.58,4.08,8.65,7.87,11.87,.27,.23,.54,.15,.68,.09,.21-.1,.44-.33,.44-.68V9c0-1.62-.73-2.7-.75-2.72-.76-1.37-2.19-2.23-3.75-2.27Z"/></svg>
