<?xml version="1.0" encoding="UTF-8"?>
<svg xmlns="http://www.w3.org/2000/svg" id="Layer_1" data-name="Layer 1" viewBox="0 0 24 24">
  <path d="m16.273,11.814c.378.402.359,1.035-.043,1.414l-3.046,2.867c-.569.562-1.325.844-2.084.844s-1.522-.283-2.104-.852l-1.186-1.041c-.415-.365-.455-.997-.091-1.411.367-.415.998-.455,1.411-.091l1.225,1.077c.427.414,1.057.415,1.44.033l3.062-2.884c.402-.377,1.034-.359,1.414.043Zm5.727-6.814c0,.553-.447,1-1,1h-1v13c0,2.757-2.243,5-5,5h-6c-2.757,0-5-2.243-5-5V6h-1c-.553,0-1-.447-1-1s.447-1,1-1h3.101c.465-2.279,2.485-4,4.899-4h2c2.414,0,4.435,1.721,4.899,4h3.101c.553,0,1,.447,1,1Zm-13.828-1h7.656c-.413-1.164-1.524-2-2.828-2h-2c-1.304,0-2.415.836-2.828,2Zm9.828,2H6v13c0,1.654,1.346,3,3,3h6c1.654,0,3-1.346,3-3V6Z"/>
</svg>
