<?xml version="1.0" encoding="UTF-8"?>
<svg xmlns="http://www.w3.org/2000/svg" id="Layer_1" data-name="Layer 1" viewBox="0 0 24 24" width="512" height="512"><path d="M12.004,.955c.05-.551,.544-.96,1.086-.906,4.912,.443,9.115,3.931,10.458,8.679,.15,.531-.158,1.084-.689,1.234-.091,.026-.183,.038-.273,.038-.436,0-.837-.287-.961-.728-1.119-3.956-4.621-6.862-8.714-7.231-.55-.05-.956-.536-.906-1.086Zm5.45,19.428c-1.623,1.058-3.509,1.617-5.454,1.617-5.211,0-9.492-3.908-9.959-9.09-.05-.55-.541-.954-1.086-.906-.55,.05-.956,.536-.906,1.086,.561,6.22,5.698,10.91,11.951,10.91,2.334,0,4.598-.672,6.546-1.941,.463-.302,.594-.921,.292-1.384s-.923-.592-1.384-.292ZM1.008,9.124L.008,1.124C-.03,.817,.074,.511,.293,.293,.511,.075,.82-.026,1.124,.008L9.124,1.008c.5,.062,.876,.488,.876,.992,0,3.589-4.411,8-8,8-.504,0-.93-.376-.992-.876ZM2.151,2.151l.716,5.721c2.053-.57,4.435-2.952,5.005-5.005l-5.721-.716ZM21,12c-.811,0-1.598,.335-2.16,.918-.384,.398-.372,1.031,.025,1.414,.398,.384,1.031,.372,1.414-.025,.19-.198,.446-.307,.721-.307,.552,0,1,.448,1,1s-.448,1-1,1h-6.091c.056-.157,.091-.324,.091-.5,0-.827-.673-1.5-1.5-1.5h-3.5c-.553,0-1,.447-1,1s.447,1,1,1h2.222c-.135,.28-.222,.614-.222,1s.087,.72,.222,1h-2.222c-.553,0-1,.447-1,1s.447,1,1,1h3.5c.827,0,1.5-.673,1.5-1.5,0-.176-.035-.343-.091-.5h6.091c1.654,0,3-1.346,3-3s-1.346-3-3-3Zm-3.727-2.651c-.349,.402-.844,.651-1.295,.651h-.007c-.424-.002-.82-.219-1.179-.643-.357-.42-.986-.474-1.41-.117-.421,.357-.474,.988-.117,1.41,.938,1.107,1.983,1.346,2.694,1.35h.019c1.029,0,2.077-.5,2.807-1.341,.361-.417,.316-1.049-.101-1.411-.418-.361-1.048-.316-1.411,.101Zm-7.999,0c-.43,.494-1.166,.849-1.845,.524-.501-.236-1.096-.024-1.333,.474-.237,.499-.025,1.096,.474,1.333,.473,.225,.947,.322,1.407,.322,1.123,0,2.15-.586,2.807-1.343,.362-.417,.317-1.049-.1-1.41-.417-.363-1.049-.319-1.41,.1Z"/></svg>
