<?xml version="1.0" encoding="UTF-8"?>
<svg xmlns="http://www.w3.org/2000/svg" id="Layer_1" data-name="Layer 1" viewBox="0 0 24 24" width="512" height="512"><path d="M19,0H5C2.24,0,0,2.24,0,5v14c0,2.76,2.24,5,5,5h14c2.76,0,5-2.24,5-5V5c0-2.76-2.24-5-5-5Zm3,19c0,1.65-1.35,3-3,3H5c-1.65,0-3-1.35-3-3V5c0-1.65,1.35-3,3-3h14c1.65,0,3,1.35,3,3v14Zm-2-13v12c0,1.1-.9,2-2,2H6c-1.1,0-2-.9-2-2V6c0-1.1,.9-2,2-2h2c.4,0,.77,.24,.92,.62,.16,.37,.07,.8-.22,1.09l-2.71,2.71v9.59h12V6h-3.67c-.26,0-.52,.11-.71,.29l-3.33,3.33c-.19,.19-.29,.44-.29,.71v3.67h4v-3c0-.55,.45-1,1-1s1,.45,1,1v3c0,1.1-.9,2-2,2h-4c-1.1,0-2-.9-2-2v-3.67c0-.8,.31-1.56,.88-2.12l3.33-3.33c.57-.57,1.32-.88,2.12-.88h3.67c1.1,0,2,.9,2,2Z"/></svg>
