<?xml version="1.0" encoding="UTF-8"?>
<svg xmlns="http://www.w3.org/2000/svg" id="Layer_1" data-name="Layer 1" viewBox="0 0 24 24" width="512" height="512"><path d="m20,0H4C1.794,0,0,1.794,0,4v12c0,2.206,1.794,4,4,4h2.923l3.748,3.156c.382.34.862.509,1.338.509.467,0,.931-.163,1.292-.485l3.847-3.18h2.852c2.206,0,4-1.794,4-4V4c0-2.206-1.794-4-4-4Zm2,16c0,1.103-.897,2-2,2h-3.211c-.232,0-.458.081-.637.229l-4.172,3.415-4.047-3.409c-.18-.152-.408-.235-.644-.235h-3.289c-1.103,0-2-.897-2-2V4c0-1.103.897-2,2-2h16c1.103,0,2,.897,2,2v12Zm-5.293-7.588c.391.391.391,1.023,0,1.414s-1.023.391-1.414,0l-2.293-2.293v7.467c0,.553-.448,1-1,1s-1-.447-1-1v-7.367l-2.293,2.293c-.195.195-.451.293-.707.293s-.512-.098-.707-.293c-.391-.391-.391-1.023,0-1.414l2.636-2.637c1.17-1.17,3.072-1.17,4.242,0l2.536,2.536Z"/></svg>
