<?xml version="1.0" encoding="UTF-8"?>
<svg xmlns="http://www.w3.org/2000/svg" id="Layer_1" data-name="Layer 1" viewBox="0 0 24 24">
  <path d="m22.499,6.285c-.396-.387-1.029-.378-1.414.016-.387.396-.379,1.028.016,1.414.597.583.899,1.184.899,1.785,0,2.129-4.106,4.5-10,4.5S2,11.629,2,9.5s4.106-4.5,10-4.5c.641,0,1.283.029,1.908.087.566.054,1.037-.354,1.088-.904.05-.55-.354-1.037-.904-1.088-.687-.062-1.391-.095-2.092-.095C5.271,3,0,5.855,0,9.5v8c0,3.645,5.271,6.5,12,6.5s12-2.855,12-6.5v-8c0-1.144-.52-2.256-1.501-3.215Zm-11.499,15.691c-1.477-.069-2.824-.288-4-.611v-5.936c1.23.298,2.576.488,4,.549v5.998Zm2-5.998c1.424-.061,2.77-.251,4-.549v5.936c-1.176.323-2.523.542-4,.611v-5.998Zm-11,1.522v-4.361c.802.654,1.819,1.22,3,1.673v5.835c-1.891-.87-3-2.042-3-3.147Zm17,3.147v-5.835c1.181-.453,2.198-1.019,3-1.673v4.361c0,1.106-1.109,2.277-3,3.147Zm-6.707-11.392L22.306.256c.41-.367,1.041-.337,1.413.075.369.411.335,1.044-.075,1.413l-10.013,9c-.191.171-.431.256-.669.256-.273,0-.546-.111-.744-.331-.369-.411-.335-1.044.075-1.413Z"/>
</svg>
