<?xml version="1.0" encoding="UTF-8"?>
<svg xmlns="http://www.w3.org/2000/svg" id="Layer_1" data-name="Layer 1" viewBox="0 0 24 24">
  <path d="m12,0C5.373,0,0,5.373,0,12s5.373,12,12,12,12-5.373,12-12S18.627,0,12,0Zm1.409,2.1c2.683.38,5.027,1.828,6.586,3.9h-8.962s2.377-3.9,2.377-3.9Zm.783,5.899l2.433,4.005-2.436,3.996h-4.445l-2.308-4.101,2.378-3.901h4.378Zm-3.088-5.957l-4.792,7.861-2.242-3.984c1.658-2.157,4.175-3.621,7.034-3.876ZM2.836,16c-.537-1.226-.836-2.578-.836-4,0-1.464.316-2.856.885-4.111l4.565,8.111H2.836Zm7.755,5.9c-2.683-.38-5.027-1.829-6.586-3.9h8.964l-2.378,3.9Zm2.306.059l4.896-8.031,2.35,3.87c-1.651,2.313-4.262,3.895-7.246,4.162Zm3.634-13.96h4.633c.537,1.226.836,2.579.836,4.001,0,1.337-.264,2.613-.743,3.78l-4.726-7.78Z"/>
</svg>
