<?xml version="1.0" encoding="UTF-8"?>
<svg xmlns="http://www.w3.org/2000/svg" id="Layer_1" data-name="Layer 1" viewBox="0 0 24 24" width="512" height="512"><path d="m7,10v-1c0-.552.447-1,1-1s1,.448,1,1v1c0,.552-.447,1-1,1s-1-.448-1-1Zm3,3h-2c-.553,0-1,.448-1,1v2c0,.552.447,1,1,1h2c.553,0,1-.448,1-1v-2c0-.552-.447-1-1-1Zm2-5c-.553,0-1,.448-1,1v1c0,.552.447,1,1,1s1-.448,1-1v-1c0-.552-.447-1-1-1Zm11,15c0,.552-.447,1-1,1H2c-.553,0-1-.448-1-1s.447-1,1-1h1V7.09c0-2.264,1.694-4.184,3.941-4.465l4.059-.507v-1.117c0-.552.447-1,1-1s1,.448,1,1v1.117l4.059.507c2.247.281,3.941,2.201,3.941,4.465v14.91h1c.553,0,1,.448,1,1Zm-4-15.91c0-.389-.09-.759-.251-1.09H5.251c-.161.331-.251.701-.251,1.09v14.91h14V7.09Zm-3,.91c-.553,0-1,.448-1,1v1c0,.552.447,1,1,1s1-.448,1-1v-1c0-.552-.447-1-1-1Z"/></svg>
