<?xml version="1.0" encoding="UTF-8"?>
<svg xmlns="http://www.w3.org/2000/svg" id="Layer_1" data-name="Layer 1" viewBox="0 0 24 24" width="512" height="512"><path d="M23.182,16.364c-1.812,4.639-6.2,7.636-11.182,7.636C5.379,24-.004,18.617-.004,12S5.379,0,11.996,0c3.597,0,6.97,1.59,9.261,4.363,.352,.426,.291,1.056-.135,1.408-.427,.353-1.056,.292-1.408-.134-1.908-2.311-4.72-3.637-7.714-3.637C6.482,2,1.996,6.486,1.996,12s4.486,10,10,10c4.155,0,7.813-2.498,9.322-6.364,.201-.515,.782-.768,1.295-.568,.515,.201,.77,.781,.568,1.295Zm-13.185-6.864c0-.828-.672-1.5-1.5-1.5s-1.5,.672-1.5,1.5,.672,1.5,1.5,1.5,1.5-.672,1.5-1.5Zm5.5,1.5c.828,0,1.5-.672,1.5-1.5s-.672-1.5-1.5-1.5-1.5,.672-1.5,1.5,.672,1.5,1.5,1.5Zm-1.417,3.316c-.643-.188-1.343-.316-2.084-.316-3.107,0-5.563,2.162-5.666,2.254-.411,.367-.446,.997-.08,1.409,.197,.222,.472,.335,.747,.335,.236,0,.473-.083,.663-.251,.02-.018,2.005-1.748,4.336-1.748,1.499,0,2.854,.715,3.637,1.23,.428,.282,.991,.247,1.367-.102l1.162-1.077-.819-.939c-.365-.414-.325-1.046,.089-1.411,.414-.365,1.046-.325,1.411,.089l.819,.939,1.646-1.45-.834-.956c-.365-.414-.325-1.046,.089-1.411,.414-.365,1.046-.325,1.411,.089l.834,.956,.435-.383c.747-.658,.988-1.779,.457-2.622-.677-1.074-2.112-1.251-3.024-.448l-6.598,5.81Z"/></svg>
