<?xml version="1.0" encoding="UTF-8"?>
<svg xmlns="http://www.w3.org/2000/svg" id="Layer_1" data-name="Layer 1" viewBox="0 0 24 24">
  <path d="m22.065,9.002c-1.008-3.392-3.675-6.059-7.067-7.067-.035-1.073-.917-1.935-1.998-1.935h-2c-1.081,0-1.964.862-1.998,1.935-3.392,1.008-6.059,3.675-7.067,7.067-1.073.035-1.935.917-1.935,1.998v2c0,1.081.862,1.964,1.935,1.998,1.008,3.392,3.675,6.059,7.067,7.067.035,1.073.917,1.935,1.998,1.935h2c1.081,0,1.964-.862,1.998-1.935,3.392-1.008,6.059-3.675,7.067-7.067,1.073-.035,1.935-.917,1.935-1.998v-2c0-1.081-.862-1.964-1.935-1.998ZM11,2h2v2s-2,0-2,0v-2Zm-7,11h-2v-2h2s0,2,0,2Zm7,9v-2h2v2s-2,0-2,0Zm8.956-7.001c-.86,2.285-2.672,4.097-4.957,4.957-.023-1.083-.911-1.956-1.999-1.956h-2c-1.088,0-1.976.873-1.999,1.956-2.285-.86-4.097-2.672-4.957-4.957,1.083-.023,1.956-.911,1.956-1.999v-2c0-1.088-.873-1.976-1.956-1.999.86-2.285,2.672-4.097,4.957-4.957.023,1.083.911,1.956,1.999,1.956h2c1.088,0,1.976-.873,1.999-1.956,2.285.86,4.097,2.672,4.957,4.957-1.083.023-1.956.911-1.956,1.999v2c0,1.088.873,1.976,1.956,1.999Zm2.044-1.999h-2v-2h2s0,2,0,2Z"/>
</svg>
