<?xml version="1.0" encoding="UTF-8"?>
<svg xmlns="http://www.w3.org/2000/svg" id="Layer_1" data-name="Layer 1" viewBox="0 0 24 24" width="512" height="512"><path d="M22.943,3.714c-.673-.572-1.562-.817-2.439-.674-.216,.035-.421,.102-.618,.184-.344-1.277-1.501-2.224-2.886-2.224-.537,0-1.034,.153-1.471,.401-.532-.839-1.464-1.401-2.529-1.401-1.385,0-2.542,.948-2.886,2.225-.198-.082-.402-.149-.618-.185-.878-.143-1.768,.103-2.439,.674-.672,.571-1.057,1.404-1.057,2.286V13.699l-.955-.891c-1.207-1.129-3.107-1.064-4.235,.143-1.129,1.208-1.066,3.11,.129,4.231l4.457,4.297c1.687,1.626,3.905,2.521,6.247,2.521h7.357c2.757,0,5-2.243,5-5V6c0-.881-.385-1.714-1.057-2.286Zm-.943,15.286c0,1.654-1.346,3-3,3h-7.357c-1.821,0-3.547-.696-4.858-1.96L2.317,15.733c-.403-.377-.424-1.013-.047-1.417,.182-.194,.429-.306,.694-.315,.288,.003,.521,.087,.715,.269l2.638,2.462c.292,.272,.718,.343,1.081,.186,.365-.159,.602-.519,.602-.917V5c0-.294,.129-.572,.353-.762,.228-.193,.52-.272,.822-.224,.463,.076,.825,.556,.825,1.093v4.893c0,.552,.447,1,1,1s1-.448,1-1V3c0-.551,.448-1,1-1s1,.449,1,1v7c0,.552,.447,1,1,1s1-.448,1-1V4c0-.551,.448-1,1-1s1,.449,1,1v6c0,.552,.447,1,1,1s1-.448,1-1v-3.893c0-.538,.362-1.018,.824-1.093,.302-.048,.596,.031,.823,.224,.224,.19,.353,.468,.353,.762v13Zm-3-3.8c0,1.73-2.256,3.68-3.38,4.582-.362,.29-.879,.29-1.24,0-1.123-.902-3.38-2.852-3.38-4.582,0-1.215,.895-2.2,2-2.2s2,.985,2,2.2c0-1.215,.895-2.2,2-2.2s2,.985,2,2.2Z"/></svg>
