<?xml version="1.0" encoding="UTF-8"?>
<svg xmlns="http://www.w3.org/2000/svg" id="Layer_1" data-name="Layer 1" viewBox="0 0 24 24" width="512" height="512"><path d="m14,5c0-.552.447-1,1-1h3V1c0-.552.447-1,1-1s1,.448,1,1v3h3c.553,0,1,.448,1,1s-.447,1-1,1h-3v3c0,.552-.447,1-1,1s-1-.448-1-1v-3h-3c-.553,0-1-.448-1-1Zm9.094,11.74c1.206,1.207,1.206,3.17,0,4.376l-.912,1.05c-1.194,1.2-2.748,1.833-4.421,1.833C10.126,24,0,13.874,0,6.238c0-1.673.634-3.227,1.784-4.375l1.149-1.003c1.155-1.16,3.121-1.161,4.327.047.031.031,1.883,2.438,1.883,2.438,1.142,1.196,1.14,3.089-.006,4.281l-1.159,1.456c1.458,3.309,3.733,5.589,6.932,6.947l1.464-1.165c1.193-1.147,3.087-1.148,4.282-.007,0,0,2.407,1.853,2.438,1.883Zm-1.376,1.454s-2.395-1.842-2.425-1.873c-.414-.414-1.135-.414-1.549,0-.026.027-2.044,1.635-2.044,1.635-.276.22-.651.277-.979.151-4.141-1.58-7.108-4.544-8.821-8.812-.134-.334-.079-.714.146-.995,0,0,1.607-2.018,1.635-2.044.427-.427.427-1.122,0-1.549-.03-.03-1.872-2.423-1.872-2.423-.208-.188-.472-.283-.734-.283-.281,0-.562.107-.775.32l-1.15,1.005c-.722.724-1.146,1.774-1.146,2.913,0,6.957,9.772,15.762,15.762,15.762,1.138,0,2.188-.425,2.959-1.197l.912-1.05c.459-.463.473-1.13.085-1.56Z"/></svg>
