<?xml version="1.0" encoding="UTF-8"?>
<svg xmlns="http://www.w3.org/2000/svg" id="Layer_1" data-name="Layer 1" viewBox="0 0 24 24" width="512" height="512"><path d="m18.574,2.126L12.315.051c-.205-.068-.425-.068-.63,0l-6.259,2.075c-2.049.68-3.426,2.587-3.426,4.746v5.171c0,6.562,7.005,10.576,9.153,11.65l.403.201c.14.07.293.105.447.105.126,0,.253-.024.373-.072l.417-.168c2.16-.868,9.207-4.28,9.207-11.717v-5.171c0-2.159-1.377-4.066-3.426-4.746Zm1.426,9.917c0,6.183-6.087,9.111-7.953,9.861-1.888-.944-8.047-4.445-8.047-9.861v-5.171c0-1.295.826-2.439,2.056-2.848l5.944-1.971,5.944,1.971c1.23.408,2.056,1.553,2.056,2.848v5.171Zm-3.583-4.045c.028.002.055.002.083.002.828,0,1.5-.672,1.5-1.5s-.672-1.5-1.5-1.5-1.5.672-1.5,1.5c0,.028,0,.056.002.083l-.608.608c-.423-.267-.893-.465-1.394-.579v-.612c0-.553-.448-1-1-1s-1,.447-1,1v.612c-.502.114-.972.313-1.394.579l-.608-.608c.002-.028.002-.055.002-.083,0-.828-.672-1.5-1.5-1.5s-1.5.672-1.5,1.5.672,1.5,1.5,1.5c.028,0,.056,0,.083-.002l.608.608c-.267.423-.465.893-.579,1.394h-.612c-.552,0-1,.447-1,1s.448,1,1,1h.612c.114.502.313.972.579,1.394l-.608.608c-.028-.002-.055-.002-.083-.002-.828,0-1.5.672-1.5,1.5s.672,1.5,1.5,1.5,1.5-.672,1.5-1.5c0-.028,0-.056-.002-.083l.608-.608c.423.267.893.465,1.394.579v.612c0,.553.448,1,1,1s1-.447,1-1v-.612c.502-.114.972-.313,1.394-.579l.608.608c-.002.028-.002.055-.002.083,0,.828.672,1.5,1.5,1.5s1.5-.672,1.5-1.5-.672-1.5-1.5-1.5c-.028,0-.056,0-.083.002l-.608-.608c.267-.423.465-.893.579-1.394h.612c.552,0,1-.447,1-1s-.448-1-1-1h-.612c-.114-.502-.313-.972-.579-1.394l.608-.608Zm-4.417,5.502c-1.378,0-2.5-1.121-2.5-2.5s1.122-2.5,2.5-2.5,2.5,1.121,2.5,2.5-1.122,2.5-2.5,2.5Z"/></svg>
