<?xml version="1.0" encoding="UTF-8"?>
<svg xmlns="http://www.w3.org/2000/svg" id="Layer_1" data-name="Layer 1" viewBox="0 0 24 24" width="512" height="512"><path d="m21.499,2.501c-1.612-1.613-3.757-2.501-6.037-2.501s-4.425.888-6.038,2.501c-2.377,2.377-3.156,7.909-3.41,10.995-.073.884.136,1.754.582,2.495l-3.783,3.783c-.256-.461-.748-.774-1.312-.774-.828,0-1.5.672-1.5,1.5s.672,1.5,1.5,1.5c.231,0,.45-.052.646-.146-.093.196-.146.415-.146.646,0,.828.672,1.5,1.5,1.5s1.5-.672,1.5-1.5c0-.565-.312-1.057-.773-1.312l3.784-3.783c.644.388,1.385.594,2.148.596,1.111.003,3.299-.306,5.115-.69.51-.108.852-.59.785-1.107-.03-.229-.051-.462-.051-.7,0-3.434,3.137-6.183,6.737-5.354.282.064.58.005.813-.167.234-.171.383-.435.407-.724.212-2.515-.688-4.978-2.467-6.757Zm-7.491,13.002v.017c-1.409.255-2.737.396-3.668.473-.634.047-1.26-.175-1.709-.624-.448-.448-.676-1.071-.623-1.71.387-4.715,1.444-8.358,2.83-9.744,1.235-1.235,2.877-1.915,4.624-1.915s3.389.68,4.623,1.915c1.107,1.108,1.77,2.562,1.892,4.103-4.348-.287-7.969,3.194-7.969,7.485Z"/></svg>
