<?xml version="1.0" encoding="UTF-8"?>
<svg xmlns="http://www.w3.org/2000/svg" id="Layer_1" data-name="Layer 1" viewBox="0 0 24 24" width="512" height="512"><path d="m23.254,2.027c-.579-.664-1.439-1.004-2.313-1.027-.489.006-.957.142-1.37.376-.043-.067-.088-.132-.136-.196-.486-.637-1.191-1.046-1.986-1.153-1.644-.219-3.15.936-3.37,2.562l-.461,3.141-1.244-3.69c-.257-.759-.793-1.374-1.512-1.729-.719-.356-1.531-.41-2.291-.153-.935.316-1.612,1.051-1.894,1.925-.286-.07-.585-.098-.889-.075-.889.068-1.695.516-2.213,1.229-.519.713-.697,1.614-.472,2.533l2.303,7.378-.36-.34c-.585-.546-1.326-.844-2.147-.806-.8.027-1.541.364-2.088.949-1.129,1.208-1.066,3.11.129,4.231l4.457,4.297c1.687,1.626,3.905,2.521,6.247,2.521h4.475c2.998,0,5.555-2.241,5.948-5.214l1.896-14.342c.13-.872-.128-1.752-.707-2.417Zm-1.273,2.138l-1.897,14.358c-.263,1.982-1.968,3.476-3.966,3.476h-4.475c-1.821,0-3.547-.696-4.858-1.96l-4.467-4.307c-.403-.377-.424-1.013-.047-1.417.376-.401,1.008-.422,1.405-.051l3.138,2.962c.33.312.829.362,1.217.121.386-.241.56-.712.424-1.146l-3.426-10.965c-.069-.286-.01-.586.163-.824.176-.241.441-.387.748-.411.396-.03.794.242.981.647l1.91,5.669c.141.417.529.681.947.681.105,0,.214-.017.319-.053.523-.176.805-.744.628-1.267l-2.143-6.359c-.177-.523.104-1.091.627-1.268.255-.086.526-.066.764.051.239.119.418.323.504.575l2.575,7.64c.147.439.582.716,1.037.677.46-.042.832-.394.899-.851l1.068-7.278c.074-.546.576-.931,1.124-.858.265.036.5.172.661.384.162.212.232.475.199.722l-1.029,6.733c-.084.546.291,1.056.837,1.139.558.088,1.057-.291,1.14-.837,0,0,.983-6.078,1-6.192.079-.532.509-.953.977-.959.324,0,.585.118.78.342.194.222.28.516.234.823Z"/></svg>
