<?xml version="1.0" encoding="UTF-8"?>
<svg xmlns="http://www.w3.org/2000/svg" id="Layer_1" data-name="Layer 1" viewBox="0 0 24 24" width="512" height="512"><path d="m16,7.5c0,.828-.672,1.5-1.5,1.5s-1.5-.672-1.5-1.5.672-1.5,1.5-1.5,1.5.672,1.5,1.5Zm-2.5,4.5c-.828,0-1.5.672-1.5,1.5s.672,1.5,1.5,1.5,1.5-.672,1.5-1.5-.672-1.5-1.5-1.5Zm-6,1c-.828,0-1.5.672-1.5,1.5s.672,1.5,1.5,1.5,1.5-.672,1.5-1.5-.672-1.5-1.5-1.5Zm16.5-4c0,.552-.448,1-1,1h-1.328c-.085.556-.239,1.095-.457,1.607l1.141.693c.472.287.622.902.335,1.374-.188.31-.518.48-.855.48-.177,0-.356-.047-.519-.146l-1.153-.701c-.121.143-.248.282-.382.416l-.779.779,1.231,1.232c.391.391.391,1.024,0,1.414-.195.195-.451.293-.707.293s-.512-.098-.707-.293l-1.231-1.232-1.672,1.672,1.231,1.231c.391.39.391,1.023,0,1.414-.195.195-.451.293-.707.293s-.512-.098-.707-.293l-1.231-1.231-.779.779c-.134.134-.273.261-.416.382l.701,1.153c.287.472.137,1.087-.335,1.374-.163.099-.342.146-.519.146-.338,0-.667-.171-.855-.48l-.693-1.14c-.512.218-1.051.372-1.607.457v1.328c0,.552-.448,1-1,1s-1-.448-1-1v-1.319c-.554-.08-1.092-.227-1.603-.439l-.641,1.074c-.187.313-.519.487-.859.487-.174,0-.351-.045-.512-.142-.474-.283-.629-.897-.346-1.371l.647-1.083c-.161-.134-.317-.276-.467-.426-.215-.215-.412-.441-.591-.676l-1.161.629c-.151.082-.314.121-.475.121-.355,0-.699-.189-.88-.524-.263-.485-.083-1.092.403-1.355l1.151-.624c-.161-.44-.276-.893-.342-1.352H1C.448,16,0,15.552,0,15s.448-1,1-1h1.333c.083-.538.231-1.068.444-1.577l-1.147-.69c-.473-.285-.626-.899-.341-1.373.285-.474.898-.627,1.373-.341l1.157.696c.126-.15.259-.297.401-.438l.779-.779-1.021-1.021c-.391-.391-.391-1.023,0-1.414s1.023-.391,1.414,0l1.021,1.021,1.672-1.672-1.021-1.021c-.391-.391-.391-1.023,0-1.414s1.023-.391,1.414,0l1.021,1.021.779-.779c.141-.141.287-.275.438-.401l-.696-1.157c-.285-.473-.132-1.088.341-1.373.474-.286,1.087-.132,1.373.341l.688,1.144c.503-.212,1.033-.362,1.579-.445v-1.329c0-.552.448-1,1-1s1,.448,1,1v1.32c.484.07.956.191,1.408.362l.633-1.168c.264-.485.871-.666,1.355-.403.486.263.667.87.403,1.355l-.648,1.196c.219.171.43.357.629.557.158.158.307.323.447.493l1.127-.673c.473-.285,1.088-.129,1.371.346.283.474.128,1.088-.346,1.371l-1.127.673c.205.502.348,1.028.426,1.571h1.32c.552,0,1,.448,1,1Zm-5.633,3.31c.892-.892,1.383-2.078,1.383-3.338s-.491-2.446-1.383-3.338c-.892-.892-2.078-1.383-3.338-1.383s-2.447.491-3.338,1.382l-6.058,6.058c-1.84,1.841-1.84,4.836,0,6.677.892.892,2.078,1.383,3.339,1.383s2.447-.491,3.338-1.383l6.057-6.058Z"/></svg>
