<?xml version="1.0" encoding="UTF-8"?>
<svg xmlns="http://www.w3.org/2000/svg" id="Layer_1" data-name="Layer 1" viewBox="0 0 24 24" width="512" height="512"><path d="m15.162,24.009h-.008c-.747-.004-1.347-.538-1.425-1.271l-1.729-15.956-1.729,15.957c-.078.731-.678,1.266-1.425,1.27h-.008c-.743,0-1.344-.527-1.43-1.257l-1.72-13.812-1.294,9.845c-.09.688-.643,1.192-1.346,1.228-.7.033-1.307-.415-1.464-1.093L.026,12.227c-.126-.538.209-1.075.747-1.2.537-.123,1.075.209,1.2.747l.848,3.638,1.47-11.184c.088-.709.683-1.228,1.413-1.228h.004c.732.003,1.326.524,1.411,1.241l1.681,13.504L10.584,1.287c.079-.729.675-1.256,1.416-1.256s1.337.527,1.416,1.255l1.784,16.459,1.682-13.51c.084-.711.678-1.232,1.41-1.235h.004c.73,0,1.325.519,1.414,1.233l1.469,11.178.848-3.638c.125-.538.664-.878,1.2-.747.538.125.873.662.747,1.2l-1.559,6.693c-.156.678-.769,1.128-1.464,1.093-.703-.035-1.256-.54-1.346-1.228l-1.294-9.845-1.721,13.819c-.085.722-.686,1.249-1.429,1.249Z"/></svg>
