<?xml version="1.0" encoding="UTF-8"?>
<svg xmlns="http://www.w3.org/2000/svg" id="Layer_1" data-name="Layer 1" viewBox="0 0 24 24" width="512" height="512"><path d="M21.17,19.76c.52-.79,.83-1.74,.83-2.76,0-2.76-2.24-5-5-5s-5,2.24-5,5,2.24,5,5,5c1.02,0,1.97-.31,2.76-.83l2.54,2.54c.2,.2,.45,.29,.71,.29s.51-.1,.71-.29c.39-.39,.39-1.02,0-1.41l-2.54-2.54Zm-7.17-2.76c0-1.65,1.35-3,3-3s3,1.35,3,3-1.35,3-3,3-3-1.35-3-3Zm5-11v-2c0-2.21-1.79-4-4-4h-6c-2.21,0-4,1.79-4,4v2C2.24,6,0,8.24,0,11v5c0,2.76,2.24,5,5,5,0,1.65,1.35,3,3,3h5c.55,0,1-.45,1-1s-.45-1-1-1h-5c-.55,0-1-.45-1-1v-4c0-.55,.45-1,1-1h1c.55,0,1-.45,1-1s-.45-1-1-1h-1c-1.65,0-3,1.35-3,3v2c-1.65,0-3-1.35-3-3v-5c0-1.65,1.35-3,3-3h14c1.65,0,3,1.35,3,3v1c0,.55,.45,1,1,1s1-.45,1-1v-1c0-2.76-2.24-5-5-5ZM7,4c0-1.1,.9-2,2-2h6c1.1,0,2,.9,2,2v2H7v-2Z"/></svg>
