<?xml version="1.0" encoding="UTF-8"?>
<svg xmlns="http://www.w3.org/2000/svg" id="Layer_1" data-name="Layer 1" viewBox="0 0 24 24">
  <path d="m8.684,23.485c-.183.329-.523.515-.875.515-.164,0-.331-.04-.485-.126C2.669,21.288,0,16.96,0,12,0,5.383,5.383,0,12,0c.731,0,1.465.066,2.181.198.543.1.903.621.803,1.164-.1.544-.622.905-1.164.803-.597-.109-1.208-.165-1.819-.165C6.486,2,2,6.486,2,12c0,4.213,2.294,7.903,6.295,10.126.482.269.657.877.388,1.359Zm15.119-13.666c-.099-.543-.618-.907-1.164-.803-.543.1-.903.621-.803,1.164.109.595.165,1.207.165,1.819,0,3.309-2.691,6-6,6s-6-2.691-6-6c0-.553-.448-1-1-1s-1,.447-1,1c0,4.411,3.589,8,8,8s8-3.589,8-8c0-.733-.066-1.467-.198-2.181Zm-10.63-3.233L18.879.879c1.133-1.133,3.109-1.133,4.243,0,1.169,1.17,1.169,3.072,0,4.242l-5.707,5.707c-.755.756-1.76,1.172-2.828,1.172h-1.586c-.552,0-1-.447-1-1v-1.586c0-1.068.417-2.073,1.172-2.828Zm.828,3.414h.586c.526,0,1.042-.214,1.414-.586l5.707-5.707c.39-.39.39-1.024,0-1.414-.378-.379-1.037-.379-1.414,0l-5.708,5.707c-.378.378-.586.88-.586,1.414v.586Z"/>
</svg>
