<?xml version="1.0" encoding="UTF-8"?>
<svg xmlns="http://www.w3.org/2000/svg" id="Layer_1" data-name="Layer 1" viewBox="0 0 24 24" width="512" height="512"><path d="m19.5,0h-7c-2.481,0-4.5,2.019-4.5,4.5v11c0,1.93,1.57,3.5,3.5,3.5h8c2.481,0,4.5-2.019,4.5-4.5V4.5c0-2.481-2.019-4.5-4.5-4.5Zm-7,2h7c1.378,0,2.5,1.121,2.5,2.5v7.5h-10.5c-.536,0-1.045.122-1.5.338v-7.838c0-1.379,1.122-2.5,2.5-2.5Zm7,15h-8c-.827,0-1.5-.673-1.5-1.5s.673-1.5,1.5-1.5h10.5v.5c0,1.379-1.122,2.5-2.5,2.5Zm-4.837,4.3c.387.395.381,1.027-.014,1.414-.846.829-1.964,1.286-3.149,1.286H3.5c-1.93,0-3.5-1.57-3.5-3.5v-11c0-2.481,2.019-4.5,4.5-4.5h.5c.552,0,1,.447,1,1s-.448,1-1,1h-.5c-1.378,0-2.5,1.121-2.5,2.5v7.838c.455-.217.964-.338,1.5-.338h1.5c.552,0,1,.447,1,1s-.448,1-1,1h-1.5c-.827,0-1.5.673-1.5,1.5s.673,1.5,1.5,1.5h8c.658,0,1.28-.254,1.749-.714.395-.388,1.027-.38,1.414.014Z"/></svg>
