<?xml version="1.0" encoding="UTF-8"?>
<svg xmlns="http://www.w3.org/2000/svg" id="Layer_1" data-name="Layer 1" viewBox="0 0 24 24" width="512" height="512"><path d="m21.257,2.743C17.048-1.465,9.474-.731,4.372,4.372-.732,9.477-1.463,17.051,2.743,21.257c1.838,1.838,4.318,2.733,6.954,2.733,3.398,0,7.057-1.488,9.931-4.362,5.104-5.104,5.835-12.679,1.629-16.885Zm-15.471,3.043c2.49-2.489,5.636-3.788,8.512-3.788,1.93,0,3.739.586,5.145,1.79-.261,1.264-1.568,5.329-7.741,7.258-5.622,1.757-7.818,5.141-8.669,7.328-2.051-3.561-1.01-8.824,2.753-12.587Zm12.428,12.428c-4.161,4.159-10.155,4.995-13.657,1.998.261-1.265,1.569-5.328,7.741-7.258,5.622-1.757,7.818-5.141,8.669-7.328,2.051,3.561,1.01,8.824-2.753,12.587Z"/></svg>
