<?xml version="1.0" encoding="UTF-8"?>
<svg xmlns="http://www.w3.org/2000/svg" id="Layer_1" data-name="Layer 1" viewBox="0 0 24 24" width="512" height="512"><path d="m23.555,2.168l-.732-.488c-1.648-1.099-3.566-1.68-5.547-1.68h-4.775c-1.93,0-3.5,1.57-3.5,3.5v2.793c-2.978,1.209-5,4.158-5,7.417v5.29c0,2.757,2.243,5,5,5h6c2.757,0,5-2.243,5-5v-5.29c0-3.259-2.022-6.208-5-7.417V2h2.275c1.584,0,3.118.465,4.438,1.344l.732.488c.46.305,1.08.182,1.387-.277.307-.46.183-1.08-.277-1.387Zm-12.555,1.332c0-.827.673-1.5,1.5-1.5h.5v4h-2v-2.5Zm7,10.21v5.29c0,1.654-1.346,3-3,3h-6c-1.654,0-3-1.346-3-3v-5.29c0-2.589,1.699-4.916,4.151-5.71h3.699c2.451.794,4.151,3.121,4.151,5.71Zm-3,.29c.553,0,1,.447,1,1s-.447,1-1,1h-2v2c0,.553-.447,1-1,1s-1-.447-1-1v-2h-2c-.553,0-1-.447-1-1s.447-1,1-1h2v-2c0-.553.447-1,1-1s1,.447,1,1v2h2Z"/></svg>
