<?xml version="1.0" encoding="UTF-8"?>
<svg xmlns="http://www.w3.org/2000/svg" id="Layer_1" data-name="Layer 1" viewBox="0 0 24 24" width="512" height="512"><path d="m18,9.5c0-2.481-2.019-4.5-4.5-4.5h-3.5c-2.206,0-4,1.794-4,4v9c0,.553.447,1,1,1s1-.447,1-1v-4h5.382l2.224,4.447c.176.351.528.553.896.553.15,0,.303-.034.446-.105.494-.247.694-.848.447-1.342l-1.988-3.977c1.531-.719,2.594-2.275,2.594-4.076Zm-4.5,2.5h-5.5v-3c0-1.103.897-2,2-2h3.5c1.379,0,2.5,1.122,2.5,2.5s-1.121,2.5-2.5,2.5ZM19,0H5C2.243,0,0,2.243,0,5v14c0,2.757,2.243,5,5,5h14c2.757,0,5-2.243,5-5V5c0-2.757-2.243-5-5-5Zm3,19c0,1.654-1.346,3-3,3H5c-1.654,0-3-1.346-3-3V5c0-1.654,1.346-3,3-3h14c1.654,0,3,1.346,3,3v14Z"/></svg>
