<?xml version="1.0" encoding="UTF-8"?>
<svg xmlns="http://www.w3.org/2000/svg" id="Layer_1" data-name="Layer 1" viewBox="0 0 24 24" width="512" height="512"><path d="M12,0C5.383,0,0,5.383,0,12c0,1.11,.152,2.211,.452,3.271,.15,.532,.704,.846,1.234,.69,.531-.149,.84-.702,.69-1.233-.25-.885-.376-1.803-.376-2.729,0-.243,.019-.481,.036-.719l1.964,2.112v4.64c0,1.724,.9,3.349,2.349,4.24,1.276,.788,3.292,1.727,5.651,1.727s4.375-.938,5.65-1.726c1.449-.893,2.35-2.518,2.35-4.241v-4.634l1.966-2.074c.015,.224,.034,.447,.034,.675,0,.926-.126,1.844-.376,2.729-.15,.531,.159,1.084,.69,1.233,.091,.026,.183,.038,.272,.038,.437,0,.837-.287,.962-.729,.3-1.061,.452-2.161,.452-3.271C24,5.383,18.617,0,12,0Zm6,18.033c0,1.034-.536,2.007-1.399,2.539-1.056,.651-2.712,1.428-4.601,1.428s-3.545-.776-4.602-1.429c-.863-.531-1.398-1.504-1.398-2.538v-4.033h12v4.033Zm.57-6.033H5.435l-2.922-3.143C3.835,4.88,7.584,2,12,2s8.197,2.902,9.504,6.905l-2.934,3.095Zm-7.589-5.196c.108,.542-.243,1.068-.784,1.177-1.161,.232-2.356,.859-3.553,1.865-.188,.157-.416,.234-.643,.234-.285,0-.568-.121-.766-.356-.355-.423-.3-1.054,.122-1.409,1.457-1.225,2.953-1.996,4.447-2.295,.542-.114,1.068,.242,1.177,.784Zm7.663,1.511c.422,.355,.478,.986,.122,1.409-.198,.235-.481,.356-.766,.356-.227,0-.456-.077-.643-.234-1.196-1.006-2.392-1.633-3.553-1.865-.542-.108-.893-.635-.784-1.177,.108-.542,.633-.897,1.177-.784,1.494,.299,2.99,1.07,4.447,2.295Z"/></svg>
