<?xml version="1.0" encoding="UTF-8"?>
<svg xmlns="http://www.w3.org/2000/svg" id="Layer_1" data-name="Layer 1" viewBox="0 0 24 24" width="512" height="512"><path d="m23,22h-.15l-5.726-14.228c-.104-.259-.1-.549.011-.804,0,0,2.595-3.808,2.616-3.848.366-.732.29-1.595-.2-2.252-.49-.657-1.295-.976-2.168-.82l-3.096.768c-3.082.544-5.619,2.602-6.786,5.504L1.15,22h-.15c-.552,0-1,.448-1,1s.448,1,1,1h22c.552,0,1-.448,1-1s-.448-1-1-1ZM9.356,7.069c.908-2.259,2.881-3.86,5.345-4.297l3.095-.768c.023-.006.094-.017.151.06.037.049.037.093.029.125,0,0-2.586,3.794-2.606,3.835-.389.778-.426,1.688-.101,2.496l5.425,13.481H3.308l6.048-14.931Zm7.644,10.883c.005.307-.176.586-.459.705l-1.318.556-.526,1.316c-.114.285-.39.472-.697.472s-.583-.187-.697-.472l-.523-1.308-1.308-.523c-.285-.114-.472-.39-.472-.697s.187-.583.472-.697l1.308-.523.523-1.308c.114-.285.39-.472.697-.472s.583.187.697.472l.52,1.301,1.299.492c.287.108.479.381.484.687Zm-6.08-4.345l-.436-1.09-1.09-.436c-.237-.095-.393-.325-.393-.58s.156-.486.393-.58l1.09-.436.436-1.09c.095-.237.325-.393.58-.393s.486.156.58.393l.433,1.084,1.082.41c.239.09.399.317.404.573.005.256-.147.488-.382.587l-1.099.463-.439,1.097c-.095.237-.325.393-.58.393s-.486-.156-.58-.393Z"/></svg>
