<?xml version="1.0" encoding="UTF-8"?>
<svg xmlns="http://www.w3.org/2000/svg" id="Layer_1" data-name="Layer 1" viewBox="0 0 24 24" width="512" height="512"><path d="m17.549,6.595c-.339-.172-.549-.512-.549-.885v-3.71h1c.553,0,1-.448,1-1s-.447-1-1-1H6c-.553,0-1,.448-1,1s.447,1,1,1h1v3.665c0,.376-.222.698-.555.887C-.5,10.5-.001,16.503.001,16.554c0,.053.128,2.11.385,3.048.709,2.59,3.089,4.398,5.79,4.398h11.646c2.701,0,5.081-1.809,5.79-4.398.257-.938.387-1.909.387-2.888,0-4.221-2.472-8.099-6.451-10.119Zm-10.209,1.746c1.024-.513,1.66-1.538,1.66-2.676v-3.665h6v3.71c0,1.13.629,2.152,1.643,2.668,2.26,1.147,3.934,3.004,4.767,5.17-.894.503-2.853,1.452-4.909,1.452-1.652,0-2.865-.455-4.148-.937-1.395-.523-2.837-1.063-4.852-1.063-1.921,0-3.866.809-5.234,1.542.653-2.629,2.475-4.901,5.074-6.201Zm14.344,10.733c-.471,1.723-2.059,2.926-3.86,2.926H6.177c-1.802,0-3.39-1.203-3.86-2.926-.183-.667-.287-1.356-.311-2.051.936-.614,3.32-2.023,5.495-2.023,1.652,0,2.865.455,4.148.937,1.395.523,2.837,1.063,4.852,1.063,2.196,0,4.223-.836,5.421-1.454.052.385.079.775.079,1.168,0,.8-.106,1.594-.316,2.36Z"/></svg>
