<?xml version="1.0" encoding="UTF-8"?>
<svg xmlns="http://www.w3.org/2000/svg" id="Layer_1" data-name="Layer 1" viewBox="0 0 24 24" width="512" height="512"><path d="m15.028,20.443c-2.914-1.67-6.028-4.765-6.028-8.443s3.112-6.771,6.025-8.441c.732-.42,1.124-1.244.929-2.042C15.62.152,14.14.047,14.14.047,7.615-.467,1.833,3.33.372,9.076c-.902,3.547-.166,7.087,2.073,9.966,2.414,3.105,6.308,4.958,10.415,4.958.462,0,.907-.015,1.344-.051.868-.073,1.572-.668,1.752-1.481.179-.805-.186-1.6-.928-2.025Zm-2.168,1.558c-3.495,0-6.798-1.565-8.836-4.187-1.852-2.381-2.461-5.31-1.715-8.245C3.455,5.065,7.846,2,12.961,2c.243,0,.488.007.734.021-3.298,1.995-6.695,5.597-6.695,9.979s3.392,7.978,6.696,9.98c-.272.015-.551.021-.836.021Zm10.843-10.504l-1.971,1.606.815,2.484c.112.336-.002.706-.282.922-.281.216-.667.231-.964.038l-2.295-1.495-2.257,1.51c-.14.094-.302.141-.463.141-.176,0-.352-.056-.5-.166-.283-.212-.401-.58-.295-.917l.784-2.513-1.981-1.612c-.267-.226-.364-.594-.243-.922.12-.328.433-.546.782-.546h2.501l.885-2.483c.121-.326.433-.542.781-.542s.66.216.781.542l.885,2.483h2.501c.35,0,.663.219.783.548.12.329.022.698-.246.923Z"/></svg>
