<?xml version="1.0" encoding="UTF-8"?>
<svg xmlns="http://www.w3.org/2000/svg" id="Layer_1" data-name="Layer 1" viewBox="0 0 24 24" width="512" height="512"><path d="M0,12C0,5.383,5.383,0,12,0s12,5.383,12,12c0,.553-.448,1-1,1s-1-.447-1-1c0-5.514-4.486-10-10-10S2,6.486,2,12c0,.553-.448,1-1,1s-1-.447-1-1Zm13.819,9.835c-1.193,.219-2.445,.219-3.639,0-.541-.104-1.064,.259-1.164,.803-.1,.543,.259,1.064,.803,1.164,.715,.132,1.449,.198,2.181,.198s1.465-.066,2.181-.198c.543-.1,.903-.621,.803-1.164-.099-.543-.614-.907-1.164-.803ZM9.643,7.357c-.71-.71-2.246-.326-3.429,.857-1.184,1.184-1.568,2.719-.857,3.429,.71,.71,2.246,.326,3.429-.857,1.184-1.184,1.568-2.719,.857-3.429Zm9,4.287c.71-.71,.326-2.246-.857-3.43-1.184-1.184-2.719-1.568-3.429-.857s-.326,2.246,.857,3.429c1.184,1.184,2.719,1.568,3.429,.857Zm-6.643,1.357c-1.657,0-3,1.343-3,3v1c0,1.657,1.343,3,3,3s3-1.343,3-3v-1c0-1.657-1.343-3-3-3ZM.901,15.335c-.919,.606-1.172,1.845-.57,2.767,.015,.023,1.375,2.137,1.629,4.996,.045,.511,.477,.903,.991,.903h2.986c.597,0,1.068-.523,1-1.116-.454-3.985-3.178-6.868-3.272-6.994-.664-.891-1.843-1.163-2.763-.556Zm22.202,0c-.92-.607-2.099-.335-2.763,.556-.094,.126-2.818,3.008-3.272,6.994-.068,.593,.403,1.116,1,1.116h2.986c.513,0,.945-.391,.991-.903,.253-2.858,1.614-4.973,1.629-4.996,.603-.922,.349-2.16-.57-2.767Z"/></svg>
