<?xml version="1.0" encoding="UTF-8"?>
<svg xmlns="http://www.w3.org/2000/svg" id="Layer_1" data-name="Layer 1" viewBox="0 0 24 24" width="512" height="512"><path d="m24,21c0,.552-.448,1-1,1H1c-.552,0-1-.448-1-1s.448-1,1-1h22c.552,0,1,.448,1,1ZM.432,15.809C.14,15.232-.008,14.621-.008,13.991c0-.843.271-1.657.783-2.355L8.834,2.562c.702-.965,1.877-1.562,3.166-1.562,1.272,0,2.434.581,3.195,1.595l7.963,8.969c.968,1.312,1.096,2.871.401,4.245-.695,1.373-2.029,2.191-3.567,2.191H4c-1.538,0-2.872-.819-3.567-2.191Zm1.56-1.818c0,.312.076.62.225.914.353.696,1.002,1.095,1.783,1.095h15.993c.78,0,1.43-.399,1.783-1.095.353-.696.29-1.457-.171-2.085L13.611,3.817c-.38-.519-.967-.817-1.611-.817s-1.231.298-1.611.817L2.329,12.893c-.2.28-.337.685-.337,1.099Z"/></svg>
