<?xml version="1.0" encoding="UTF-8"?>
<svg xmlns="http://www.w3.org/2000/svg" id="Layer_1" data-name="Layer 1" viewBox="0 0 24 24" width="512" height="512"><path d="M23,12h-2v-1c0-1.1-.9-2-2-2h-2c-1.1,0-2,.9-2,2v1h-2c-.55,0-1,.45-1,1s.45,1,1,1v7c0,1.65,1.35,3,3,3h4c1.65,0,3-1.35,3-3v-7c.55,0,1-.45,1-1s-.45-1-1-1Zm-6-1h2v1h-2v-1Zm4,10c0,.55-.45,1-1,1h-4c-.55,0-1-.45-1-1v-7h6v7Zm-10,0c0,.55-.45,1-1,1H5c-2.76,0-5-2.24-5-5V5C0,2.24,2.24,0,5,0h12c2.76,0,5,2.24,5,5v1c0,.55-.45,1-1,1s-1-.45-1-1v-1c0-1.65-1.35-3-3-3H5c-1.65,0-3,1.35-3,3v12c0,1.65,1.35,3,3,3h5c.55,0,1,.45,1,1Zm0-4c0,.55-.45,1-1,1H6c-1.1,0-2-.9-2-2V6c0-1.1,.9-2,2-2h2c.4,0,.77,.24,.92,.62,.15,.37,.07,.8-.22,1.09l-2.71,2.71v7.59h4c.55,0,1,.45,1,1Zm5-13c1.1,0,2,.9,2,2,0,.55-.45,1-1,1s-1-.45-1-1h-1.67c-.27,0-.52,.1-.71,.29l-3.33,3.33c-.19,.19-.29,.44-.29,.71v2.67c0,.55-.45,1-1,1s-1-.45-1-1v-2.67c0-.8,.31-1.56,.88-2.12l3.33-3.33c.57-.57,1.32-.88,2.12-.88h1.67Z"/></svg>
