<?xml version="1.0" encoding="UTF-8"?>
<svg xmlns="http://www.w3.org/2000/svg" id="Layer_1" data-name="Layer 1" viewBox="0 0 24 24" width="512" height="512"><path d="m14,11v-6c0-1.654-1.346-3-3-3h-6c-1.654,0-3,1.346-3,3v14c0,1.654,1.346,3,3,3h6c.553,0,1,.448,1,1s-.447,1-1,1h-6C2.243,24,0,21.757,0,19V5C0,2.243,2.243,0,5,0h6C13.757,0,16,2.243,16,5v6c0,.552-.447,1-1,1s-1-.448-1-1Zm-8,2h-1c-.553,0-1,.448-1,1s.447,1,1,1h1c.553,0,1-.448,1-1s-.447-1-1-1Zm5,0h-1c-.553,0-1,.448-1,1s.447,1,1,1h1c.553,0,1-.448,1-1s-.447-1-1-1Zm-5,4h-1c-.553,0-1,.448-1,1s.447,1,1,1h1c.553,0,1-.448,1-1s-.447-1-1-1Zm5,0h-1c-.553,0-1,.448-1,1s.447,1,1,1h1c.553,0,1-.448,1-1s-.447-1-1-1Zm-3-7c.553,0,1-.448,1-1v-1h1c.553,0,1-.448,1-1s-.447-1-1-1h-1v-1c0-.552-.447-1-1-1s-1,.448-1,1v1h-1c-.553,0-1,.448-1,1s.447,1,1,1h1v1c0,.552.447,1,1,1Zm11,8c1.381,0,2.5-1.119,2.5-2.5s-1.119-2.5-2.5-2.5-2.5,1.119-2.5,2.5,1.119,2.5,2.5,2.5Zm4.969,4.751c-.561-2.173-2.649-3.75-4.969-3.75s-4.41,1.578-4.969,3.751c-.138.535.185,1.08.72,1.218.084.021.167.032.25.032.445,0,.852-.3.968-.751.329-1.282,1.633-2.249,3.031-2.249s2.701.967,3.031,2.25c.138.535.69.856,1.218.719.535-.138.857-.683.72-1.218Z"/></svg>
