<?xml version="1.0" encoding="UTF-8"?>
<svg xmlns="http://www.w3.org/2000/svg" id="Layer_1" data-name="Layer 1" viewBox="0 0 24 24" width="512" height="512"><path d="m15.331,11.213c.422-.634.669-1.395.669-2.212,0-2.206-1.794-4-4-4h-2.5c-1.93,0-3.5,1.57-3.5,3.5v7c0,1.929,1.57,3.5,3.5,3.5h4.545c2.181,0,3.955-1.774,3.955-4.03,0-1.062-.41-2.06-1.155-2.808-.433-.435-.95-.756-1.514-.95Zm-7.331-2.713c0-.827.673-1.5,1.5-1.5h2.5c1.103,0,2,.897,2,2s-.897,2-2,2h-4v-2.501Zm6.045,8.501h-4.545c-.827,0-1.5-.674-1.5-1.5v-2.5h6.048c.521,0,1.011.203,1.379.573.369.371.573.867.573,1.472,0,1.078-.877,1.955-1.955,1.955ZM19,0H5C2.243,0,0,2.243,0,5v14c0,2.757,2.243,5,5,5h14c2.757,0,5-2.243,5-5V5c0-2.757-2.243-5-5-5Zm3,19c0,1.654-1.346,3-3,3H5c-1.654,0-3-1.346-3-3V5c0-1.654,1.346-3,3-3h14c1.654,0,3,1.346,3,3v14Z"/></svg>
