<?xml version="1.0" encoding="UTF-8"?>
<svg xmlns="http://www.w3.org/2000/svg" id="Layer_1" data-name="Layer 1" viewBox="0 0 24 24" width="512" height="512"><path d="m23.491,11.637c.396-.947.456-1.966.175-2.947-.351-1.227-1.215-2.249-2.371-2.804-.194-.093-.333-.265-.353-.438-.144-1.244-.773-2.337-1.771-3.079-.985-.732-2.195-1.022-3.416-.815-.19.028-.417-.061-.597-.242-.847-.846-1.968-1.312-3.158-1.312s-2.312.466-3.158,1.312c-.181.182-.411.272-.598.242-1.22-.206-2.431.084-3.415.815-.999.742-1.628,1.835-1.772,3.079-.02.172-.158.344-.352.438-1.156.555-2.021,1.578-2.372,2.804-.281.981-.22,2,.175,2.947.1.239.1.492,0,.731-.396.947-.456,1.967-.175,2.947.351,1.227,1.215,2.249,2.372,2.805.191.092.332.268.352.438.144,1.243.773,2.337,1.771,3.079.984.731,2.197,1.021,3.414.815.188-.03.417.061.598.241.846.847,1.968,1.312,3.158,1.312s2.312-.466,3.158-1.312c.181-.182.412-.28.597-.242,1.216.204,2.43-.083,3.416-.815.999-.742,1.628-1.836,1.772-3.08.02-.169.161-.345.352-.437,1.156-.556,2.021-1.578,2.372-2.805.281-.98.22-2-.175-2.947-.1-.239-.1-.492,0-.731Zm-1.846,1.501c.219.524.253,1.086.098,1.626-.194.679-.673,1.244-1.314,1.553-.811.389-1.375,1.159-1.473,2.01-.08.69-.427,1.295-.978,1.704-.543.404-1.214.564-1.89.448-.824-.138-1.703.16-2.344.8-.938.938-2.55.938-3.489,0-.537-.536-1.239-.832-1.939-.832-.135,0-.271.011-.404.033-.674.116-1.346-.045-1.889-.448-.55-.409-.897-1.014-.977-1.703-.099-.852-.663-1.622-1.473-2.011-.642-.309-1.121-.874-1.315-1.553-.155-.54-.121-1.102.098-1.626.306-.732.306-1.54,0-2.272-.219-.524-.253-1.086-.098-1.626.197-.688.664-1.239,1.315-1.552.811-.39,1.375-1.16,1.473-2.011.08-.689.427-1.294.978-1.703.542-.403,1.213-.563,1.888-.449.826.141,1.704-.159,2.345-.799.938-.938,2.55-.938,3.489,0,.641.64,1.52.941,2.345.799.674-.113,1.346.045,1.889.449.55.409.897,1.014.977,1.703.098.851.663,1.621,1.473,2.011.651.312,1.118.864,1.315,1.552h0c.155.54.121,1.103-.098,1.626-.306.732-.306,1.54,0,2.272Zm-13.646-.639c0,.828-.672,1.5-1.5,1.5s-1.5-.672-1.5-1.5.672-1.5,1.5-1.5,1.5.672,1.5,1.5Zm4,5c0,.828-.672,1.5-1.5,1.5s-1.5-.672-1.5-1.5.672-1.5,1.5-1.5,1.5.672,1.5,1.5Zm-3-11c0-.828.672-1.5,1.5-1.5s1.5.672,1.5,1.5-.672,1.5-1.5,1.5-1.5-.672-1.5-1.5Zm5,5c0,.828-.672,1.5-1.5,1.5s-1.5-.672-1.5-1.5.672-1.5,1.5-1.5,1.5.672,1.5,1.5Zm5,2c0,.828-.672,1.5-1.5,1.5s-1.5-.672-1.5-1.5.672-1.5,1.5-1.5,1.5.672,1.5,1.5Z"/></svg>
