<?xml version="1.0" encoding="UTF-8"?>
<svg xmlns="http://www.w3.org/2000/svg" id="Layer_1" data-name="Layer 1" viewBox="0 0 24 24" width="512" height="512"><path d="m23.707,22.293l-3.187-3.187c.917-.746,1.48-1.88,1.48-3.106V6c0-2.206-1.794-4-4-4H6c-.721,0-1.421.193-2.032.554L1.707.293C1.316-.098.684-.098.293.293S-.098,1.316.293,1.707l22,22c.195.195.451.293.707.293s.512-.098.707-.293c.391-.391.391-1.023,0-1.414ZM6,4h12c1.103,0,2,.897,2,2v10c0,.685-.352,1.313-.909,1.677L5.482,4.068c.167-.045.341-.068.518-.068Zm9.483,15.363c.353.425.292,1.056-.134,1.407l-2.169,1.793c-.327.292-.747.439-1.172.439-.433,0-.869-.153-1.218-.463l-3.016-2.54h-1.775c-2.206,0-4-1.794-4-4v-7c0-.553.447-1,1-1s1,.447,1,1v7c0,1.103.897,2,2,2h2.141c.235,0,.464.083.645.235l3.216,2.71,2.075-1.716c.426-.353,1.058-.291,1.407.134Z"/></svg>
