<?xml version="1.0" encoding="UTF-8"?>
<svg xmlns="http://www.w3.org/2000/svg" id="Layer_1" data-name="Layer 1" viewBox="0 0 24 24" width="512" height="512"><path d="m12,18c-.552,0-1-.448-1-1v-7c0-.552.448-1,1-1s1,.448,1,1v7c0,.552-.448,1-1,1Zm0,1c-.828,0-1.5.672-1.5,1.5s.672,1.5,1.5,1.5,1.5-.672,1.5-1.5-.672-1.5-1.5-1.5Zm11.833-10.47c-.438-1.352-1.643-2.226-3.067-2.226h-4.373l-1.323-4.047C14.631.896,13.425.018,11.997.018s-2.637.88-3.072,2.236l-1.323,4.049H3.229c-1.425,0-2.63.876-3.069,2.229-.44,1.348.015,2.762,1.162,3.602l3.566,2.606-1.355,4.272c-.438,1.358.026,2.774,1.184,3.609.562.405,1.216.62,1.89.62.423,0,.885-.227,1.199-.417.472-.286.622-.899.336-1.371-.284-.471-.899-.625-1.372-.34-.076.045-.179.097-.245.125-.224-.016-.443-.098-.639-.239-.447-.322-.62-.849-.449-1.378l1.574-4.962c.13-.409-.016-.856-.363-1.109l-4.146-3.03c-.442-.324-.612-.848-.441-1.369.169-.522.617-.847,1.167-.847h5.098c.433,0,.816-.279.951-.69l1.55-4.744c.168-.525.617-.852,1.169-.852s1,.327,1.17.856l1.549,4.74c.135.411.518.689.951.689h5.098c.55,0,.997.323,1.166.846.17.521,0,1.047-.442,1.372l-4.144,3.029c-.347.253-.493.7-.363,1.109l1.575,4.968c.169.525-.002,1.05-.449,1.372-.199.144-.422.227-.65.241-.054-.023-.135-.067-.192-.104-.459-.305-1.079-.18-1.385.279-.306.459-.182,1.081.277,1.387.247.165.734.44,1.228.44.676,0,1.331-.215,1.893-.622,1.156-.833,1.62-2.25,1.183-3.603l-1.356-4.278,3.564-2.605c1.148-.84,1.604-2.256,1.163-3.605Z"/></svg>
