<?xml version="1.0" encoding="UTF-8"?>
<svg xmlns="http://www.w3.org/2000/svg" id="Layer_1" data-name="Layer 1" viewBox="0 0 24 24" width="512" height="512"><path d="m16,10c1.654,0,3-1.346,3-3s-1.346-3-3-3-3,1.346-3,3c0,.17.015.337.042.5l-4.057,2.254c-.529-.468-1.224-.753-1.985-.753-1.654,0-3,1.346-3,3s1.346,3,3,3c.761,0,1.456-.285,1.985-.753l4.057,2.254c-.027.163-.042.329-.042.5,0,1.654,1.346,3,3,3s3-1.346,3-3-1.346-3-3-3c-.761,0-1.456.285-1.985.753l-4.057-2.254c.027-.163.042-.329.042-.5s-.015-.337-.042-.5l4.057-2.254c.529.468,1.224.753,1.985.753Zm0-4c.552,0,1,.449,1,1s-.448,1-1,1-1-.449-1-1,.448-1,1-1Zm-9,7c-.552,0-1-.449-1-1s.448-1,1-1,1,.449,1,1-.448,1-1,1Zm9,3c.552,0,1,.449,1,1s-.448,1-1,1-1-.449-1-1,.448-1,1-1ZM19,0H5C2.243,0,0,2.243,0,5v14c0,2.757,2.243,5,5,5h14c2.757,0,5-2.243,5-5V5c0-2.757-2.243-5-5-5Zm3,19c0,1.654-1.346,3-3,3H5c-1.654,0-3-1.346-3-3V5c0-1.654,1.346-3,3-3h14c1.654,0,3,1.346,3,3v14Z"/></svg>
