<?xml version="1.0" encoding="UTF-8"?>
<svg xmlns="http://www.w3.org/2000/svg" id="Layer_1" data-name="Layer 1" viewBox="0 0 24 24" width="512" height="512"><path d="m16.632,10.652c1.394-.626,2.368-2.027,2.368-3.652,0-2.206-1.794-4-4-4-1.345,0-2.537.667-3.262,1.688C10.224,2.05,7.089,0,1,0,.448,0,0,.448,0,1s.448,1,1,1c3.833,0,6.217.835,7.689,2.06-.224-.039-.454-.06-.689-.06-2.206,0-4,1.794-4,4,0,1.445.771,2.714,1.923,3.417C2.967,13.135,0,15.884,0,20c0,2.206,1.794,4,4,4s4-1.794,4-4c0-4.918,2.787-7.751,3.997-8.75,1.2,1,4.003,3.86,4.003,8.75,0,2.206,1.794,4,4,4s4-1.794,4-4c0-4.794-4.024-7.733-7.368-9.348Zm-1.632-5.652c1.103,0,2,.897,2,2s-.897,2-2,2-2-.897-2-2,.897-2,2-2Zm-7,1c1.103,0,2,.897,2,2s-.897,2-2,2-2-.897-2-2,.897-2,2-2Zm-2,14c0,1.103-.897,2-2,2s-2-.897-2-2c0-3.727,3.377-6.151,6.252-7.54-1.189,1.767-2.252,4.263-2.252,7.54Zm14,2c-1.103,0-2-.897-2-2,0-3.277-1.063-5.773-2.252-7.54,2.875,1.389,6.252,3.813,6.252,7.54,0,1.103-.897,2-2,2Z"/></svg>
