<?xml version="1.0" encoding="UTF-8"?>
<svg xmlns="http://www.w3.org/2000/svg" id="Layer_1" data-name="Layer 1" viewBox="0 0 24 24">
  <path d="m23.707,22.293l-3.778-3.778,1.186-12.515h.885c.552,0,1-.447,1-1s-.448-1-1-1h-4.101c-.465-2.279-2.485-4-4.899-4h-2c-2.414,0-4.435,1.721-4.899,4,0,0-.656.001-.683.004L1.707.293C1.316-.098.684-.098.293.293S-.098,1.316.293,1.707l22,22c.195.195.451.293.707.293s.512-.098.707-.293c.391-.391.391-1.023,0-1.414Zm-5.613-5.613L7.414,6h11.692l-1.012,10.68ZM11,2h2c1.304,0,2.415.836,2.828,2h-7.656c.413-1.164,1.524-2,2.828-2Zm6.845,19.845c.295.466.157,1.084-.309,1.38-.8.507-1.725.775-2.675.775h-5.727c-2.589,0-4.729-1.943-4.977-4.521l-.902-9.383c-.053-.55.35-1.038.9-1.091.562-.068,1.038.35,1.091.899l.902,9.383c.148,1.547,1.432,2.713,2.986,2.713h5.727c.57,0,1.125-.161,1.604-.465.467-.297,1.085-.157,1.38.31Z"/>
</svg>
