<?xml version="1.0" encoding="UTF-8"?>
<svg xmlns="http://www.w3.org/2000/svg" id="Layer_1" data-name="Layer 1" viewBox="0 0 24 24" width="512" height="512"><path d="M8.5,11c-.828,0-1.5-.672-1.5-1.5s.672-1.5,1.5-1.5,1.5,.672,1.5,1.5-.672,1.5-1.5,1.5Zm7-3c-.828,0-1.5,.672-1.5,1.5s.672,1.5,1.5,1.5,1.5-.672,1.5-1.5-.672-1.5-1.5-1.5ZM12,0C5.383,0,0,5.383,0,12s5.383,12,12,12c1.921,0,3.756-.44,5.455-1.309,.492-.251,.687-.854,.436-1.346s-.854-.685-1.346-.436c-1.415,.723-2.944,1.09-4.545,1.09-5.514,0-10-4.486-10-10S6.486,2,12,2s10,4.486,10,10c0,.611-.056,1.223-.165,1.819-.1,.543,.26,1.064,.803,1.164,.551,.1,1.064-.26,1.164-.803,.132-.715,.198-1.449,.198-2.181C24,5.383,18.617,0,12,0ZM6,15v2c0,.552,.447,1,1,1s1-.448,1-1v-2c0-.552-.447-1-1-1s-1,.448-1,1Zm4,3c.553,0,1-.448,1-1v-2c0-.552-.447-1-1-1s-1,.448-1,1v2c0,.552,.447,1,1,1Zm2-3v2c0,.552,.447,1,1,1s1-.448,1-1v-2c0-.552-.447-1-1-1s-1,.448-1,1Zm3,0v2c0,.552,.447,1,1,1s1-.448,1-1v-2c0-.552-.447-1-1-1s-1,.448-1,1Zm4.978,1.34l-.565-.251c-.373-.169-.818-.092-1.112,.197-.295,.29-.382,.73-.219,1.109,1.146,2.66,1.379,2.893,1.505,3.019,.39,.39,.902,.585,1.414,.585s1.024-.195,1.414-.585c.78-.78,.78-2.048,0-2.828-.251-.251-.708-.485-2.437-1.246Z"/></svg>
