<?xml version="1.0" encoding="UTF-8"?>
<svg xmlns="http://www.w3.org/2000/svg" id="Layer_1" data-name="Layer 1" viewBox="0 0 24 24">
  <path d="m1,2.5C1,1.119,2.119,0,3.5,0s2.5,1.119,2.5,2.5-1.119,2.5-2.5,2.5S1,3.881,1,2.5Zm22.974,15.544c-.125-.538-.66-.875-1.2-.749l-7.795,1.804-3.004-13.318c-.122-.539-.656-.878-1.196-.756-.539.122-.877.657-.755,1.195l1.078,4.78h-2.484l-1.37-2.739c-.697-1.395-2.099-2.261-3.658-2.261-1.979,0-3.59,1.61-3.59,3.604l.053,3.78c.02,1.393.744,2.653,1.938,3.371l2.524,1.52c.299.179.484.508.484.856v3.869c0,.553.448,1,1,1s1-.447,1-1v-3.869c0-1.047-.557-2.032-1.454-2.57l-2.524-1.519c-.597-.359-.959-.99-.969-1.686l-.053-3.767c0-.877.713-1.59,1.59-1.59.14,0,.277.014.41.04v4.96c0,.553.448,1,1,1s1-.447,1-1v-2.764l.829,1.658c.341.682,1.026,1.105,1.789,1.105h2.935l1.369,6.068c-1.102.261-1.922,1.25-1.922,2.432,0,1.381,1.119,2.5,2.5,2.5s2.5-1.119,2.5-2.5c0-.196-.023-.386-.066-.569l7.291-1.687c.538-.125.873-.662.749-1.2Zm-21.974.956c-.552,0-1,.447-1,1v3c0,.553.448,1,1,1s1-.447,1-1v-3c0-.553-.448-1-1-1Zm13.067-7.251c-.316-1.351.523-2.709,1.872-3.028l2.775-.66c.658-.156,1.335-.047,1.909.309.574.354.975.912,1.129,1.568l.668,2.852c.316,1.351-.523,2.709-1.872,3.028l-2.775.66c-.195.047-.392.069-.587.069-.463,0-.918-.128-1.321-.378-.574-.354-.975-.912-1.129-1.569l-.668-2.851Zm1.947-.457l.668,2.851c.032.137.115.252.234.325.118.073.258.094.395.064l2.775-.66c.279-.066.453-.348.387-.626l-.668-2.852c-.032-.136-.115-.251-.233-.324-.119-.073-.261-.094-.396-.064l-2.775.66c-.279.066-.453.348-.387.626Z"/>
</svg>
