<?xml version="1.0" encoding="UTF-8"?>
<svg xmlns="http://www.w3.org/2000/svg" id="Layer_1" data-name="Layer 1" viewBox="0 0 24 24" width="512" height="512"><path d="M12,3c0-.552,.447-1,1-1h3c.379,0,.725,.214,.895,.553,.169,.339,.133,.744-.095,1.047l-1.8,2.4h1c.553,0,1,.448,1,1s-.447,1-1,1h-3c-.379,0-.725-.214-.895-.553-.169-.339-.133-.744,.095-1.047l1.8-2.4h-1c-.553,0-1-.448-1-1Zm8-1h1l-1.8,2.4c-.228,.303-.264,.708-.095,1.047,.17,.339,.516,.553,.895,.553h3c.553,0,1-.448,1-1s-.447-1-1-1h-1l1.8-2.4c.228-.303,.264-.708,.095-1.047-.17-.339-.516-.553-.895-.553h-3c-.553,0-1,.448-1,1s.447,1,1,1Zm-4.028,9.997c-.424-.002-.82-.219-1.179-.643-.356-.421-.986-.476-1.41-.117-.421,.356-.474,.988-.117,1.409,.938,1.108,1.982,1.346,2.693,1.351h.02c1.029,0,2.077-.5,2.807-1.341,.361-.417,.316-1.049-.101-1.411-.417-.361-1.049-.318-1.411,.1-.349,.402-.845,.652-1.295,.652h-.007Zm6.342-3.959c-.531,.15-.84,.703-.689,1.234,.249,.884,.376,1.801,.376,2.728,0,5.514-4.486,10-10,10S2,17.514,2,12C2,7.544,4.99,3.587,9.272,2.376c.531-.15,.84-.703,.689-1.234-.149-.533-.709-.836-1.234-.69C3.589,1.905,0,6.654,0,12c0,6.617,5.383,12,12,12s12-5.383,12-12c0-1.11-.152-2.211-.452-3.272-.149-.532-.702-.838-1.234-.69Zm-12.313,9.962c0,1.105,.895,2,2,2s2-.895,2-2-.895-2-2-2-2,.895-2,2Zm-.727-6.655c-.349,.402-.845,.652-1.295,.652h-.007c-.424-.002-.82-.219-1.179-.643-.357-.421-.986-.476-1.41-.117-.421,.356-.474,.988-.117,1.409,.938,1.108,1.982,1.346,2.693,1.351h.02c1.029,0,2.077-.5,2.807-1.341,.361-.417,.316-1.049-.101-1.411-.417-.361-1.048-.318-1.411,.1Z"/></svg>
