<?xml version="1.0" encoding="UTF-8"?>
<svg xmlns="http://www.w3.org/2000/svg" id="Layer_1" data-name="Layer 1" viewBox="0 0 24 24" width="512" height="512"><path d="M19,0H5C2.24,0,0,2.24,0,5v1c0,.88,.39,1.67,1,2.22v10.78c0,2.76,2.24,5,5,5h12c2.76,0,5-2.24,5-5V8.22c.61-.55,1-1.34,1-2.22v-1c0-2.76-2.24-5-5-5Zm2,19c0,1.65-1.35,3-3,3H6c-1.65,0-3-1.35-3-3V9H21v10Zm1-13c0,.55-.45,1-1,1H3c-.55,0-1-.45-1-1v-1c0-1.65,1.35-3,3-3h14c1.65,0,3,1.35,3,3v1Zm-14,7.62c0-1.45,1.18-2.62,2.62-2.62h.38c0-.55,.45-1,1-1s1,.45,1,1h.27c1.07,0,2.06,.57,2.6,1.5,.28,.48,.11,1.09-.36,1.37-.48,.28-1.09,.11-1.37-.36-.18-.31-.51-.5-.87-.5h-2.64c-.34,0-.62,.28-.62,.62,0,.31,.22,.57,.52,.62l3.28,.55c1.27,.21,2.19,1.3,2.19,2.59,0,1.45-1.18,2.62-2.62,2.62h-.38c0,.55-.45,1-1,1s-1-.45-1-1h-.27c-1.07,0-2.06-.57-2.6-1.5-.28-.48-.11-1.09,.37-1.37,.48-.28,1.09-.11,1.37,.36,.18,.31,.51,.5,.87,.5h2.64c.34,0,.62-.28,.62-.62,0-.31-.22-.57-.52-.62l-3.28-.55c-1.27-.21-2.19-1.3-2.19-2.59Z"/></svg>
