<?xml version="1.0" encoding="UTF-8"?>
<svg xmlns="http://www.w3.org/2000/svg" id="Layer_1" data-name="Layer 1" viewBox="0 0 24 24" width="512" height="512"><path d="m13.97,2.971c-.126-.849-.625-1.563-1.369-1.961C9.252-.782,5.196-.181,2.508,2.508-.18,5.196-.782,9.252,1.009,12.601c.398.744,1.113,1.243,1.962,1.369.136.021.272.03.408.03.736,0,1.453-.291,1.978-.815l7.827-7.828c.622-.621.915-1.513.786-2.386Zm-2.2.972l-7.827,7.828c-.175.176-.428.261-.678.221-.127-.019-.36-.087-.492-.334-1.352-2.526-.878-5.707,1.149-7.735,1.255-1.255,2.951-1.914,4.661-1.914,1.053,0,2.111.25,3.075.766.246.132.314.364.333.491.037.249-.046.502-.222.678Zm-7.77,15.558c0,.828-.672,1.5-1.5,1.5s-1.5-.672-1.5-1.5.672-1.5,1.5-1.5,1.5.672,1.5,1.5Zm20-5c0,.828-.672,1.5-1.5,1.5s-1.5-.672-1.5-1.5.672-1.5,1.5-1.5,1.5.672,1.5,1.5Zm-10-2c0,.828-.672,1.5-1.5,1.5s-1.5-.672-1.5-1.5.672-1.5,1.5-1.5,1.5.672,1.5,1.5Zm10,10c0,.828-.672,1.5-1.5,1.5s-1.5-.672-1.5-1.5.672-1.5,1.5-1.5,1.5.672,1.5,1.5ZM19,3.5c0-.828.672-1.5,1.5-1.5s1.5.672,1.5,1.5-.672,1.5-1.5,1.5-1.5-.672-1.5-1.5Zm4.683,4.732c-1.309,1.223-2.521,1.768-3.933,1.768-2.069,0-3.214-1.086-3.829-1.67l-.104-.098c-.403-.377-.424-1.01-.047-1.413.378-.404,1.011-.425,1.414-.048l.114.107c.526.5,1.181,1.121,2.453,1.121.619,0,1.408-.146,2.567-1.229.404-.378,1.036-.356,1.414.048.377.403.355,1.036-.048,1.413Zm-12.685,10.992c.04,1.583-.623,3.252-1.772,4.464-.197.207-.461.312-.726.312-.247,0-.495-.091-.688-.274-.4-.38-.417-1.014-.037-1.414.782-.823,1.25-1.987,1.225-3.036-.039-1.538-.413-2.2-.775-2.645-.349-.429-.284-1.059.145-1.406.429-.35,1.058-.283,1.407.145.804.988,1.181,2.178,1.222,3.855Zm8.002.756c0,1.396-.383,2.548-1.205,3.626-.197.258-.495.394-.796.394-.211,0-.424-.066-.605-.205-.439-.335-.523-.962-.189-1.401.558-.731.795-1.453.795-2.413,0-1.465-.738-2.24-.77-2.272-.381-.392-.383-1.022.003-1.409.387-.388,1.006-.396,1.399-.017.14.136,1.368,1.394,1.368,3.698Z"/></svg>
