<?xml version="1.0" encoding="UTF-8"?>
<svg xmlns="http://www.w3.org/2000/svg" id="Layer_1" data-name="Layer 1" viewBox="0 0 24 24" width="512" height="512"><path d="m9.5,2.5c0-1.381,1.119-2.5,2.5-2.5s2.5,1.119,2.5,2.5-1.119,2.5-2.5,2.5-2.5-1.119-2.5-2.5Zm9.5,19.5H5c-.553,0-1,.447-1,1s.447,1,1,1h14c.553,0,1-.447,1-1s-.447-1-1-1Zm-10-5c-.553,0-1,.447-1,1s.447,1,1,1h6c.553,0,1-.447,1-1s-.447-1-1-1h-6Zm-1-3h8c.553,0,1-.447,1-1s-.447-1-1-1h-8c-.553,0-1,.447-1,1s.447,1,1,1ZM23.225,2.488l-1.404-.325-.351-1.406c-.111-.445-.511-.757-.97-.757s-.859.312-.97.757l-.354,1.418-1.418.354c-.445.111-.757.511-.757.97s.312.859.757.97l1.418.354.354,1.418c.111.445.511.757.97.757s.859-.312.97-.757l.357-1.43,1.432-.385c.443-.119.748-.525.74-.984-.008-.458-.328-.853-.775-.956ZM5.541,17.657c.283-.119.464-.398.459-.705-.006-.307-.198-.579-.484-.687l-1.299-.492-.52-1.301c-.114-.285-.39-.472-.697-.472s-.583.187-.697.472l-.523,1.308-1.308.523c-.285.114-.472.39-.472.697s.187.583.472.697l1.308.523.523,1.308c.114.285.39.472.697.472s.583-.187.697-.472l.526-1.316,1.318-.556Zm1.92-7.815c.465.299,1.083.164,1.381-.303l.104-.161c.556-.863,1.499-1.378,2.524-1.378h1.061c1.025,0,1.969.515,2.523,1.376l.104.163c.19.299.514.461.843.461.185,0,.371-.051.538-.158.466-.298.601-.916.303-1.381l-.105-.165c-.925-1.438-2.497-2.296-4.206-2.296h-1.061c-1.709,0-3.281.858-4.207,2.298l-.104.163c-.298.465-.163,1.083.303,1.381Z"/></svg>
