<?xml version="1.0" encoding="UTF-8"?>
<svg xmlns="http://www.w3.org/2000/svg" id="Layer_1" data-name="Layer 1" viewBox="0 0 24 24" width="512" height="512"><path d="m17.538,10.02c0-2.206-1.794-4-4-4h-3c-1.654,0-3,1.346-3,3v8c0,.553.447,1,1,1s1-.447,1-1v-3h3.516l1.851,3.471c.181.337.526.529.884.529.158,0,.319-.038.47-.117.487-.261.672-.866.412-1.354l-1.528-2.865c1.409-.619,2.395-2.028,2.395-3.664Zm-4,2h-4v-3c0-.552.448-1,1-1h3c1.103,0,2,.897,2,2s-.897,2-2,2ZM12.038.02C5.421.02.038,5.402.038,12.02s5.383,12,12,12,12-5.383,12-12S18.655.02,12.038.02Zm0,22c-5.514,0-10-4.486-10-10S6.524,2.02,12.038,2.02s10,4.486,10,10-4.486,10-10,10Z"/></svg>
