<?xml version="1.0" encoding="UTF-8"?>
<svg xmlns="http://www.w3.org/2000/svg" id="Layer_1" data-name="Layer 1" viewBox="0 0 24 24" width="512" height="512"><path d="M22,9h-2.06c.04-.33,.06-.66,.06-1s-.02-.67-.06-1h2.06c.55,0,1-.45,1-1s-.45-1-1-1h-2.58C18.23,2.07,15.35,0,12,0h-3c-2.76,0-5,2.24-5,5H2c-.55,0-1,.45-1,1s.45,1,1,1h2v2H2c-.55,0-1,.45-1,1s.45,1,1,1h2v12c0,.55,.45,1,1,1s1-.45,1-1v-7h6c3.35,0,6.23-2.07,7.42-5h2.58c.55,0,1-.45,1-1s-.45-1-1-1ZM9,2h3c2.22,0,4.16,1.21,5.19,3H6c0-1.65,1.35-3,3-3Zm-3,5h11.92c.05,.33,.08,.66,.08,1s-.03,.67-.08,1H6v-2Zm6,7H6v-3h11.19c-1.04,1.79-2.98,3-5.19,3Z"/></svg>
