<?xml version="1.0" encoding="UTF-8"?>
<svg xmlns="http://www.w3.org/2000/svg" id="Layer_1" data-name="Layer 1" viewBox="0 0 24 24" width="512" height="512"><path d="M13,9c0-.334,.167-.646,.445-.832l3-2c.46-.307,1.08-.183,1.387,.277s.183,1.08-.277,1.387l-1.752,1.168,1.752,1.168c.46,.307,.584,.927,.277,1.387-.192,.289-.51,.445-.833,.445-.19,0-.383-.055-.554-.168l-3-2c-.278-.186-.445-.498-.445-.832Zm-6.832,2.555c.192,.289,.51,.445,.833,.445,.19,0,.383-.055,.554-.168l3-2c.278-.186,.445-.498,.445-.832s-.167-.646-.445-.832l-3-2c-.462-.307-1.081-.183-1.387,.277-.307,.46-.183,1.08,.277,1.387l1.752,1.168-1.752,1.168c-.46,.307-.584,.927-.277,1.387Zm13.529,2.727c-.396-.383-1.029-.375-1.414,.023l-1.432,1.479-1.365-1.352c-.582-.57-1.526-.572-2.11,.002l-1.375,1.362-1.377-1.364c-.582-.57-1.527-.572-2.109,.002l-1.364,1.35-1.432-1.479c-.384-.397-1.017-.406-1.414-.023-.397,.385-.407,1.018-.023,1.414l1.789,1.848c.28,.288,.527,.453,.93,.457,.398,0,.915-.159,1.198-.439l1.371-1.357,1.377,1.363c.282,.279,.656,.434,1.054,.434s.773-.154,1.057-.434l1.376-1.363,1.371,1.357c.283,.28,.798,.439,1.196,.439,.402-.004,.651-.169,.935-.46l1.786-1.845c.384-.396,.374-1.029-.023-1.414Zm4.303-2.281c0,6.617-5.383,12-12,12S0,18.617,0,12,5.383,0,12,0s12,5.383,12,12Zm-2,0c0-5.514-4.486-10-10-10S2,6.486,2,12s4.486,10,10,10,10-4.486,10-10Z"/></svg>
