<?xml version="1.0" encoding="UTF-8"?>
<svg xmlns="http://www.w3.org/2000/svg" id="Layer_1" data-name="Layer 1" viewBox="0 0 24 24" width="512" height="512"><path d="m9,22h-2c-1.654,0-3-1.346-3-3h3c.553,0,1-.447,1-1s-.447-1-1-1h-3v-2h3c.553,0,1-.447,1-1s-.447-1-1-1h-3v-2h3c.553,0,1-.447,1-1s-.447-1-1-1h-3v-3h14v1c0,.553.447,1,1,1s1-.447,1-1v-1.172c1.164-.413,2-1.524,2-2.828,0-1.654-1.346-3-3-3H3C1.346,0,0,1.346,0,3c0,1.304.836,2.415,2,2.828v13.172c0,2.757,2.243,5,5,5h2c.553,0,1-.447,1-1s-.447-1-1-1ZM3,2h16c.552,0,1,.448,1,1s-.448,1-1,1H3c-.552,0-1-.448-1-1s.448-1,1-1Zm14,8c-3.859,0-7,3.141-7,7s3.141,7,7,7,7-3.141,7-7-3.141-7-7-7Zm0,2c1.018,0,1.965.306,2.756.83l-6.926,6.926c-.524-.791-.83-1.738-.83-2.756,0-2.757,2.243-5,5-5Zm0,10c-1.018,0-1.965-.306-2.756-.83l6.926-6.926c.524.791.83,1.738.83,2.756,0,2.757-2.243,5-5,5Z"/></svg>
