<?xml version="1.0" encoding="UTF-8"?>
<svg xmlns="http://www.w3.org/2000/svg" id="Layer_1" data-name="Layer 1" viewBox="0 0 24 24" width="512" height="512"><path d="m22.986,10.487l-4.566-1.88,3.414-5.12c.572-.866-.456-1.894-1.322-1.322l-5.125,3.401-1.874-4.554c-.254-.615-.849-1.013-1.514-1.013s-1.26.397-1.514,1.013l-1.874,4.553L3.487,2.165c-.866-.572-1.894.455-1.322,1.322l3.414,5.12-4.565,1.88c-.616.253-1.015.847-1.015,1.513s.398,1.26,1.014,1.513l4.559,1.877-3.407,5.11c-.572.866.456,1.894,1.322,1.322l5.121-3.398,1.878,4.564c.254.615.849,1.013,1.514,1.013s1.26-.397,1.514-1.013l1.878-4.563,5.121,3.398c.866.572,1.894-.455,1.322-1.322l-3.407-5.11,4.558-1.877c.616-.253,1.015-.847,1.015-1.513s-.398-1.26-1.014-1.513Zm-7.857,4.099c-.246.102-.442.297-.544.544l-2.585,6.28-2.585-6.28c-.102-.247-.298-.442-.544-.544l-6.279-2.585,6.279-2.585c.246-.102.442-.297.544-.544l2.585-6.28,2.585,6.28c.102.247.298.442.544.544l6.279,2.585-6.279,2.585Z"/></svg>
