<?xml version="1.0" encoding="UTF-8"?>
<svg xmlns="http://www.w3.org/2000/svg" id="Layer_1" data-name="Layer 1" viewBox="0 0 24 24" width="512" height="512"><path d="M24,12c0,6.617-5.383,12-12,12-3.076,0-6.001-1.162-8.236-3.272-.401-.38-.42-1.013-.041-1.414,.38-.401,1.012-.418,1.414-.041,1.862,1.759,4.3,2.728,6.863,2.728,5.514,0,10-4.486,10-10S17.514,2,12,2c-3.776,0-7.19,2.09-8.91,5.455-.251,.491-.854,.686-1.346,.436-.492-.252-.687-.854-.436-1.346C3.373,2.508,7.469,0,12,0c6.617,0,12,5.383,12,12Zm-6.274-3.038c.092,.025,.184,.038,.275,.038,.435,0,.835-.286,.961-.726,.152-.531-.156-1.084-.687-1.236-.965-.275-1.977-.941-2.46-1.619-.32-.448-.945-.555-1.395-.232-.449,.32-.554,.945-.233,1.395,.746,1.045,2.135,1.979,3.54,2.381Zm-9.54-3.543c-.484,.678-1.496,1.344-2.46,1.619-.531,.152-.839,.705-.687,1.236,.125,.439,.526,.726,.961,.726,.091,0,.183-.013,.275-.038,1.404-.401,2.793-1.336,3.54-2.381,.321-.449,.216-1.074-.233-1.395-.45-.321-1.074-.217-1.395,.232Zm.314,5.581c-.828,0-1.5,.672-1.5,1.5s.672,1.5,1.5,1.5,1.5-.672,1.5-1.5-.672-1.5-1.5-1.5Zm7,3c.828,0,1.5-.672,1.5-1.5s-.672-1.5-1.5-1.5-1.5,.672-1.5,1.5,.672,1.5,1.5,1.5Zm-7.463,3.96c-.178,.51,.224,1.04,.765,1.04,1.544,0,4.85,0,6.384,0,.538,0,.941-.524,.768-1.033-.487-1.432-2.04-2.966-3.954-2.966s-3.463,1.531-3.963,2.96Zm-3.037-3.46c0-1.403-1.184-3.372-1.922-4.235-.303-.355-.849-.353-1.151,.004-.738,.874-1.927,2.861-1.927,4.231,0,1.381,1.119,2.5,2.5,2.5s2.5-1.119,2.5-2.5Z"/></svg>
