<?xml version="1.0" encoding="UTF-8"?>
<svg xmlns="http://www.w3.org/2000/svg" id="Layer_1" data-name="Layer 1" viewBox="0 0 24 24">
  <path d="m11.809,15.924c.391.391.391,1.023,0,1.414l-4.595,4.595c-.71.709-1.642,1.064-2.574,1.064-.61,0-1.219-.152-1.767-.456l-1.165,1.165c-.195.195-.451.293-.707.293s-.512-.098-.707-.293c-.391-.391-.391-1.024,0-1.414l1.164-1.164c-.298-.535-.457-1.14-.457-1.769,0-.972.379-1.886,1.066-2.574l4.565-4.565c.391-.391,1.023-.391,1.414,0s.391,1.023,0,1.414l-4.565,4.565c-.31.31-.48.722-.48,1.16s.171.85.48,1.159c.639.64,1.681.64,2.319,0l4.595-4.595c.391-.391,1.023-.391,1.414,0Zm11.898,7.783c-.195.195-.451.293-.707.293s-.512-.098-.707-.293L.293,1.707C-.098,1.316-.098.684.293.293S1.316-.098,1.707.293l5.588,5.588,2.407-2.407c.943-.944,2.199-1.465,3.535-1.465,1.001,0,1.957.292,2.77.836l1.672-1.672c1.365-1.367,3.554-1.523,4.979-.356.799.654,1.286,1.616,1.337,2.642.052,1.025-.336,2.03-1.062,2.756l-7.653,7.653,8.426,8.426c.391.391.391,1.023,0,1.414Zm-9.84-11.254l4.528-4.528-2.319-2.319-4.528,4.528,2.319,2.319Zm3.623-8.261l2.319,2.319,1.711-1.711c.327-.327.502-.78.479-1.242-.023-.469-.239-.892-.606-1.193-.64-.524-1.649-.426-2.298.223l-1.604,1.604Zm-8.781,3.104l1.424,1.424,4.401-4.401c-1.114-.511-2.527-.322-3.418.57l-2.407,2.407Z"/>
</svg>
