<?xml version="1.0" encoding="UTF-8"?>
<svg xmlns="http://www.w3.org/2000/svg" id="Layer_1" data-name="Layer 1" viewBox="0 0 24 24" width="512" height="512"><path d="M17,0H7C4.24,0,2,2.24,2,5v15c0,2.21,1.79,4,4,4h11c2.76,0,5-2.24,5-5V5c0-2.76-2.24-5-5-5Zm3,5v11H8V2h9c1.65,0,3,1.35,3,3ZM6,2.17v13.83c-.73,0-1.41,.2-2,.54V5c0-1.3,.84-2.42,2-2.83Zm11,19.83H6c-1.1,0-2-.9-2-2s.9-2,2-2h14v1c0,1.65-1.35,3-3,3Zm-7-13c0,1.65,1.35,3,3,3h1.5c.28,0,.5,.22,.5,.5s-.22,.5-.5,.5h-1.5c-.55,0-1,.45-1,1s.45,1,1,1h1.5c1.38,0,2.5-1.12,2.5-2.5,0-.38-.09-.75-.24-1.07,.75-.55,1.24-1.43,1.24-2.43,0-1.65-1.35-3-3-3h-1.5c-.28,0-.5-.22-.5-.5s.22-.5,.5-.5h1.5c.55,0,1-.45,1-1s-.45-1-1-1h-1.5c-1.38,0-2.5,1.12-2.5,2.5,0,.38,.09,.75,.24,1.07-.75,.55-1.24,1.43-1.24,2.43Zm6,0c0,.55-.45,1-1,1h-2c-.55,0-1-.45-1-1s.45-1,1-1h2c.55,0,1,.45,1,1Z"/></svg>
