<?xml version="1.0" encoding="UTF-8"?>
<svg xmlns="http://www.w3.org/2000/svg" id="Layer_1" data-name="Layer 1" viewBox="0 0 24 24" width="512" height="512"><path d="M24,12c0,2.488-.755,4.875-2.183,6.902-.317,.451-.941,.559-1.393,.241-.452-.318-.56-.941-.242-1.394,1.189-1.688,1.817-3.676,1.817-5.75,0-5.514-4.486-10-10-10S2,6.486,2,12c0,4.455,2.99,8.413,7.272,9.624,.532,.15,.841,.702,.69,1.234-.125,.44-.526,.728-.962,.728-.09,0-.182-.012-.272-.038C3.589,22.095,0,17.347,0,12,0,5.383,5.383,0,12,0s12,5.383,12,12Zm-14.581-3.092c.501-.231,.72-.826,.489-1.327-.23-.502-.825-.719-1.327-.489-1.612,.744-3.172,2.098-3.238,2.154-.416,.363-.459,.995-.097,1.411,.198,.227,.475,.343,.754,.343,.233,0,.467-.081,.657-.246,.014-.013,1.408-1.221,2.762-1.846Zm6-1.816c-.5-.23-1.096-.013-1.327,.489-.231,.501-.013,1.096,.489,1.327,1.347,.622,2.748,1.834,2.762,1.846,.189,.165,.423,.246,.656,.246,.279,0,.557-.116,.754-.344,.363-.416,.319-1.047-.097-1.41-.066-.057-1.626-1.41-3.238-2.154Zm2.035,7.378c-.334-.171-.738-.139-1.042,.081-.02,.015-2.027,1.449-4.411,1.449-2.314,0-4.287-1.705-4.335-1.747-.411-.367-1.043-.331-1.411,.081-.368,.412-.333,1.044,.08,1.412,.103,.092,2.559,2.254,5.666,2.254v3c0,.553,.448,1,1,1s1-.447,1-1v-3.25c.759-.179,1.444-.428,2-.683v5.934c0,.553,.448,1,1,1s1-.447,1-1v-7.641c0-.376-.212-.719-.546-.89Z"/></svg>
