<?xml version="1.0" encoding="UTF-8"?>
<svg xmlns="http://www.w3.org/2000/svg" id="Layer_1" data-name="Layer 1" viewBox="0 0 24 24" width="512" height="512"><path d="m12.039.02C5.422.02.039,5.402.039,12.02s5.383,12,12,12,12-5.383,12-12S18.655.02,12.039.02Zm0,22c-5.514,0-10-4.486-10-10S6.524,2.02,12.039,2.02s10,4.486,10,10-4.486,10-10,10Zm5-14.75v8.639c0,1.018-.678,1.845-1.688,2.057-.154.033-.308.049-.459.049-.837,0-1.599-.48-1.946-1.268l-3.649-8.662c-.008-.018-.033-.077-.158-.054-.1.021-.1.062-.1.1v8.64c0,.553-.448,1-1,1s-1-.447-1-1v-8.64c0-1.018.678-1.844,1.688-2.057,1.007-.21,1.997.29,2.406,1.219l3.649,8.662c.008.02.038.085.157.054.1-.021.1-.062.1-.1V7.27c0-.553.448-1,1-1s1,.447,1,1Z"/></svg>
