<?xml version="1.0" encoding="UTF-8"?>
<svg xmlns="http://www.w3.org/2000/svg" id="Layer_1" data-name="Layer 1" viewBox="0 0 24 24" width="512" height="512"><path d="M7,14c2.21,0,4-1.79,4-4s-1.79-4-4-4-4,1.79-4,4,1.79,4,4,4Zm0-6c1.1,0,2,.9,2,2s-.9,2-2,2-2-.9-2-2,.9-2,2-2Zm7,15c0,.55-.45,1-1,1s-1-.45-1-1c0-2.76-2.24-5-5-5s-5,2.24-5,5c0,.55-.45,1-1,1s-1-.45-1-1c0-3.86,3.14-7,7-7s7,3.14,7,7ZM24,5V13c0,2.76-2.24,5-5,5h-4c-.55,0-1-.45-1-1s.45-1,1-1h4c1.65,0,3-1.35,3-3V5c0-1.65-1.35-3-3-3H9.46c-1.07,0-2.06,.58-2.6,1.5-.28,.48-.89,.64-1.37,.37-.48-.28-.64-.89-.36-1.37C6.03,.96,7.69,0,9.46,0h9.54c2.76,0,5,2.24,5,5Zm-10.33,5.92l2.92-2.92h-1.59c-.55,0-1-.45-1-1s.45-1,1-1h3c1.1,0,2,.9,2,2v3c0,.55-.45,1-1,1s-1-.45-1-1v-1.59l-2.92,2.92c-.46,.46-1.08,.71-1.71,.71-.22,0-.44-.03-.66-.09-.53-.15-.84-.7-.69-1.23,.15-.53,.7-.84,1.24-.69,.12,.03,.28,.02,.41-.11Z"/></svg>
