<?xml version="1.0" encoding="UTF-8"?>
<svg xmlns="http://www.w3.org/2000/svg" id="Layer_1" data-name="Layer 1" viewBox="0 0 24 24" width="512" height="512"><path d="m15,3h-5c-1.398,0-2.701-.967-3.031-2.249-.138-.535-.687-.854-1.218-.72-.535.138-.857.684-.72,1.218.478,1.855,2.07,3.276,3.969,3.652v9.099c0,2.176-3.59,3.173-3.717,3.304-1.914.702-3.283,2.542-3.283,4.696v1c0,.553.447,1,1,1s1-.447,1-1v-1c0-1.304.836-2.415,2-2.828.174.108.344.216.511.322,2.012,1.275,3.911,2.479,8.487,2.505h.04c1.835,0,3.568-.72,4.886-2.029,1.338-1.331,2.075-3.096,2.075-4.97v-5c0-3.859-3.141-7-7-7Zm0,2c2.757,0,5,2.243,5,5v1.314c-.539-.181-1.205-.314-2-.314-1.185,0-1.971.301-2.664.566-.608.232-1.134.434-1.949.434-1.049,0-1.906-.335-2.387-.575v-6.425h4Zm3.515,13.552c-.939.934-2.173,1.447-3.477,1.447h-.027c-3.58-.021-5.167-.789-6.832-1.818,1.318-.731,2.821-2.035,2.821-4.181v-.41c.646.225,1.46.41,2.387.41,1.185,0,1.971-.301,2.664-.566.608-.232,1.134-.434,1.949-.434.986,0,1.65.291,2,.5v1.5c0,1.338-.527,2.599-1.485,3.552Z"/></svg>
