<?xml version="1.0" encoding="UTF-8"?>
<svg xmlns="http://www.w3.org/2000/svg" id="Layer_1" data-name="Layer 1" viewBox="0 0 24 24" width="512" height="512"><path d="M18,0H8c-2.05,0-3.81,1.24-4.58,3h-1.42c-.55,0-1,.45-1,1s.45,1,1,1h1v2h-1c-.55,0-1,.45-1,1s.45,1,1,1h1v2h-1c-.55,0-1,.45-1,1s.45,1,1,1h1v2h-1c-.55,0-1,.45-1,1s.45,1,1,1h1v2h-1c-.55,0-1,.45-1,1s.45,1,1,1h1.42c.77,1.76,2.54,3,4.58,3h10c2.76,0,5-2.24,5-5V5c0-2.76-2.24-5-5-5ZM5,19V5c0-1.65,1.35-3,3-3V22c-1.65,0-3-1.35-3-3Zm16,0c0,1.65-1.35,3-3,3H10V2h8c1.65,0,3,1.35,3,3v14Z"/></svg>
