<?xml version="1.0" encoding="UTF-8"?>
<svg xmlns="http://www.w3.org/2000/svg" id="Layer_1" data-name="Layer 1" viewBox="0 0 24 24" width="512" height="512"><path d="M18.92,8.982c.028,.002,.053,.018,.081,.018,.218,0,.438-.071,.622-.218,.432-.345,.503-.974,.159-1.405-.91-1.143-2.308-2.065-3.56-2.352-.532-.126-1.075,.212-1.197,.752-.123,.538,.213,1.074,.752,1.197,.698,.16,1.523,.691,2.143,1.333-.435-.194-.914-.308-1.42-.308-1.93,0-3.5,1.57-3.5,3.5s1.57,3.5,3.5,3.5,3.5-1.57,3.5-3.5c0-.99-.417-1.881-1.08-2.518Zm-2.42,4.018c-.827,0-1.5-.673-1.5-1.5s.673-1.5,1.5-1.5,1.5,.673,1.5,1.5-.673,1.5-1.5,1.5Zm-5.5-1.5c0-1.93-1.57-3.5-3.5-3.5-.506,0-.985,.113-1.42,.308,.619-.642,1.445-1.173,2.143-1.333,.539-.123,.875-.659,.752-1.197-.123-.54-.666-.878-1.197-.752-1.252,.286-2.649,1.209-3.56,2.352-.344,.432-.272,1.061,.159,1.405,.184,.146,.404,.218,.622,.218,.028,0,.053-.016,.081-.018-.663,.637-1.08,1.528-1.08,2.518,0,1.93,1.57,3.5,3.5,3.5s3.5-1.57,3.5-3.5Zm-3.5,1.5c-.827,0-1.5-.673-1.5-1.5s.673-1.5,1.5-1.5,1.5,.673,1.5,1.5-.673,1.5-1.5,1.5ZM12,0C5.383,0,0,5.383,0,12s5.383,12,12,12,12-5.383,12-12S18.617,0,12,0Zm0,22c-5.514,0-10-4.486-10-10S6.486,2,12,2s10,4.486,10,10-4.486,10-10,10Zm2.965-3.776c.13,.382-.173,.775-.576,.775-1.151,0-3.63,0-4.788,0-.405,0-.707-.397-.573-.78,.375-1.072,1.532-2.22,2.972-2.22s2.6,1.15,2.965,2.224Z"/></svg>
