<?xml version="1.0" encoding="UTF-8"?>
<svg xmlns="http://www.w3.org/2000/svg" id="Layer_1" data-name="Layer 1" viewBox="0 0 24 24" width="512" height="512"><path d="M17,10c-3.86,0-7,3.14-7,7s3.14,7,7,7,7-3.14,7-7-3.14-7-7-7Zm0,12c-2.76,0-5-2.24-5-5s2.24-5,5-5,5,2.24,5,5-2.24,5-5,5Zm1.5-7.5c0,.83-.67,1.5-1.5,1.5s-1.5-.67-1.5-1.5,.67-1.5,1.5-1.5,1.5,.67,1.5,1.5Zm-.5,3.5v2c0,.55-.45,1-1,1s-1-.45-1-1v-2c0-.55,.45-1,1-1s1,.45,1,1Zm-9,3c0,.55-.45,1-1,1h-3c-2.76,0-5-2.24-5-5V5C0,2.24,2.24,0,5,0h5.76c1.05,0,2.08,.43,2.83,1.17l3.24,3.24c.67,.67,1.08,1.56,1.16,2.5,.04,.55-.37,1.03-.92,1.08-.03,0-.05,0-.08,0-.52,0-.95-.4-1-.92,0-.03,0-.05,0-.08h-2.98c-1.1,0-2-.9-2-2V2.02c-.08,0-.16-.02-.24-.02H5c-1.65,0-3,1.35-3,3v12c0,1.65,1.35,3,3,3h3c.55,0,1,.45,1,1Z"/></svg>
