<?xml version="1.0" encoding="UTF-8"?>
<svg xmlns="http://www.w3.org/2000/svg" id="Layer_1" data-name="Layer 1" viewBox="0 0 24 24" width="512" height="512"><path d="m9,6C4.038,6,0,10.038,0,15s4.038,9,9,9,9-4.038,9-9S13.962,6,9,6Zm0,16c-3.86,0-7-3.14-7-7s3.14-7,7-7,7,3.14,7,7-3.14,7-7,7Zm3.236-4.672c.371.406.347,1.033-.057,1.406-.14.13-1.419,1.266-3.179,1.266s-3.038-1.136-3.178-1.265c-.406-.375-.431-1.007-.057-1.413.375-.404,1.007-.431,1.413-.057.003.003.83.735,1.822.735s1.817-.731,1.826-.738c.407-.368,1.04-.339,1.41.066Zm-5.736-2.328c-.828,0-1.5-.672-1.5-1.5s.672-1.5,1.5-1.5,1.5.672,1.5,1.5-.672,1.5-1.5,1.5Zm6.5-1.5c0,.828-.672,1.5-1.5,1.5s-1.5-.672-1.5-1.5.672-1.5,1.5-1.5,1.5.672,1.5,1.5Zm11-9.5c0,.552-.448,1-1,1h-2v2c0,.552-.448,1-1,1s-1-.448-1-1v-2h-2c-.552,0-1-.448-1-1s.448-1,1-1h2V1c0-.552.448-1,1-1s1,.448,1,1v2h2c.552,0,1,.448,1,1Z"/></svg>
