<?xml version="1.0" encoding="UTF-8"?>
<svg xmlns="http://www.w3.org/2000/svg" id="Layer_1" data-name="Layer 1" viewBox="0 0 24 24" width="512" height="512"><path d="M22.119,3.875c-1.019-1.023-2.717-1.135-3.918-.277l-1.724,1.125c.004-.075,.023-.147,.023-.223,0-2.481-2.019-4.5-4.5-4.5S7.5,2.019,7.5,4.5c0,.076,.019,.148,.023,.223l-1.69-1.102c-1.235-.881-2.936-.771-3.951,.254-.628,.632-.945,1.498-.871,2.376,.074,.879,.528,1.678,1.277,2.212l4.712,3.105v2.188l-2.121,2.121c-.809,.809-1.086,1.984-.725,3.07l1,3c.408,1.228,1.552,2.052,2.845,2.052,.495,0,.99-.126,1.434-.365,1.281-.693,1.857-2.254,1.371-3.71l-.371-1.115,1.567-1.568,1.567,1.568-.371,1.115c-.486,1.456,.09,3.017,1.373,3.711,.441,.238,.937,.364,1.431,.364,1.293,0,2.437-.824,2.846-2.052l1.001-3.001c.36-1.085,.083-2.261-.726-3.069l-2.121-2.121v-2.188l4.743-3.127c.718-.513,1.172-1.312,1.246-2.19,.074-.878-.243-1.744-.87-2.376Zm-10.119-1.875c1.379,0,2.5,1.121,2.5,2.5s-1.121,2.5-2.5,2.5-2.5-1.121-2.5-2.5,1.121-2.5,2.5-2.5Zm-3.419,15.832c-.268,.268-.361,.664-.241,1.023l.567,1.702c.172,.517-.016,1.096-.426,1.318-.55,.292-1.241,.007-1.431-.561l-.999-2.999c-.121-.362-.028-.755,.241-1.024l2.097-2.097,1.885,.943-1.694,1.694Zm9.126-.54c.27,.27,.362,.662,.242,1.023l-1,3c-.19,.567-.889,.852-1.429,.562-.412-.224-.6-.803-.428-1.319l.567-1.702c.12-.359,.026-.756-.241-1.023l-1.694-1.694,1.885-.943,2.097,2.097Zm2.905-10.499l-5.162,3.401c-.281,.185-.45,.499-.45,.835v1.971h-6v-1.971c0-.336-.169-.65-.45-.835L3.419,6.814c-.239-.171-.391-.438-.415-.731-.025-.297,.08-.58,.297-.798,.33-.333,.932-.349,1.404-.012l4.573,2.981c.683,.487,1.486,.745,2.325,.745h.793c.839,0,1.643-.258,2.291-.721l4.642-3.029c.438-.314,1.042-.297,1.37,.035h0c.216,.218,.321,.501,.296,.798-.024,.294-.176,.561-.384,.71Z"/></svg>
