<?xml version="1.0" encoding="UTF-8"?>
<svg xmlns="http://www.w3.org/2000/svg" id="Layer_1" data-name="Layer 1" viewBox="0 0 24 24" width="512" height="512"><path d="M23,18.77v-4.27c0-2.48-2.02-4.5-4.5-4.5h-7c-2.48,0-4.5,2.02-4.5,4.5v4.27c-.61,.55-1,1.35-1,2.23,0,1.65,1.35,3,3,3h12c1.65,0,3-1.35,3-3,0-.89-.39-1.68-1-2.23Zm-14-4.27c0-1.38,1.12-2.5,2.5-2.5h7c1.38,0,2.5,1.12,2.5,2.5v3.5h-2.59c-.53,0-1.04,.21-1.41,.59l-.41,.41h-3.17l-.41-.41c-.37-.37-.89-.59-1.41-.59h-2.59v-3.5Zm12,7.5H9c-.55,0-1-.45-1-1s.45-1,1-1h2.59l.41,.41c.37,.37,.89,.59,1.41,.59h3.17c.53,0,1.04-.21,1.41-.59l.41-.41h2.59c.55,0,1,.45,1,1s-.45,1-1,1ZM4,16c-1.1,0-2-.9-2-2v-5.87c0-.93,.42-1.79,1.15-2.36L7.15,2.64c1.09-.85,2.61-.85,3.7,0l4,3.13c.5,.39,.85,.91,1.03,1.51,.16,.53,.71,.84,1.24,.68,.53-.16,.83-.71,.68-1.24-.29-1.01-.89-1.88-1.71-2.53l-.08-.06V1c0-.55-.45-1-1-1s-1,.45-1,1v1.56l-1.92-1.5C10.27-.36,7.73-.36,5.92,1.06L1.92,4.19c-1.22,.95-1.92,2.39-1.92,3.94v5.87c0,2.21,1.79,4,4,4,.55,0,1-.45,1-1s-.45-1-1-1ZM15.99,4.12h0s0,0,0,0Z"/></svg>
