<?xml version="1.0" encoding="UTF-8"?>
<svg xmlns="http://www.w3.org/2000/svg" id="Layer_1" data-name="Layer 1" viewBox="0 0 24 24">
  <path d="m23,7h-1v-1c0-.552-.448-1-1-1s-1,.448-1,1v1.5l-2.275,1.706c-.243-.779-.648-1.5-1.192-2.127.293-.635.467-1.335.467-2.079,0-2.757-2.243-5-5-5s-5,2.243-5,5c0,.744.174,1.444.467,2.079-.544.628-.949,1.349-1.192,2.127l-2.275-1.706v-1.5c0-.552-.448-1-1-1s-1,.448-1,1v1h-1c-.552,0-1,.448-1,1s.448,1,1,1h1.667l3.359,2.52c.042.483.142.949.292,1.393,0,.001-.003.002-.004.003-.86,1.195-1.314,2.607-1.314,4.084,0,3.86,3.14,7,7,7s7-3.14,7-7c0-1.477-.455-2.889-1.314-4.084,0-.001-.003-.002-.004-.003.15-.444.25-.91.292-1.393l3.359-2.52h1.667c.552,0,1-.448,1-1s-.448-1-1-1Zm-15,4c0-.821.253-1.602.711-2.264.881.777,2.025,1.264,3.289,1.264s2.408-.487,3.289-1.264c.458.663.711,1.444.711,2.264,0,2.206-1.794,4-4,4s-4-1.794-4-4ZM12,2c1.654,0,3,1.346,3,3s-1.346,3-3,3-3-1.346-3-3,1.346-3,3-3Zm5,15c0,2.757-2.243,5-5,5s-5-2.243-5-5c0-.73.165-1.434.465-2.083,1.101,1.273,2.724,2.083,4.535,2.083s3.434-.81,4.535-2.083c.299.649.465,1.354.465,2.083Z"/>
</svg>
