<?xml version="1.0" encoding="UTF-8"?>
<svg xmlns="http://www.w3.org/2000/svg" id="Layer_1" data-name="Layer 1" viewBox="0 0 24 24">
  <path d="m8.038,15.689c-.022.04-.076.132.032.241.109.109.201.053.241.032l1.428-.827c.476-.278,1.089-.114,1.366.364s.114,1.09-.364,1.366l-1.428.827c-.351.203-.731.302-1.109.302-.564,0-1.12-.222-1.548-.65-.715-.714-.855-1.782-.349-2.657l.827-1.428c.276-.479.889-.642,1.366-.364.479.277.642.889.364,1.366l-.827,1.428Zm15.669,6.604c.391.391.391,1.023,0,1.414-.195.195-.451.293-.707.293s-.512-.098-.707-.293L.293,1.707C-.098,1.316-.098.684.293.293S1.316-.098,1.707.293l2.553,2.553C6.425,1.013,9.143,0,12,0c6.617,0,12,5.383,12,12,0,2.853-1.014,5.574-2.846,7.74l2.553,2.553ZM5.677,4.263l4.597,4.597,4.417-2.557c.876-.507,1.943-.367,2.657.348.715.715.854,1.783.348,2.658l-2.557,4.416,4.597,4.597c1.459-1.783,2.264-4,2.264-6.322,0-5.514-4.486-10-10-10-2.324,0-4.541.803-6.323,2.263Zm7.999,7.999l2.29-3.955c.023-.04.077-.133-.031-.241-.109-.11-.202-.055-.241-.032l-3.956,2.29,1.938,1.938Zm2.495,8.829c-1.311.603-2.714.909-4.171.909-5.514,0-10-4.486-10-10,0-1.426.293-2.802.872-4.09.227-.503.002-1.095-.502-1.322-.507-.227-1.095-.001-1.322.502-.695,1.547-1.048,3.199-1.048,4.91,0,6.617,5.383,12,12,12,1.747,0,3.432-.367,5.007-1.091.502-.231.722-.825.49-1.327-.229-.501-.822-.72-1.326-.491Z"/>
</svg>
