<?xml version="1.0" encoding="UTF-8"?>
<svg xmlns="http://www.w3.org/2000/svg" id="Layer_1" data-name="Layer 1" viewBox="0 0 24 24">
  <path d="m23.25.601c-.49-.448-1.147-.663-1.802-.586-5.656.654-8.256,4.435-9.448,7.57C10.808,4.45,8.208.669,2.552.015,1.902-.061,1.24.153.75.601.265,1.046-.004,1.674.013,2.323c.087,3.27,1.156,5.867,3.179,7.72,2.607,2.388,6.082,2.863,7.809,2.943v10.014c0,.552.447,1,1,1s1-.448,1-1v-10.014c1.727-.08,5.202-.555,7.809-2.943,2.022-1.853,3.092-4.45,3.179-7.72.017-.649-.252-1.277-.737-1.722ZM4.532,8.559c-1.601-1.472-2.448-3.588-2.52-6.289h0c-.003-.096.054-.163.088-.194.033-.03.099-.076.189-.076,6.564.759,8.204,6.539,8.591,8.973-1.509-.099-4.317-.545-6.349-2.414ZM21.987,2.271c-.071,2.701-.919,4.817-2.52,6.289-2.033,1.87-4.845,2.315-6.353,2.414.379-2.432,2.003-8.21,8.595-8.973.091,0,.156.046.189.076.034.031.091.098.088.193h0Z"/>
</svg>
