<?xml version="1.0" encoding="UTF-8"?>
<svg xmlns="http://www.w3.org/2000/svg" id="Layer_1" data-name="Layer 1" viewBox="0 0 24 24" width="512" height="512"><path d="m12.749.024c-3.079-.2-6.01.841-8.258,2.944C2.272,5.044,1,7.971,1,11v4c0,2.421,1.729,4.445,4.018,4.903.205,2.293,2.136,4.097,4.482,4.097h5c2.346,0,4.277-1.804,4.482-4.097,2.289-.458,4.018-2.482,4.018-4.903v-3.647C23,5.384,18.497.408,12.749.024Zm8.251,14.976c0,1.654-1.346,3-3,3-.552,0-1,.447-1,1v.5c0,1.379-1.122,2.5-2.5,2.5h-5c-1.378,0-2.5-1.121-2.5-2.5v-.5c0-.553-.448-1-1-1-1.654,0-3-1.346-3-3v-4c0-2.478,1.041-4.872,2.856-6.571,1.688-1.579,3.848-2.429,6.138-2.429.206,0,.413.007.621.021,4.701.313,8.384,4.413,8.384,9.332v3.647Zm-11-4c0,1.105-.895,2-2,2s-2-.895-2-2,.895-2,2-2,2,.895,2,2Zm8,0c0,1.105-.895,2-2,2s-2-.895-2-2,.895-2,2-2,2,.895,2,2Zm-4,5.997c0,1.105-.895,1-2,1s-2,.105-2-1,.895-3,2-3,2,1.895,2,3Z"/></svg>
