<?xml version="1.0" encoding="UTF-8"?>
<svg xmlns="http://www.w3.org/2000/svg" id="Layer_1" data-name="Layer 1" viewBox="0 0 24 24" width="512" height="512"><path d="M12,0c-1.65,0-3,1.35-3,3V21c0,1.65,1.35,3,3,3s3-1.35,3-3V3c0-1.65-1.35-3-3-3Zm1,21c0,.55-.45,1-1,1s-1-.45-1-1V3c0-.55,.45-1,1-1s1,.45,1,1V21ZM21,6c-1.65,0-3,1.35-3,3v12c0,1.65,1.35,3,3,3s3-1.35,3-3V9c0-1.65-1.35-3-3-3Zm1,15c0,.55-.45,1-1,1s-1-.45-1-1V9c0-.55,.45-1,1-1s1,.45,1,1v12ZM3,12c-1.65,0-3,1.35-3,3v6c0,1.65,1.35,3,3,3s3-1.35,3-3v-6c0-1.65-1.35-3-3-3Zm1,9c0,.55-.45,1-1,1s-1-.45-1-1v-6c0-.55,.45-1,1-1s1,.45,1,1v6Z"/></svg>
