<?xml version="1.0" encoding="UTF-8"?>
<svg xmlns="http://www.w3.org/2000/svg" id="Layer_1" data-name="Layer 1" viewBox="0 0 24 24">
  <path d="m13.861,22h-5.728c-1.554,0-2.837-1.166-2.986-2.713l-1.277-13.287h14.236l-.086.905c-.053.55.351,1.038.9,1.09.032.004.064.005.096.005.51,0,.945-.388.994-.905l.104-1.095h.886c.553,0,1-.447,1-1s-.447-1-1-1h-4.101c-.465-2.279-2.485-4-4.899-4h-2c-2.414,0-4.435,1.721-4.899,4H1c-.553,0-1,.447-1,1s.447,1,1,1h.861l1.296,13.479c.247,2.578,2.387,4.521,4.977,4.521h5.728c.553,0,1-.447,1-1s-.447-1-1-1ZM10,2h2c1.304,0,2.415.836,2.828,2h-7.656c.413-1.164,1.524-2,2.828-2Zm14,9c0,.553-.447,1-1,1h-6c-.553,0-1-.447-1-1s.447-1,1-1h6c.553,0,1,.447,1,1Zm-2,5c0,.553-.447,1-1,1h-4c-.553,0-1-.447-1-1s.447-1,1-1h4c.553,0,1,.447,1,1Zm-2,5c0,.553-.447,1-1,1h-2c-.553,0-1-.447-1-1s.447-1,1-1h2c.553,0,1,.447,1,1Z"/>
</svg>
