<?xml version="1.0" encoding="UTF-8"?>
<svg xmlns="http://www.w3.org/2000/svg" id="Layer_1" data-name="Layer 1" viewBox="0 0 24 24" width="512" height="512"><path d="m23.994,4.752C23.867,2.173,21.827.133,19.248.006c-1.328-.068-2.611.419-3.603,1.363-1.046.996-1.646,2.397-1.646,3.845v2.458c0,1.6,1.037,2.328,2,2.328h2.782c1.449,0,2.852-.601,3.849-1.647.944-.991,1.428-2.27,1.363-3.601Zm-2.812,2.222c-.621.652-1.496,1.026-2.4,1.026l-2.715.035s-.067-.092-.067-.363v-2.458c0-.902.373-1.776,1.024-2.396.557-.53,1.396-.813,2.126-.813,1.547.075,2.771,1.299,2.846,2.846.038.778-.251,1.533-.813,2.124Zm-18.183-.974C3,2.691,5.691,0,9,0,9.834,0,10.642.168,11.4.5c.506.221.737.811.516,1.316-.22.506-.808.742-1.316.516-.505-.22-1.043-.332-1.6-.332-2.206,0-4,1.794-4,4s1.794,4,4,4c.557,0,1.095-.112,1.6-.332.509-.223,1.097.01,1.316.516.222.506-.01,1.096-.516,1.316-.759.332-1.566.5-2.4.5-3.309,0-6-2.691-6-6Zm17,17c0,.553-.447,1-1,1s-1-.447-1-1c0-2.786-1.637-5.198-4-6.324v2.496c1.164.413,2,1.524,2,2.828v1c0,.553-.447,1-1,1s-1-.447-1-1v-1c0-.552-.448-1-1-1s-1,.448-1,1v1c0,.553-.447,1-1,1s-1-.447-1-1v-1c0-1.304.836-2.415,2-2.828v-3.1c-.327-.047-.661-.072-1-.072h-2c-.695,0-1.366.102-2,.292v2.977c.598.346,1,.992,1,1.732,0,1.105-.895,2-2,2s-2-.895-2-2c0-.74.402-1.386,1-1.732v-2.009c-1.812,1.267-3,3.368-3,5.741,0,.553-.447,1-1,1S0,23.553,0,23C0,18.037,4.037,14,9,14h2c4.963,0,9,4.037,9,9Z"/></svg>
