<?xml version="1.0" encoding="UTF-8"?>
<svg xmlns="http://www.w3.org/2000/svg" id="Layer_1" data-name="Layer 1" viewBox="0 0 24 24" width="512" height="512"><path d="m21,9h-1.683l3.657-3.025c.661-.661,1.025-1.54,1.025-2.475s-.364-1.814-1.025-2.475c-1.322-1.322-3.563-1.393-5.013.07l-6.53,7.904H3c-.917,0-1.77.411-2.339,1.128-.58.73-.791,1.674-.578,2.59.629,2.708,2.462,5.296,5.029,7.1.403.233.888.853.888,1.182,0,.551-.448,1-1,1s-1,.448-1,1,.447,1,1,1h14c.553,0,1-.448,1-1s-.447-1-1-1-1-.449-1-1c0-.329.484-.949.888-1.182,2.567-1.804,4.4-4.392,5.029-7.101.213-.915.002-1.859-.578-2.589-.569-.717-1.422-1.128-2.339-1.128Zm-1.561-6.561c.584-.585,1.537-.584,2.121,0,.283.283.439.66.439,1.06s-.156.777-.369.997l-5.451,4.503h-2.156l5.416-6.561Zm-3.267,19.561H7.828c.111-.313.172-.649.172-1,0-.341-.075-.679-.202-1h8.405c-.128.321-.202.659-.202,1,0,.351.061.687.172,1Zm5.798-9.735c-.5,2.148-1.943,4.223-3.98,5.735H6.011c-2.037-1.512-3.48-3.587-3.98-5.734-.073-.318-.002-.643.196-.893.111-.139.358-.373.773-.373h18c.415,0,.662.233.773.373.198.25.27.575.196.893Z"/></svg>
