<?xml version="1.0" encoding="UTF-8"?>
<svg xmlns="http://www.w3.org/2000/svg" id="Layer_1" data-name="Layer 1" viewBox="0 0 24 24" width="512" height="512"><path d="M24,10v9c0,2.76-2.24,5-5,5H5c-2.76,0-5-2.24-5-5V8C0,5.24,2.24,3,5,3H13c.55,0,1,.45,1,1s-.45,1-1,1H5c-1.15,0-2.14,.65-2.65,1.59l7.53,7.53c1.17,1.17,3.07,1.17,4.24,0l3.82-3.82c.39-.39,1.02-.39,1.41,0s.39,1.02,0,1.41l-3.82,3.82c-.97,.97-2.26,1.46-3.54,1.46s-2.56-.49-3.54-1.46L2,9.07v9.93c0,1.65,1.35,3,3,3h14c1.65,0,3-1.35,3-3V10c0-.55,.45-1,1-1s1,.45,1,1Zm-8-6c0-2.21,1.79-4,4-4s4,1.79,4,4-1.79,4-4,4-4-1.79-4-4Zm2,0c0,1.1,.9,2,2,2s2-.9,2-2-.9-2-2-2-2,.9-2,2Z"/></svg>
