<?xml version="1.0" encoding="UTF-8"?>
<svg xmlns="http://www.w3.org/2000/svg" id="Layer_1" data-name="Layer 1" viewBox="0 0 24 24" width="512" height="512"><path d="M19.71,15.71l-1.29,1.29,1.29,1.29c.39,.39,.39,1.02,0,1.41-.2,.2-.45,.29-.71,.29s-.51-.1-.71-.29l-1.29-1.29-1.29,1.29c-.2,.2-.45,.29-.71,.29s-.51-.1-.71-.29c-.39-.39-.39-1.02,0-1.41l1.29-1.29-1.29-1.29c-.39-.39-.39-1.02,0-1.41s1.02-.39,1.41,0l1.29,1.29,1.29-1.29c.39-.39,1.02-.39,1.41,0s.39,1.02,0,1.41Zm4.29,1.29c0,3.86-3.14,7-7,7s-7-3.14-7-7,3.14-7,7-7,7,3.14,7,7Zm-2,0c0-2.76-2.24-5-5-5s-5,2.24-5,5,2.24,5,5,5,5-2.24,5-5Zm-14,3c0,.55-.45,1-1,1h-2c-2.76,0-5-2.24-5-5V5C0,2.24,2.24,0,5,0c0,0,10.22-.04,10.33,0,.59,.11,1.14,.46,1.57,.89l3.24,3.27c.56,.56,.87,1.31,.87,2.11v.73c0,.55-.45,1-1,1s-1-.45-1-1v-.73c0-.27-.1-.52-.29-.7l-2.71-2.73v3.17c0,1.1-.9,2-2,2H7c-1.1,0-2-.9-2-2V2c-1.65,0-3,1.35-3,3v11c0,1.65,1.35,3,3,3h2c.55,0,1,.45,1,1ZM14,6V2H7V6h7Zm-3.8,6.03c.54-.11,.89-.64,.78-1.18-.11-.54-.64-.89-1.18-.78-.67,.14-1.29,.47-1.78,.95-.83,.83-1.19,2.02-.96,3.17,.1,.47,.51,.8,.98,.8,.07,0,.13,0,.2-.02,.54-.11,.89-.64,.78-1.18-.1-.5,.05-1,.41-1.36,.21-.21,.47-.35,.76-.41Z"/></svg>
