<?xml version="1.0" encoding="UTF-8"?>
<svg xmlns="http://www.w3.org/2000/svg" id="Layer_1" data-name="Layer 1" viewBox="0 0 24 24" width="512" height="512"><path d="m23,9h-1v-5c0-2.206-1.794-4-4-4H6C3.794,0,2,1.794,2,4v5h-1c-.552,0-1,.447-1,1s.448,1,1,1h1v5c0,2.206,1.794,4,4,4h.923l3.748,3.156c.382.34.862.509,1.338.509.467,0,.931-.163,1.292-.485l3.847-3.18h.852c2.206,0,4-1.794,4-4v-5h1c.552,0,1-.447,1-1s-.448-1-1-1Zm-3,7c0,1.103-.897,2-2,2h-1.211c-.232,0-.458.081-.637.229l-4.172,3.415-4.047-3.409c-.18-.152-.408-.235-.644-.235h-1.289c-1.103,0-2-.897-2-2V4c0-1.103.897-2,2-2h12c1.103,0,2,.897,2,2v12Zm-4-10h-8c-1.105,0-2,.895-2,2v5c0,1.105.895,2,2,2h8c1.105,0,2-.895,2-2v-5c0-1.105-.895-2-2-2Zm-6.5,6c-.828,0-1.5-.672-1.5-1.5s.672-1.5,1.5-1.5,1.5.672,1.5,1.5-.672,1.5-1.5,1.5Zm5,0c-.828,0-1.5-.672-1.5-1.5s.672-1.5,1.5-1.5,1.5.672,1.5,1.5-.672,1.5-1.5,1.5Z"/></svg>
