<?xml version="1.0" encoding="UTF-8"?>
<svg xmlns="http://www.w3.org/2000/svg" id="Layer_1" data-name="Layer 1" viewBox="0 0 24 24">
  <path d="m19,4h-.5l-2.1-2.801c-.564-.751-1.461-1.199-2.399-1.199h-4c-.938,0-1.835.448-2.4,1.2l-2.1,2.8h-.5C2.243,4,0,6.243,0,9v10c0,2.757,2.243,5,5,5h14c2.757,0,5-2.243,5-5v-10c0-2.757-2.243-5-5-5Zm-9.801-1.6c.188-.251.488-.4.801-.4h4c.313,0,.612.149.8.399l1.2,1.601H8l1.2-1.6Zm12.801,16.6c0,1.654-1.346,3-3,3H5c-1.654,0-3-1.346-3-3v-10c0-1.654,1.346-3,3-3h14c1.654,0,3,1.346,3,3v10Zm-4-10v2c0,1.103-.897,2-2,2h-2c-.552,0-1-.447-1-1s.448-1,1-1h.643c-.721-.634-1.659-1-2.643-1-1.591,0-3.03.942-3.667,2.4-.165.376-.532.6-.917.6-.134,0-.27-.026-.4-.084-.506-.221-.737-.811-.516-1.316.956-2.187,3.115-3.6,5.5-3.6,1.492,0,2.913.562,4,1.532v-.532c0-.553.448-1,1-1s1,.447,1,1Zm-.5,7.4c-.956,2.187-3.115,3.6-5.5,3.6-1.474,0-2.88-.548-3.961-1.496v.496c0,.553-.448,1-1,1s-1-.447-1-1v-2c0-1.103.897-2,2-2h1.961c.552,0,1,.447,1,1s-.448,1-1,1h-.643c.721.634,1.659,1,2.643,1,1.591,0,3.03-.942,3.667-2.4.222-.507.811-.738,1.317-.516.506.221.737.811.516,1.316Z"/>
</svg>
