<?xml version="1.0" encoding="UTF-8"?>
<svg xmlns="http://www.w3.org/2000/svg" id="Layer_1" data-name="Layer 1" viewBox="0 0 24 24" width="512" height="512"><path d="m16.713,13.804c.384.393.381,1.02-.009,1.406-.074.073-1.84,1.79-4.704,1.79s-4.63-1.716-4.704-1.79c-.392-.389-.396-1.021-.007-1.414.39-.392,1.021-.396,1.415-.007.046.045,1.28,1.21,3.296,1.21s3.25-1.166,3.302-1.215c.396-.382,1.028-.374,1.411.02Zm-8.213-2.804c.828,0,1.5-.672,1.5-1.5s-.672-1.5-1.5-1.5-1.5.672-1.5,1.5.672,1.5,1.5,1.5Zm7-3c-.828,0-1.5.672-1.5,1.5s.672,1.5,1.5,1.5,1.5-.672,1.5-1.5-.672-1.5-1.5-1.5Zm8.5,4.34v6.66c0,2.757-2.243,5-5,5h-5.917C6.082,24,.471,19.208.029,12.854c-.24-3.476,1.027-6.878,3.479-9.333C5.962,1.065,9.371-.205,12.836.029c6.261.425,11.164,5.833,11.164,12.312Zm-2,0c0-5.431-4.085-9.962-9.299-10.316-.229-.016-.458-.023-.687-.023-2.656,0-5.209,1.048-7.091,2.933-2.043,2.046-3.1,4.883-2.898,7.782.372,5.38,5.023,9.285,11.058,9.285h5.917c1.654,0,3-1.346,3-3v-6.66Z"/></svg>
