<?xml version="1.0" encoding="UTF-8"?>
<svg xmlns="http://www.w3.org/2000/svg" id="Layer_1" data-name="Layer 1" viewBox="0 0 24 24">
  <path d="m23,0h-1.024c-1.323,0-2.476.849-2.865,2.113-.072.234-.152.496-.239.782l-.17-.053c-.475-.147-.825-.255-1.072-.339-.522-.179-1.091.1-1.27.624-.179.522.101,1.091.623,1.269.261.089.629.203,1.128.357l.191.059c-.228.774-.476,1.622-.734,2.508l-.314-.098c-.488-.151-.848-.262-1.101-.348-.523-.176-1.091.103-1.269.625-.177.523.104,1.091.626,1.268.265.09.641.207,1.151.365l.346.107c-.259.889-.519,1.783-.773,2.651-.834,2.366-2.229,5.109-3.759,5.109-1.318,0-1.472-1.049-1.476-1.5v-3.488c.012-.461.189-1.012.976-1.012.553,0,1-.448,1-1s-.447-1-1-1H.976C.423,9-.024,9.448-.024,10s.447,1,1,1c.351,0,.606.079.761.235.221.223.266.609.264.765v4.332c0,2.976,1.223,5.406,3.354,6.666,1.078.636,2.364.983,3.646,1.003,3.188,0,6.146-1.937,7.102-4.745.383-1.124,1.158-3.74,2.012-6.662.407-1.161,2.443-8.388,2.907-9.89.13-.42.514-.703.955-.703h1.024c.553,0,1-.448,1-1s-.447-1-1-1Zm-8.791,18.61c-.691,2.033-2.786,3.415-5.218,3.39-.935-.015-1.84-.265-2.619-.725-1.508-.891-2.372-2.692-2.372-4.943v-4.293c.002-.077.01-.514-.153-1.039h5.318c-.113.345-.165.692-.165,1v3.49c-.002.156.014,1.557,1.012,2.565.427.431,1.201.944,2.464.944.643,0,1.233-.187,1.773-.507-.014.041-.027.08-.039.117ZM1.044,5.745c.249-.93.855-1.918,1.303-2.493.319-.41.968-.3,1.153.185.179.472.376,1.593.876,1.593,1.21,0,.536-2.589,1.372-4.396C6.042-.003,6.848-.205,7.389.241c1.617,1.332,3.975,3.248,4.575,5.492.187.698-.248,1.268-.971,1.268l-8.984.017c-.727,0-1.153-.569-.965-1.272Zm7.956,18.255c.041,0-.041,0,0,0h0Z"/>
</svg>
