<?xml version="1.0" encoding="UTF-8"?>
<svg xmlns="http://www.w3.org/2000/svg" id="Layer_1" data-name="Layer 1" viewBox="0 0 24 24">
  <path d="m23.542,1.772l-1.315-1.314c-.539-.539-1.388-.611-2.01-.169l-1.209.934c-.644.497-1.059,1.235-1.149,2.044l-.183,1.644-2.091,2.091h-7.086C3.813,7,0,10.813,0,15.5c0,2.271.884,4.405,2.49,6.011,1.606,1.605,3.741,2.489,6.01,2.489,4.687,0,8.5-3.813,8.5-8.5v-7.086l2.091-2.091,1.644-.183c.809-.09,1.546-.504,2.044-1.149l.934-1.209c.441-.622.37-1.471-.169-2.01Zm-8.542,13.728c0,3.584-2.916,6.5-6.5,6.5-1.735,0-3.368-.676-4.596-1.903-1.228-1.228-1.904-2.86-1.904-4.597,0-3.584,2.916-6.5,6.5-6.5h5.086l-3.422,3.422c-.495-.269-1.062-.422-1.664-.422-1.93,0-3.5,1.57-3.5,3.5s1.57,3.5,3.5,3.5,3.5-1.57,3.5-3.5c0-.602-.153-1.169-.422-1.664l3.422-3.422v5.086Zm-5,0c0,.827-.673,1.5-1.5,1.5s-1.5-.673-1.5-1.5.673-1.5,1.5-1.5c1.5,0,1.5,1.5,1.5,1.5Z"/>
</svg>
