<?xml version="1.0" encoding="UTF-8"?>
<svg xmlns="http://www.w3.org/2000/svg" id="Layer_1" data-name="Layer 1" viewBox="0 0 24 24" width="512" height="512"><path d="m17.95,5.227c-.38-2.945-2.904-5.227-5.95-5.227s-5.57,2.282-5.95,5.227C2.192,6.014,0,7.492,0,9.333c0,3.063,6.037,4.667,12,4.667s12-1.604,12-4.667c0-1.841-2.192-3.319-6.05-4.106Zm-5.95-3.227c2.206,0,4,1.794,4,4v.049s0,.006,0,.009v.148c-.475.285-1.652.795-4,.795-2.365,0-3.542-.517-4-.79v-.152s0-.006,0-.009v-.049c0-2.206,1.794-4,4-4Zm0,10c-6.204,0-10-1.727-10-2.667,0-.398,1.074-1.41,4.168-2.087.022.032.044.064.07.094.236.277,1.621,1.66,5.762,1.66s5.526-1.383,5.762-1.66c.025-.03.048-.062.07-.094,3.094.677,4.168,1.689,4.168,2.087,0,.94-3.796,2.667-10,2.667Zm-5.081,4.394l-3,7c-.162.38-.531.606-.919.606-.131,0-.265-.025-.394-.081-.507-.218-.743-.806-.525-1.312l3-7c.217-.509.803-.747,1.313-.525.507.218.743.806.525,1.312Zm15,6.213c.218.507-.018,1.095-.525,1.312-.128.056-.262.081-.394.081-.388,0-.757-.227-.919-.606l-3-7c-.218-.507.018-1.095.525-1.312.509-.221,1.096.018,1.313.525l3,7Z"/></svg>
