<?xml version="1.0" encoding="UTF-8"?>
<svg xmlns="http://www.w3.org/2000/svg" id="Layer_1" data-name="Layer 1" viewBox="0 0 24 24" width="512" height="512"><path d="m12.038.02C5.421.02.038,5.402.038,12.02s5.383,12,12,12,12-5.383,12-12S18.655.02,12.038.02Zm0,22c-5.514,0-10-4.486-10-10S6.524,2.02,12.038,2.02s10,4.486,10,10-4.486,10-10,10Zm0-16.25c-2.757,0-5,2.243-5,5v2.5c0,2.757,2.243,5,5,5,1.082,0,2.085-.346,2.904-.932l.389.389c.195.195.451.293.707.293s.512-.098.707-.293c.391-.391.391-1.023,0-1.414l-.44-.44c.465-.759.733-1.65.733-2.603v-2.5c0-2.757-2.243-5-5-5Zm1.707,7.543c-.391-.391-1.023-.391-1.414,0s-.391,1.023,0,1.414l1.164,1.164c-.432.241-.929.379-1.457.379-1.654,0-3-1.346-3-3v-2.5c0-1.654,1.346-3,3-3s3,1.346,3,3v2.5c0,.395-.078.773-.217,1.119l-1.076-1.076Z"/></svg>
