<?xml version="1.0" encoding="UTF-8"?>
<svg xmlns="http://www.w3.org/2000/svg" id="Layer_1" data-name="Layer 1" viewBox="0 0 24 24" width="512" height="512"><path d="M18.997,14.071c.03-.42-.206-.813-.59-.985-.383-.169-.834-.083-1.128,.22-3.179,3.302-8.296,3.692-8.347,3.696-.524,.036-.933,.472-.933,.998v1.6c0,1.635,1.147,3.4,3,3.4,1.771,0,2.897-1.612,2.993-3.182,3.676-.949,4.887-4.104,5.004-5.747Zm-6.997,5.529c0,.662-.411,1.4-1,1.4s-1-.738-1-1.4v-.713c.514-.079,1.206-.21,2-.426v1.14Zm-5-5.6c-1.105,0-2-.895-2-2s.895-2,2-2,2,.895,2,2-.895,2-2,2Zm11-5.5c0-1.93-1.57-3.5-3.5-3.5s-3.5,1.57-3.5,3.5,1.57,3.5,3.5,3.5,3.5-1.57,3.5-3.5Zm-5,0c0-.827,.673-1.5,1.5-1.5s1.5,.673,1.5,1.5-.673,1.5-1.5,1.5-1.5-.673-1.5-1.5Zm11,3.5c0,4.981-2.997,9.37-7.637,11.182-.119,.046-.242,.069-.363,.069-.399,0-.777-.242-.932-.637-.201-.515,.054-1.094,.568-1.295,3.865-1.509,6.363-5.167,6.363-9.318,0-5.514-4.486-10-10-10S2,6.486,2,12c0,2.995,1.325,5.806,3.637,7.715,.426,.352,.486,.982,.135,1.408-.353,.424-.981,.485-1.408,.134C1.591,18.967,0,15.593,0,12,0,5.383,5.383,0,12,0s12,5.383,12,12Z"/></svg>
