<?xml version="1.0" encoding="UTF-8"?>
<svg xmlns="http://www.w3.org/2000/svg" id="Layer_1" data-name="Layer 1" viewBox="0 0 24 24" width="512" height="512"><path d="m22,13H2C.897,13,0,13.897,0,15v4C0,21.757,2.243,24,5,24h14c2.757,0,5-2.243,5-5v-4c0-1.103-.897-2-2-2Zm-17,2h2v2c0,.552-.449,1-1,1s-1-.448-1-1v-2Zm4,0h2v2c0,.552-.449,1-1,1s-1-.448-1-1v-2Zm4,0h2v2c0,.552-.449,1-1,1s-1-.448-1-1v-2Zm4,0h2v2c0,.552-.449,1-1,1s-1-.448-1-1v-2Zm5,4c0,1.654-1.346,3-3,3H5c-1.654,0-3-1.346-3-3v-4h1v2c0,1.654,1.346,3,3,3,.768,0,1.469-.29,2-.766.531.476,1.232.766,2,.766s1.469-.29,2-.766c.531.476,1.232.766,2,.766s1.469-.29,2-.766c.531.476,1.232.766,2,.766,1.654,0,3-1.346,3-3v-2h1v4ZM19,0H5C2.243,0,0,2.243,0,5v4C0,10.103.897,11,2,11h20c1.103,0,2-.897,2-2v-4c0-2.757-2.243-5-5-5Zm-4,9h-2v-3c0-.552.449-1,1-1s1,.448,1,1v3Zm-4,0h-2v-3c0-.552.449-1,1-1s1,.448,1,1v3Zm-4,0h-2v-2c0-.552.449-1,1-1s1,.448,1,1v2Zm10,0v-2c0-.552.449-1,1-1s1,.448,1,1v2h-2Zm4,0v-2c0-1.654-1.346-3-3-3-.535,0-1.037.141-1.472.388-.534-.833-1.467-1.388-2.528-1.388-.768,0-1.469.29-2,.766-.531-.476-1.232-.766-2-.766-1.061,0-1.994.554-2.528,1.388-.435-.246-.937-.388-1.472-.388-1.654,0-3,1.346-3,3v2h-1v-4c0-1.654,1.346-3,3-3h14c1.654,0,3,1.346,3,3v4s-1,0-1,0Z"/></svg>
