<?xml version="1.0" encoding="UTF-8"?>
<svg xmlns="http://www.w3.org/2000/svg" id="Layer_1" data-name="Layer 1" viewBox="0 0 24 24" width="512" height="512"><path d="m24,20c0,2.206-1.794,4-4,4s-4-1.794-4-4V2h-7v13.612c0,4.981-3.184,7.995-3.32,8.121-.192.179-.437.267-.68.267-.268,0-.536-.107-.733-.32-.375-.405-.352-1.037.053-1.413.024-.023,2.68-2.572,2.68-6.655V2h-.5c-4.374,0-4.5,3.585-4.5,3.994,0,.55-.444,1-.995,1.003h-.005c-.548,0-.994-.438-1-.986,0-.102-.007-2.504,1.726-4.257C2.877.59,4.483,0,6.5,0h16.5c.552,0,1,.448,1,1s-.448,1-1,1h-5v18c0,1.103.897,2,2,2s2-.897,2-2c0-.552.448-1,1-1s1,.448,1,1Z"/></svg>
