<?xml version="1.0" encoding="UTF-8"?>
<svg xmlns="http://www.w3.org/2000/svg" id="Layer_1" data-name="Layer 1" viewBox="0 0 24 24" width="512" height="512"><path d="M19,3h-6.53c-.15,0-.31-.04-.45-.11l-3.16-1.58c-.41-.21-.88-.32-1.34-.32h-2.53C2.24,1,0,3.24,0,6v12c0,2.76,2.24,5,5,5h14c2.76,0,5-2.24,5-5V8c0-2.76-2.24-5-5-5Zm-14,0h2.53c.15,0,.31,.04,.45,.11l3.16,1.58c.41,.21,.88,.32,1.34,.32h6.53c1.3,0,2.42,.84,2.83,2H2v-1c0-1.65,1.35-3,3-3Zm14,18H5c-1.65,0-3-1.35-3-3V9H22v9c0,1.65-1.35,3-3,3Zm-3.79-7.79l-1.79,1.79,1.79,1.79c.39,.39,.39,1.02,0,1.41-.2,.2-.45,.29-.71,.29s-.51-.1-.71-.29l-1.79-1.79-1.79,1.79c-.2,.2-.45,.29-.71,.29s-.51-.1-.71-.29c-.39-.39-.39-1.02,0-1.41l1.79-1.79-1.79-1.79c-.39-.39-.39-1.02,0-1.41s1.02-.39,1.41,0l1.79,1.79,1.79-1.79c.39-.39,1.02-.39,1.41,0s.39,1.02,0,1.41Z"/></svg>
