<?xml version="1.0" encoding="UTF-8"?>
<svg xmlns="http://www.w3.org/2000/svg" id="Layer_1" data-name="Layer 1" viewBox="0 0 24 24" width="512" height="512"><path d="M13.04,.719c.156-.53,.713-.833,1.241-.679,1.843,.54,3.114,1.809,3.677,3.671,.16,.529-.14,1.087-.668,1.247-.096,.029-.194,.043-.29,.043-.429,0-.826-.279-.957-.711-.373-1.234-1.111-1.974-2.323-2.329-.53-.155-.834-.711-.679-1.241Zm10.96,7.265v6.17c0,2.381-.969,4.708-2.658,6.386l-.815,.81c-1.721,1.709-4.104,2.65-6.526,2.65-2.454-.021-4.725-1.006-6.436-2.766L.842,14.316c-.964-.965-1.119-2.506-.35-3.576,.238-.33,.541-.599,.885-.793l-.344-.344C.058,8.628-.097,7.086,.674,6.017c.352-.489,.846-.841,1.405-1.018-.127-.71,.005-1.451,.434-2.047,.474-.658,1.205-1.073,2.006-1.137,.711-.055,1.398,.177,1.942,.622,.051-.094,.099-.19,.162-.278,.474-.658,1.205-1.072,2.005-1.137,.809-.064,1.586,.224,2.154,.792l7.218,7.218v-.939c0-1.517,1.076-2.835,2.504-3.067,.879-.141,1.768,.103,2.439,.674,.672,.571,1.057,1.404,1.057,2.286Zm-2,0c0-.294-.128-.572-.353-.762-.228-.193-.521-.271-.823-.224-.462,.075-.825,.555-.825,1.093v3.354c0,.404-.244,.769-.617,.924-.375,.154-.804,.069-1.09-.217L9.368,3.227c-.153-.153-.364-.227-.579-.212-.126,.01-.365,.064-.543,.312-.2,.278-.134,.719,.15,1.003l5.051,5.051c.391,.391,.391,1.023,0,1.414-.195,.195-.451,.293-.707,.293s-.512-.098-.707-.293L5.258,4.021c-.152-.152-.359-.229-.579-.212-.126,.01-.365,.064-.543,.312-.2,.278-.134,.718,.15,1.003l6.71,6.71c.391,.391,.391,1.023,0,1.414-.195,.195-.451,.293-.707,.293s-.512-.098-.707-.293L3.419,7.085c-.152-.152-.372-.23-.578-.212-.126,.01-.365,.064-.544,.313-.2,.278-.134,.718,.15,1.003l6.097,6.097c.391,.391,.391,1.023,0,1.414s-1.023,.391-1.414,0l-3.891-3.891c-.152-.152-.364-.228-.579-.212-.126,.01-.365,.064-.544,.312-.2,.278-.134,.719,.151,1.003l6.732,6.929c1.335,1.374,3.125,2.14,5.041,2.157,1.885,.003,3.718-.717,5.078-2.066l.815-.81c1.314-1.305,2.067-3.115,2.067-4.967V7.984ZM4.281,21.04c-1.212-.355-1.951-1.095-2.323-2.329-.16-.529-.718-.825-1.247-.668-.529,.16-.828,.718-.668,1.247,.562,1.862,1.834,3.131,3.677,3.671,.094,.027,.188,.041,.281,.041,.433,0,.832-.283,.959-.72,.155-.53-.149-1.085-.679-1.241Z"/></svg>
