<?xml version="1.0" encoding="UTF-8"?>
<svg xmlns="http://www.w3.org/2000/svg" id="Layer_1" data-name="Layer 1" viewBox="0 0 24 24" width="512" height="512"><path d="M23.017,8.785c-.595-.542-1.362-.815-2.168-.782-.804,.038-1.544,.387-2.086,.981l-3.216,3.534c-.551-.909-1.55-1.519-2.689-1.519H4c-2.206,0-4,1.794-4,4v5c0,2.206,1.794,4,4,4h4.965c2.849,0,5.57-1.22,7.466-3.348l6.805-7.638c1.093-1.227,.994-3.124-.219-4.229Zm-1.274,2.899l-6.805,7.638c-1.517,1.701-3.694,2.678-5.973,2.678H4c-1.103,0-2-.897-2-2v-5c0-1.103,.897-2,2-2H12.858c.63,0,1.142,.513,1.142,1.143,0,.564-.421,1.051-.981,1.13l-5.161,.737c-.546,.078-.926,.585-.848,1.132,.079,.547,.585,.926,1.131,.849l5.16-.737c1.175-.168,2.13-.988,2.515-2.059l4.426-4.864c.182-.199,.43-.316,.7-.329,.272-.011,.528,.081,.728,.263,.407,.371,.44,1.009,.073,1.421Zm-13.243-3.688c.935,0,1.814-.364,2.475-1.025h0c1.365-1.365,1.364-3.586-.008-4.958l-1.768-1.729c-.389-.381-1.01-.381-1.398,0l-1.775,1.736c-1.365,1.364-1.365,3.586,0,4.95,.661,.661,1.54,1.025,2.475,1.025Zm-1.068-4.554l1.068-1.045,1.061,1.037c.585,.585,.585,1.537,0,2.122h0c-.565,.566-1.554,.566-2.121,0-.585-.585-.585-1.537-.008-2.114Z"/></svg>
