<?xml version="1.0" encoding="UTF-8"?>
<svg xmlns="http://www.w3.org/2000/svg" id="Layer_1" data-name="Layer 1" viewBox="0 0 24 24" width="512" height="512"><path d="M23.94,6.59l-.88,4.39c-.47,2.33-2.53,4.02-4.9,4.02H6.73c.42,1.18,1.53,2,2.83,2h9.44c.55,0,1,.45,1,1s-.45,1-1,1H9.56c-2.53,0-4.67-1.9-4.97-4.42L3.21,2.88c-.06-.5-.49-.88-.99-.88H1c-.55,0-1-.45-1-1S.45,0,1,0h1.22c1.52,0,2.8,1.14,2.98,2.65l.04,.35h3.76c.55,0,1,.45,1,1s-.45,1-1,1h-3.52l.94,8h11.74c1.42,0,2.66-1.01,2.94-2.41l.88-4.39c.06-.29-.02-.6-.21-.83-.19-.23-.47-.37-.77-.37h-4c-.55,0-1-.45-1-1s.45-1,1-1h4c.9,0,1.75,.4,2.32,1.1s.8,1.61,.62,2.49ZM7,20c-1.1,0-2,.9-2,2s.9,2,2,2,2-.9,2-2-.9-2-2-2Zm10,0c-1.1,0-2,.9-2,2s.9,2,2,2,2-.9,2-2-.9-2-2-2ZM9.27,7.25c-.38,.4-.35,1.04,.05,1.41l1.56,1.46c.59,.59,1.36,.88,2.13,.88s1.52-.29,2.09-.86l1.59-1.48c.4-.38,.42-1.01,.05-1.41-.38-.4-1.01-.43-1.41-.05l-1.32,1.23V1c0-.55-.45-1-1-1s-1,.45-1,1v7.43l-1.32-1.23c-.4-.38-1.04-.35-1.41,.05Z"/></svg>
