<?xml version="1.0" encoding="UTF-8"?>
<svg xmlns="http://www.w3.org/2000/svg" id="Layer_1" data-name="Layer 1" viewBox="0 0 24 24" width="512" height="512"><path d="m9.311,7.897c1.689-1.324,2.202-3.751,1.112-5.679-.583-1.029-1.526-1.764-2.657-2.069C6.647-.153,5.476.004,4.471.591,1.175,2.52,0,5.683,0,8,0,10.128.141,11.457.905,12.81c.791,1.398,2.205,2.182,3.709,2.182.741,0,1.503-.19,2.223-.591,1.2-.702,1.946-1.9,2.127-3.201.024.151.036.303.036.457v11.343c0,.552.448,1,1,1s1-.448,1-1v-11.343c0-1.335-.52-2.591-1.464-3.535l-.225-.225Zm-1.613-1.33c-1.572.856-1.395,2.029-.97,2.862.589,1.154.186,2.61-.943,3.27-1.128.628-2.506.243-3.138-.874-.501-.886-.646-1.744-.646-3.825,0-1.762.915-4.181,3.48-5.682.36-.21.759-.318,1.163-.318.201,0,.403.027.602.08.61.165,1.12.563,1.437,1.123.654,1.157.149,2.702-.984,3.365ZM19.529.591c-1.004-.587-2.176-.744-3.295-.443-1.131.305-2.075,1.04-2.657,2.069-1.09,1.928-.577,4.355,1.112,5.679l-.225.225c-.944.944-1.464,2.2-1.464,3.535v11.343c0,.552.448,1,1,1s1-.448,1-1v-11.343c0-.153.012-.306.036-.456.18,1.3.924,2.496,2.12,3.196.009.005.998.609,2.214.609,1.494,0,2.927-.786,3.725-2.196.765-1.353.905-2.681.905-4.81,0-2.317-1.174-5.48-4.471-7.409Zm1.825,11.234c-.632,1.116-2.01,1.501-3.181.849-1.085-.635-1.489-2.09-.899-3.245.425-.833.601-2.006-.972-2.862-1.133-.664-1.638-2.208-.983-3.364.316-.56.827-.958,1.437-1.123.599-.161,1.226-.077,1.765.238,2.566,1.501,3.48,3.92,3.48,5.682,0,2.081-.145,2.939-.646,3.825Z"/></svg>
