<?xml version="1.0" encoding="UTF-8"?>
<svg xmlns="http://www.w3.org/2000/svg" id="Layer_1" data-name="Layer 1" viewBox="0 0 24 24">
  <path d="m16.776,11.312c.38.4.363,1.033-.037,1.414l-3.552,3.373c-.571.563-1.329.846-2.088.846s-1.521-.282-2.101-.849l-1.612-1.465c-.409-.372-.438-1.005-.067-1.413s1.004-.438,1.413-.067l1.638,1.489c.414.403,1.042.401,1.427.021l3.565-3.387c.401-.38,1.033-.362,1.414.037Zm6.224-6.312c0,.553-.447,1-1,1h-.886l-1.277,13.472c-.244,2.581-2.384,4.528-4.977,4.528h-5.728c-2.589,0-4.729-1.943-4.977-4.521l-1.296-13.479h-.86c-.552,0-1-.447-1-1s.448-1,1-1h4.101c.465-2.279,2.485-4,4.899-4h2c2.414,0,4.435,1.721,4.899,4h4.101c.553,0,1,.447,1,1Zm-14.828-1h7.656c-.413-1.164-1.524-2-2.828-2h-2c-1.304,0-2.415.836-2.828,2Zm10.934,2H4.87l1.278,13.287c.148,1.547,1.432,2.713,2.986,2.713h5.728c1.556,0,2.839-1.168,2.986-2.717l1.259-13.283Z"/>
</svg>
