<?xml version="1.0" encoding="UTF-8"?>
<svg xmlns="http://www.w3.org/2000/svg" id="Layer_1" data-name="Layer 1" viewBox="0 0 24 24" width="512" height="512"><path d="M19,22h-4.721c-2.375,0-4.437-1.69-4.903-4.019l-1.196-5.981H3.107C1.591,12,.273,10.924,.041,9.497c-.143-.879,.103-1.768,.674-2.439,.571-.672,1.404-1.057,2.286-1.057l7.274,.02,3.919-3.945c.687-.691,1.602-1.073,2.576-1.075h.006c.972,0,1.886,.378,2.573,1.066l2.308,2.308c1.511,1.51,2.343,3.52,2.343,5.657v6.969c0,2.757-2.243,5-5,5ZM2.997,8c-.291,0-.569,.128-.759,.353-.193,.228-.272,.52-.224,.823,.076,.462,.556,.825,1.093,.825h5.893c.477,0,.887,.336,.98,.804l1.357,6.785c.28,1.397,1.517,2.412,2.942,2.412h4.721c1.654,0,3-1.346,3-3v-6.969c0-1.603-.624-3.11-1.757-4.243l-2.308-2.308c-.31-.31-.728-.52-1.162-.48-.439,0-.851,.172-1.161,.484l-2.527,2.544,3.917,.011c.552,.001,.999,.451,.997,1.003-.001,.551-.449,.997-1,.997h-.003l-14-.039Z"/></svg>
