<?xml version="1.0" encoding="UTF-8"?>
<svg xmlns="http://www.w3.org/2000/svg" id="Layer_1" data-name="Layer 1" viewBox="0 0 24 24" width="512" height="512"><path d="M19.576,.691c-1.196-.459-2.399-.691-3.576-.691H8c-1.177,0-2.38,.232-3.577,.691C1.777,1.709,0,4.326,0,7.204v11.796c0,1.103,.897,2,2,2h2.142c.447,1.721,1.999,3,3.858,3h8c1.859,0,3.411-1.279,3.858-3h2.142c1.103,0,2-.897,2-2V7.204c0-2.878-1.777-5.495-4.424-6.513Zm-7.551,5.337l-2.302-4.028h4.568l-2.266,4.028ZM2,7.204c0-2.056,1.263-3.923,3.141-4.646,.771-.296,1.54-.476,2.292-.536l3.45,6.037-3.904,6.941h-.978V7c0-.553-.447-1-1-1s-1,.447-1,1v12H2V7.204Zm14,14.796H8c-1.103,0-2-.897-2-2v-3h3.975c-.511,.835-.975,1.889-.975,3,0,.553,.447,1,1,1s1-.447,1-1c0-.83,.51-1.753,1-2.436,.49,.683,1,1.607,1,2.436,0,.553,.447,1,1,1s1-.447,1-1c0-1.111-.464-2.165-.975-3h3.975v3c0,1.103-.897,2-2,2Zm6-3h-2V7c0-.553-.447-1-1-1s-1,.447-1,1V15H9.272L16.571,2.023c.751,.061,1.519,.24,2.287,.535,1.879,.723,3.142,2.59,3.142,4.646v11.796Z"/></svg>
