<?xml version="1.0" encoding="UTF-8"?>
<svg xmlns="http://www.w3.org/2000/svg" id="Layer_1" data-name="Layer 1" viewBox="0 0 24 24">
  <path d="m12,13h-1v-1c0-.552-.447-1-1-1s-1,.448-1,1v1h-1c-.553,0-1,.448-1,1s.447,1,1,1h1v1c0,.552.447,1,1,1s1-.448,1-1v-1h1c.553,0,1-.448,1-1s-.447-1-1-1Z"/>
  <path d="m23.157,1.542l-.698-.699c-1.009-1.007-2.6-1.164-3.815-.354l-7.521,5.407c-.044.032-.085.067-.123.105l-2.107,2.107c-2.422.454-4.333,2.365-4.787,4.787l-2.9,2.9c-.756.755-1.172,1.76-1.172,2.829s.416,2.073,1.172,2.828l1.414,1.414c.756.756,1.76,1.172,2.828,1.172s2.073-.416,2.829-1.172l3.005-3.005c2.279-.499,4.075-2.295,4.574-4.574l2.213-2.213c.041-.041.078-.085.111-.132l5.349-7.612c.791-1.186.634-2.778-.374-3.785ZM6.864,21.45c-.778.78-2.049.781-2.829,0l-1.414-1.414c-.378-.378-.586-.88-.586-1.414s.208-1.037.586-1.415l1.603-1.603c.572,2.057,2.212,3.668,4.285,4.201l-1.645,1.645Zm3.136-3.45c-2.206,0-4-1.794-4-4s1.794-4,4-4,4,1.794,4,4-1.794,4-4,4Zm11.881-13.803l-5.285,7.521-.791.791c-.533-2.073-2.144-3.712-4.201-4.285l.753-.753,7.426-5.339c.395-.264.926-.211,1.262.124l.698.699c.336.335.389.866.139,1.241Z"/>
</svg>
