<?xml version="1.0" encoding="UTF-8"?>
<svg xmlns="http://www.w3.org/2000/svg" id="Layer_1" data-name="Layer 1" viewBox="0 0 24 24" width="512" height="512"><path d="M23.71,22.29l-1.54-1.54c.54-.81,.83-1.77,.83-2.76V6c0-2.76-2.24-5-5-5H6c-.99,0-1.94,.29-2.76,.83L1.71,.29C1.32-.1,.68-.1,.29,.29S-.1,1.32,.29,1.71L22.29,23.71c.2,.2,.45,.29,.71,.29s.51-.1,.71-.29c.39-.39,.39-1.02,0-1.41ZM6,3h12c1.65,0,3,1.35,3,3v12c0,.45-.1,.89-.29,1.29l-1.71-1.71V7c0-1.1-.9-2-2-2h-1.67c-.8,0-1.55,.31-2.12,.88l-2.96,2.96-1.34-1.34,.79-.79c.29-.29,.37-.72,.22-1.09-.15-.37-.52-.62-.92-.62h-2c-.18,0-.35,.02-.52,.07l-1.77-1.77c.4-.19,.84-.29,1.29-.29Zm11,12.59l-5.34-5.34,2.96-2.96c.19-.19,.44-.29,.71-.29h1.67V15.59Zm0,6.41c0,.55-.45,1-1,1H6c-2.76,0-5-2.24-5-5V7c0-.55,.45-1,1-1s1,.45,1,1v11c0,1.65,1.35,3,3,3h10c.55,0,1,.45,1,1ZM7,12v5h5c.55,0,1,.45,1,1s-.45,1-1,1H7c-1.1,0-2-.9-2-2v-5c0-.55,.45-1,1-1s1,.45,1,1Z"/></svg>
