<?xml version="1.0" encoding="UTF-8"?>
<svg xmlns="http://www.w3.org/2000/svg" id="Layer_1" data-name="Layer 1" viewBox="0 0 24 24" width="512" height="512"><path d="m16.715,6c-.442,0-.979.212-1.375.406-.794-.385-1.552-.501-2.302-.326.344-4.029,2.934-4.079,2.962-4.079.551,0,1,.449,1.001,1h-.001c-.552,0-1,.448-1,1s.448,1,1,1c1.103,0,2-.897,2-2C19,1.363,17.682.029,16.052.001c-.017,0-.034-.001-.052-.001-1.119,0-2.882.613-3.988,2.544-.592-1.064-1.447-1.88-2.565-2.438-.495-.248-1.095-.046-1.342.447-.247.494-.047,1.095.447,1.342,1.445.722,2.238,2.096,2.411,4.185-.735-.171-1.476-.065-2.253.301-.434-.253-.913-.381-1.426-.381C4.475,6,0,10.119,0,15s4.485,9,7.302,9c.458,0,.89-.106,1.29-.316.782.345,1.561.391,2.362.131.695.246,1.397.246,2.093,0,.802.26,1.581.214,2.362-.131.4.21.832.316,1.29.316,2.817,0,7.302-4.119,7.302-9s-4.475-9-7.285-9Zm-.017,16c-.207,0-.384-.072-.572-.235-.329-.285-.806-.323-1.177-.096-.353.216-.681.331-.936.331-.06-.004-.293-.057-.63-.189-.118-.046-.242-.069-.366-.069-.153,0-.306.035-.446.105-.413.206-.729.206-1.143,0-.254-.126-.549-.14-.812-.036-.337.133-.57.185-.616.189-.269,0-.597-.114-.95-.331-.371-.228-.848-.189-1.177.096-.188.163-.365.235-.572.235-1.538,0-5.302-3.03-5.302-7s3.752-7,5.285-7c.172,0,.317.042.432.116l.349.248c.331.24.775.253,1.121.035.407-.257.796-.399,1.098-.399.143,0,.29.034.45.103.25.107.534.108.785.003.164-.069.315-.104.467-.106.005,0,.009,0,.014,0s.009,0,.014,0c.152.002.304.037.467.106.251.105.533.104.785-.003.16-.069.307-.103.45-.103.298,0,.684.139,1.086.392.334.21.759.205,1.088-.016.16-.107.664-.341.851-.375,1.548.032,5.26,3.05,5.26,7,0,3.97-3.764,7-5.302,7ZM6.584,12.858l1.21-2.42c.145-.291.425-.436.706-.436s.56.145.706.436l1.21,2.42c.262.525-.119,1.142-.706,1.142h-2.42c-.586,0-.968-.617-.706-1.142Zm7-.002l1.21-2.42c.145-.291.425-.436.706-.436s.56.145.706.436l1.21,2.42c.262.524-.119,1.142-.706,1.142h-2.42c-.586,0-.968-.617-.706-1.142Zm5.224,3.644c-.668.599-2.79,1.779-3.808,2.267v-.767c0-.552-.448-1-1-1s-1,.448-1,1v1.408c-.326.054-.658.092-1,.092-3.5,0-5.547-1.859-6.804-2.988-.443-.398-.074-1.117.51-.999.566.115,2.498.743,3.294.83v.657c0,.552.448,1,1,1s1-.448,1-1v-.519c.323.011.653.019,1,.019,2.169,0,5.123-.753,6.307-.994.573-.116.936.604.501.994Z"/></svg>
