<?xml version="1.0" encoding="UTF-8"?>
<svg xmlns="http://www.w3.org/2000/svg" id="Layer_1" data-name="Layer 1" viewBox="0 0 24 24" width="512" height="512"><path d="m19,0H5C2.243,0,0,2.243,0,5v14c0,2.757,2.243,5,5,5h14c2.757,0,5-2.243,5-5V5c0-2.757-2.243-5-5-5Zm3,19c0,1.654-1.346,3-3,3H5c-1.654,0-3-1.346-3-3V5c0-1.654,1.346-3,3-3h14c1.654,0,3,1.346,3,3v14ZM11.546,5h-2.046c-1.93,0-3.5,1.57-3.5,3.5v7c0,1.93,1.57,3.5,3.5,3.5h2.046c3.559,0,6.454-2.896,6.454-6.455v-1.091c0-3.559-2.896-6.455-6.454-6.455Zm4.454,7.545c0,2.456-1.998,4.455-4.454,4.455h-2.046c-.827,0-1.5-.673-1.5-1.5v-7c0-.827.673-1.5,1.5-1.5h2.046c2.456,0,4.454,1.999,4.454,4.455v1.091Z"/></svg>
