<?xml version="1.0" encoding="UTF-8"?>
<svg xmlns="http://www.w3.org/2000/svg" id="Layer_1" data-name="Layer 1" viewBox="0 0 24 24" width="512" height="512"><path d="m20.125,11h.375c.827,0,1.5-.673,1.5-1.5v-2c0-.827-.673-1.5-1.5-1.5h-.375C19.054,2.53,15.817,0,12,0S4.946,2.53,3.875,6h-.375c-.827,0-1.5.673-1.5,1.5v2c0,.827.673,1.5,1.5,1.5h.375c.537,1.742,1.621,3.247,3.049,4.314-2.85.887-4.925,3.549-4.925,6.686v1c0,.553.447,1,1,1s1-.447,1-1v-1c0-2.757,2.243-5,5-5h6c2.757,0,5,2.243,5,5v1c0,.553.447,1,1,1s1-.447,1-1v-1c0-3.137-2.075-5.799-4.925-6.686,1.429-1.067,2.512-2.572,3.049-4.314Zm-14.625-2.5c0-3.584,2.916-6.5,6.5-6.5s6.5,2.916,6.5,6.5-2.916,6.5-6.5,6.5-6.5-2.916-6.5-6.5Zm12.5,14.5c0,.553-.447,1-1,1s-1-.447-1-1-.448-1-1-1h-6c-.552,0-1,.448-1,1s-.447,1-1,1-1-.447-1-1c0-1.654,1.346-3,3-3h6c1.654,0,3,1.346,3,3ZM7,8c0-.343.357-1,1.101-1h7.899c.716,0,1,.657,1,1,0,2.761-2.239,5-5,5s-5-2.239-5-5Z"/></svg>
