<?xml version="1.0" encoding="UTF-8"?>
<svg xmlns="http://www.w3.org/2000/svg" id="Layer_1" data-name="Layer 1" viewBox="0 0 24 24" width="512" height="512"><path d="M21,9h-5c-1.65,0-3,1.35-3,3s1.35,3,3,3h5c1.65,0,3-1.35,3-3s-1.35-3-3-3Zm0,4h-5c-.55,0-1-.45-1-1s.45-1,1-1h5c.55,0,1,.45,1,1s-.45,1-1,1Zm-5-7h5c1.65,0,3-1.35,3-3s-1.35-3-3-3h-5c-1.65,0-3,1.35-3,3s1.35,3,3,3Zm0-4h5c.55,0,1,.45,1,1s-.45,1-1,1h-5c-.55,0-1-.45-1-1s.45-1,1-1Zm5,16h-5c-1.65,0-3,1.35-3,3s1.35,3,3,3h5c1.65,0,3-1.35,3-3s-1.35-3-3-3Zm0,4h-5c-.55,0-1-.45-1-1s.45-1,1-1h5c.55,0,1,.45,1,1s-.45,1-1,1ZM7,13h-3c-2.21,0-4,1.79-4,4v3c0,2.21,1.79,4,4,4h3c2.21,0,4-1.79,4-4v-3c0-2.21-1.79-4-4-4Zm2,7c0,1.1-.9,2-2,2h-3c-1.1,0-2-.9-2-2v-3c0-1.1,.9-2,2-2h3c1.1,0,2,.9,2,2v3ZM7,0h-3C1.79,0,0,1.79,0,4v3c0,2.21,1.79,4,4,4h3c2.21,0,4-1.79,4-4v-3C11,1.79,9.21,0,7,0Zm2,7c0,1.1-.9,2-2,2h-3c-1.1,0-2-.9-2-2v-3c0-1.1,.9-2,2-2h3c1.1,0,2,.9,2,2v3Z"/></svg>
