<?xml version="1.0" encoding="UTF-8"?>
<svg xmlns="http://www.w3.org/2000/svg" id="Layer_1" data-name="Layer 1" viewBox="0 0 24 24" width="512" height="512"><path d="m11,9.5v3.5c0,2.206-1.794,4-4,4-.553,0-1-.447-1-1s.447-1,1-1c1.103,0,2-.897,2-2h-1.5c-.828,0-1.5-.672-1.5-1.5v-1.5c0-1.105.895-2,2-2h1.5c.828,0,1.5.672,1.5,1.5Zm5.5-1.5h-1.5c-1.105,0-2,.895-2,2v1.5c0,.828.672,1.5,1.5,1.5h1.5c0,1.103-.897,2-2,2-.553,0-1,.447-1,1s.447,1,1,1c2.206,0,4-1.794,4-4v-3.5c0-.828-.672-1.5-1.5-1.5Zm7.5-3v14c0,2.757-2.243,5-5,5H5c-2.757,0-5-2.243-5-5V5C0,2.243,2.243,0,5,0h14c2.757,0,5,2.243,5,5Zm-2,0c0-1.654-1.346-3-3-3H5c-1.654,0-3,1.346-3,3v14c0,1.654,1.346,3,3,3h14c1.654,0,3-1.346,3-3V5Z"/></svg>
