<?xml version="1.0" encoding="UTF-8"?>
<svg xmlns="http://www.w3.org/2000/svg" id="Layer_1" data-name="Layer 1" viewBox="0 0 24 24" width="512" height="512"><path d="M22.372,16h.666c.553,0,1-.448,1-1s-.447-1-1-1h-.666c-.294,0-.586,.032-.874,.084l-6.096-6.096,.868-.831c.399-.382,.413-1.015,.031-1.414-.383-.399-1.017-.412-1.414-.031l-3.965,3.795-1.414-1.414L14.058,3.81c.889-.837,2.277-1.043,3.374-.496l2.314,1.157c.69,.346,1.464,.528,2.236,.528h1.056c.553,0,1-.448,1-1s-.447-1-1-1h-1.056c-.464,0-.927-.109-1.341-.317l-2.316-1.158c-1.83-.913-4.152-.571-5.639,.829l-.618,.582-.7-.638c-.92-.837-2.11-1.298-3.391-1.298-.768,0-1.537,.182-2.227,.525l-1.874,.937L1.707,.293C1.316-.098,.684-.098,.293,.293S-.098,1.316,.293,1.707L22.293,23.707c.195,.195,.451,.293,.707,.293s.512-.098,.707-.293c.391-.391,.391-1.023,0-1.414l-4.597-4.597,1.461-1.096c.517-.387,1.155-.6,1.801-.6ZM6.645,3.314c1.03-.513,2.459-.374,3.377,.462l.586,.534-2.515,2.368-2.725-2.725,1.277-.639Zm11.037,12.953l-5.346-5.346,1.621-1.551,5.547,5.547c-.042,.03-1.821,1.35-1.821,1.35Zm-2.511,3.133c.332,.442,.242,1.068-.2,1.4l-.491,.368c-.714,.555-1.574,.833-2.437,.833s-1.735-.281-2.46-.844l-6.077-4.558c-.517-.387-1.155-.6-1.801-.6h-.667c-.553,0-1-.448-1-1s.447-1,1-1h.667c1.075,0,2.141,.355,3,1l6.091,4.569c.738,.572,1.747,.573,2.47,.01l.506-.379c.442-.333,1.069-.241,1.399,.201Z"/></svg>
