<?xml version="1.0" encoding="UTF-8"?>
<svg xmlns="http://www.w3.org/2000/svg" id="Layer_1" data-name="Layer 1" viewBox="0 0 24 24">
  <path d="m22.668,16.94c-.475-.769-.85-1.376-.85-2.122,0-.784.186-1.366.421-2.104.279-.875.626-1.963.729-3.653.031-.51-.326-.96-.83-1.047-.499-.085-.99.221-1.13.711-.172.602-.797,1.904-3.009,2.209V1c0-.552-.448-1-1-1-.346,0-.651.176-.831.444-.007-.019-.011-.028-.011-.028,0,0-2.158,2.543-2.158,4.085,0,.5,1.08,1.436,2,1.5v4.929c-2.837-.427-2.992-2.657-3-2.945-.008-.546-.454-.985-1-.985h-.004c-.551.002-.996.449-.996,1,0,2.33.422,3.652.76,4.714.235.737.421,1.32.421,2.104,0,.746-.375,1.353-.85,2.122-.593.959-1.332,2.154-1.332,3.878,0,2.517,2.795,3.182,4.273,3.182h5.454c1.478,0,4.273-.665,4.273-3.182,0-1.724-.738-2.918-1.332-3.878Zm-2.941,5.06h-5.454c-.023,0-2.273-.051-2.273-1.182,0-1.156.501-1.967,1.033-2.827.539-.872,1.149-1.859,1.149-3.173,0-1.01-.213-1.756-.454-2.518.839.428,1.913.7,3.272.7,1.373,0,2.436-.263,3.258-.654-.235.747-.44,1.483-.44,2.473,0,1.314.61,2.302,1.149,3.173.531.859,1.033,1.671,1.033,2.827,0,1.136-2.253,1.182-2.273,1.182ZM9,1.5v1.046c0,.62-.192,1.226-.551,1.732l-.449.636v3.119c.024.002.049.003.073.005.551.041.965.52.924,1.07-.039.526-.477.927-.996.927,0,0,0,0,0,0v4.965c0,.552-.448,1-1,1s-1-.448-1-1v-4.963c-1.991.156-3,.815-3,1.963,0,.306.218.726.429,1.132.281.542.571,1.102.571,1.743,0,.827-.494,1.461-.971,2.074-.529.679-1.029,1.321-1.029,2.26,0,1.342,1.912,2.792,5,2.792.552,0,1,.448,1,1s-.448,1-1,1c-3.991,0-7-2.06-7-4.792,0-1.626.838-2.702,1.451-3.488.205-.263.547-.703.549-.845,0-.153-.201-.54-.347-.822-.291-.561-.653-1.26-.653-2.053,0-1.393.678-3.665,5-3.966v-3.105l-.441-.618c-.363-.509-.559-1.118-.559-1.744v-1.067c0-.828.672-1.5,1.5-1.5h1c.828,0,1.5.672,1.5,1.5Zm10,17.5c0,.552-.448,1-1,1h-2c-.552,0-1-.448-1-1s.448-1,1-1h2c.552,0,1,.448,1,1Z"/>
</svg>
