<?xml version="1.0" encoding="UTF-8"?>
<svg xmlns="http://www.w3.org/2000/svg" id="Layer_1" data-name="Layer 1" viewBox="0 0 24 24">
  <path d="m20.909,8.796c-.541-.405-1.052-.788-1.352-1.125-.305-.345-.363-2.01-.398-3.005-.073-2.097-.142-4.078-1.585-4.559-1.258-.416-2.541.424-3.897,1.319-1.04.686-2.22,1.464-3.286,1.581-.939.106-2.162-.391-3.337-.869-1.773-.723-3.608-1.471-5.082-.364-1.846,1.384-.796,3.609.048,5.397.543,1.153,1.105,2.345.989,3.194-.143,1.045-.771,1.785-1.435,2.569-.738.87-1.574,1.856-1.574,3.257,0,2.494,2.45,2.678,4.238,2.813,1.206.091,2.453.185,3.437.694,1.077.559,1.677,1.338,2.257,2.092.797,1.036,1.699,2.21,3.64,2.21,1.794,0,2.412-2.16,3.011-4.25.259-.904.581-2.029.885-2.378.28-.321,1.452-.715,2.308-1.003,1.98-.667,4.226-1.422,4.226-3.321,0-1.936-1.714-3.22-3.091-4.251Zm-1.773,5.677c-1.362.458-2.539.855-3.176,1.583-.597.685-.938,1.878-1.301,3.142-.26.908-.744,2.598-1.088,2.8-.917,0-1.292-.438-2.055-1.429-.646-.84-1.449-1.886-2.922-2.648-1.346-.697-2.865-.812-4.206-.913-2.193-.165-2.389-.345-2.389-.818,0-.634.418-1.159,1.1-1.963.743-.877,1.669-1.968,1.892-3.591.196-1.438-.495-2.902-1.163-4.319-.828-1.755-1.12-2.597-.657-2.944.146-.109.341-.156.569-.156.664,0,1.623.391,2.559.772,1.339.545,2.853,1.164,4.311,1.005,1.545-.169,2.938-1.088,4.169-1.899.634-.418,1.664-1.098,2.079-1.103.223.431.272,1.866.304,2.743.061,1.738.118,3.379.9,4.261.434.49,1.023.932,1.648,1.4,1.073.804,2.29,1.715,2.29,2.65,0,.462-2.007,1.137-2.864,1.426Z"/>
</svg>
