<?xml version="1.0" encoding="UTF-8"?>
<svg xmlns="http://www.w3.org/2000/svg" id="Layer_1" data-name="Layer 1" viewBox="0 0 24 24" width="512" height="512"><path d="M12,0C5.383,0,0,5.383,0,12s5.383,12,12,12,12-5.383,12-12S18.617,0,12,0Zm5,8h2c1.103,0,2,.897,2,2s-.897,2-2,2h-2c-1.103,0-2-.897-2-2s.897-2,2-2ZM12,2c3.341,0,6.296,1.653,8.113,4.177-.356-.104-.724-.177-1.113-.177h-2c-1.474,0-2.75,.81-3.444,2h-3.112c-.694-1.19-1.97-2-3.444-2h-2c-.389,0-.758,.073-1.113,.177,1.817-2.524,4.773-4.177,8.113-4.177Zm-7,6h2c1.103,0,2,.897,2,2s-.897,2-2,2h-2c-1.103,0-2-.897-2-2s.897-2,2-2Zm7,14c-5.291,0-9.625-4.135-9.967-9.342,.733,.817,1.785,1.342,2.967,1.342h2c2.206,0,4-1.794,4-4h2c0,2.206,1.794,4,4,4h2c1.182,0,2.234-.525,2.967-1.342-.342,5.207-4.675,9.342-9.967,9.342Zm4.847-5.531c.294,.468,.152,1.085-.315,1.378-1.168,.733-2.819,1.153-4.531,1.153-1.606,0-3.472-.565-4.483-1.125-.483-.267-.659-.875-.392-1.358,.266-.483,.873-.66,1.358-.392,.763,.421,2.323,.875,3.517,.875,1.562,0,2.815-.438,3.469-.847,.466-.297,1.085-.153,1.378,.315Zm-.347-6.469c0-.552,.448-1,1-1s1,.448,1,1-.448,1-1,1-1-.448-1-1Zm-11,0c0-.552,.448-1,1-1s1,.448,1,1-.448,1-1,1-1-.448-1-1Z"/></svg>
