<?xml version="1.0" encoding="UTF-8"?>
<svg xmlns="http://www.w3.org/2000/svg" id="Layer_1" data-name="Layer 1" viewBox="0 0 24 24" width="512" height="512"><path d="m21.5,19c-.349,0-.68.072-.982.201l-4.038-3.701,4.909-4.5h1.611c.553,0,1-.447,1-1s-.447-1-1-1h-13.324c-1.34,0-2.584-.666-3.328-1.781L1.832.446C1.526-.014.906-.138.446.168S-.138,1.095.168,1.555l4.516,6.773c.887,1.33,2.251,2.224,3.782,2.538l5.055,4.633-4.038,3.701c-.302-.129-.633-.201-.982-.201-1.381,0-2.5,1.119-2.5,2.5s1.119,2.5,2.5,2.5,2.5-1.119,2.5-2.5c0-.295-.06-.573-.154-.836l4.154-3.808,4.154,3.808c-.094.262-.154.541-.154.836,0,1.381,1.119,2.5,2.5,2.5s2.5-1.119,2.5-2.5-1.119-2.5-2.5-2.5Zm-9.929-8h6.858l-3.429,3.143-3.429-3.143Z"/></svg>
