<?xml version="1.0" encoding="UTF-8"?>
<svg xmlns="http://www.w3.org/2000/svg" id="Layer_1" data-name="Layer 1" viewBox="0 0 24 24" width="512" height="512"><path d="M8.197,18.592c-.327-.443-.236-1.065,.205-1.395,.066-.049,1.632-1.198,3.598-1.198s3.531,1.149,3.598,1.198c.442,.33,.534,.957,.204,1.399-.196,.264-.497,.403-.803,.403-.207,0-.417-.064-.597-.198-.007-.005-1.113-.802-2.402-.802s-2.396,.797-2.406,.805c-.448,.326-1.071,.229-1.396-.212Zm9.68-3.55c-.557-.207-1.082,.389-.797,.911,.432,.791,.902,2.428,.919,3.94,.012,1.031,.739,1.975,1.763,2.093,1.211,.14,2.238-.803,2.238-1.986,0-2.473-2.372-4.306-4.123-4.958Zm.807-4.798c-.418-.361-1.048-.318-1.411,.1-.349,.402-.845,.652-1.295,.652h-.007c-.424-.002-.82-.219-1.179-.643-.357-.421-.986-.475-1.41-.117-.421,.356-.474,.988-.117,1.409,.938,1.108,1.982,1.346,2.693,1.351h.02c1.029,0,2.077-.5,2.807-1.341,.361-.417,.316-1.049-.101-1.411Zm-8,0c-.417-.361-1.048-.318-1.411,.1-.351,.404-.854,.69-1.302,.652-.424-.002-.82-.219-1.179-.643-.357-.421-.986-.475-1.41-.117-.421,.356-.474,.988-.117,1.409,.938,1.108,1.982,1.346,2.693,1.351h.02c1.029,0,2.077-.5,2.807-1.341,.361-.417,.316-1.049-.101-1.411ZM12,0C5.383,0,0,5.383,0,12s5.383,12,12,12c1.506,0,2.975-.275,4.364-.819,.515-.201,.769-.781,.567-1.295-.201-.514-.78-.769-1.296-.567-1.156,.452-2.38,.681-3.636,.681-5.514,0-10-4.486-10-10S6.486,2,12,2s10,4.486,10,10c0,.611-.056,1.223-.165,1.819-.1,.543,.26,1.064,.803,1.164,.552,.101,1.064-.26,1.164-.803,.132-.715,.198-1.449,.198-2.181C24,5.383,18.617,0,12,0Z"/></svg>
