<?xml version="1.0" encoding="UTF-8"?>
<svg xmlns="http://www.w3.org/2000/svg" id="Layer_1" data-name="Layer 1" viewBox="0 0 24 24" width="512" height="512"><path d="m12.038.02C5.421.02.038,5.402.038,12.02s5.383,12,12,12,12-5.383,12-12S18.655.02,12.038.02Zm0,22c-5.514,0-10-4.486-10-10S6.524,2.02,12.038,2.02s10,4.486,10,10-4.486,10-10,10Zm-3-12.815c0,.527.354.996.861,1.14l4.838,1.425c1.353.389,2.301,1.648,2.301,3.062,0,1.758-1.43,3.188-3.188,3.188h-3.312c-.979,0-2.618,0-3.395-1.553-.247-.494-.047-1.095.447-1.342.494-.246,1.095-.047,1.342.447.189.38.586.447,1.605.447h3.312c.655,0,1.188-.533,1.188-1.188,0-.527-.354-.997-.859-1.143l-4.834-1.424c-1.354-.384-2.307-1.644-2.307-3.061,0-1.756,1.429-3.185,3.186-3.185h3.314c.979,0,2.618,0,3.395,1.553.247.494.047,1.095-.447,1.342-.494.245-1.094.047-1.342-.447-.189-.38-.586-.447-1.605-.447h-3.314c-.653,0-1.186.531-1.186,1.185Z"/></svg>
