<?xml version="1.0" encoding="UTF-8"?>
<svg xmlns="http://www.w3.org/2000/svg" id="Layer_1" data-name="Layer 1" viewBox="0 0 24 24" width="512" height="512"><path d="m21.295,14.584c.437-.584.705-1.301.705-2.084,0-1.496-.949-2.766-2.273-3.266.172-.377.273-.793.273-1.234,0-1.654-1.346-3-3-3h-.1c-.321-1.719-1.392-3.759-2.864-4.695-.546-.349-1.228-.398-1.824-.136-.632.28-1.08.859-1.198,1.548-.343,2-1.532,2.978-1.984,3.283h-2.03c-1.654,0-3,1.346-3,3,0,.441.101.857.273,1.234-1.324.5-2.273,1.77-2.273,3.266,0,.784.268,1.5.705,2.084-1.599.835-2.705,2.49-2.705,4.416,0,2.757,2.243,5,5,5h14c2.757,0,5-2.243,5-5,0-1.925-1.106-3.581-2.705-4.416Zm-2.295,7.416H5c-1.654,0-3-1.346-3-3s1.346-3,3-3h7c.552,0,1-.447,1-1s-.448-1-1-1h-6.5c-.827,0-1.5-.673-1.5-1.5s.673-1.5,1.5-1.5h6.5c.552,0,1-.447,1-1s-.448-1-1-1h-5c-.551,0-1-.448-1-1s.449-1,1-1h2.308c.157,0,.312-.037.453-.108.107-.055,2.631-1.372,3.201-4.9,1.129.719,2.039,2.78,2.039,4.009,0,.553.448,1,1,1h1c.551,0,1,.448,1,1s-.449,1-1,1-1,.447-1,1,.448,1,1,1h1.5c.827,0,1.5.673,1.5,1.5s-.673,1.5-1.5,1.5h-1.5c-.552,0-1,.447-1,1s.448,1,1,1h2c1.654,0,3,1.346,3,3s-1.346,3-3,3Z"/></svg>
