<?xml version="1.0" encoding="UTF-8"?>
<svg xmlns="http://www.w3.org/2000/svg" id="Layer_1" data-name="Layer 1" viewBox="0 0 24 24" width="512" height="512"><path d="m17,7c0,.553-.448,1-1,1h-3v7c0,.553-.448,1-1,1s-1-.447-1-1v-7h-3c-.552,0-1-.447-1-1s.448-1,1-1h8c.552,0,1,.447,1,1Zm7-3v12c0,2.206-1.794,4-4,4h-2.852l-3.847,3.18c-.362.322-.825.485-1.292.485-.476,0-.956-.169-1.338-.509l-3.748-3.156h-2.923c-2.206,0-4-1.794-4-4V4C0,1.794,1.794,0,4,0h16c2.206,0,4,1.794,4,4Zm-2,0c0-1.103-.897-2-2-2H4c-1.103,0-2,.897-2,2v12c0,1.103.897,2,2,2h3.289c.236,0,.464.083.644.235l4.047,3.409,4.172-3.415c.179-.148.405-.229.637-.229h3.211c1.103,0,2-.897,2-2V4Z"/></svg>
