<?xml version="1.0" encoding="UTF-8"?>
<svg xmlns="http://www.w3.org/2000/svg" id="Layer_1" data-name="Layer 1" viewBox="0 0 24 24" width="512" height="512"><path d="m10,13c-.553,0-1-.447-1-1v-4c0-.553.447-1,1-1s1,.447,1,1v4c0,.553-.447,1-1,1Zm-1.5,2.5c0,.828.672,1.5,1.5,1.5s1.5-.672,1.5-1.5-.672-1.5-1.5-1.5-1.5.672-1.5,1.5Zm8.875,1.755c-.413-.369-1.044-.333-1.412.078-1.515,1.692-3.684,2.664-5.952,2.667-4.405-.006-7.988-3.593-7.988-8s3.583-7.994,7.989-8c3.38.005,6.407,2.146,7.534,5.333.183.521.757.796,1.275.609.521-.184.794-.755.609-1.275-1.406-3.978-5.18-6.653-9.397-6.667h-.044C4.491,2.019.022,6.497.022,12s4.469,9.981,9.967,10h.011c.01,0,.016,0,.022,0h.011c2.829-.01,5.531-1.223,7.42-3.333.368-.411.333-1.044-.078-1.412Zm6.344-7.95c-.384-.396-1.016-.406-1.414-.023l-3.504,3.387c-.441.44-1.159.441-1.631-.028l-1.492-1.375c-.406-.372-1.038-.348-1.413.058-.374.406-.349,1.039.058,1.413l1.463,1.347c.612.612,1.417.918,2.219.918s1.596-.303,2.199-.906l3.492-3.375c.396-.384.407-1.017.023-1.414Z"/></svg>
