<?xml version="1.0" encoding="UTF-8"?>
<svg xmlns="http://www.w3.org/2000/svg" id="Layer_1" data-name="Layer 1" viewBox="0 0 24 24" width="512" height="512"><path d="M18,22c-1.103,0-2-.897-2-2v-3.494c.157,.111,.294,.212,.383,.281,.183,.144,.4,.213,.617,.213,.296,0,.59-.131,.787-.383,.341-.435,.265-1.063-.169-1.404-.849-.666-3.094-2.213-5.617-2.213s-4.769,1.548-5.617,2.213c-.435,.341-.511,.969-.169,1.404,.342,.435,.97,.511,1.404,.169,.088-.069,.226-.17,.383-.281v3.494c0,1.103-.897,2-2,2-.552,0-1,.448-1,1s.448,1,1,1h12c.552,0,1-.448,1-1s-.448-1-1-1Zm-8.537,0c.341-.589,.537-1.272,.537-2v-4.582c.621-.242,1.306-.418,2-.418s1.379,.177,2,.418v4.582c0,.728,.195,1.411,.537,2h-5.073Zm-5.463-2.5c0,.828-.672,1.5-1.5,1.5s-1.5-.672-1.5-1.5,.672-1.5,1.5-1.5,1.5,.672,1.5,1.5Zm20,3c0,.828-.672,1.5-1.5,1.5s-1.5-.672-1.5-1.5,.672-1.5,1.5-1.5,1.5,.672,1.5,1.5Zm-2.744-2.863c-.198,.239-.483,.363-.771,.363-.224,0-.45-.075-.636-.229-.426-.352-.486-.982-.134-1.408,1.474-1.785,2.286-4.044,2.286-6.363,0-5.514-4.486-10-10-10S2,6.486,2,12c0,.927,.126,1.844,.376,2.728,.15,.531-.159,1.084-.69,1.234-.53,.151-1.084-.159-1.234-.69-.3-1.061-.452-2.162-.452-3.272C0,5.383,5.383,0,12,0s12,5.383,12,12c0,2.783-.975,5.495-2.744,7.637Zm-3.702-11.805l-1.752,1.168,1.752,1.168c.459,.306,.583,.927,.277,1.387-.193,.289-.51,.445-.833,.445-.19,0-.383-.054-.554-.168l-3-2c-.278-.186-.445-.498-.445-.832s.167-.646,.445-.832l3-2c.458-.307,1.081-.182,1.387,.277,.306,.459,.182,1.081-.277,1.387Zm-11.109,2.336l1.752-1.168-1.752-1.168c-.459-.306-.583-.927-.277-1.387,.306-.459,.926-.584,1.387-.277l3,2c.278,.186,.445,.498,.445,.832s-.167,.646-.445,.832l-3,2c-.17,.114-.363,.168-.554,.168-.323,0-.64-.156-.833-.445-.306-.459-.182-1.081,.277-1.387Z"/></svg>
