<?xml version="1.0" encoding="UTF-8"?>
<svg xmlns="http://www.w3.org/2000/svg" id="Layer_1" data-name="Layer 1" viewBox="0 0 24 24">
  <path d="m20,22.5c0,.828-.672,1.5-1.5,1.5s-1.5-.672-1.5-1.5.672-1.5,1.5-1.5,1.5.672,1.5,1.5Zm-15.5-1.5c-.828,0-1.5.672-1.5,1.5s.672,1.5,1.5,1.5,1.5-.672,1.5-1.5-.672-1.5-1.5-1.5Zm13.474-15.854c-.332-.066-.603-.274-.742-.569C15.681,1.306,12.089-.519,8.497.137,5.226.736,2.66,3.349,2.113,6.639c-.162.97-.15,1.942.033,2.89.06.308-.072.653-.345.901-1.145,1.041-1.801,2.524-1.801,4.07,0,2.586,1.759,4.792,4.278,5.364.075.017.149.025.223.025.457,0,.869-.314.974-.778.123-.539-.215-1.075-.753-1.197-1.577-.358-2.722-1.794-2.722-3.414,0-.984.418-1.928,1.146-2.591.786-.714,1.155-1.772.963-2.761-.138-.712-.146-1.446-.024-2.181.403-2.422,2.365-4.421,4.771-4.862,2.745-.504,5.385.835,6.567,3.329.414.872,1.2,1.482,2.158,1.673,2.56.511,4.417,2.779,4.417,5.394,0,2.228-1.329,4.221-3.385,5.079-.51.212-.751.798-.538,1.308.212.51.799.753,1.308.538,2.804-1.169,4.615-3.887,4.615-6.924,0-3.565-2.534-6.658-6.026-7.354Zm-3.047,12.924c.299-.566.231-1.275-.246-1.751-.477-.477-1.185-.545-1.751-.246-.185-.619-.752-1.073-1.431-1.073s-1.246.454-1.431,1.073c-.566-.299-1.274-.231-1.751.246-.477.476-.545,1.185-.246,1.751-.619.185-1.072.752-1.072,1.431s.454,1.246,1.072,1.431c-.299.566-.231,1.275.246,1.751.293.293.677.439,1.061.439.241,0,.472-.078.69-.194.185.619.752,1.073,1.431,1.073s1.246-.454,1.431-1.073c.218.115.45.194.69.194.384,0,.768-.146,1.061-.439.477-.476.545-1.185.246-1.751.619-.185,1.072-.752,1.072-1.431s-.454-1.246-1.072-1.431Z"/>
</svg>
