<?xml version="1.0" encoding="UTF-8"?>
<svg xmlns="http://www.w3.org/2000/svg" id="Layer_1" data-name="Layer 1" viewBox="0 0 24 24" width="512" height="512"><path d="m21.942,17.311c-.289-2.708-1.18-5.231-2.173-7.318.077.004.154.007.232.007,2.206,0,4-1.794,4-4s-1.794-4-4-4c-.212,0-.42.017-.623.049l-.153-.103c-1.421-.957-2.891-1.946-5.224-1.946C10.649,0,3.913,3.635,2.081,17.303c-1.225.546-2.081,1.774-2.081,3.199,0,1.93,1.57,3.5,3.501,3.5l16.999-.002c1.93,0,3.5-1.571,3.5-3.5,0-1.416-.846-2.639-2.058-3.189Zm.058-11.311c0,1.103-.897,2-2,2s-2-.897-2-2,.897-2,2-2,2,.897,2,2ZM14,2c1.357,0,2.297.439,3.286,1.064-.41.379-.74.842-.964,1.362-.027-.033-.045-.055-.054-.066-.354-.424-.982-.481-1.409-.128-.424.354-.481.984-.128,1.408.045.055,4.296,5.217,5.158,11.36l-15.745.002C5.951,4.732,11.825,2,14,2Zm6.5,20l-16.999.002c-.827,0-1.501-.673-1.501-1.5s.673-1.5,1.5-1.5l17-.002c.827,0,1.5.673,1.5,1.5s-.673,1.5-1.5,1.5Z"/></svg>
