<?xml version="1.0" encoding="UTF-8"?>
<svg xmlns="http://www.w3.org/2000/svg" id="Layer_1" data-name="Layer 1" viewBox="0 0 24 24" width="512" height="512"><path d="M10.598,7.414c.39,.39,.902,.585,1.414,.585s1.024-.195,1.414-.585l1.988-1.988c.78-.78,.78-2.049,0-2.829l-1.988-1.988c-.779-.78-2.049-.78-2.828,0l-1.988,1.988c-.78,.78-.78,2.049,0,2.829l1.988,1.988Zm1.414-5.391l1.988,1.989-1.987,1.989-1.989-1.99,1.988-1.988Zm11.988,3.977v10.101c0,2.137-.832,4.146-2.343,5.657l-1.95,1.95c-.195,.195-.451,.293-.707,.293s-.512-.098-.707-.293c-.391-.391-.391-1.024,0-1.414l1.95-1.95c1.133-1.133,1.757-2.64,1.757-4.243V6c0-.551-.448-1-1-1s-1,.449-1,1c0,0-.012,8.042-.013,8.065-.015,.662-.238,1.322-.688,1.857l-2.578,2.685c-.196,.204-.458,.307-.721,.307-.25,0-.499-.093-.693-.279-.397-.383-.41-1.016-.027-1.414l2.533-2.634c.13-.156,.191-.367,.188-.584,0,0,0-.001,0-.002v-.045c-.013-.221-.095-.445-.255-.623-.177-.198-.421-.315-.687-.33-.264-.02-.521,.075-.72,.253l-3.163,2.911c.531,1.001,.824,2.124,.824,3.276v3.559c0,.552-.447,1-1,1s-1-.448-1-1v-3.559c0-1.394-.589-2.735-1.615-3.68l-2.733-2.516c-.189-.169-.446-.262-.71-.244-.266,.015-.51,.132-.687,.33-.329,.367-.339,.928-.022,1.305l2.571,2.67c.383,.398,.37,1.031-.027,1.414-.399,.383-1.031,.37-1.414-.027l-2.616-2.721c-.461-.547-.716-1.202-.746-1.857-.005-.04,0-8.116,0-8.116,0-.551-.448-1-1-1s-1,.449-1,1v10.101c0,1.603,.624,3.109,1.757,4.243l1.95,1.95c.391,.39,.391,1.023,0,1.414-.195,.195-.451,.293-.707,.293s-.512-.098-.707-.293l-1.95-1.95c-1.511-1.511-2.343-3.52-2.343-5.657V6c0-1.654,1.346-3,3-3s3,1.346,3,3v5.184c.266-.094,.542-.164,.832-.18,.79-.042,1.566,.226,2.163,.76,0,0,2.909,2.694,2.991,2.778l3.009-2.769c.605-.543,1.381-.812,2.173-.769,.29,.016,.566,.086,.832,.18V6c0-1.654,1.346-3,3-3s3,1.346,3,3Z"/></svg>
