<?xml version="1.0" encoding="UTF-8"?>
<svg xmlns="http://www.w3.org/2000/svg" id="Layer_1" data-name="Layer 1" viewBox="0 0 24 24" width="512" height="512"><path d="M10,21c0,.55-.45,1-1,1H5c-2.76,0-5-2.24-5-5V5C0,2.24,2.24,0,5,0h12c2.76,0,5,2.24,5,5v2c0,.55-.45,1-1,1s-1-.45-1-1v-2c0-1.65-1.35-3-3-3H5c-1.65,0-3,1.35-3,3v12c0,1.65,1.35,3,3,3h4c.55,0,1,.45,1,1Zm-1-5h-3v-7.59l2.71-2.71c.29-.29,.37-.72,.22-1.09-.15-.37-.52-.62-.92-.62h-2c-1.1,0-2,.9-2,2v10c0,1.1,.9,2,2,2h3c.55,0,1-.45,1-1s-.45-1-1-1Zm2-4h-1v-1.67c0-.27,.1-.52,.29-.71l3.33-3.33c.19-.19,.44-.29,.71-.29h1.67c0,.55,.45,1,1,1s1-.45,1-1c0-1.1-.9-2-2-2h-1.67c-.8,0-1.55,.31-2.12,.88l-3.33,3.33c-.57,.57-.88,1.32-.88,2.12v1.67c0,1.1,.9,2,2,2h1c.55,0,1-.45,1-1s-.45-1-1-1Zm13,6v2c0,2.21-1.79,4-4,4h-4c-2.21,0-4-1.79-4-4v-2c0-1.48,.81-2.77,2-3.46v-1.54c0-2.21,1.79-4,4-4s4,1.79,4,4v1.54c1.19,.69,2,1.99,2,3.46Zm-8-4h4v-1c0-1.1-.9-2-2-2s-2,.9-2,2v1Zm6,4c0-1.1-.9-2-2-2h-4c-1.1,0-2,.9-2,2v2c0,1.1,.9,2,2,2h4c1.1,0,2-.9,2-2v-2Zm-4-.5c-.83,0-1.5,.67-1.5,1.5s.67,1.5,1.5,1.5,1.5-.67,1.5-1.5-.67-1.5-1.5-1.5Z"/></svg>
