<?xml version="1.0" encoding="UTF-8"?>
<svg xmlns="http://www.w3.org/2000/svg" id="Layer_1" data-name="Layer 1" viewBox="0 0 24 24">
  <path d="m12,24c-2.938,0-5.7-1.145-7.778-3.222-2.078-2.078-3.222-4.841-3.222-7.778,0-1.38.453-2.89,1.345-4.487.269-.482.877-.655,1.36-.386.482.27.655.878.386,1.36-.724,1.297-1.091,2.479-1.091,3.513,0,2.403.937,4.664,2.636,6.364,1.7,1.699,3.96,2.636,6.364,2.636,1.404,0,2.804-.332,4.05-.96.491-.251,1.094-.051,1.343.442s.051,1.095-.442,1.343c-1.523.769-3.235,1.175-4.95,1.175Zm0-21c-.467,0-.919.165-1.272.465-1.061.9-2.082,1.869-2.953,2.801l-.046.049,11.006,11.006c.829-1.287,1.265-2.774,1.265-4.322,0-2.395-2.515-5.959-6.728-9.534-.353-.3-.805-.465-1.272-.465M1,0c.256,0,.512.098.707.293l4.607,4.607c1.064-1.138,2.169-2.153,3.12-2.96.738-.627,1.652-.94,2.566-.94s1.828.313,2.566.94c2.963,2.514,7.434,7.048,7.434,11.059,0,2.02-.608,4.04-1.825,5.762l3.532,3.532c.391.391.391,1.023,0,1.414-.195.195-.451.293-.707.293s-.512-.098-.707-.293L.293,1.707C-.098,1.316-.098.684.293.293c.195-.195.451-.293.707-.293h0Z"/>
</svg>
