<?xml version="1.0" encoding="UTF-8"?>
<svg xmlns="http://www.w3.org/2000/svg" id="Layer_1" data-name="Layer 1" viewBox="0 0 24 24">
  <path d="m13,10.5c0-.828.672-1.5,1.5-1.5s1.5.672,1.5,1.5-.672,1.5-1.5,1.5-1.5-.672-1.5-1.5Zm-3.5,1.5c.828,0,1.5-.672,1.5-1.5s-.672-1.5-1.5-1.5-1.5.672-1.5,1.5.672,1.5,1.5,1.5Zm2.5,8c-4.411,0-8-3.589-8-8S7.589,4,12,4s8,3.589,8,8-3.589,8-8,8Zm6-8c0-3.309-2.691-6-6-6s-6,2.691-6,6,2.691,6,6,6,6-2.691,6-6Zm-3.555,1.168c-.013.008-1.28.832-2.445.832-.971,0-2.096-.602-2.447-.833-.46-.305-1.079-.18-1.385.279-.307.459-.183,1.081.277,1.387.18.12,1.803,1.168,3.555,1.168s3.375-1.048,3.555-1.168c.46-.306.584-.927.277-1.387-.307-.46-.926-.585-1.387-.277Zm-7.445,8.832h-2c-1.654,0-3-1.346-3-3v-2c0-.552-.447-1-1-1s-1,.448-1,1v2c0,2.757,2.243,5,5,5h2c.553,0,1-.448,1-1s-.447-1-1-1Zm16-6c-.553,0-1,.448-1,1v2c0,1.654-1.346,3-3,3h-2c-.553,0-1,.448-1,1s.447,1,1,1h2c2.757,0,5-2.243,5-5v-2c0-.552-.447-1-1-1ZM19,0h-2c-.553,0-1,.448-1,1s.447,1,1,1h2c1.654,0,3,1.346,3,3v2c0,.552.447,1,1,1s1-.448,1-1v-2c0-2.757-2.243-5-5-5ZM1,8c.553,0,1-.448,1-1v-2c0-1.654,1.346-3,3-3h2c.553,0,1-.448,1-1s-.447-1-1-1h-2C2.243,0,0,2.243,0,5v2c0,.552.447,1,1,1Z"/>
</svg>
