<?xml version="1.0" encoding="UTF-8"?>
<svg xmlns="http://www.w3.org/2000/svg" id="Layer_1" data-name="Layer 1" viewBox="0 0 24 24" width="512" height="512"><path d="m20,13h-1.222l1.05-1.05c.756-.755,1.172-1.76,1.172-2.829s-.416-2.073-1.172-2.828l-2.121-2.121c-1.511-1.512-4.146-1.511-5.657,0l-1.05,1.05v-1.222c0-2.206-1.794-4-4-4h-3C1.794,0,0,1.794,0,4v14.5c0,3.033,2.467,5.5,5.5,5.5h14.5c2.206,0,4-1.794,4-4v-3c0-2.206-1.794-4-4-4Zm-6.536-7.414c.755-.755,2.072-.756,2.829,0l2.121,2.121c.378.378.586.88.586,1.414s-.208,1.037-.586,1.415l-7.414,7.414v-9.9l2.464-2.464Zm-11.464,2.414h7v4H2v-4Zm2-6h3c1.103,0,2,.897,2,2v2H2v-2c0-1.103.897-2,2-2Zm-2,16.5v-4.5h7v4.5c0,1.93-1.57,3.5-3.5,3.5s-3.5-1.57-3.5-3.5Zm20,1.5c0,1.103-.897,2-2,2h-10.222l7-7h3.222c1.103,0,2,.897,2,2v3Zm-16.5,0c-.828,0-1.5-.672-1.5-1.5s.672-1.5,1.5-1.5,1.5.672,1.5,1.5-.672,1.5-1.5,1.5Z"/></svg>
