<?xml version="1.0" encoding="UTF-8"?>
<svg xmlns="http://www.w3.org/2000/svg" id="Layer_1" data-name="Layer 1" viewBox="0 0 24 24" width="512" height="512"><path d="M17.746,15.336c.366,.412,.331,1.042-.08,1.409-.103,.092-2.559,2.254-5.666,2.254s-5.563-2.162-5.666-2.254c-.412-.368-.447-1-.08-1.412,.369-.411,.998-.446,1.41-.081,.025,.022,2.008,1.748,4.336,1.748s4.316-1.73,4.336-1.748c.411-.365,1.044-.328,1.41,.084Zm-.348-7.135s-2.794,2.103-2.838,2.138l-.008,.006s-.001,.001-.002,.002c-.334,.275-.551,.687-.551,1.153,0,.828,.672,1.5,1.5,1.5s1.5-.672,1.5-1.5c0-.154-.03-.3-.073-.439l1.675-1.262c.441-.333,.529-.959,.197-1.4-.331-.44-.96-.53-1.4-.197Zm-10.398,3.299c0,.828,.672,1.5,1.5,1.5s1.5-.672,1.5-1.5c0-.466-.217-.878-.551-1.153,0,0-.001-.001-.002-.002l-.008-.006c-.044-.036-2.838-2.138-2.838-2.138-.441-.333-1.069-.244-1.4,.197-.332,.441-.244,1.068,.197,1.4l1.675,1.262c-.043,.14-.073,.285-.073,.439Zm17,.5c0,6.617-5.383,12-12,12S0,18.617,0,12c0-1.836,.426-3.569,1.166-5.126L.017,1.185C-.052,.818,.089,.444,.383,.214,.677-.018,1.076-.065,1.414,.09L5.446,1.961C7.332,.725,9.582,0,12,0s4.668,.725,6.554,1.96L22.586,.09c.338-.155,.737-.108,1.03,.123,.294,.23,.435,.604,.366,.972l-1.149,5.689c.74,1.557,1.166,3.291,1.166,5.127Zm-2,0c0-5.514-4.486-10-10-10S2,6.486,2,12s4.486,10,10,10,10-4.486,10-10Z"/></svg>
