<?xml version="1.0" encoding="UTF-8"?>
<svg xmlns="http://www.w3.org/2000/svg" id="Layer_1" data-name="Layer 1" viewBox="0 0 24 24" width="512" height="512"><path d="m12.039.02C5.422.02.039,5.402.039,12.02s5.383,12,12,12,12-5.383,12-12S18.655.02,12.039.02Zm0,22c-5.514,0-10-4.486-10-10S6.524,2.02,12.039,2.02s10,4.486,10,10-4.485,10-10,10Zm5.994-14.644l-.933,8.742c-.196,1.076-.946,1.896-2.134,1.896-.916,0-1.733-.582-2.071-1.495l-.869-2.494-.887,2.481c-.364.984-1.254,1.595-2.237,1.498-.96-.082-1.729-.81-1.914-1.811l-.944-8.817c-.059-.55.339-1.042.888-1.101.549-.058,1.042.339,1.1.888l.933,8.742h0s.036.1.107.106c.075.008.14-.064.186-.189l1.837-5.14c.142-.397.519-.663.941-.663h.004c.424.002.801.271.94.671l1.794,5.152c.043.113.114.192.204.17.029-.002.108-.009.141-.184l.922-8.666c.059-.549.546-.954,1.101-.888.549.059.946.551.888,1.101Z"/></svg>
