<?xml version="1.0" encoding="UTF-8"?>
<svg xmlns="http://www.w3.org/2000/svg" id="Layer_1" data-name="Layer 1" viewBox="0 0 24 24" width="512" height="512"><path d="M20,6h-1v-2c0-2.21-1.79-4-4-4h-6c-2.21,0-4,1.79-4,4v2h-1C1.79,6,0,7.79,0,10v2c0,2.21,1.79,4,4,4H20c2.21,0,4-1.79,4-4v-2c0-2.21-1.79-4-4-4ZM7,4c0-1.1,.9-2,2-2h6c1.1,0,2,.9,2,2v2H7v-2Zm15,8c0,1.1-.9,2-2,2H4c-1.1,0-2-.9-2-2v-2c0-1.1,.9-2,2-2H20c1.1,0,2,.9,2,2v2ZM5,19v4c0,.55-.45,1-1,1s-1-.45-1-1v-4c0-.55,.45-1,1-1s1,.45,1,1Zm4,0v4c0,.55-.45,1-1,1s-1-.45-1-1v-4c0-.55,.45-1,1-1s1,.45,1,1Zm4,0v4c0,.55-.45,1-1,1s-1-.45-1-1v-4c0-.55,.45-1,1-1s1,.45,1,1Zm4,0v4c0,.55-.45,1-1,1s-1-.45-1-1v-4c0-.55,.45-1,1-1s1,.45,1,1Zm4,0v4c0,.55-.45,1-1,1s-1-.45-1-1v-4c0-.55,.45-1,1-1s1,.45,1,1Z"/></svg>
