<?xml version="1.0" encoding="UTF-8"?>
<svg xmlns="http://www.w3.org/2000/svg" id="Layer_1" data-name="Layer 1" viewBox="0 0 24 24" width="512" height="512"><path d="m3.002,6.007c0-.553.448-1,1-1h19.001c.552,0,1,.447,1,1s-.448,1-1,1H4.002c-.552,0-1-.447-1-1Zm.999-2c.018,0,.036,0,.054,0l18.937-1c.552-.029.975-.5.946-1.052-.029-.552-.508-.968-1.051-.946L3.95,2.008c-.552.029-.975.5-.946,1.052.028.533.47.947.998.947Zm19.195,7.591c.768,1.024,1.002,2.319.642,3.552-.708,2.421-1.989,4.605-3.708,6.316-1.617,1.61-3.901,2.534-6.268,2.534h-3.722c-2.366,0-4.65-.924-6.268-2.533-1.719-1.713-3-3.897-3.707-6.317-.36-1.232-.126-2.527.642-3.552.762-1.016,1.927-1.598,3.196-1.598h15.995c1.27,0,2.435.582,3.196,1.598Zm-1.6,1.2c-.38-.507-.962-.798-1.596-.798H4.005c-.634,0-1.216.291-1.596.798-.387.516-.504,1.169-.322,1.791.604,2.067,1.739,4.007,3.199,5.461,1.245,1.239,3.015,1.95,4.856,1.95h3.722c1.841,0,3.611-.711,4.856-1.951,1.458-1.452,2.595-3.392,3.199-5.46.182-.622.064-1.275-.322-1.791Z"/></svg>
