<?xml version="1.0" encoding="UTF-8"?>
<svg xmlns="http://www.w3.org/2000/svg" id="Layer_1" data-name="Layer 1" viewBox="0 0 24 24" width="512" height="512"><path d="m23.121,1.879c-1.17-1.17-3.072-1.17-4.242,0L.293,20.465c-.15.15-.249.345-.281.555-.058.371.015.922.388,1.357.243.284.706.623,1.523.623.474,0,.88.009,1.116,0,1.8-.071,3.553-.479,5.209-1.211,2.591-1.146,4.37-3.201,5.161-5.955l9.712-9.712c1.17-1.17,1.17-3.072,0-4.242ZM7.439,19.959c-1.425.63-2.932.98-4.479,1.042-.191.008-.339.008-.381.006l7.033-7.033,1.769,1.65c-.669,2.016-1.992,3.473-3.941,4.335Zm14.268-15.252l-9.217,9.216-1.463-1.364L20.293,3.293c.391-.391,1.023-.391,1.414,0s.39,1.024,0,1.414Z"/></svg>
