<?xml version="1.0" encoding="UTF-8"?>
<svg xmlns="http://www.w3.org/2000/svg" id="Layer_1" data-name="Layer 1" viewBox="0 0 24 24" width="512" height="512"><path d="M15.88,21.26c-.43,1.62-1.89,2.74-3.57,2.74h-.62c-2.03,0-3.69-1.66-3.69-3.69v-.16c0-1.67-.76-3.29-2.13-4.57-1.82-1.7-2.87-4.1-2.87-6.58,0-.55,.45-1,1-1s1,.45,1,1c0,1.96,.79,3.78,2.23,5.12,1.2,1.12,2.04,2.45,2.46,3.88h3.31c.55,0,1,.45,1,1s-.45,1-1,1h-3s0,.1,0,.15v.16c0,.93,.76,1.69,1.69,1.69h.62c.77,0,1.44-.52,1.63-1.26,.14-.53,.69-.85,1.22-.71,.53,.14,.85,.69,.71,1.22Zm7.83,2.44c-.2,.2-.45,.29-.71,.29s-.51-.1-.71-.29L.29,1.7C-.1,1.31-.1,.68,.29,.29S1.32-.1,1.71,.29l3.19,3.19C6.38,1.58,8.57,.33,10.96,.06c2.56-.29,5.13,.52,7.04,2.23,1.91,1.71,3.01,4.15,3.01,6.71s-1.12,5.05-3.07,6.76c-.13,.12-.26,.24-.38,.37l6.16,6.16c.39,.39,.39,1.02,0,1.41ZM6.33,4.91l9.81,9.81c.15-.16,.31-.31,.48-.46,1.52-1.33,2.39-3.25,2.39-5.26s-.85-3.89-2.34-5.22c-1.51-1.35-3.45-1.96-5.48-1.73-1.93,.22-3.7,1.27-4.85,2.86Z"/></svg>
