<?xml version="1.0" encoding="UTF-8"?>
<svg xmlns="http://www.w3.org/2000/svg" id="Layer_1" data-name="Layer 1" viewBox="0 0 24 24" width="512" height="512"><path d="m12,17.5c-.552,0-1-.447-1-1v-6.5c0-.553.448-1,1-1s1,.447,1,1v6.5c0,.553-.448,1-1,1Zm0,1.5c-.828,0-1.5.672-1.5,1.5s.672,1.5,1.5,1.5,1.5-.672,1.5-1.5-.672-1.5-1.5-1.5Zm11.998-4.565c.001.016.001-.02,0,0h0Zm-6.024-7.262c-.332-.066-.603-.273-.742-.569-1.551-3.271-5.142-5.1-8.735-4.438-3.272.6-5.837,3.212-6.384,6.502-.161.972-.15,1.943.033,2.889.06.309-.073.653-.346.901-1.161,1.057-1.801,2.492-1.801,4.043,0,3.032,2.467,5.5,5.5,5.5h1.5c.552,0,1-.447,1-1s-.448-1-1-1h-1.5c-1.93,0-3.5-1.57-3.5-3.5,0-.98.407-1.891,1.146-2.562.786-.715,1.155-1.773.963-2.763-.138-.711-.146-1.444-.024-2.181.403-2.422,2.365-4.421,4.771-4.862,2.75-.499,5.385.835,6.567,3.329.414.872,1.2,1.481,2.158,1.673,2.555.51,4.413,2.775,4.417,5.381-.007,2.861-2.236,5.272-5.075,5.488-.551.042-.963.522-.921,1.073.04.524.478.924.996.924.025,0,.051,0,.077-.003,3.848-.293,6.874-3.692,6.922-7.562-.043-3.525-2.565-6.572-6.024-7.262Z"/></svg>
