<?xml version="1.0" encoding="UTF-8"?>
<svg xmlns="http://www.w3.org/2000/svg" id="Layer_1" data-name="Layer 1" viewBox="0 0 24 24" width="512" height="512"><path d="m14.182,17.457c-.159.894-1.013,1.543-2.029,1.543-.822,0-1.594-.331-2.118-.909-.231-.254-.212-.647.042-.877h0c.254-.231.647-.212.877.042h0c.285.314.732.501,1.197.501.446,0,.759-.264.805-.519.061-.343-.449-.559-.607-.618-.748-.276-1.422-.577-1.422-.577-.596-.38-.859-.963-.773-1.57.093-.646.565-1.172,1.232-1.373,1.31-.395,2.394.496,2.438.534l.003.002c.261.22.295.61.075.871l-.005.005c-.22.261-.609.295-.87.075-.025-.02-.629-.492-1.283-.298-.291.088-.349.281-.36.359-.008.059-.013.204.129.301.016,0,.611.262,1.265.504,1.216.449,1.521,1.328,1.4,2.002Zm-5.998-.431c-.227,0-.439.121-.545.322-.124.236-.378.402-.665.407-.399-.007-.721-.331-.72-.732,0-.137-.007-1.918-.008-2.013-.001-.401.321-.725.72-.732.287.005.541.171.665.407.106.201.318.322.545.322.47,0,.771-.501.55-.916-.335-.628-1.003-1.058-1.772-1.058-1.08,0-1.956.876-1.956,1.956l.008,2.055c0,1.08.876,1.956,1.956,1.956.768,0,1.437-.43,1.772-1.058.221-.415-.08-.916-.55-.916Zm10.007-3.993h-.012c-.286,0-.532.201-.591.48l-.58,2.783-.706-2.807c-.067-.268-.309-.456-.585-.456-.393,0-.681.37-.585.751l1.165,4.626c.087.347.399.59.757.59.37,0,.689-.259.764-.621l.964-4.619c.078-.375-.208-.727-.591-.727Zm3.808-2.548v8.515c0,2.757-2.243,5-5,5H7c-2.757,0-5-2.243-5-5V5C2,2.243,4.243,0,7,0h4.515c1.87,0,3.628.729,4.95,2.051l3.484,3.484c1.322,1.322,2.051,3.08,2.051,4.95Zm-6.949-7.021c-.318-.318-.671-.587-1.051-.806v4.341c0,.552.448,1,1,1h4.341c-.218-.38-.488-.733-.806-1.051l-3.484-3.484Zm4.949,7.021c0-.163-.008-.325-.023-.485h-4.977c-1.654,0-3-1.346-3-3V2.023c-.16-.015-.322-.023-.485-.023h-4.515c-1.654,0-3,1.346-3,3v14c0,1.654,1.346,3,3,3h10c1.654,0,3-1.346,3-3v-8.515Z"/></svg>
