<?xml version="1.0" encoding="UTF-8"?>
<svg xmlns="http://www.w3.org/2000/svg" id="Layer_1" data-name="Layer 1" viewBox="0 0 24 24" width="512" height="512"><path d="M9.5,2.5c0-1.381,1.119-2.5,2.5-2.5s2.5,1.119,2.5,2.5-1.119,2.5-2.5,2.5-2.5-1.119-2.5-2.5Zm10.186,11.228c-.193,.182-.439,.272-.686,.272-.266,0-.531-.105-.728-.314l-1.918-2.036,.622,4.978c.107,.854-.158,1.712-.728,2.357-.34,.385-.775,.658-1.249,.826v3.188c0,.552-.448,1-1,1s-1-.448-1-1v-3h-2v3c0,.552-.448,1-1,1s-1-.448-1-1v-3.188c-.474-.169-.909-.441-1.249-.826-.569-.645-.834-1.504-.728-2.357l.621-4.964-1.918,2.024c-.197,.208-.461,.312-.726,.312-.247,0-.495-.091-.688-.274-.401-.38-.418-1.013-.038-1.414l4.471-4.719c.762-.973,1.944-1.593,3.255-1.593,1.166,0,2.221,.501,2.979,1.294,.019,.017,4.749,5.02,4.749,5.02,.378,.402,.36,1.035-.042,1.414Zm-9.401-4.851c-.209,.285-.354,.62-.401,.991l-.876,7.008c-.036,.289,.05,.568,.243,.786,.192,.218,.458,.338,.75,.338h4c.291,0,.557-.12,.75-.338,.193-.218,.279-.497,.243-.786l-.876-7.008c-.133-1.065-1.043-1.868-2.116-1.868-.509,0-.977,.185-1.347,.488l-.368,.389Z"/></svg>
