<?xml version="1.0" encoding="UTF-8"?>
<svg xmlns="http://www.w3.org/2000/svg" id="Layer_1" data-name="Layer 1" viewBox="0 0 24 24" width="512" height="512"><path d="m21,17.126v-8.126C21,4.037,16.963,0,12,0S3,4.037,3,9v8.126c-1.724.445-3,2.013-3,3.874,0,1.654,1.346,3,3,3h18c1.654,0,3-1.346,3-3,0-1.861-1.276-3.429-3-3.874ZM12,2c3.859,0,7,3.141,7,7v8H5v-8c0-3.859,3.141-7,7-7Zm9,20H3c-.552,0-1-.448-1-1,0-1.103.897-2,2-2h16c1.103,0,2,.897,2,2,0,.552-.448,1-1,1Zm-13-13c0-2.206,1.794-4,4-4,.553,0,1,.447,1,1s-.447,1-1,1c-1.103,0-2,.897-2,2,0,.553-.447,1-1,1s-1-.447-1-1Z"/></svg>
