<?xml version="1.0" encoding="UTF-8"?>
<svg xmlns="http://www.w3.org/2000/svg" id="Layer_1" data-name="Layer 1" viewBox="0 0 24 24">
  <path d="m17.943,9.376l-1.943-.391V3c0-1.517-1.076-2.835-2.503-3.066-.88-.145-1.768.102-2.439.673s-1.058,1.405-1.058,2.288l.011,4.962h-.021c-1.471,0-2.844.818-3.537,2.122l-4.417,4.214c-.691.687-1.073,1.602-1.074,2.576-.002.975.376,1.891,1.065,2.58l2.308,2.308c1.512,1.511,3.521,2.343,5.657,2.343h6.97c2.757,0,5-2.243,5-5v-4.721c0-2.375-1.69-4.437-4.019-4.903Zm2.019,9.624c0,1.654-1.346,3-3,3h-6.97c-1.603,0-3.109-.624-4.243-1.757l-2.308-2.308c-.311-.311-.48-.723-.48-1.162,0-.439.173-.851.471-1.146l2.568-2.451v3.824c0,.552.447,1,1,1s1-.448,1-1v-5.597c.038-.062.07-.128.095-.199.325-.942,1.303-1.503,2.286-1.307l.436.087c.291.059.599-.018.831-.208.231-.19.366-.475.365-.775l-.013-6.108c0-.294.129-.572.353-.763.229-.194.521-.272.823-.223.462.075.824.555.824,1.092v6.805c0,.476.336.886.803.98l2.747.552c1.397.28,2.412,1.517,2.412,2.942v4.721Z"/>
</svg>
