<?xml version="1.0" encoding="UTF-8"?>
<svg xmlns="http://www.w3.org/2000/svg" id="Layer_1" data-name="Layer 1" viewBox="0 0 24 24" width="512" height="512"><path d="m21.121,3.26l-2.381-2.381c-.566-.567-1.32-.879-2.121-.879h-4.619c-2.414,0-4.435,1.721-4.899,4h-.101c-2.757,0-5,2.243-5,5v10c0,2.757,2.243,5,5,5h6c2.757,0,5-2.243,5-5v-.101c2.279-.465,4-2.485,4-4.899V5.381c0-.801-.312-1.555-.879-2.121Zm-8.121,18.74h-6c-1.654,0-3-1.346-3-3v-10c0-1.654,1.346-3,3-3v8c0,2.757,2.243,5,5,5h4c0,1.654-1.346,3-3,3Zm4-5h-5c-1.654,0-3-1.346-3-3V5c0-1.654,1.346-3,3-3h4v2c0,1.105.895,2,2,2h2v8c0,1.654-1.346,3-3,3Zm1-6c0,.552-.448,1-1,1h-1.5v1.5c0,.552-.448,1-1,1s-1-.448-1-1v-1.5h-1.5c-.552,0-1-.448-1-1s.448-1,1-1h1.5v-1.5c0-.552.448-1,1-1s1,.448,1,1v1.5h1.5c.552,0,1,.448,1,1Z"/></svg>
