<?xml version="1.0" encoding="UTF-8"?>
<svg xmlns="http://www.w3.org/2000/svg" id="Layer_1" data-name="Layer 1" viewBox="0 0 24 24" width="512" height="512"><path d="M23.12,11.88c-1.13-1.13-3.11-1.13-4.24,0l-7,7c-.57,.57-.88,1.32-.88,2.12v2c0,.55,.45,1,1,1h2c.8,0,1.55-.31,2.12-.88l7-7c.57-.57,.88-1.32,.88-2.12s-.31-1.55-.88-2.12Zm-1.41,2.83l-7,7c-.19,.19-.44,.29-.71,.29h-1v-1c0-.26,.11-.52,.29-.71l7-7c.38-.38,1.04-.38,1.41,0,.19,.19,.29,.44,.29,.71s-.1,.52-.29,.71Zm-7.71-1.21c0-.83-.67-1.5-1.5-1.5s-1.5,.67-1.5,1.5c0,.32,.1,.67,.29,.99-.32,.28-.74,.51-1.29,.51-.44,0-.88-.13-1.3-.34,.81-1.16,1.3-2.55,1.3-3.66,0-1.65-1.35-3-3-3s-3,1.35-3,3c0,1.22,.68,2.65,1.71,3.8-.24,.13-.48,.2-.71,.2-.55,0-1,.45-1,1s.45,1,1,1c.83,0,1.61-.33,2.3-.85,.84,.53,1.76,.85,2.7,.85,2.6,0,4-2.48,4-3.5Zm-6.87-.1c-.68-.79-1.13-1.72-1.13-2.4,0-.55,.45-1,1-1s1,.45,1,1c0,.72-.35,1.63-.87,2.4Zm1.87,7.6c0,.55-.45,1-1,1h-3c-2.76,0-5-2.24-5-5V5C0,2.24,2.24,0,5,0h5.76c1.07,0,2.07,.42,2.83,1.17l3.24,3.24c.76,.76,1.17,1.76,1.17,2.83v1.76c0,.55-.45,1-1,1s-1-.45-1-1v-1.76c0-.08,0-.16-.02-.24h-2.98c-1.1,0-2-.9-2-2V2.02c-.08,0-.16-.02-.24-.02H5c-1.65,0-3,1.35-3,3v12c0,1.65,1.35,3,3,3h3c.55,0,1,.45,1,1Z"/></svg>
