<?xml version="1.0" encoding="UTF-8"?>
<svg xmlns="http://www.w3.org/2000/svg" id="Layer_1" data-name="Layer 1" viewBox="0 0 24 24">
  <path d="m12,3c1.381,0,2.5,1.119,2.5,2.5s-1.119,2.5-2.5,2.5-2.5-1.119-2.5-2.5,1.119-2.5,2.5-2.5Zm11.448,13.382c-.376.393-.903.618-1.448.618h0c0,1.103-.897,2-2,2,0,0-.003,2.078-.007,2.116-.019.546-.186,1.077-.494,1.542-.558.841-1.492,1.343-2.501,1.343H7c-1.009,0-1.944-.502-2.501-1.343-.342-.516-.51-1.113-.499-1.712v-1.945c-1.103,0-2-.897-2-2-.544,0-1.072-.226-1.447-.618C.179,15.99-.022,15.456.002,14.916c.182-4.067,1.023-8.916,3.998-8.916,3.41,0,5.729,2.804,6.405,3.736,1.036.35,2.153.35,3.189,0,.677-.932,2.995-3.736,6.405-3.736,2.976,0,3.817,4.849,3.999,8.916.024.54-.177,1.074-.551,1.466Zm-19.448-.382v1h1c.19,0,.367.053.518.144l3.085-6.473c-.674-.852-2.375-2.672-4.603-2.672-.829,0-1.804,2.62-2,7.006l1-.006c.552,0,1,.447,1,1Zm13.919,4.61l-4.207-8.824c-1.119.285-2.305.285-3.424,0l-4.227,8.865c-.032.076-.052.157-.061.241,0,0-.055.36.167.66.202.275.492.447.833.447h9.998c.341,0,.645-.163.833-.448.188-.284.22-.627.087-.941Zm4.082-5.61c-.196-4.38-1.171-7-2-7-2.228,0-3.929,1.82-4.603,2.672l3.085,6.473c.151-.092.328-.145.518-.145h1v-1c0-.553.448-1,1-1h1ZM8,4.25c.552,0,1-.447,1-1,0-.44,1.139-1.25,3-1.25s3,.81,3,1.25c0,.553.448,1,1,1s1-.447,1-1c0-1.853-2.149-3.25-5-3.25s-5,1.397-5,3.25c0,.553.448,1,1,1Z"/>
</svg>
