<?xml version="1.0" encoding="UTF-8"?>
<svg xmlns="http://www.w3.org/2000/svg" id="Layer_1" data-name="Layer 1" viewBox="0 0 24 24" width="512" height="512"><path d="M12,0C5.383,0,0,5.383,0,12s5.383,12,12,12,12-5.383,12-12S18.617,0,12,0Zm0,2c4.091,0,7.612,2.473,9.159,6h-1.436c-.621-1.742-2.271-3-4.224-3-1.421,0-2.675,.675-3.5,1.706-.825-1.032-2.079-1.706-3.5-1.706-1.953,0-3.602,1.258-4.224,3h-1.435c1.547-3.527,5.068-6,9.159-6Zm0,14c-1.094,0-3-.85-3-1.337,0-.291,.132-.56,.349-.749,1.071-.206,1.995-.8,2.651-1.621,.657,.821,1.581,1.415,2.652,1.621,.218,.191,.348,.458,.349,.742-.095,.478-2.029,1.344-3.001,1.344Zm-3.5-9c1.379,0,2.5,1.121,2.5,2.5s-1.121,2.5-2.5,2.5-2.5-1.121-2.5-2.5,1.121-2.5,2.5-2.5Zm7,5c-1.379,0-2.5-1.121-2.5-2.5s1.121-2.5,2.5-2.5,2.5,1.121,2.5,2.5-1.121,2.5-2.5,2.5Zm-3.5,10c-5.514,0-10-4.486-10-10,0-.685,.07-1.354,.202-2h1.849c.201,1.785,1.436,3.243,3.101,3.771-.09,.287-.152,.583-.152,.892,0,.136,.015,.267,.039,.395l-1.106,.788c-.45,.32-.555,.944-.234,1.395,.195,.274,.503,.42,.815,.42,.2,0,.403-.061,.579-.186l1.086-.773c.342,.256,.731,.472,1.135,.65l-.454,1.324c-.179,.522,.1,1.091,.622,1.271,.107,.036,.217,.054,.324,.054,.416,0,.804-.261,.946-.676l.48-1.4c.293,.048,.559,.075,.768,.075,.191,0,.458-.031,.764-.088l.484,1.412c.143,.415,.53,.676,.946,.676,.107,0,.217-.018,.324-.054,.522-.18,.801-.748,.622-1.271l-.467-1.363c.394-.176,.777-.387,1.115-.635l1.118,.796c.176,.125,.379,.186,.579,.186,.312,0,.62-.146,.815-.42,.32-.45,.216-1.074-.234-1.395l-1.108-.789c.025-.127,.041-.258,.041-.393,0-.309-.063-.605-.153-.892,1.665-.528,2.901-1.986,3.102-3.771h1.849c.132,.646,.202,1.315,.202,2,0,5.514-4.486,10-10,10ZM7.5,9.5c0-.552,.448-1,1-1s1,.448,1,1-.448,1-1,1-1-.448-1-1Zm9,0c0,.552-.448,1-1,1s-1-.448-1-1,.448-1,1-1,1,.448,1,1Z"/></svg>
