<?xml version="1.0" encoding="UTF-8"?>
<svg xmlns="http://www.w3.org/2000/svg" id="Layer_1" data-name="Layer 1" viewBox="0 0 24 24" width="512" height="512"><path d="m12,15c3.309,0,6-2.691,6-6V3c0-1.654-1.346-3-3-3h-6c-1.654,0-3,1.346-3,3v6c0,3.309,2.691,6,6,6Zm0-2c-2.206,0-4-1.794-4-4v-1h8v1c0,2.206-1.794,4-4,4Zm4-10v3h-3v-1h1c.553,0,1-.447,1-1s-.447-1-1-1h-1v-1h2c.552,0,1,.448,1,1Zm-8,0c0-.552.448-1,1-1h2v1h-1c-.553,0-1,.447-1,1s.447,1,1,1h1v1h-3v-3Zm13,20c0,.553-.447,1-1,1s-1-.447-1-1c0-1.823-.769-3.817-1.869-4.849-.144-.134-.315-.159-.4-.144-.165.007-.322.082-.432.205l-3.518,4.411c-.189.237-.477.376-.781.376h0c-.305,0-.593-.14-.782-.378l-3.543-4.457c-.074-.082-.231-.156-.396-.164-.095-.01-.258.009-.401.143-1.105,1.032-1.877,3.029-1.877,4.856,0,.553-.447,1-1,1s-1-.447-1-1c0-2.413.986-4.893,2.512-6.317.503-.471,1.151-.718,1.86-.68.7.033,1.368.353,1.833.877l2.796,3.515,2.77-3.471c.501-.564,1.17-.883,1.87-.914.688-.037,1.354.211,1.858.683,1.519,1.424,2.501,3.9,2.501,6.308Z"/></svg>
