<?xml version="1.0" encoding="UTF-8"?>
<svg xmlns="http://www.w3.org/2000/svg" id="Layer_1" data-name="Layer 1" viewBox="0 0 24 24" width="512" height="512"><path d="m19.5,6h-3c-2.481,0-4.5,2.019-4.5,4.5v9c0,2.481,2.019,4.5,4.5,4.5h3c2.481,0,4.5-2.019,4.5-4.5v-9c0-2.481-2.019-4.5-4.5-4.5Zm2.5,13.5c0,1.378-1.121,2.5-2.5,2.5h-3c-1.379,0-2.5-1.122-2.5-2.5v-9c0-1.378,1.121-2.5,2.5-2.5h3c1.379,0,2.5,1.122,2.5,2.5v9Zm-1.5-2c0,1.381-1.119,2.5-2.5,2.5s-2.5-1.119-2.5-2.5,1.119-2.5,2.5-2.5,2.5,1.119,2.5,2.5Zm-4-6c0-.828.672-1.5,1.5-1.5s1.5.672,1.5,1.5-.672,1.5-1.5,1.5-1.5-.672-1.5-1.5Zm-6.5,4.5v4c0,.552-.447,1-1,1h-3c-.553,0-1-.448-1-1s.447-1,1-1h2v-2h-3c-2.757,0-5-2.243-5-5v-7C0,2.243,2.243,0,5,0h11c1.779,0,3.439.958,4.33,2.5.277.478.113,1.09-.364,1.366-.48.276-1.091.113-1.366-.365-.535-.925-1.531-1.5-2.6-1.5H5c-1.654,0-3,1.346-3,3v7c0,1.654,1.346,3,3,3h4c.553,0,1,.448,1,1Z"/></svg>
