<?xml version="1.0" encoding="UTF-8"?>
<svg xmlns="http://www.w3.org/2000/svg" id="Layer_1" data-name="Layer 1" viewBox="0 0 24 24" width="512" height="512"><path d="M0,12c0-.81,.2-1.62,.59-2.36L3.81,3.64c.87-1.63,2.56-2.64,4.41-2.64h7.58c1.85,0,3.54,1.01,4.41,2.64l3.2,6c.79,1.48,.79,3.24,0,4.71l-3.2,6c-.87,1.63-2.56,2.64-4.41,2.64h-7.58c-1.85,0-3.53-1.01-4.41-2.64L.59,14.37C.2,13.63,0,12.82,0,12Zm22,0c0-.49-.12-.97-.35-1.41l-3.2-6c-.52-.98-1.54-1.59-2.65-1.59h-7.58c-1.11,0-2.12,.61-2.64,1.58l-3.22,6c-.47,.89-.48,1.95,0,2.84l3.22,6c.52,.98,1.54,1.58,2.64,1.58h7.58c1.11,0,2.12-.61,2.65-1.59h0l3.2-6c.24-.44,.35-.93,.35-1.41Z"/></svg>
