<?xml version="1.0" encoding="UTF-8"?>
<svg xmlns="http://www.w3.org/2000/svg" id="Layer_1" data-name="Layer 1" viewBox="0 0 24 24" width="512" height="512"><path d="m18,9.009c-3.309,0-6,3.365-6,7.501s2.691,7.5,6,7.5,6-3.364,6-7.5-2.691-7.501-6-7.501Zm-4,7.501c0-2.76,1.485-5.051,3.414-5.442.38.571,1.235,2.322-.277,4.942-1.302,2.258-1.289,4.11-.94,5.409-1.303-.908-2.198-2.768-2.198-4.909Zm4.592,5.44c-.38-.572-1.232-2.321.278-4.94,1.301-2.255,1.289-4.105.941-5.404,1.298.91,2.189,2.767,2.189,4.904,0,2.756-1.482,5.045-3.408,5.44ZM12.507,1.493C11.317.303,9.609-.201,7.707.07c-1.799.257-3.58,1.188-5.014,2.623C-.343,5.729-.882,10.132,1.493,12.507c.979.979,2.307,1.495,3.809,1.495.323,0,.654-.024.991-.072,1.799-.257,3.58-1.188,5.014-2.623,3.036-3.036,3.575-7.438,1.2-9.813Zm-8.399,2.614c1.13-1.13,2.509-1.86,3.882-2.057.239-.034.472-.052.698-.052.727,0,1.379.175,1.911.512-.218.723-1.038,2.543-3.926,3.543-2.55.884-3.888,2.328-4.586,3.514-.375-1.65.354-3.795,2.021-5.461Zm5.785,5.785c-1.13,1.13-2.509,1.86-3.882,2.057-1.012.144-1.913-.019-2.609-.461.218-.724,1.038-2.542,3.926-3.543,2.55-.884,3.888-2.328,4.586-3.514.375,1.65-.354,3.795-2.021,5.461Z"/></svg>
