<?xml version="1.0" encoding="UTF-8"?>
<svg xmlns="http://www.w3.org/2000/svg" id="Layer_1" data-name="Layer 1" viewBox="0 0 24 24" width="512" height="512"><path d="M23.71,22.29l-2.54-2.54c.52-.79,.83-1.74,.83-2.76,0-2.76-2.24-5-5-5s-5,2.24-5,5,2.24,5,5,5c1.02,0,1.97-.31,2.76-.83l2.54,2.54c.2,.2,.45,.29,.71,.29s.51-.1,.71-.29c.39-.39,.39-1.02,0-1.41Zm-9.71-5.29c0-1.65,1.35-3,3-3s3,1.35,3,3-1.35,3-3,3-3-1.35-3-3Zm-3,4c0,.55-.45,1-1,1H5c-2.76,0-5-2.24-5-5V5C0,2.24,2.24,0,5,0h12c2.76,0,5,2.24,5,5v5c0,.55-.45,1-1,1s-1-.45-1-1V5c0-1.65-1.35-3-3-3H5c-1.65,0-3,1.35-3,3v12c0,1.65,1.35,3,3,3h5c.55,0,1,.45,1,1ZM6,8.41v7.59h3c.55,0,1,.45,1,1s-.45,1-1,1h-3c-1.1,0-2-.9-2-2V6c0-1.1,.9-2,2-2h2c.4,0,.77,.24,.92,.62,.16,.37,.07,.8-.22,1.09l-2.71,2.71Zm5,4.59c0,.55-.45,1-1,1-1.1,0-2-.9-2-2v-1.67c0-.8,.31-1.56,.88-2.12l3.33-3.33c.57-.57,1.32-.88,2.12-.88h1.67c1.1,0,2,.9,2,2v3c0,.55-.45,1-1,1s-1-.45-1-1v-3h-1.67c-.26,0-.52,.11-.71,.29l-3.33,3.33c-.19,.19-.29,.44-.29,.71v1.67c.55,0,1,.45,1,1Z"/></svg>
