<?xml version="1.0" encoding="UTF-8"?>
<svg xmlns="http://www.w3.org/2000/svg" id="Layer_1" data-name="Layer 1" viewBox="0 0 24 24">
  <path d="m10,6c-3.309,0-6,2.691-6,6s2.691,6,6,6,6-2.691,6-6-2.691-6-6-6Zm0,10c-2.206,0-4-1.794-4-4s1.794-4,4-4,4,1.794,4,4-1.794,4-4,4ZM19,2H5C2.243,2,0,4.243,0,7v10c0,2.757,2.243,5,5,5h14c2.757,0,5-2.243,5-5V7c0-2.757-2.243-5-5-5Zm3,15c0,1.654-1.346,3-3,3H5c-1.654,0-3-1.346-3-3V7c0-1.654,1.346-3,3-3h14c1.654,0,3,1.346,3,3v10Zm-2-10v5.679c0,.682-.136,1.344-.404,1.97l-1.177,2.745c-.163.38-.532.606-.919.606-.131,0-.265-.025-.394-.081-.507-.218-.743-.806-.525-1.312l1.177-2.745c.161-.376.242-.773.242-1.183v-5.679c0-.553.448-1,1-1s1,.447,1,1Zm-8.5,5c0,.828-.672,1.5-1.5,1.5s-1.5-.672-1.5-1.5.672-1.5,1.5-1.5,1.5.672,1.5,1.5Z"/>
</svg>
