<?xml version="1.0" encoding="UTF-8"?>
<svg xmlns="http://www.w3.org/2000/svg" id="Layer_1" data-name="Layer 1" viewBox="0 0 24 24" width="512" height="512"><path d="m23.547,10.33c-2.025-3.282-4.577-5.646-6.289-6.763-.572-.374-1.182-.562-1.815-.562h-.023c-.927.007-1.726.32-2.312.905l-1.116,1.099-1.1-1.1c-.586-.586-1.368-.909-2.2-.909-.709,0-1.364.183-1.893.528-1.607,1.05-4.23,3.459-6.333,6.793-.672,1.067-.62,2.412.134,3.424.777,1.044,4.98,6.254,11.399,6.254s10.623-5.22,11.4-6.266c.746-1.004.804-2.34.147-3.404ZM7.893,5.203c.2-.131.484-.203.799-.203.298,0,.578.115.786.323l1.099,1.099c.76.761,2.086.76,2.845,0l1.099-1.099c.261-.261.641-.318.913-.32.245.013.487.078.73.237h0c1.464.956,3.627,2.953,5.433,5.75-.869-.165-5.44-.991-9.598-.991s-8.647.801-9.575.975c1.768-2.673,3.99-4.808,5.468-5.773Zm4.107,12.797c-4.747,0-8.207-3.542-9.388-4.941,1.239.226,5.463.941,9.388.941s8.122-.708,9.376-.935c-1.193,1.412-4.645,4.935-9.376,4.935Z"/></svg>
