<?xml version="1.0" encoding="UTF-8"?>
<svg xmlns="http://www.w3.org/2000/svg" id="Layer_1" data-name="Layer 1" viewBox="0 0 24 24" width="512" height="512"><path d="M12,14c-.55,0-1-.45-1-1V7c0-.55,.45-1,1-1s1,.45,1,1v6c0,.55-.45,1-1,1Zm0,2c-.55,0-1,.45-1,1s.45,1,1,1,1-.45,1-1-.45-1-1-1Zm2.12,7.16l2.16-2.16h1.72c1.65,0,3-1.35,3-3v-1.72l2.16-2.16c.57-.57,.88-1.32,.88-2.12s-.31-1.55-.88-2.12l-2.16-2.16v-1.72c0-1.65-1.35-3-3-3h-1.72L14.12,.84c-1.17-1.17-3.07-1.17-4.24,0l-2.16,2.16h-1.72c-1.65,0-3,1.35-3,3v1.72L.84,9.88C.28,10.45-.04,11.2-.04,12s.31,1.55,.88,2.12l2.16,2.16v1.72c0,1.65,1.35,3,3,3h1.72l2.16,2.16c.58,.58,1.35,.88,2.12,.88s1.54-.29,2.12-.88ZM8.13,5c.27,0,.52-.11,.71-.29l2.45-2.45c.39-.39,1.02-.39,1.41,0l2.45,2.45c.19,.19,.44,.29,.71,.29h2.13c.55,0,1,.45,1,1v2.14c0,.27,.11,.52,.29,.71l2.45,2.45h0c.19,.19,.29,.44,.29,.71s-.1,.52-.29,.71l-2.45,2.45c-.19,.19-.29,.44-.29,.71v2.14c0,.55-.45,1-1,1h-2.14c-.27,0-.52,.11-.71,.29l-2.45,2.45c-.39,.39-1.02,.39-1.41,0l-2.45-2.45c-.19-.19-.44-.29-.71-.29h-2.14c-.55,0-1-.45-1-1v-2.14c0-.27-.11-.52-.29-.71l-2.45-2.45c-.19-.19-.29-.44-.29-.71s.1-.52,.29-.71l2.45-2.45c.19-.19,.29-.44,.29-.71v-2.14c0-.55,.45-1,1-1h2.13Z"/></svg>
