<?xml version="1.0" encoding="UTF-8"?>
<svg xmlns="http://www.w3.org/2000/svg" id="Layer_1" data-name="Layer 1" viewBox="0 0 24 24">
  <path d="m24,7v10c0,2.757-2.243,5-5,5h-3c-.552,0-1-.448-1-1s.448-1,1-1h3c1.654,0,3-1.346,3-3V7c0-1.654-1.346-3-3-3H5c-1.363,0-2.557.919-2.902,2.236-.14.534-.684.855-1.221.713-.534-.14-.854-.687-.713-1.221.576-2.195,2.564-3.728,4.836-3.728h14c2.757,0,5,2.243,5,5ZM1.5,19c-.828,0-1.5.672-1.5,1.5s.672,1.5,1.5,1.5,1.5-.672,1.5-1.5-.672-1.5-1.5-1.5Zm-.5-5c-.552,0-1,.448-1,1s.448,1,1,1c2.757,0,5,2.243,5,5,0,.552.448,1,1,1s1-.448,1-1c0-3.86-3.14-7-7-7Zm.047-5c-.552,0-1,.448-1,1s.448,1,1,1c5.488,0,9.953,4.486,9.953,10,0,.552.448,1,1,1s1-.448,1-1c0-6.617-5.362-12-11.953-12Z"/>
</svg>
