<?xml version="1.0" encoding="UTF-8"?>
<svg xmlns="http://www.w3.org/2000/svg" id="Layer_1" data-name="Layer 1" viewBox="0 0 24 24" width="512" height="512"><path d="M14.81,20.22c-.53,1.66-2.06,2.78-3.81,2.78H6c-2.21,0-4-1.79-4-4v-7.36c-.62-.71-1-1.63-1-2.64,0-.09,.01-.19,.04-.27l.28-.97c.15-.53,.71-.84,1.24-.69s.84,.71,.69,1.24l-.23,.82c0,1.03,1,1.87,2,1.87h1c.55,0,1,.45,1,1s-.45,1-1,1h-1c-.35,0-.68-.04-1-.13v3.13h7c.55,0,1,.45,1,1s-.45,1-1,1H4v1c0,1.1,.9,2,2,2h5c.87,0,1.64-.56,1.91-1.39,.17-.53,.73-.82,1.26-.65,.53,.17,.82,.73,.65,1.26Zm8.9,3.49c-.2,.2-.45,.29-.71,.29s-.51-.1-.71-.29L.29,1.71C-.1,1.32-.1,.68,.29,.29S1.32-.1,1.71,.29l1.98,1.98c.91-.81,2.1-1.27,3.33-1.27h9.97c2.22,0,4.2,1.49,4.81,3.63l1.17,4.1c.03,.09,.04,.18,.04,.27,0,1.01-.38,1.94-1,2.64v8.94l1.71,1.71c.39,.39,.39,1.02,0,1.41ZM13.92,12.51l6.08,6.08v-5.71c-.32,.08-.65,.13-1,.13h-1c-1.19,0-2.27-.53-3-1.36-.31,.35-.67,.64-1.08,.86ZM5.1,3.69l7.27,7.27c.92-.18,1.62-.99,1.62-1.96,0-.55,.45-1,1-1s1,.45,1,1c0,1.1,.9,2,2,2h1c1.06,0,1.93-.83,2-1.87l-1.13-3.95c-.37-1.28-1.55-2.18-2.88-2.18h-.98v2c0,.55-.45,1-1,1s-1-.45-1-1V3h-4v2c0,.55-.45,1-1,1s-1-.45-1-1V3h-.98c-.7,0-1.38,.25-1.91,.69Z"/></svg>
