<?xml version="1.0" encoding="UTF-8"?>
<svg xmlns="http://www.w3.org/2000/svg" id="Layer_1" data-name="Layer 1" viewBox="0 0 24 24">
  <path d="m12,0C5.383,0,0,5.383,0,12s5.383,12,12,12,12-5.383,12-12S18.617,0,12,0Zm0,22c-5.514,0-10-4.486-10-10S6.486,2,12,2s10,4.486,10,10-4.486,10-10,10Zm5.153-13.288l-2.153,1.414v-.126c0-1.654-1.346-3-3-3h-4c-1.654,0-3,1.346-3,3v4c0,1.654,1.346,3,3,3h4c1.654,0,3-1.346,3-3v-.126l2.153,1.414c.77.539,1.828-.012,1.828-.952v-4.672c0-.94-1.058-1.491-1.828-.952Zm-4.153,5.288c0,.551-.449,1-1,1h-4c-.551,0-1-.449-1-1v-4c0-.551.449-1,1-1h4c.551,0,1,.449,1,1v4Z"/>
</svg>
