<?xml version="1.0" encoding="UTF-8"?>
<svg xmlns="http://www.w3.org/2000/svg" id="Layer_1" data-name="Layer 1" viewBox="0 0 24 24">
  <path d="m16,14c0,.553-.448,1-1,1h-2v2c0,.553-.448,1-1,1s-1-.447-1-1v-2h-2c-.552,0-1-.447-1-1s.448-1,1-1h2v-2c0-.553.448-1,1-1s1,.447,1,1v2h2c.552,0,1,.447,1,1Zm6-9c0,.553-.448,1-1,1h-1v13c0,2.757-2.243,5-5,5h-6c-2.757,0-5-2.243-5-5V6h-1c-.552,0-1-.447-1-1s.448-1,1-1h3.101c.465-2.279,2.485-4,4.899-4h2c2.414,0,4.435,1.721,4.899,4h3.101c.552,0,1,.447,1,1Zm-13.828-1h7.656c-.413-1.164-1.524-2-2.828-2h-2c-1.304,0-2.415.836-2.828,2Zm9.828,2H6v13c0,1.654,1.346,3,3,3h6c1.654,0,3-1.346,3-3V6Z"/>
</svg>
