<?xml version="1.0" encoding="UTF-8"?>
<svg xmlns="http://www.w3.org/2000/svg" id="Layer_1" data-name="Layer 1" viewBox="0 0 24 24">
  <path d="m23.707,1.707c.391-.391.391-1.023,0-1.414s-1.023-.391-1.414,0l-5.779,5.779c-1.604-1.295-3.644-2.072-5.862-2.072-.087,0-.174,0-.256.005-1.384.048-2.56.998-2.857,2.31-.197.87-.636,1.664-1.27,2.298-.838.838-1.952,1.329-3.135,1.383-1.245.056-2.345.929-2.736,2.173-.265.842-.398,1.678-.398,2.484,0,2.218.777,4.257,2.072,5.862l-1.779,1.779c-.391.391-.391,1.023,0,1.414.195.195.451.293.707.293s.512-.098.707-.293l1.779-1.779c1.604,1.295,3.644,2.072,5.862,2.072.801,0,1.63-.132,2.466-.393,1.271-.396,2.17-1.566,2.188-2.847.016-1.241.509-2.408,1.387-3.287h0c.63-.632,1.421-1.07,2.286-1.269,1.343-.307,2.321-1.499,2.325-2.857,0-2.218-.777-4.257-2.072-5.862l5.779-5.779Zm-5.707,11.655c0,.416-.325.792-.771.894-1.233.282-2.359.906-3.257,1.804-1.249,1.25-1.949,2.91-1.972,4.675-.006.419-.335.823-.783.963-.643.201-1.271.303-1.87.303-1.666,0-3.204-.558-4.438-1.496l1.797-1.797c.391-.391.391-1.023,0-1.414s-1.023-.391-1.414,0l-1.797,1.797c-.938-1.234-1.496-2.772-1.496-4.438,0-.603.104-1.237.307-1.884.138-.438.516-.758.918-.775,1.684-.076,3.267-.774,4.459-1.967.9-.9,1.525-2.031,1.807-3.269.094-.414.514-.738.981-.755l.181-.003c1.666,0,3.204.557,4.437,1.496l-5.797,5.797c-.391.391-.391,1.023,0,1.414.195.195.451.293.707.293s.512-.098.707-.293l5.796-5.796c.939,1.236,1.497,2.778,1.497,4.451Zm-1-11.862c0-.828.672-1.5,1.5-1.5s1.5.672,1.5,1.5-.672,1.5-1.5,1.5-1.5-.672-1.5-1.5Zm7,4c0,.828-.672,1.5-1.5,1.5s-1.5-.672-1.5-1.5.672-1.5,1.5-1.5,1.5.672,1.5,1.5Z"/>
</svg>
