<?xml version="1.0" encoding="UTF-8"?>
<svg xmlns="http://www.w3.org/2000/svg" id="Layer_1" data-name="Layer 1" viewBox="0 0 24 24">
  <path d="m23.794,11.393l-5.381-7.037c-1.127-1.475-2.909-2.356-4.767-2.356H5C2.243,2,0,4.243,0,7v10c0,2.757,2.243,5,5,5h8.646c1.857,0,3.64-.881,4.766-2.355l5.382-7.037c.274-.358.274-.856,0-1.215Zm-6.971,7.038c-.751.983-1.938,1.57-3.177,1.57H5c-1.654,0-3-1.346-3-3V7c0-1.654,1.346-3,3-3h8.646c1.238,0,2.426.587,3.178,1.57l4.917,6.43-4.918,6.43Zm-3.116-8.723l-2.293,2.293,2.293,2.293c.391.391.391,1.023,0,1.414-.195.195-.451.293-.707.293s-.512-.098-.707-.293l-2.293-2.293-2.293,2.293c-.195.195-.451.293-.707.293s-.512-.098-.707-.293c-.391-.391-.391-1.023,0-1.414l2.293-2.293-2.293-2.293c-.391-.391-.391-1.023,0-1.414s1.023-.391,1.414,0l2.293,2.293,2.293-2.293c.391-.391,1.023-.391,1.414,0s.391,1.023,0,1.414Z"/>
</svg>
