<?xml version="1.0" encoding="UTF-8"?>
<svg xmlns="http://www.w3.org/2000/svg" id="Layer_1" data-name="Layer 1" viewBox="0 0 24 24" width="512" height="512"><path d="m20.627,6.731l-1.436-3.588c-.764-1.91-2.586-3.144-4.643-3.144h-5.042c-2.057,0-3.879,1.234-4.643,3.143l-1.436,3.589c-.438,1.096-.543,2.286-.305,3.444l2.035,9.837c.479,2.31,2.538,3.987,4.896,3.987h3.944c2.359,0,4.419-1.677,4.896-3.987l2.035-9.837c.239-1.156.134-2.347-.305-3.445Zm-1.654,3.039l-2.035,9.838c-.286,1.386-1.521,2.392-2.937,2.392h-3.944c-1.415,0-2.65-1.006-2.938-2.392l-2.035-9.837c-.159-.772-.089-1.566.203-2.296l1.436-3.589c.458-1.146,1.551-1.886,2.785-1.886h5.042c1.234,0,2.327.74,2.785,1.886l1.436,3.588c.293.732.363,1.526.203,2.296Z"/></svg>
