<?xml version="1.0" encoding="UTF-8"?>
<svg xmlns="http://www.w3.org/2000/svg" id="Layer_1" data-name="Layer 1" viewBox="0 0 24 24">
  <path d="m17,22.5c0,.828-.672,1.5-1.5,1.5s-1.5-.672-1.5-1.5.672-1.5,1.5-1.5,1.5.672,1.5,1.5Zm5.5-12.5c.828,0,1.5-.672,1.5-1.5s-.672-1.5-1.5-1.5-1.5.672-1.5,1.5.672,1.5,1.5,1.5Zm-14,11c-.828,0-1.5.672-1.5,1.5s.672,1.5,1.5,1.5,1.5-.672,1.5-1.5-.672-1.5-1.5-1.5Zm14,0c-.828,0-1.5.672-1.5,1.5s.672,1.5,1.5,1.5,1.5-.672,1.5-1.5-.672-1.5-1.5-1.5Zm0-6.97c-.828,0-1.5.672-1.5,1.5s.672,1.5,1.5,1.5,1.5-.672,1.5-1.5-.672-1.5-1.5-1.5Zm-3.5,3.47c-.828,0-1.5.672-1.5,1.5s.672,1.5,1.5,1.5,1.5-.672,1.5-1.5-.672-1.5-1.5-1.5Zm-7,0c-.828,0-1.5.672-1.5,1.5s.672,1.5,1.5,1.5,1.5-.672,1.5-1.5-.672-1.5-1.5-1.5Zm3.5-3.5c-.828,0-1.5.672-1.5,1.5s.672,1.5,1.5,1.5,1.5-.672,1.5-1.5-.672-1.5-1.5-1.5Zm3.5-3.5c-.828,0-1.5.672-1.5,1.5s.672,1.5,1.5,1.5,1.5-.672,1.5-1.5-.672-1.5-1.5-1.5Zm-11.95,7.45c.256,0,.512-.098.707-.293.391-.391.391-1.023,0-1.414-1.133-1.133-1.757-2.64-1.757-4.243s.624-3.109,1.757-4.243c2.34-2.339,6.146-2.339,8.486,0,.391.391,1.023.391,1.414,0s.391-1.024,0-1.414c-.257-.257-.531-.484-.812-.699l1.542-2.652c.278-.478.116-1.09-.361-1.367-.478-.278-1.09-.115-1.367.361l-1.542,2.651c-.681-.287-1.394-.473-2.117-.564V1c0-.552-.447-1-1-1s-1,.448-1,1v3.074c-.719.09-1.428.274-2.106.558l-1.539-2.646c-.277-.478-.891-.641-1.367-.361-.478.277-.64.89-.361,1.367l1.538,2.645c-.285.217-.562.447-.822.706-.252.252-.477.521-.688.797l-2.651-1.543c-.478-.279-1.09-.116-1.367.361-.277.478-.116,1.09.361,1.368l2.647,1.541c-.291.686-.48,1.404-.571,2.133H1c-.553,0-1,.448-1,1s.447,1,1,1h3.073c.091.727.278,1.443.568,2.127l-2.638,1.535c-.478.278-.639.89-.361,1.367.186.319.521.497.865.497.171,0,.344-.043.502-.136l2.641-1.537c.213.278.438.549.693.803.195.195.451.293.707.293Z"/>
</svg>
