<?xml version="1.0" encoding="UTF-8"?>
<svg xmlns="http://www.w3.org/2000/svg" id="Layer_1" data-name="Layer 1" viewBox="0 0 24 24" width="512" height="512"><path d="m24,12c0,.553-.448,1-1,1h-2.229c-1.046,0-2.032-.557-2.571-1.453l-.564-.936-.941,2.294c-.159.387-.532.62-.926.62-.126,0-.255-.023-.379-.075-.511-.209-.755-.793-.546-1.305l1.505-3.669c-.181-.293-.505-.475-.85-.475h-.894l-2.064,5.033c-.185.449-.02.964.391,1.225l4.591,2.896c.29.184.466.502.466.846v5c0,.553-.448,1-1,1s-1-.447-1-1v-4.448l-4.126-2.604c-1.233-.781-1.726-2.326-1.173-3.675l1.753-4.273h-1.208c-.381,0-.724.212-.894.553l-1.447,2.895c-.247.494-.846.693-1.342.447-.494-.247-.694-.848-.447-1.342l1.447-2.895c.512-1.022,1.54-1.658,2.683-1.658h4.264c1.046,0,2.031.557,2.57,1.453l1.844,3.062c.18.299.508.484.857.484h2.229c.552,0,1,.447,1,1Zm-13.135,4.814c-.515-.207-1.095.044-1.3.557-.153.382-.518.629-.929.629h-4.093c-.495,0-.916.362-.989.852-.188,1.254-.393,2.043-.559,2.53-.458-1.379-.996-4.548-.996-9.382S2.541,3.978,3,2.605c.459,1.372,1,4.545,1,9.395,0,.999-.025,1.991-.074,2.949-.028.551.396,1.021.947,1.05.547.038,1.021-.396,1.05-.948.051-.991.077-2.019.077-3.051,0-3.608-.292-12-3-12S0,8.392,0,12s.292,12,3,12c1.153,0,1.884-1.207,2.391-4h3.245c1.233,0,2.327-.74,2.785-1.885.206-.514-.044-1.096-.557-1.301Zm7.125-11.814c1.381,0,2.5-1.119,2.5-2.5s-1.119-2.5-2.5-2.5-2.5,1.119-2.5,2.5,1.119,2.5,2.5,2.5Z"/></svg>
