<?xml version="1.0" encoding="UTF-8"?>
<svg xmlns="http://www.w3.org/2000/svg" id="Layer_1" data-name="Layer 1" viewBox="0 0 24 24" width="512" height="512"><path d="m14.828,19.071c.576.576.266,1.559-.534,1.707-.008.001-.016.003-.024.004-.322.059-.656-.053-.888-.285L2.216,9.332c-.361-.361-.397-.932-.083-1.334.004-.005.008-.011.013-.016.371-.474,1.08-.514,1.505-.088l11.177,11.177ZM.528,10.473c-.143.272-.261.514-.35.708-.237.521-.237,1.118,0,1.64.041.091.094.199.147.308l5.915,5.915c.782.782,1.758,1.346,2.833,1.603.086.021.173.04.261.059.537.116.902-.524.514-.912L.528,10.473Zm23.179,11.82c.391.391.391,1.023,0,1.414-.195.195-.451.293-.707.293s-.512-.098-.707-.293L.293,1.707C-.098,1.316-.098.684.293.293S1.316-.098,1.707.293l4.268,4.268c1.838-1.036,3.862-1.561,6.025-1.561,6.192,0,9.72,4.238,11.271,6.764.978,1.592.978,3.57,0,5.162-.632,1.029-1.678,2.473-3.178,3.753l3.614,3.614ZM7.455,6.041l1.788,1.788c1.94-1.283,4.586-1.071,6.293.636,1.707,1.708,1.919,4.353.636,6.293l2.502,2.502c1.368-1.135,2.322-2.45,2.894-3.381.581-.946.581-2.122,0-3.068-1.333-2.17-4.349-5.811-9.567-5.811-1.619,0-3.143.35-4.545,1.041Zm7.252,7.252c.531-1.115.336-2.492-.585-3.414-.922-.922-2.3-1.116-3.414-.585l4,4Z"/></svg>
