<?xml version="1.0" encoding="UTF-8"?>
<svg xmlns="http://www.w3.org/2000/svg" id="Layer_1" data-name="Layer 1" viewBox="0 0 24 24" width="512" height="512"><path d="m23,22h-.681l-5.245-14.19c-.141-.41-.077-.868.17-1.224.255-.367.674-.586,1.121-.586h3.977c.693,0,1.301-.418,1.547-1.067.247-.648.072-1.365-.446-1.826-.028-.024-.057-.048-.087-.069l-2.112-1.495c-.028-.02-.057-.038-.086-.055-1.849-1.043-3.44-1.488-5.319-1.488h-.927c-3.422,0-6.465,2.176-7.57,5.415L1.677,22h-.677c-.552,0-1,.448-1,1s.448,1,1,1h22c.552,0,1-.448,1-1s-.448-1-1-1Zm-9,0h-4v-1.5c0-.276.224-.5.5-.5h3c.276,0,.5.224.5.5v1.5Zm2,0v-1.5c0-1.378-1.122-2.5-2.5-2.5h-3c-1.378,0-2.5,1.122-2.5,2.5v1.5H3.791l5.443-15.939c.829-2.429,3.111-4.061,5.678-4.061h.927c1.497,0,2.783.361,4.293,1.205l1.123.795h-2.889c-1.101,0-2.134.54-2.763,1.444-.611.877-.768,2.005-.413,3.038l4.996,13.519h-4.187Z"/></svg>
