<?xml version="1.0" encoding="UTF-8"?>
<svg xmlns="http://www.w3.org/2000/svg" id="Layer_1" data-name="Layer 1" viewBox="0 0 24 24" width="512" height="512"><path d="M6,12c-.553,0-1-.448-1-1,0-1.892,1.232-4,3-4s3,2.108,3,4c0,.552-.447,1-1,1s-1-.448-1-1c0-1.054-.68-2-1-2s-1,.946-1,2c0,.552-.447,1-1,1Zm7-1c0,.552,.447,1,1,1s1-.448,1-1c0-1.054,.68-2,1-2s1,.946,1,2c0,.552,.447,1,1,1s1-.448,1-1c0-1.892-1.232-4-3-4s-3,2.108-3,4Zm-1,7c3.107,0,5.563-2.162,5.666-2.254,.411-.367,.446-.997,.08-1.409-.367-.412-.998-.449-1.41-.084-.02,.018-2.005,1.748-4.336,1.748s-4.311-1.726-4.336-1.748c-.412-.365-1.041-.33-1.41,.081-.367,.412-.332,1.044,.08,1.412,.103,.092,2.559,2.254,5.666,2.254Zm7.957-11.998c.316,.254,.769,.254,1.085,0,.983-.789,2.957-2.562,2.957-4.077,0-1.063-.784-1.925-1.75-1.925s-1.75,.862-1.75,1.925c0-1.063-.784-1.925-1.75-1.925s-1.75,.862-1.75,1.925c0,1.514,1.974,3.288,2.957,4.077ZM5.25,17c-.966,0-1.75,.862-1.75,1.925,0-1.063-.784-1.925-1.75-1.925s-1.75,.862-1.75,1.925c0,1.514,1.974,3.288,2.957,4.077,.316,.254,.769,.254,1.085,0,.983-.789,2.957-2.562,2.957-4.077,0-1.063-.784-1.925-1.75-1.925ZM22.313,8.038c-.531,.15-.84,.703-.689,1.234,.249,.884,.376,1.801,.376,2.728,0,5.514-4.486,10-10,10-.927,0-1.845-.126-2.728-.376-.535-.149-1.085,.158-1.234,.69-.15,.531,.158,1.084,.689,1.234,1.061,.3,2.161,.452,3.272,.452,6.617,0,12-5.383,12-12,0-1.11-.152-2.211-.452-3.272-.15-.532-.701-.838-1.234-.69ZM1.181,15c.06,0,.121-.005,.182-.017,.543-.1,.902-.621,.803-1.164-.109-.597-.165-1.208-.165-1.819C2,6.486,6.486,2,12,2c.612,0,1.225,.055,1.819,.165,.554,.101,1.064-.26,1.164-.803s-.26-1.064-.803-1.164c-.714-.131-1.447-.198-2.181-.198C5.383,0,0,5.383,0,12c0,.731,.066,1.465,.198,2.181,.089,.482,.509,.819,.982,.819Z"/></svg>
