<?xml version="1.0" encoding="UTF-8"?>
<svg xmlns="http://www.w3.org/2000/svg" id="Layer_1" data-name="Layer 1" viewBox="0 0 24 24" width="512" height="512"><path d="m24,12c0,3.608-.292,12-3,12-.628,0-2.298,0-2.861-7.929-.039-.552.376-1.029.927-1.068.554-.038,1.029.375,1.068.926.206,2.903.58,4.587.871,5.452.458-1.38.995-4.548.995-9.381s-.541-8.022-1-9.395c-.459,1.372-1,4.545-1,9.395,0,.553-.448,1-1,1h-2.37c-1.046,0-2.031-.557-2.57-1.453l-1.069-1.776-1.285,3.133c-.159.387-.532.62-.926.62-.126,0-.255-.023-.379-.075-.511-.209-.755-.793-.546-1.305l1.693-4.126c-.061-.012-.124-.018-.188-.018h-1.744l-2.065,5.033c-.185.449-.02.964.392,1.225l4.59,2.896c.29.184.466.503.466.846v5c0,.553-.448,1-1,1s-1-.447-1-1v-4.448l-4.125-2.604c-1.233-.781-1.727-2.326-1.173-3.675l1.753-4.273h-1.218c-.381,0-.724.212-.894.553l-1.447,2.895c-.247.494-.847.693-1.342.447-.494-.247-.694-.848-.447-1.342l1.447-2.895c.512-1.022,1.54-1.658,2.683-1.658h5.124c1.046,0,2.031.557,2.57,1.453l1.844,3.062c.18.299.508.484.856.484h1.377c.059-3.955.512-11,2.993-11,2.708,0,3,8.392,3,12Zm-18.125,4.814c-.515-.207-1.095.044-1.3.557-.153.382-.518.629-.929.629H1c-.552,0-1,.447-1,1s.448,1,1,1h2.646c1.233,0,2.327-.74,2.785-1.885.206-.514-.044-1.096-.557-1.301Zm7.125-11.814c1.381,0,2.5-1.119,2.5-2.5s-1.119-2.5-2.5-2.5-2.5,1.119-2.5,2.5,1.119,2.5,2.5,2.5Z"/></svg>
