<?xml version="1.0" encoding="UTF-8"?>
<svg xmlns="http://www.w3.org/2000/svg" id="Layer_1" data-name="Layer 1" viewBox="0 0 24 24" width="512" height="512"><path d="m10,10.5c0,.828-.672,1.5-1.5,1.5s-1.5-.672-1.5-1.5.672-1.5,1.5-1.5,1.5.672,1.5,1.5Zm5.5-1.5c-.828,0-1.5.672-1.5,1.5s.672,1.5,1.5,1.5,1.5-.672,1.5-1.5-.672-1.5-1.5-1.5Zm6.5,1v13c0,.487-.351.903-.831.986-.057.01-.113.014-.169.014-.417,0-.799-.262-.942-.667-.264-.748-1.167-1.333-2.057-1.333s-1.793.585-2.057,1.333c-.141.4-.519.667-.943.667s-.802-.267-.943-.667c-.264-.748-1.167-1.333-2.057-1.333s-1.793.585-2.057,1.333c-.141.4-.519.667-.943.667s-.802-.267-.943-.667c-.264-.748-1.167-1.333-2.057-1.333s-1.793.585-2.057,1.333c-.163.459-.633.733-1.112.653-.48-.083-.831-.499-.831-.986v-13C2,4.486,6.486,0,12,0s10,4.486,10,10Zm-2,0c0-4.411-3.589-8-8-8S4,5.589,4,10v10.503c.608-.32,1.297-.503,2-.503,1.127,0,2.222.472,3,1.225.778-.753,1.873-1.225,3-1.225s2.222.472,3,1.225c.778-.753,1.873-1.225,3-1.225.703,0,1.392.183,2,.503v-10.503Z"/></svg>
