<?xml version="1.0" encoding="UTF-8"?>
<svg xmlns="http://www.w3.org/2000/svg" id="Layer_1" data-name="Layer 1" viewBox="0 0 24 24">
  <path d="m23.707,22.293l-1.536-1.536c.538-.813.829-1.771.829-2.757v-8c0-2.757-2.243-5-5-5h-.017l-1.834-2.69c-.559-.82-1.485-1.31-2.479-1.31h-3.34c-.993,0-1.92.489-2.479,1.31l-1.673,2.455L1.707.293C1.316-.098.684-.098.293.293S-.098,1.316.293,1.707l22,22c.195.195.451.293.707.293s.512-.098.707-.293c.391-.391.391-1.023,0-1.414Zm-2.707-12.293v8c0,.451-.102.892-.293,1.293l-3.903-3.903c.13-.45.196-.915.196-1.39,0-2.757-2.243-5-5-5-.474,0-.94.066-1.39.196l-2.196-2.196h9.586c1.654,0,3,1.346,3,3ZM10.33,3h3.34c.331,0,.64.163.826.437l1.066,1.563h-7.124l1.066-1.563c.187-.273.495-.437.826-.437Zm6.67,19c0,.553-.447,1-1,1H6c-2.757,0-5-2.243-5-5v-8c0-.881.231-1.745.67-2.502.277-.478.887-.642,1.367-.363.478.277.641.889.363,1.367-.262.451-.4.97-.4,1.498v8c0,1.654,1.346,3,3,3h10c.553,0,1,.447,1,1Zm-5-3c-2.757,0-5-2.243-5-5,0-.553.447-1,1-1s1,.447,1,1c0,1.654,1.346,3,3,3,.553,0,1,.447,1,1s-.447,1-1,1Z"/>
</svg>
