<?xml version="1.0" encoding="UTF-8"?>
<svg xmlns="http://www.w3.org/2000/svg" id="Layer_1" data-name="Layer 1" viewBox="0 0 24 24" width="512" height="512"><path d="m5,6.5c0-.828.672-1.5,1.5-1.5s1.5.672,1.5,1.5-.672,1.5-1.5,1.5-1.5-.672-1.5-1.5Zm19-2.5v12c0,2.206-1.794,4-4,4h-2.853l-3.846,3.18c-.362.322-.825.485-1.292.485-.476,0-.956-.169-1.338-.509l-3.748-3.156h-2.923c-2.206,0-4-1.794-4-4V4C0,1.794,1.794,0,4,0h16c2.206,0,4,1.794,4,4ZM2,16c0,.179.024.352.068.518l6.542-6.542c1.276-1.277,3.503-1.277,4.779,0l.635.635c.537.537,1.414.537,1.951,0l6.024-6.024v-.586c0-1.103-.897-2-2-2H4c-1.103,0-2,.897-2,2v12Zm20,0V7.414l-4.61,4.61c-1.277,1.277-3.502,1.277-4.779,0l-.635-.635c-.521-.521-1.43-.521-1.951,0l-6.542,6.542c.165.044.339.068.518.068h3.289c.236,0,.464.083.644.235l4.047,3.409,4.172-3.415c.179-.148.404-.229.637-.229h3.212c1.103,0,2-.897,2-2Z"/></svg>
