<?xml version="1.0" encoding="UTF-8"?>
<svg xmlns="http://www.w3.org/2000/svg" id="Layer_1" data-name="Layer 1" viewBox="0 0 24 24" width="512" height="512"><path d="m11.899,8h1.101c.552,0,1-.447,1-1s-.448-1-1-1h-1.101c-.13-.638-.382-1.231-.73-1.756l1.247-1.247c.028.002.055.002.083.002.828,0,1.5-.672,1.5-1.5s-.672-1.5-1.5-1.5-1.5.672-1.5,1.5c0,.028,0,.056.002.083l-1.247,1.247c-.525-.348-1.118-.6-1.756-.73v-1.101c0-.553-.448-1-1-1s-1,.447-1,1v1.101c-.638.13-1.231.382-1.756.73l-1.247-1.247c.002-.028.002-.055.002-.083,0-.828-.672-1.5-1.5-1.5S0,.672,0,1.5s.672,1.5,1.5,1.5c.028,0,.056,0,.083-.002l1.247,1.247c-.348.525-.6,1.118-.73,1.756h-1.101c-.552,0-1,.447-1,1s.448,1,1,1h1.101c.13.638.382,1.231.73,1.756l-1.247,1.247c-.028-.002-.055-.002-.083-.002-.828,0-1.5.672-1.5,1.5s.672,1.5,1.5,1.5,1.5-.672,1.5-1.5c0-.028,0-.056-.002-.083l1.247-1.247c.525.348,1.118.6,1.756.73v1.101c0,.553.448,1,1,1s1-.447,1-1v-1.101c1.956-.399,3.501-1.943,3.899-3.899Zm-4.899,2c-1.654,0-3-1.346-3-3s1.346-3,3-3,3,1.346,3,3-1.346,3-3,3Zm15.388,9h.612c.552,0,1-.447,1-1s-.448-1-1-1h-.612c-.114-.502-.313-.972-.579-1.394l.608-.608c.028.002.055.002.083.002.828,0,1.5-.672,1.5-1.5s-.672-1.5-1.5-1.5-1.5.672-1.5,1.5c0,.028,0,.056.002.083l-.608.608c-.423-.267-.893-.465-1.394-.579v-.612c0-.553-.448-1-1-1s-1,.447-1,1v.612c-.502.114-.972.313-1.394.579l-.608-.608c.002-.028.002-.055.002-.083,0-.828-.672-1.5-1.5-1.5s-1.5.672-1.5,1.5.672,1.5,1.5,1.5c.028,0,.056,0,.083-.002l.608.608c-.267.423-.465.893-.579,1.394h-.612c-.552,0-1,.447-1,1s.448,1,1,1h.612c.114.502.313.972.579,1.394l-.608.608c-.028-.002-.055-.002-.083-.002-.828,0-1.5.672-1.5,1.5s.672,1.5,1.5,1.5,1.5-.672,1.5-1.5c0-.028,0-.056-.002-.083l.608-.608c.423.267.893.465,1.394.579v.612c0,.553.448,1,1,1s1-.447,1-1v-.612c.502-.114.972-.313,1.394-.579l.608.608c-.002.028-.002.055-.002.083,0,.828.672,1.5,1.5,1.5s1.5-.672,1.5-1.5-.672-1.5-1.5-1.5c-.028,0-.056,0-.083.002l-.608-.608c.267-.423.465-.893.579-1.394Zm-4.388,1.5c-1.378,0-2.5-1.121-2.5-2.5s1.122-2.5,2.5-2.5,2.5,1.121,2.5,2.5-1.122,2.5-2.5,2.5Z"/></svg>
