<?xml version="1.0" encoding="UTF-8"?>
<svg xmlns="http://www.w3.org/2000/svg" id="Layer_1" data-name="Layer 1" viewBox="0 0 24 24" width="512" height="512"><path d="M23.02,8.79c-.59-.54-1.36-.81-2.17-.78-.8,.04-1.54,.39-2.09,.98l-3.22,3.53c-.55-.91-1.55-1.52-2.69-1.52H4c-2.21,0-4,1.79-4,4v5c0,2.21,1.79,4,4,4h4.96c2.85,0,5.57-1.22,7.47-3.35l6.81-7.64c1.09-1.23,.99-3.12-.22-4.23Zm-1.27,2.9l-6.81,7.64c-1.52,1.7-3.69,2.68-5.97,2.68H4c-1.1,0-2-.9-2-2v-5c0-1.1,.9-2,2-2H12.86c.63,0,1.14,.51,1.14,1.14,0,.56-.42,1.05-.98,1.13l-5.16,.74c-.55,.08-.93,.58-.85,1.13,.08,.55,.59,.93,1.13,.85l5.16-.74c1.18-.17,2.13-.99,2.51-2.06l4.43-4.86c.18-.2,.43-.32,.7-.33,.27,0,.53,.08,.73,.26,.41,.37,.44,1.01,.07,1.42Z"/><path d="M9,10h.38c1.45,0,2.62-1.18,2.62-2.62,0-1.29-.92-2.38-2.19-2.59l-3.28-.55c-.3-.05-.52-.31-.52-.62,0-.34,.28-.62,.62-.62h2.64c.36,0,.69,.19,.87,.5,.27,.48,.88,.64,1.37,.36,.48-.28,.64-.89,.36-1.37-.53-.92-1.53-1.5-2.6-1.5h-.27c0-.55-.45-1-1-1s-1,.45-1,1h-.38c-1.45,0-2.62,1.18-2.62,2.62,0,1.29,.92,2.38,2.19,2.59l3.28,.55c.3,.05,.52,.31,.52,.62,0,.34-.28,.62-.62,.62h-2.64c-.36,0-.69-.19-.87-.5-.28-.48-.89-.64-1.37-.36-.48,.28-.64,.89-.36,1.37,.53,.92,1.53,1.5,2.6,1.5h.27c0,.55,.45,1,1,1s1-.45,1-1Z"/></svg>
