<?xml version="1.0" encoding="UTF-8"?>
<svg xmlns="http://www.w3.org/2000/svg" id="Layer_1" data-name="Layer 1" viewBox="0 0 24 24" width="512" height="512"><path d="m11,14.5v-3.5c0-.552.448-1,1-1s1,.448,1,1v3.5c0,.552-.448,1-1,1s-1-.448-1-1Zm1,2.5c-.828,0-1.5.672-1.5,1.5s.672,1.5,1.5,1.5,1.5-.672,1.5-1.5-.672-1.5-1.5-1.5Zm10-6.515v8.515c0,2.757-2.243,5-5,5H7c-2.757,0-5-2.243-5-5V5C2,2.243,4.243,0,7,0h4.515c1.87,0,3.627.728,4.95,2.05l3.485,3.485c1.322,1.322,2.05,3.08,2.05,4.95Zm-6.95-7.021c-.318-.318-.671-.587-1.05-.805v4.341c0,.551.449,1,1,1h4.341c-.218-.379-.487-.733-.805-1.05l-3.485-3.485Zm4.95,7.021c0-.163-.008-.325-.023-.485h-4.977c-1.654,0-3-1.346-3-3V2.023c-.16-.015-.322-.023-.485-.023h-4.515c-1.654,0-3,1.346-3,3v14c0,1.654,1.346,3,3,3h10c1.654,0,3-1.346,3-3v-8.515Z"/></svg>
