<?xml version="1.0" encoding="UTF-8"?>
<svg xmlns="http://www.w3.org/2000/svg" id="Layer_1" data-name="Layer 1" viewBox="0 0 24 24" width="512" height="512"><path d="m21,23c0,.553-.447,1-1,1s-1-.447-1-1c0-3.859-3.141-7-7-7s-7,3.141-7,7c0,.553-.447,1-1,1s-1-.447-1-1c0-4.963,4.037-9,9-9s9,4.037,9,9ZM5,6c0-.858.541-1.59,1.3-1.874C7.089,1.733,9.346,0,12,0s4.911,1.733,5.7,4.126c.759.284,1.3,1.016,1.3,1.874s-.541,1.59-1.3,1.874c-.789,2.394-3.046,4.126-5.7,4.126s-4.911-1.733-5.7-4.126c-.759-.284-1.3-1.016-1.3-1.874Zm10.463,2h-6.927c.693,1.195,1.985,2,3.463,2s2.771-.805,3.463-2Zm-6.927-4h6.927c-.693-1.195-1.985-2-3.463-2s-2.771.805-3.463,2Zm8.099,17.573c-.272-.666-.66-1.321-1.132-1.887-.216-.26-.61-.258-.825.002-.479.579-.872,1.268-1.146,2.075-.168.529-.315,1.133-.414,1.818-.048.332.338.548.595.332.532-.446,1.251-.97,1.726-.97.361,0,.785.205,1.15.462.248.175.58-.046.518-.343-.105-.503-.253-.97-.472-1.49Z"/></svg>
