<?xml version="1.0" encoding="UTF-8"?>
<svg xmlns="http://www.w3.org/2000/svg" id="Layer_1" data-name="Layer 1" viewBox="0 0 24 24">
  <path d="m12,7c-2.757,0-5,2.243-5,5s2.243,5,5,5,5-2.243,5-5-2.243-5-5-5Zm0,8c-1.654,0-3-1.346-3-3s1.346-3,3-3,3,1.346,3,3-1.346,3-3,3Zm12-3c0,.693-.174,1.373-.502,1.964-.348.627-.817,1.135-1.396,1.508-.407.263-.613.733-.514,1.173.156.688.133,1.395-.069,2.098-.148.518-.398.994-.741,1.418-.197.244-.486.371-.778.371-.221,0-.443-.073-.628-.223-.43-.348-.496-.978-.148-1.406.172-.212.301-.458.374-.713.107-.375.122-.747.041-1.103-.285-1.255.27-2.58,1.38-3.296.299-.192.545-.461.732-.798.163-.295.25-.639.25-.993s-.087-.698-.25-.993c-.188-.337-.434-.605-.732-.799-1.11-.715-1.665-2.04-1.379-3.296.08-.354.065-.727-.042-1.104-.19-.663-.742-1.215-1.406-1.405-.375-.107-.747-.121-1.104-.041-1.257.286-2.578-.269-3.296-1.379-.193-.301-.461-.546-.796-.731-.605-.336-1.386-.335-1.988,0-.336.187-.604.433-.798.731-.717,1.111-2.04,1.67-3.297,1.379-.354-.08-.726-.065-1.101.042-.665.19-1.217.742-1.407,1.406-.108.376-.122.747-.042,1.103.285,1.256-.27,2.58-1.38,3.297-.299.192-.545.461-.731.797-.165.297-.251.64-.251.994s.087.697.251.993c.187.337.433.605.732.799,1.11.716,1.665,2.04,1.379,3.296-.081.355-.067.727.042,1.104.072.252.202.498.374.712.347.429.28,1.059-.149,1.406-.43.347-1.059.28-1.406-.15-.344-.425-.593-.901-.741-1.417-.202-.704-.225-1.41-.069-2.098.1-.438-.107-.91-.514-1.172-.58-.375-1.049-.883-1.397-1.51-.328-.591-.501-1.27-.501-1.963s.174-1.372.502-1.964c.347-.626.817-1.134,1.396-1.508.407-.263.614-.734.514-1.173-.156-.688-.133-1.394.069-2.098.382-1.332,1.447-2.396,2.778-2.776.702-.203,1.407-.226,2.095-.07.441.099.911-.106,1.174-.514.374-.579.881-1.049,1.508-1.396,1.209-.673,2.715-.673,3.928,0,.627.347,1.134.817,1.507,1.396.263.405.729.609,1.173.513.687-.157,1.394-.133,2.097.069,1.332.381,2.396,1.445,2.777,2.776.202.703.226,1.409.07,2.097-.101.44.105.911.513,1.173.579.374,1.049.882,1.396,1.509.328.591.502,1.271.502,1.964Zm-7.004,9c0,1.657.157,3-1.5,3-1.03,0-2.519-1.16-3.498-2.038-.979.877-2.468,2.038-3.498,2.038-1.657,0-1.5-1.343-1.5-3s-.157-3,1.5-3c1.03,0,2.519,1.16,3.498,2.038.979-.877,2.468-2.038,3.498-2.038,1.657,0,1.5,1.343,1.5,3Z"/>
</svg>
