<?xml version="1.0" encoding="UTF-8"?>
<svg xmlns="http://www.w3.org/2000/svg" id="Layer_1" data-name="Layer 1" viewBox="0 0 24 24" width="512" height="512"><path d="m17.549,6.595c-.339-.172-.549-.512-.549-.885v-3.71h1c.553,0,1-.448,1-1s-.447-1-1-1H6c-.553,0-1,.448-1,1s.447,1,1,1h1v3.665c0,.376-.213.716-.555.887C2.47,8.541,0,12.435,0,16.714c0,.979.13,1.95.387,2.887.709,2.59,3.089,4.398,5.79,4.398h11.646c2.701,0,5.081-1.809,5.79-4.398.257-.938.387-1.909.387-2.888,0-4.221-2.472-8.099-6.451-10.119Zm4.135,12.479c-.471,1.723-2.059,2.926-3.86,2.926H6.177c-1.802,0-3.39-1.203-3.86-2.926-.21-.766-.316-1.56-.316-2.359,0-3.518,2.046-6.726,5.34-8.374,1.024-.513,1.66-1.538,1.66-2.676v-3.665h6v3.71c0,1.13.629,2.152,1.643,2.668,3.305,1.678,5.357,4.873,5.357,8.336,0,.8-.106,1.594-.316,2.36Zm-10.082-9.055c-2.078.202-3.601,2.07-3.601,4.158v1.822c0,.552.448,1,1,1h1v1c0,.552.448,1,1,1h2c.552,0,1-.448,1-1v-1h1c.552,0,1-.448,1-1v-2c0-2.337-2.014-4.212-4.399-3.981Zm-1.353,5.231c-.69,0-1.25-.56-1.25-1.25s.56-1.25,1.25-1.25,1.25.56,1.25,1.25-.56,1.25-1.25,1.25Zm3.492,0c-.69,0-1.25-.56-1.25-1.25s.56-1.25,1.25-1.25,1.25.56,1.25,1.25-.56,1.25-1.25,1.25Z"/></svg>
