<?xml version="1.0" encoding="UTF-8"?>
<svg xmlns="http://www.w3.org/2000/svg" id="Layer_1" data-name="Layer 1" viewBox="0 0 24 24" width="512" height="512"><path d="m3,12.5c0,.828-.672,1.5-1.5,1.5S0,13.328,0,12.5s.672-1.5,1.5-1.5,1.5.672,1.5,1.5Zm-1.5,3.5C.672,16,0,16.672,0,17.5s.672,1.5,1.5,1.5,1.5-.672,1.5-1.5-.672-1.5-1.5-1.5Zm0,5C.672,21,0,21.672,0,22.5s.672,1.5,1.5,1.5,1.5-.672,1.5-1.5-.672-1.5-1.5-1.5Zm4-7.5c-.828,0-1.5.672-1.5,1.5s.672,1.5,1.5,1.5,1.5-.672,1.5-1.5-.672-1.5-1.5-1.5Zm0,5c-.828,0-1.5.672-1.5,1.5s.672,1.5,1.5,1.5,1.5-.672,1.5-1.5-.672-1.5-1.5-1.5ZM23.947,3.56l-2.729,14.373c-.447,2.357-2.513,4.067-4.912,4.067h-4.305c-1.654,0-3-1.346-3-3v-3c0-1.654,1.346-3,3-3h.97l1.928-9.774c.369-1.87,2.019-3.226,3.924-3.226h2.177c.896,0,1.739.396,2.311,1.087.572.69.804,1.592.637,2.473Zm-7.087.053l-.668,3.387h5.066l.724-3.813c.076-.402-.1-.689-.212-.824-.112-.135-.361-.362-.77-.362h-2.177c-.953,0-1.778.678-1.962,1.613Zm4.018,5.387h-5.081l-1.024,5.193c-.092.469-.503.807-.981.807h-1.792c-.551,0-1,.449-1,1v3c0,.551.449,1,1,1h4.305c1.439,0,2.679-1.026,2.947-2.44l1.625-8.56Z"/></svg>
