<?xml version="1.0" encoding="UTF-8"?>
<svg xmlns="http://www.w3.org/2000/svg" id="Layer_1" data-name="Layer 1" viewBox="0 0 24 24" width="512" height="512"><path d="m24,3c0-.801-.313-1.555-.879-2.122-1.17-1.169-3.072-1.169-4.242,0l-10.133,10.133c-.049.008-4.102,1.277-4.102,1.277-1.438.452-2.546,1.645-2.891,3.113L.026,22.772c-.079.337.021.69.267.935.189.19.445.293.707.293.076,0,.152-.009.229-.026l7.37-1.728c1.468-.345,2.66-1.452,3.112-2.89,0,0,1.27-4.053,1.277-4.102l10.133-10.132c.566-.567.879-1.32.879-2.122Zm-14.197,15.756c-.241.768-.878,1.358-1.661,1.542l-3.953.927,2.519-2.518c.391-.391.391-1.023,0-1.414s-1.023-.391-1.414,0l-2.518,2.518.926-3.952c.184-.784.775-1.42,1.543-1.662l2.693-.846,2.712,2.712-.846,2.693ZM21.707,3.707l-10.293,10.293-1.414-1.414L20.293,2.293c.391-.39,1.023-.39,1.414,0h0c.189.189.293.44.293.707s-.104.518-.293.707Z"/></svg>
