<?xml version="1.0" encoding="UTF-8"?>
<svg xmlns="http://www.w3.org/2000/svg" id="Layer_1" data-name="Layer 1" viewBox="0 0 24 24" width="512" height="512"><path d="m20,6.101v-1.101c0-2.757-2.243-5-5-5h-6c-2.757,0-5,2.243-5,5v1.101c-2.279.465-4,2.485-4,4.899v8c0,2.757,2.243,5,5,5h14c2.757,0,5-2.243,5-5v-8c0-2.414-1.721-4.435-4-4.899ZM2,19v-8c0-1.304.836-2.415,2-2.828v13.656c-1.164-.413-2-1.524-2-2.828ZM6,5c0-1.654,1.346-3,3-3h6c1.654,0,3,1.346,3,3v17H6V5Zm16,14c0,1.304-.836,2.415-2,2.828v-13.656c1.164.413,2,1.524,2,2.828v8Zm-11-5c0,.552-.447,1-1,1h-1c-.553,0-1-.448-1-1s.447-1,1-1h1c.553,0,1,.448,1,1Zm5,0c0,.552-.447,1-1,1h-1c-.553,0-1-.448-1-1s.447-1,1-1h1c.553,0,1,.448,1,1Zm-5,4c0,.552-.447,1-1,1h-1c-.553,0-1-.448-1-1s.447-1,1-1h1c.553,0,1,.448,1,1Zm5,0c0,.552-.447,1-1,1h-1c-.553,0-1-.448-1-1s.447-1,1-1h1c.553,0,1,.448,1,1Zm-3-9c0,.552-.447,1-1,1s-1-.448-1-1v-1h-1c-.553,0-1-.448-1-1s.447-1,1-1h1v-1c0-.552.447-1,1-1s1,.448,1,1v1h1c.553,0,1,.448,1,1s-.447,1-1,1h-1v1Z"/></svg>
