<?xml version="1.0" encoding="UTF-8"?>
<svg xmlns="http://www.w3.org/2000/svg" id="Layer_1" data-name="Layer 1" viewBox="0 0 24 24" width="512" height="512"><path d="m20.5,17c-.502,0-.979.106-1.411.297l-2.663-3.38c.363-.551.574-1.21.574-1.918s-.212-1.368-.575-1.919l2.636-3.391c.439.199.927.31,1.439.31,1.93,0,3.5-1.57,3.5-3.5s-1.57-3.5-3.5-3.5c-1.393,0-2.599.819-3.162,2H6.662c-.563-1.181-1.769-2-3.162-2C1.57,0,0,1.57,0,3.5c0,1.393.819,2.599,2,3.162v10.677c-1.181.563-2,1.769-2,3.162,0,1.93,1.57,3.5,3.5,3.5,1.393,0,2.599-.819,3.162-2h10.677c.563,1.181,1.769,2,3.162,2,1.93,0,3.5-1.57,3.5-3.5s-1.57-3.5-3.5-3.5Zm-16.5.036V6.964c1.53-.22,2.744-1.434,2.964-2.964h10.072c.072.501.251.969.512,1.378l-2.653,3.412c-.428-.187-.9-.291-1.396-.291-1.93,0-3.5,1.57-3.5,3.5s1.57,3.5,3.5,3.5c.496,0,.969-.104,1.397-.291l2.668,3.386c-.271.416-.456.893-.53,1.405H6.964c-.22-1.53-1.434-2.744-2.964-2.964Zm11-5.036c0,.827-.673,1.5-1.5,1.5s-1.5-.673-1.5-1.5.673-1.5,1.5-1.5,1.5.673,1.5,1.5Zm5.5-10c.827,0,1.5.673,1.5,1.5s-.673,1.5-1.5,1.5-1.5-.673-1.5-1.5.673-1.5,1.5-1.5ZM3.5,2c.827,0,1.5.673,1.5,1.5s-.673,1.5-1.5,1.5-1.5-.673-1.5-1.5.673-1.5,1.5-1.5Zm0,20c-.827,0-1.5-.673-1.5-1.5s.673-1.5,1.5-1.5,1.5.673,1.5,1.5-.673,1.5-1.5,1.5Zm17,0c-.827,0-1.5-.673-1.5-1.5s.673-1.5,1.5-1.5,1.5.673,1.5,1.5-.673,1.5-1.5,1.5Z"/></svg>
