<?xml version="1.0" encoding="UTF-8"?>
<svg xmlns="http://www.w3.org/2000/svg" id="Layer_1" data-name="Layer 1" viewBox="0 0 24 24" width="512" height="512"><path d="M9.721,22H5c-2.757,0-5-2.243-5-5v-6.969c0-2.137,.832-4.146,2.343-5.657l2.308-2.308c.688-.688,1.601-1.066,2.573-1.066h.006c.975,.001,1.889,.383,2.576,1.075l3.919,3.945,7.271-.02c.884,0,1.717,.385,2.289,1.057,.571,.671,.817,1.561,.674,2.439-.232,1.427-1.551,2.503-3.066,2.503h-5.073l-1.196,5.981c-.466,2.329-2.528,4.019-4.903,4.019ZM7.225,3c-.438,0-.85,.17-1.159,.48l-2.308,2.308c-1.133,1.133-1.757,2.64-1.757,4.243v6.969c0,1.654,1.346,3,3,3h4.721c1.425,0,2.662-1.014,2.942-2.412l1.357-6.785c.093-.467,.504-.804,.98-.804h5.893c.537,0,1.017-.362,1.093-.825,.049-.303-.03-.595-.224-.823-.19-.224-.468-.353-.762-.353l-13.997,.039h-.003c-.551,0-.999-.446-1-.997-.001-.552,.445-1.001,.997-1.003l3.917-.011-2.527-2.544c-.31-.312-.722-.483-1.161-.484h-.002Z"/></svg>
