<?xml version="1.0" encoding="UTF-8"?>
<svg xmlns="http://www.w3.org/2000/svg" id="Layer_1" data-name="Layer 1" viewBox="0 0 24 24" width="512" height="512"><path d="m12.039.02C5.422.02.039,5.402.039,12.02s5.383,12,12,12,12-5.383,12-12S18.655.02,12.039.02Zm0,22c-5.514,0-10-4.486-10-10S6.524,2.02,12.039,2.02s10,4.486,10,10-4.486,10-10,10Zm6-13.878v8.89c0,.553-.448,1-1,1s-1-.447-1-1v-8.901s-.003.006-.005.009l-3.097,6.321c-.168.343-.517.56-.898.56h-.007c-.384-.003-.733-.226-.897-.573l-2.996-6.353s-.033-.081-.066-.062c-.031.007-.033.086-.033.109v8.89c0,.553-.448,1-1,1s-1-.447-1-1v-8.89c0-1.008.633-1.835,1.575-2.057.945-.221,1.875.236,2.324,1.136l2.118,4.491,2.186-4.46c.453-.907,1.368-1.372,2.276-1.154.91.215,1.521,1.036,1.521,2.044Z"/></svg>
