<?xml version="1.0" encoding="UTF-8"?>
<svg xmlns="http://www.w3.org/2000/svg" id="Layer_1" data-name="Layer 1" viewBox="0 0 24 24" width="512" height="512"><path d="M16,21H7c-1.65,0-3-1.35-3-3v-3.11c.3,.07,.61,.11,.92,.11h1.08c.54,0,1.06-.14,1.52-.42,.47-.28,.63-.89,.35-1.37-.28-.47-.89-.63-1.37-.35-.15,.09-.33,.14-.5,.14h-1.08c-.63,0-1.21-.29-1.59-.79-.38-.5-.51-1.13-.34-1.74l.46-1.69c.15-.53-.17-1.08-.7-1.23-.53-.14-1.08,.17-1.23,.7l-.46,1.69c-.33,1.21-.08,2.48,.68,3.48,.08,.1,.17,.17,.25,.26v4.31c0,2.76,2.24,5,5,5h9c.55,0,1-.45,1-1s-.45-1-1-1Z"/><path d="M23.71,22.29l-2.18-2.18c.31-.66,.48-1.38,.48-2.11v-4.31c.08-.09,.18-.16,.25-.26,.76-1,1.01-2.27,.68-3.48l-1.54-5.66c-.34-1.91-1.99-3.29-3.94-3.29H6.54c-1.1,0-2.12,.46-2.88,1.25L1.71,.29C1.32-.1,.68-.1,.29,.29S-.1,1.32,.29,1.71L22.29,23.71c.2,.2,.45,.29,.71,.29s.51-.1,.71-.29c.39-.39,.39-1.02,0-1.41Zm-3.77-3.77l-4.42-4.42c.07-.05,.14-.1,.2-.16,.55,.65,1.37,1.06,2.29,1.06h1.08c.32,0,.63-.04,.92-.11v3.11c0,.18-.04,.35-.07,.52ZM6.54,3h1.46v2c0,.55,.45,1,1,1s1-.45,1-1V3h4v2c0,.55,.45,1,1,1s1-.45,1-1V3h1.46c.98,0,1.81,.7,1.97,1.67,0,.03,.01,.07,.02,.1l1.55,5.71c.17,.61,.04,1.24-.34,1.74-.38,.5-.96,.79-1.59,.79h-1.08c-.55,0-1-.45-1-1v-1c0-.55-.45-1-1-1s-1,.45-1,1c0,.68-.36,1.3-.92,1.66L5.07,3.66c.38-.41,.91-.66,1.47-.66Z"/></svg>
