<?xml version="1.0" encoding="UTF-8"?>
<svg xmlns="http://www.w3.org/2000/svg" id="Layer_1" data-name="Layer 1" viewBox="0 0 24 24">
  <path d="m8,24h-.024c-.468-.012-.864-.346-.956-.804l-2.02-10.098-1.02,5.098c-.096.479-.538.831-1.013.803-.488-.016-.894-.382-.959-.866L.043,3.473c-.155-.822.076-1.714.644-2.397S2.089,0,2.977,0h18.047c.882,0,1.712.387,2.279,1.062.566.675.804,1.56.652,2.428l-2.972,18.209c-.077.474-.479.825-.959.839-.514-.008-.901-.316-1.005-.784l-2.104-9.505-1.449,5.507c-.114.436-.506.74-.956.745-.473-.017-.849-.292-.973-.725l-1.695-5.927-2.873,11.396c-.112.445-.513.756-.97.756ZM5,7c.477,0,.887.337.98.804l2.132,10.66,2.7-10.708c.11-.438.502-.749.954-.756.437-.019.853.29.978.725l1.716,5.999,1.573-5.979c.117-.446.524-.749.986-.745.462.01.857.333.957.784l1.871,8.454,2.135-13.083c.07-.4-.103-.677-.212-.807-.108-.131-.352-.349-.747-.349H2.977c-.398,0-.642.221-.751.353s-.282.411-.208.804l1.177,8.773.825-4.126c.094-.467.504-.804.98-.804Z"/>
</svg>
