<?xml version="1.0" encoding="UTF-8"?>
<svg xmlns="http://www.w3.org/2000/svg" id="Layer_1" data-name="Layer 1" viewBox="0 0 24 24" width="512" height="512"><path d="m24,12c0,4.071-2.039,7.831-5.453,10.059-.169.109-.358.162-.545.162-.327,0-.647-.16-.838-.454-.302-.462-.171-1.082.291-1.384,2.847-1.856,4.546-4.99,4.546-8.383,0-5.514-4.486-10-10-10S2,6.486,2,12c0,3.393,1.699,6.526,4.546,8.383.462.302.593.922.291,1.384-.301.463-.921.593-1.384.292C2.039,19.831,0,16.071,0,12,0,5.383,5.383,0,12,0s12,5.383,12,12Zm-6.167,3.871c.764-1.148,1.167-2.487,1.167-3.871,0-3.859-3.14-7-7-7s-7,3.141-7,7c0,1.336.402,2.657,1.163,3.822.302.463.921.593,1.384.29.462-.302.592-.921.291-1.384-.548-.839-.837-1.782-.837-2.729,0-2.757,2.243-5,5-5s5,2.243,5,5c0,.988-.288,1.944-.833,2.764-.306.46-.181,1.081.279,1.387.17.113.363.167.553.167.324,0,.641-.156.833-.446Zm-3.416,1.031c.492.559.691,1.327.578,2.224l-.541,2.865c-.257,1.172-1.23,1.978-2.385,2.008-.014,0-.029,0-.043,0h-.025c-.014,0-.029,0-.043,0-1.156-.03-2.129-.836-2.38-1.979l-.536-2.834c-.124-.956.076-1.725.568-2.283.528-.599,1.333-.902,2.392-.902,1.083,0,1.888.304,2.416.902Zm-1.5,1.322c-.126-.143-.451-.225-.891-.225-.465,0-.79.082-.916.225-.098.111-.132.348-.094.649l.521,2.746c.046.208.243.374.476.38.233-.006.43-.173.482-.409l.525-2.776c.029-.242-.005-.479-.104-.59Zm1.084-6.225c0-1.105-.895-2-2-2s-2,.895-2,2,.895,2,2,2,2-.895,2-2Z"/></svg>
