<?xml version="1.0" encoding="UTF-8"?>
<svg xmlns="http://www.w3.org/2000/svg" id="Layer_1" data-name="Layer 1" viewBox="0 0 24 24" width="512" height="512"><path d="m5,4c0-.552.448-1,1-1h2V1c0-.552.448-1,1-1s1,.448,1,1v2h2c.552,0,1,.448,1,1s-.448,1-1,1h-2v2c0,.552-.448,1-1,1s-1-.448-1-1v-2h-2c-.552,0-1-.448-1-1Zm18.236,9.015l-6.805,7.637c-1.896,2.128-4.617,3.348-7.466,3.348h-4.965c-2.206,0-4-1.794-4-4v-5c0-2.206,1.794-4,4-4h8.858c1.139,0,2.138.609,2.689,1.518l3.216-3.534c.542-.595,1.282-.944,2.086-.981.803-.045,1.573.24,2.168.782,1.214,1.107,1.312,3.004.219,4.229Zm-1.566-2.751c-.199-.181-.459-.267-.728-.262-.27.013-.518.129-.7.329l-4.426,4.864c-.385,1.071-1.339,1.891-2.514,2.059l-5.161.737c-.545.079-1.053-.301-1.131-.848-.078-.547.302-1.053.848-1.131l5.161-.737c.559-.08.981-.566.981-1.131,0-.63-.512-1.142-1.142-1.142H4c-1.103,0-2,.897-2,2v5c0,1.103.897,2,2,2h4.965c2.279,0,4.457-.976,5.973-2.678l6.805-7.638c.367-.412.334-1.049-.073-1.421Z"/></svg>
