<?xml version="1.0" encoding="UTF-8"?>
<svg xmlns="http://www.w3.org/2000/svg" id="Layer_1" data-name="Layer 1" viewBox="0 0 24 24" width="512" height="512"><path d="m11.5,6.5c0-1.381,1.119-2.5,2.5-2.5s2.5,1.119,2.5,2.5-1.119,2.5-2.5,2.5-2.5-1.119-2.5-2.5Zm-1.596,7.355c.472.287,1.088.136,1.374-.336.559-.922,1.627-1.519,2.722-1.519s2.163.596,2.722,1.519c.188.31.519.481.856.481.177,0,.355-.047.518-.145.472-.286.623-.901.337-1.374-.929-1.531-2.627-2.481-4.433-2.481s-3.504.951-4.433,2.481c-.286.473-.135,1.087.337,1.374Zm12.096-8.855v14c0,2.757-2.243,5-5,5H6c-2.206,0-4-1.794-4-4V5C2,2.243,4.243,0,7,0h10C19.757,0,22,2.243,22,5Zm-5-3h-9v14h12V5c0-1.654-1.346-3-3-3Zm-13,3v11.556c.591-.344,1.268-.556,2-.556V2.184c-1.161.414-2,1.514-2,2.816Zm16,14v-1H6c-1.103,0-2,.897-2,2s.897,2,2,2h11c1.654,0,3-1.346,3-3Z"/></svg>
