<?xml version="1.0" encoding="UTF-8"?>
<svg xmlns="http://www.w3.org/2000/svg" id="Layer_1" data-name="Layer 1" viewBox="0 0 24 24">
  <path d="m22.643,7.242c.03-.039.076-.092.142-.158.784-.783,1.216-1.825,1.216-2.934s-.432-2.151-1.216-2.935c-.783-.784-1.825-1.216-2.935-1.216s-2.15.432-2.934,1.215c-.065.066-.118.112-.158.143-.043-.034-.098-.082-.163-.141-.905-.819-1.901-1.217-3.045-1.217-2.288,0-4.149,1.862-4.117,4.204-.204-.019-.901-.004-.901-.004-2.386,0-4.332,1.916-4.382,4.32-.051.017-.316.092-.384.116-1.654.585-2.766,2.158-2.766,3.913,0,1.617,1.922,4.655,2.916,6.12l-3.623,3.623c-.391.391-.391,1.023,0,1.414.195.195.451.293.707.293s.512-.098.707-.293l3.623-3.623c1.465.995,4.503,2.916,6.12,2.916,1.755,0,3.328-1.111,3.914-2.767.023-.066.099-.333.116-.384,2.387-.033,4.319-1.985,4.319-4.381,0-.229-.016-.505-.037-.78,0,0,.087-.088.087-.089,2.288,0,4.15-1.861,4.15-4.149,0-1.144-.397-2.14-1.217-3.045-.06-.065-.106-.12-.141-.163Zm-1.342,1.505c.49.542.699,1.052.699,1.703,0,1.186-.965,2.149-2.168,2.149-.576,0-1.131.245-1.521.67-.392.426-.589,1.002-.542,1.577.018.219.031.44.031.622,0,1.312-1.068,2.381-2.381,2.381-.968,0-1.64.645-1.94,1.717-.304.857-1.118,1.434-2.028,1.434-.742,0-2.82-1.129-4.678-2.358l6.935-6.935c.391-.391.391-1.023,0-1.414s-1.023-.391-1.414,0l-6.935,6.935c-1.23-1.857-2.358-3.936-2.358-4.678,0-.91.576-1.725,1.433-2.027,1.072-.301,1.718-.974,1.718-1.941,0-1.312,1.068-2.381,2.381-2.381,0,0,.595-.016.737-.003.566.05,1.093-.13,1.488-.495.414-.381.643-.926.644-1.552,0-1.186.964-2.15,2.149-2.15.651,0,1.161.209,1.703.699.39.354,1.575,1.43,3.077-.069.813-.813,2.228-.812,3.04,0,.406.406.63.945.63,1.521s-.224,1.113-.631,1.52c-1.497,1.5-.422,2.688-.068,3.077Z"/>
</svg>
