<?xml version="1.0" encoding="UTF-8"?>
<svg xmlns="http://www.w3.org/2000/svg" id="Layer_1" data-name="Layer 1" viewBox="0 0 24 24">
  <path d="m23.607,16.274c-.488-.798-1.337-1.274-2.271-1.274H2.658c-.929,0-1.776.474-2.265,1.266-.48.778-.523,1.728-.116,2.54.974,1.939,3.463,5.194,9.184,5.194h5.039c5.71,0,8.221-3.245,9.21-5.18.415-.812.376-1.763-.103-2.546Zm-1.679,1.636c-.953,1.866-3.017,4.09-7.429,4.09h-5.039c-4.415,0-6.459-2.226-7.396-4.093-.13-.26-.037-.481.031-.592.059-.095.23-.315.562-.315h18.679c.334,0,.506.223.564.318.067.109.16.332.027.592ZM2.333,13h5.333c.624,0,1.209-.243,1.652-.685.44-.442.683-1.028.682-1.65l-.004-6.334c0-.961-.604-1.835-1.497-2.176-.896-.344-1.927-.097-2.593.643L.599,9.106c-.616.686-.771,1.671-.396,2.509.375.842,1.211,1.385,2.131,1.385Zm-.226-2.581l5.306-6.308c.064-.071.156-.11.25-.11.255,0,.333.195.333.332l.004,6.334c0,.089-.035.173-.097.235-.062.062-.148.098-.236.098H2.333c-.131,0-.251-.077-.305-.199-.053-.119-.031-.259.079-.382Zm10.576,1.897c.44.44,1.026.684,1.649.684h7.334c.92,0,1.756-.543,2.132-1.385.373-.839.218-1.823-.39-2.5L16.071.771c-.644-.713-1.678-.96-2.566-.617-.896.341-1.5,1.216-1.501,2.178l-.004,8.333c0,.621.241,1.208.682,1.65h.001Zm1.32-9.981c0-.138.086-.263.215-.312.129-.048.275-.014.359.079l7.336,8.342c.088.099.11.239.058.358-.054.12-.174.198-.305.198h-7.334c-.088,0-.172-.034-.234-.097-.063-.064-.099-.148-.099-.237l.004-8.332Z"/>
</svg>
