<?xml version="1.0" encoding="UTF-8"?>
<svg xmlns="http://www.w3.org/2000/svg" id="Layer_1" data-name="Layer 1" viewBox="0 0 24 24" width="512" height="512"><path d="m7,14c2.206,0,4-1.794,4-4s-1.794-4-4-4-4,1.794-4,4,1.794,4,4,4Zm0-6c1.103,0,2,.897,2,2s-.897,2-2,2-2-.897-2-2,.897-2,2-2Zm7,15c0,.553-.448,1-1,1s-1-.447-1-1c0-2.757-2.243-5-5-5s-5,2.243-5,5c0,.553-.448,1-1,1s-1-.447-1-1c0-3.859,3.14-7,7-7s7,3.141,7,7ZM24,5v8c0,2.757-2.243,5-5,5h-4c-.552,0-1-.447-1-1v-2c0-.553.448-1,1-1h3c.552,0,1,.447,1,1v1c1.654,0,3-1.346,3-3V5c0-1.654-1.346-3-3-3h-9.535c-1.068,0-2.064.575-2.599,1.501-.277.478-.888.643-1.366.364-.479-.276-.642-.888-.365-1.366.892-1.541,2.551-2.499,4.331-2.499h9.535c2.757,0,5,2.243,5,5Z"/></svg>
