<?xml version="1.0" encoding="UTF-8"?>
<svg xmlns="http://www.w3.org/2000/svg" id="Layer_1" data-name="Layer 1" viewBox="0 0 24 24" width="512" height="512"><path d="m12,13.716c-.723,1.089-1.799,1.938-3.103,2.372l-2.581.86c-.105.035-.212.052-.316.052-.419,0-.809-.265-.948-.684-.175-.524.108-1.09.632-1.265l2.581-.86c1.636-.545,2.735-2.07,2.735-3.795V1c0-.552.447-1,1-1s1,.448,1,1v9.396c0,1.725,1.1,3.25,2.735,3.795l2.581.86c.523.175.807.741.632,1.265-.14.419-.529.684-.948.684-.104,0-.211-.017-.316-.052l-2.581-.86c-1.304-.434-2.38-1.284-3.103-2.372Zm-2,4.284c-.553,0-1,.448-1,1,0,1.019-.688,1.913-1.673,2.175l-2.695.72c-.209.07-.408.075-.637.105-.521,0-1.036-.215-1.412-.591-.376-.375-.583-.876-.583-1.412,0-1.251.143-2.502.424-3.72l1.656-7.178c.421-1.825,2.023-3.1,3.897-3.1.553,0,1-.448,1-1s-.447-1-1-1c-2.811,0-5.215,1.913-5.847,4.651L.475,15.828c-.314,1.364-.475,2.767-.475,4.169,0,1.07.415,2.074,1.17,2.827.748.748,1.777,1.176,2.826,1.176h.006c.427,0,.853-.07,1.204-.19l2.636-.702c1.859-.495,3.158-2.184,3.158-4.108,0-.552-.447-1-1-1Zm13.525-2.171l-1.656-7.178c-.632-2.738-3.036-4.651-5.847-4.651-.553,0-1,.448-1,1s.447,1,1,1c1.874,0,3.477,1.275,3.897,3.1l1.656,7.178c.281,1.217.424,2.468.424,3.719,0,.535-.207,1.037-.583,1.412-.376.375-.891.591-1.412.591-.256-.01-.428-.035-.695-.123l-2.638-.702c-.984-.262-1.672-1.157-1.672-2.175,0-.552-.447-1-1-1s-1,.448-1,1c0,1.924,1.299,3.613,3.157,4.108l2.578.685c.412.138.872.234,1.269.208,1.049,0,2.078-.428,2.826-1.176.755-.753,1.17-1.757,1.17-2.827,0-1.402-.16-2.805-.475-4.169Z"/></svg>
