<?xml version="1.0" encoding="UTF-8"?>
<svg xmlns="http://www.w3.org/2000/svg" id="Layer_1" data-name="Layer 1" viewBox="0 0 24 24" width="512" height="512"><path d="m12.039.02C5.422.02.039,5.402.039,12.02s5.383,12,12,12,12-5.383,12-12S18.655.02,12.039.02Zm0,22c-5.514,0-10-4.486-10-10S6.524,2.02,12.039,2.02s10,4.486,10,10-4.486,10-10,10Zm0-16.25c-2.757,0-5,2.243-5,5v2.5c0,2.757,2.243,5,5,5s5-2.243,5-5v-2.5c0-2.757-2.243-5-5-5Zm3,7.5c0,1.654-1.346,3-3,3s-3-1.346-3-3v-2.5c0-1.654,1.346-3,3-3s3,1.346,3,3v2.5Z"/></svg>
