<?xml version="1.0" encoding="UTF-8"?>
<svg xmlns="http://www.w3.org/2000/svg" id="Layer_1" data-name="Layer 1" viewBox="0 0 24 24" width="512" height="512"><path d="m23,0h-1.966c-.011,0-.023,0-.034,0-.011,0-.023,0-.034,0h-10.961s-.003,0-.005,0-.003,0-.005,0h-1.995c-.552,0-1,.448-1,1s.447,1,1,1h1v5.873c0,.848-.538,1.606-1.338,1.887l-2.915,1.023C1.188,11.895-.802,15.694.31,19.254c.887,2.839,3.479,4.746,6.451,4.746.685,0,1.364-.104,2.041-.317l7.083-2.396c3.658-1.238,6.115-4.664,6.115-8.525V2.001h1c.552,0,1-.448,1-1S23.553,0,23,0Zm-3,12.761c0,3.003-1.911,5.667-4.756,6.63l-7.062,2.39c-.462.145-.94.218-1.422.218-2.092,0-3.918-1.343-4.543-3.342-.782-2.507.619-5.183,3.158-5.976l2.948-1.034c1.601-.562,2.676-2.078,2.676-3.774V2h9v10.762Z"/></svg>
