<?xml version="1.0" encoding="UTF-8"?>
<svg xmlns="http://www.w3.org/2000/svg" id="Layer_1" data-name="Layer 1" viewBox="0 0 24 24" width="512" height="512"><path d="M17,10c-3.86,0-7,3.14-7,7s3.14,7,7,7,7-3.14,7-7-3.14-7-7-7Zm0,12c-2.76,0-5-2.24-5-5s2.24-5,5-5,5,2.24,5,5-2.24,5-5,5Zm3-5c0,.59-.21,1.04-.59,1.41l-1.71,1.71c-.2,.2-.45,.29-.71,.29s-.51-.1-.71-.29c-.39-.39-.39-1.02,0-1.41l.71-.71h-3c-.55,0-1-.45-1-1s.45-1,1-1h3l-.71-.71c-.39-.39-.39-1.02,0-1.41s1.02-.39,1.41,0l1.71,1.71c.37,.37,.59,.82,.59,1.41Zm-13,2h-2c-1.65,0-3-1.35-3-3V5c0-1.65,1.35-3,3-3V6c0,1.1,.9,2,2,2h7c1.1,0,2-.9,2-2V2.83l2.71,2.73c.19,.19,.29,.44,.29,.7v.73c0,.55,.45,1,1,1s1-.45,1-1v-.73c0-.8-.31-1.55-.87-2.11l-3.24-3.27c-.43-.43-.98-.77-1.57-.89-.1-.04-10.33,0-10.33,0C2.24,0,0,2.24,0,5v11c0,2.76,2.24,5,5,5h2c.55,0,1-.45,1-1s-.45-1-1-1Zm0-13V2h7V6H7Zm2.44,6.44c-.36,.36-.51,.87-.41,1.36,.11,.54-.24,1.07-.78,1.18-.07,.01-.13,.02-.2,.02-.47,0-.88-.33-.98-.8-.23-1.15,.12-2.34,.96-3.17,.49-.49,1.1-.82,1.78-.95,.54-.11,1.07,.24,1.18,.78,.11,.54-.24,1.07-.78,1.18-.29,.06-.55,.2-.76,.41Z"/></svg>
