<?xml version="1.0" encoding="UTF-8"?>
<svg xmlns="http://www.w3.org/2000/svg" id="Layer_1" data-name="Layer 1" viewBox="0 0 24 24" width="512" height="512"><path d="m14.882,11.585c.429,1.66-.376,3.381-1.913,4.092-.165.076-.469.468-.469.823v.5c0,.553-.448,1-1,1s-1-.447-1-1v-.5c0-1.224.839-2.272,1.629-2.638.549-.254,1.039-.919.817-1.777-.126-.49-.54-.904-1.03-1.031-.483-.124-.957-.034-1.333.259-.371.287-.583.72-.583,1.188,0,.553-.448,1-1,1s-1-.447-1-1c0-1.091.495-2.101,1.359-2.77.864-.668,1.978-.894,3.058-.612,1.19.308,2.158,1.276,2.465,2.467Zm-3.382,7.415c-.828,0-1.5.672-1.5,1.5s.672,1.5,1.5,1.5,1.5-.672,1.5-1.5-.672-1.5-1.5-1.5Zm12.499-4.565c.001.016.001-.02,0,0h0Zm-6.024-7.262c-.332-.066-.602-.273-.742-.569-1.552-3.271-5.144-5.099-8.735-4.438-3.271.599-5.837,3.212-6.383,6.501-.162.973-.151,1.945.033,2.89.06.309-.073.653-.346.901C.641,13.514,0,14.949,0,16.5,0,19.532,2.468,22,5.501,22h1.5c.552,0,1-.447,1-1s-.448-1-1-1h-1.5c-1.93,0-3.5-1.57-3.5-3.5,0-.98.407-1.891,1.146-2.562.786-.715,1.155-1.773.963-2.763-.138-.711-.146-1.444-.023-2.181.403-2.422,2.365-4.421,4.771-4.862,2.75-.499,5.386.835,6.567,3.328.413.873,1.2,1.483,2.158,1.674,2.555.51,4.413,2.775,4.417,5.381-.008,2.861-2.237,5.272-4.999,5.485h-1.001c-.552,0-1,.447-1,1s.448,1,1,1l1.077-.003c3.847-.293,6.874-3.692,6.922-7.562-.043-3.525-2.565-6.572-6.024-7.262Z"/></svg>
