<?xml version="1.0" encoding="UTF-8"?>
<svg xmlns="http://www.w3.org/2000/svg" id="Layer_1" data-name="Layer 1" viewBox="0 0 24 24">
  <path d="m12,0C5.383,0,0,5.383,0,12s5.383,12,12,12,12-5.383,12-12S18.617,0,12,0Zm0,22c-5.514,0-10-4.486-10-10S6.486,2,12,2s10,4.486,10,10-4.486,10-10,10Zm5-14h-2v-1c0-1.103-.897-2-2-2h-2c-1.103,0-2,.897-2,2v1h-2c-.553,0-1,.448-1,1s.447,1,1,1v6c0,1.654,1.346,3,3,3h4c1.654,0,3-1.346,3-3v-6c.553,0,1-.448,1-1s-.447-1-1-1Zm-6-1h2v1h-2v-1Zm4,9c0,.551-.448,1-1,1h-4c-.552,0-1-.449-1-1v-6h6v6Z"/>
</svg>
