<?xml version="1.0" encoding="UTF-8"?>
<svg xmlns="http://www.w3.org/2000/svg" id="Layer_1" data-name="Layer 1" viewBox="0 0 24 24">
  <path d="m13,7.101v-3.601c0-1.93-1.57-3.5-3.5-3.5h-1c-1.93,0-3.5,1.57-3.5,3.5v3.601c-2.279.465-4,2.485-4,4.899v7c0,2.757,2.243,5,5,5h6c2.757,0,5-2.243,5-5v-7c0-2.414-1.721-4.435-4-4.899Zm-6-3.601c0-.827.673-1.5,1.5-1.5h1c.827,0,1.5.673,1.5,1.5v3.5h-4v-3.5Zm8,15.5c0,1.654-1.346,3-3,3h-6c-1.654,0-3-1.346-3-3v-7c0-1.654,1.346-3,3-3h6c1.654,0,3,1.346,3,3v7Zm4-14.5c0,.828-.672,1.5-1.5,1.5s-1.5-.672-1.5-1.5.672-1.5,1.5-1.5,1.5.672,1.5,1.5Zm1-3c0-.828.672-1.5,1.5-1.5s1.5.672,1.5,1.5-.672,1.5-1.5,1.5-1.5-.672-1.5-1.5Zm3,6c0,.828-.672,1.5-1.5,1.5s-1.5-.672-1.5-1.5.672-1.5,1.5-1.5,1.5.672,1.5,1.5Zm-14,4.5c-2.206,0-4,1.794-4,4s1.794,4,4,4,4-1.794,4-4-1.794-4-4-4Zm0,6c-1.103,0-2-.897-2-2s.897-2,2-2,2,.897,2,2-.897,2-2,2Z"/>
</svg>
