<?xml version="1.0" encoding="UTF-8"?>
<svg xmlns="http://www.w3.org/2000/svg" id="Layer_1" data-name="Layer 1" viewBox="0 0 24 24" width="512" height="512"><path d="M19,2H5C2.24,2,0,4.24,0,7v10c0,2.05,1.24,3.81,3,4.58v1.42c0,.55,.45,1,1,1s1-.45,1-1v-1h14v1c0,.55,.45,1,1,1s1-.45,1-1v-1.42c1.76-.77,3-2.54,3-4.58V7c0-2.76-2.24-5-5-5Zm3,15c0,1.65-1.35,3-3,3H5c-1.65,0-3-1.35-3-3h1c.55,0,1-.45,1-1s-.45-1-1-1h-1v-6h1c.55,0,1-.45,1-1s-.45-1-1-1h-1c0-1.65,1.35-3,3-3h14c1.65,0,3,1.35,3,3v10ZM13,6c-3.31,0-6,2.69-6,6s2.69,6,6,6,6-2.69,6-6-2.69-6-6-6Zm0,10c-2.21,0-4-1.79-4-4s1.79-4,4-4c1.86,0,3.43,1.28,3.87,3h-2.87c-.55,0-1,.45-1,1s.45,1,1,1h2.87c-.45,1.72-2.01,3-3.87,3Z"/></svg>
