<?xml version="1.0" encoding="UTF-8"?>
<svg xmlns="http://www.w3.org/2000/svg" id="Layer_1" data-name="Layer 1" viewBox="0 0 24 24" width="512" height="512"><path d="M19,0H5C2.24,0,0,2.24,0,5v14c0,2.76,2.24,5,5,5h14c2.76,0,5-2.24,5-5V5c0-2.76-2.24-5-5-5ZM5,2h14c1.65,0,3,1.35,3,3v4H2V5c0-1.65,1.35-3,3-3Zm14,20H5c-1.65,0-3-1.35-3-3V11H22v8c0,1.65-1.35,3-3,3Zm0-4c0,.55-.45,1-1,1H6c-.55,0-1-.45-1-1s.45-1,1-1h12c.55,0,1,.45,1,1Zm0-4c0,.55-.45,1-1,1H6c-.55,0-1-.45-1-1s.45-1,1-1h12c.55,0,1,.45,1,1ZM13.53,5.31c-.48-.48-.14-1.31,.54-1.31h4.87c.69,0,1.03,.83,.54,1.31l-2.44,2.23c-.3,.3-.79,.3-1.09,0l-2.44-2.23Z"/></svg>
