<?xml version="1.0" encoding="UTF-8"?>
<svg xmlns="http://www.w3.org/2000/svg" id="Layer_1" data-name="Layer 1" viewBox="0 0 24 24">
  <path d="m21.07,17.859l-3.823-3.811.404-.405c3.116-3.116,3.116-8.187,0-11.303-1.51-1.51-3.517-2.341-5.651-2.341-2.062,0-4.018.782-5.509,2.201-1.511,1.438-2.357,3.422-2.384,5.586-.028,2.27.866,4.481,2.452,6.067l.114.115-3.786,3.821c-.57.565-.886,1.319-.888,2.122-.002.804.31,1.561.879,2.13l1.1,1.1c.584.584,1.352.877,2.119.877s1.541-.294,2.13-.882l3.769-3.826,3.797,3.81c.582.582,1.352.874,2.122.874.755,0,1.511-.281,2.09-.844l1.041-1.012c.583-.565.906-1.324.91-2.137.004-.812-.311-1.574-.886-2.144Zm-3.078-9.867c0,1.601-.623,3.105-1.756,4.237l-.406.406-2.336-2.329c1.334-1.149,3.506-3.323,3.506-5.307,0-.111-.004-.222-.011-.331.653.976,1.003,2.123,1.003,3.323Zm-5.992-5.992c1.654,0,3,1.346,3,3,0,1.024-1.599,2.769-3,3.95-1.401-1.182-3-2.926-3-3.95,0-1.654,1.346-3,3-3Zm-5.192,19.728c-.39.39-1.023.392-1.415,0l-1.099-1.1c-.19-.189-.295-.442-.294-.711,0-.268.105-.519.302-.713l3.784-3.818,2.498,2.507-3.776,3.834Zm12.845-1.022l-1.041,1.012c-.391.38-1.021.374-1.403-.009L7.975,12.441c-1.208-1.208-1.889-2.896-1.867-4.629.014-1.141.328-2.21.902-3.114-.006.1-.009.2-.009.302,0,2.524,3.516,5.357,4.349,5.992l8.311,8.285c.192.19.297.444.296.716,0,.271-.109.522-.304.712Z"/>
</svg>
