<?xml version="1.0" encoding="UTF-8"?>
<svg xmlns="http://www.w3.org/2000/svg" id="Layer_1" data-name="Layer 1" viewBox="0 0 24 24" width="512" height="512"><path d="M24,12c0,6.617-5.383,12-12,12S0,18.617,0,12c0-.733,.066-1.467,.198-2.181,.1-.544,.623-.908,1.164-.803,.543,.1,.903,.621,.803,1.164-.109,.595-.165,1.207-.165,1.819,0,5.514,4.486,10,10,10s10-4.486,10-10S17.514,2,12,2c-.927,0-1.844,.127-2.728,.376-.531,.155-1.084-.158-1.234-.689-.15-.532,.159-1.085,.69-1.234,1.061-.3,2.162-.452,3.272-.452,6.617,0,12,5.383,12,12Zm-15.597,5.198c-.441,.328-.532,.95-.206,1.394,.327,.443,.952,.535,1.396,.213,.011-.008,1.118-.805,2.407-.805s2.396,.797,2.403,.802c.179,.134,.389,.198,.596,.198,.306,0,.607-.14,.803-.403,.33-.442,.238-1.069-.205-1.398-.066-.049-1.632-1.198-3.597-1.198s-3.531,1.149-3.597,1.198Zm1.597-6.198H6c-.552,0-1,.447-1,1s.448,1,1,1h4c.552,0,1-.447,1-1s-.448-1-1-1Zm8,2c.552,0,1-.447,1-1s-.448-1-1-1h-4c-.552,0-1,.447-1,1s.448,1,1,1h4ZM3.5,7c1.381,0,2.5-1.119,2.5-2.5,0-1.403-1.184-3.372-1.922-4.235-.303-.355-.849-.353-1.151,.004-.738,.874-1.927,2.861-1.927,4.231,0,1.381,1.119,2.5,2.5,2.5Z"/></svg>
