<?xml version="1.0" encoding="UTF-8"?>
<svg xmlns="http://www.w3.org/2000/svg" id="Layer_1" data-name="Layer 1" viewBox="0 0 24 24">
  <path d="m11.651,16.124c.391.391.391,1.023,0,1.414l-4.942,4.941c-.979.98-2.283,1.521-3.67,1.521H1c-.552,0-1-.447-1-1v-2.039c0-1.386.54-2.689,1.521-3.67l5.049-5.05c.391-.391,1.023-.391,1.414,0s.391,1.023,0,1.414l-5.049,5.05c-.603.603-.935,1.404-.935,2.256v1.039h1.039c.853,0,1.653-.332,2.255-.935l4.942-4.941c.391-.391,1.023-.391,1.414,0Zm12.056,7.583c-.195.195-.451.293-.707.293s-.512-.098-.707-.293L.293,1.707C-.098,1.316-.098.684.293.293S1.316-.098,1.707.293l8.406,8.406,7.624-7.625c1.43-1.43,3.758-1.43,5.189,0,1.43,1.431,1.43,3.759,0,5.189l-7.624,7.624,8.406,8.406c.391.391.391,1.023,0,1.414Zm-7.046-18.729l2.361,2.361,2.489-2.489c.65-.651.65-1.71,0-2.361-.652-.651-1.71-.649-2.361,0l-2.489,2.49Zm-5.134,5.135l2.36,2.36,3.721-3.72-2.361-2.361-3.72,3.721Z"/>
</svg>
