<?xml version="1.0" encoding="UTF-8"?>
<svg xmlns="http://www.w3.org/2000/svg" id="Layer_1" data-name="Layer 1" viewBox="0 0 24 24" width="512" height="512"><path d="m14.953,6.466c.224,1.271-.381,2.542-1.506,3.163-.447.246-.447.318-.447.371,0,.553-.447,1-1,1s-1-.447-1-1c0-1.308,1.038-1.879,1.481-2.123.289-.16.595-.535.502-1.065-.069-.393-.402-.726-.793-.794-.31-.058-.603.021-.832.216-.228.19-.358.47-.358.767,0,.553-.447,1-1,1s-1-.447-1-1c0-.889.391-1.727,1.072-2.299.681-.572,1.578-.815,2.464-.653,1.21.211,2.205,1.206,2.417,2.418Zm-2.953,5.534c-.828,0-1.5.672-1.5,1.5s.672,1.5,1.5,1.5,1.5-.672,1.5-1.5-.672-1.5-1.5-1.5Zm9-3c0,2.589-1.118,5.054-3.068,6.764-1.246,1.092-1.932,2.512-1.932,3.998v.548c0,2.035-1.655,3.69-3.69,3.69h-.619c-2.035,0-3.69-1.655-3.69-3.69v-.16c0-1.666-.757-3.288-2.132-4.566-2.149-2.001-3.167-4.829-2.793-7.762C3.59,3.781,6.904.517,10.956.059c2.561-.285,5.13.523,7.038,2.229,1.91,1.706,3.006,4.153,3.006,6.713Zm-7,11.31v-.31h-4.002c0,.05.002.1.002.149v.16c0,.932.759,1.69,1.69,1.69h.619c.932,0,1.69-.759,1.69-1.69Zm5-11.31c0-1.991-.853-3.895-2.338-5.222-1.3-1.161-2.929-1.778-4.654-1.778-.273,0-.55.015-.827.047-3.147.355-5.722,2.891-6.121,6.027-.292,2.285.5,4.488,2.171,6.045,1.201,1.116,2.038,2.45,2.458,3.881h4.548c.378-1.401,1.199-2.709,2.377-3.74,1.517-1.33,2.387-3.247,2.387-5.26Z"/></svg>
