<?xml version="1.0" encoding="UTF-8"?>
<svg xmlns="http://www.w3.org/2000/svg" id="Layer_1" data-name="Layer 1" viewBox="0 0 24 24" width="512" height="512"><path d="m20,5h-6v-1c0-2.206-1.794-4-4-4h-6C1.794,0,0,1.794,0,4v16c0,2.206,1.794,4,4,4h16c2.206,0,4-1.794,4-4v-11c0-2.206-1.794-4-4-4ZM2,20V4c0-1.103.897-2,2-2h6c1.103,0,2,.897,2,2v18H4c-1.103,0-2-.897-2-2Zm20,0c0,1.103-.897,2-2,2h-6v-3h1c.553,0,1-.448,1-1s-.447-1-1-1h-1V7h6c1.103,0,2,.897,2,2v11ZM6,14c0,.552-.447,1-1,1h-1c-.553,0-1-.448-1-1s.447-1,1-1h1c.553,0,1,.448,1,1Zm5,0c0,.552-.447,1-1,1h-1c-.553,0-1-.448-1-1s.447-1,1-1h1c.553,0,1,.448,1,1Zm-5,4c0,.552-.447,1-1,1h-1c-.553,0-1-.448-1-1s.447-1,1-1h1c.553,0,1,.448,1,1Zm5,0c0,.552-.447,1-1,1h-1c-.553,0-1-.448-1-1s.447-1,1-1h1c.553,0,1,.448,1,1Zm10,0c0,.552-.447,1-1,1h-1c-.553,0-1-.448-1-1s.447-1,1-1h1c.553,0,1,.448,1,1Zm-13-9c0,.552-.447,1-1,1s-1-.448-1-1v-1h-1c-.553,0-1-.448-1-1s.447-1,1-1h1v-1c0-.552.447-1,1-1s1,.448,1,1v1h1c.553,0,1,.448,1,1s-.447,1-1,1h-1v1Zm6,3c0-.552.447-1,1-1h1v-1c0-.552.447-1,1-1s1,.448,1,1v1h1c.553,0,1,.448,1,1s-.447,1-1,1h-1v1c0,.552-.447,1-1,1s-1-.448-1-1v-1h-1c-.553,0-1-.448-1-1Z"/></svg>
