<?xml version="1.0" encoding="UTF-8"?>
<svg xmlns="http://www.w3.org/2000/svg" id="Layer_1" data-name="Layer 1" viewBox="0 0 24 24" width="512" height="512"><path d="m18.995,9.755c-.13-3.746-3.217-6.755-6.995-6.755s-6.865,3.009-6.995,6.755C.892,11.074,0,12.921,0,14.272c0,3.266,5.159,5.728,12,5.728s12-2.462,12-5.728c0-1.352-.892-3.198-5.005-4.518Zm-11.995.245c0-2.757,2.243-5,5-5s5,2.243,5,5v.134c-.586.308-2.055.866-5,.866-2.962,0-4.431-.564-5-.861v-.139Zm5,8c-5.724,0-10-1.968-10-3.728,0-.928,1.349-1.891,3.643-2.622.703.472,2.526,1.35,6.357,1.35s5.654-.878,6.357-1.35c2.294.731,3.643,1.694,3.643,2.622,0,1.76-4.276,3.728-10,3.728Zm1.5-2.5c0,.828-.672,1.5-1.5,1.5s-1.5-.672-1.5-1.5.672-1.5,1.5-1.5,1.5.672,1.5,1.5Zm-5.5-1c0,.828-.672,1.5-1.5,1.5s-1.5-.672-1.5-1.5.672-1.5,1.5-1.5,1.5.672,1.5,1.5Zm11,0c0,.828-.672,1.5-1.5,1.5s-1.5-.672-1.5-1.5.672-1.5,1.5-1.5,1.5.672,1.5,1.5Z"/></svg>
