<?xml version="1.0" encoding="UTF-8"?>
<svg xmlns="http://www.w3.org/2000/svg" id="Layer_1" data-name="Layer 1" viewBox="0 0 24 24">
  <path d="m19,0H5C2.243,0,0,2.243,0,5v1c0,.883.391,1.67,1,2.22v10.78c0,2.757,2.243,5,5,5h12c2.757,0,5-2.243,5-5v-10.78c.609-.549,1-1.337,1-2.22v-1c0-2.757-2.243-5-5-5ZM2,5c0-1.654,1.346-3,3-3h14c1.654,0,3,1.346,3,3v1c0,.551-.449,1-1,1H3c-.551,0-1-.449-1-1v-1Zm19,14c0,1.654-1.346,3-3,3H6c-1.654,0-3-1.346-3-3v-10h18v10Zm-10.213.703c.363.296.808.444,1.252.444s.889-.148,1.251-.444c2.522-2.056,3.748-3.832,3.748-5.43,0-1.784-1.346-3.235-3-3.235-.768,0-1.469.312-2,.826-.531-.513-1.232-.826-2-.826-1.654,0-3,1.451-3,3.235,0,1.598,1.226,3.374,3.748,5.43Zm-.748-6.665c.551,0,1,.554,1,1.235,0,.552.448,1,1,1s1-.448,1-1c0-.681.449-1.235,1-1.235s1,.554,1,1.235c0,.428-.293,1.664-2.988,3.88-2.718-2.216-3.012-3.452-3.012-3.88,0-.681.449-1.235,1-1.235Z"/>
</svg>
