<?xml version="1.0" encoding="UTF-8"?>
<svg xmlns="http://www.w3.org/2000/svg" id="Layer_1" data-name="Layer 1" viewBox="0 0 24 24">
  <path d="m23.447,22.74l-2.43-7.17c-.316-.917-1.107-1.509-2.018-1.509s-1.702.593-2.018,1.513l-2.429,7.166c-.177.523.103,1.091.626,1.269.524.178,1.09-.104,1.268-.626l.469-1.383h4.168l.469,1.383c.142.416.53.679.947.679.106,0,.215-.017.321-.053.523-.178.804-.745.626-1.269Zm-5.854-2.74l1.281-3.779c.075-.221.177-.217.25-.004l1.282,3.783h-2.813Zm-1.935-10.449c-.506-.954-1.49-1.547-2.569-1.547l-3.833-.003,1.205-5.227c.309-1.078-.139-2.172-1.064-2.6-.88-.407-1.865-.086-2.473.826L.505,11.461c-.606.894-.668,2.042-.163,2.996.505.954,1.49,1.547,2.57,1.547h3.83l-1.204,5.226c-.309,1.079.139,2.172,1.064,2.6.253.117.515.174.773.174.642,0,1.267-.35,1.699-1l6.42-10.457c.606-.894.668-2.042.163-2.995Zm-1.843,1.91l-6.364,10.365c.005-.029,1.522-6.598,1.522-6.598.068-.297-.002-.608-.192-.848-.19-.238-.478-.377-.783-.377H2.912c-.494,0-.726-.338-.803-.483-.077-.146-.227-.528.075-.975L8.548,2.177c-.005.029-1.522,6.599-1.522,6.599-.068.297.002.608.192.847s.478.378.782.378l5.088.004h0c.494,0,.726.338.803.483.077.145.226.527-.076.974Z"/>
</svg>
