<?xml version="1.0" encoding="UTF-8"?>
<svg xmlns="http://www.w3.org/2000/svg" id="Layer_1" data-name="Layer 1" viewBox="0 0 24 24" width="512" height="512"><path d="m19,16H2.5c-1.378,0-2.5,1.121-2.5,2.5v1c0,1.379,1.122,2.5,2.5,2.5h16.5c.552,0,1-.447,1-1v-4c0-.553-.448-1-1-1Zm-17,3.5v-1c0-.275.224-.5.5-.5h4.5v2H2.5c-.276,0-.5-.225-.5-.5Zm16,.5h-9v-2h9v2Zm6-3v4c0,.553-.448,1-1,1s-1-.447-1-1v-4c0-.553.448-1,1-1s1,.447,1,1Zm-4-5.18v1.18c0,.553-.448,1-1,1s-1-.447-1-1v-1.18c0-.698-.372-1.356-.972-1.716l-1.601-.961c-1.497-.898-2.427-2.541-2.427-4.287v-1.856c0-.553.448-1,1-1s1,.447,1,1v1.856c0,1.048.558,2.033,1.457,2.572l1.602.961c1.198.72,1.942,2.034,1.942,3.431Zm4-1.556v.735c0,.553-.448,1-1,1s-1-.447-1-1v-.735c0-1.048-.558-2.033-1.457-2.572l-2.087-1.252c-.899-.54-1.457-1.526-1.457-2.573V1c0-.553.448-1,1-1s1,.447,1,1v2.867c0,.35.187.679.486.858l2.086,1.252c1.497.898,2.427,2.541,2.427,4.287Z"/></svg>
