<?xml version="1.0" encoding="UTF-8"?>
<svg xmlns="http://www.w3.org/2000/svg" id="Layer_1" data-name="Layer 1" viewBox="0 0 24 24" width="512" height="512"><path d="M24,12c0,6.617-5.383,12-12,12S0,18.617,0,12c0-1.505,.275-2.974,.818-4.364,.201-.514,.779-.768,1.296-.568,.514,.201,.769,.781,.567,1.295-.452,1.157-.682,2.381-.682,3.636,0,5.514,4.486,10,10,10s10-4.486,10-10c0-1.255-.229-2.479-.682-3.636-.201-.514,.054-1.094,.567-1.295,.517-.2,1.095,.053,1.296,.568,.543,1.39,.818,2.858,.818,4.364Zm-17,0c0-1.054,.68-2,1-2s1,.946,1,2c0,.552,.447,1,1,1s1-.448,1-1c0-1.892-1.232-4-3-4s-3,2.108-3,4c0,.552,.447,1,1,1s1-.448,1-1Zm12,0c0-1.892-1.232-4-3-4s-3,2.108-3,4c0,.552,.447,1,1,1s1-.448,1-1c0-1.054,.68-2,1-2s1,.946,1,2c0,.552,.447,1,1,1s1-.448,1-1Zm-7,7c3.107,0,5.563-2.162,5.666-2.254,.411-.367,.446-.997,.08-1.409-.367-.412-.998-.449-1.41-.084-.02,.018-2.005,1.748-4.336,1.748s-4.311-1.726-4.336-1.748c-.411-.365-1.042-.33-1.41,.081-.367,.412-.332,1.044,.08,1.412,.103,.092,2.559,2.254,5.666,2.254ZM1,3C1,.216,9.42,0,12,0s11,.216,11,3-8.42,3-11,3S1,5.784,1,3Zm2.502,0c1.222,.449,4.139,1,8.498,1s7.276-.551,8.498-1c-1.222-.449-4.139-1-8.498-1s-7.276,.551-8.498,1Z"/></svg>
