<?xml version="1.0" encoding="UTF-8"?>
<svg xmlns="http://www.w3.org/2000/svg" id="Layer_1" data-name="Layer 1" viewBox="0 0 24 24" width="512" height="512"><path d="m23,8h-7.067c.668-.89,1.067-2.008,1.067-3.207v-.793h1c.553,0,1-.447,1-1s-.447-1-1-1h-1.537c-.693-1.195-1.985-2-3.463-2h-2c-1.478,0-2.771.805-3.463,2h-1.537c-.553,0-1,.447-1,1s.447,1,1,1h1v1c0,1.086.357,2.14,1.001,3H1c-.553,0-1,.447-1,1s.447,1,1,1h1v2c0,1.654,1.346,3,3,3v4c0,1.654,1.346,3,3,3h3v1c0,.553.447,1,1,1s1-.447,1-1v-1h3c1.654,0,3-1.346,3-3v-4c1.654,0,3-1.346,3-3v-2h1c.553,0,1-.447,1-1s-.447-1-1-1Zm-8-4v.793c0,1.659-1.198,3.062-2.729,3.195-.856.071-1.672-.202-2.298-.776-.619-.567-.974-1.373-.974-2.212v-1h6Zm5,8c0,.552-.448,1-1,1-1.103,0-2,.897-2,2v4c0,.552-.448,1-1,1h-8c-.552,0-1-.448-1-1v-4c0-1.103-.897-2-2-2-.552,0-1-.448-1-1v-2h16v2Z"/></svg>
