<?xml version="1.0" encoding="UTF-8"?>
<svg xmlns="http://www.w3.org/2000/svg" id="Layer_1" data-name="Layer 1" viewBox="0 0 24 24" width="512" height="512"><path d="m12.225,2.002c-3.276-.042-6.315,1.16-8.631,3.435C1.276,7.712,0,10.753,0,14v3.5c0,2.481,2.019,4.5,4.5,4.5h15c2.481,0,4.5-2.019,4.5-4.5v-3.135c0-6.698-5.282-12.245-11.775-12.363Zm-.227,1.998c.063,0,.127,0,.189.002,2.65.048,5.057,1.188,6.824,2.998h-2.496c-.009,0-.018,0-.028,0H7.511c-.009,0-.018,0-.028,0h-2.625c.045-.046.09-.092.136-.137,1.886-1.851,4.366-2.863,7.004-2.863Zm5.002,10.5v5.5h-3v-4c0-1.105-.895-2-2-2s-2,.895-2,2v4h-3v-5.5c0-2.236.386-4.2,1.069-5.5h7.861c.683,1.3,1.069,3.264,1.069,5.5Zm-15,3v-3.5c0-1.786.464-3.497,1.334-5h2.547c-.574,1.495-.881,3.386-.881,5.5v5.5h-.5c-1.379,0-2.5-1.121-2.5-2.5Zm20,0c0,1.379-1.121,2.5-2.5,2.5h-.5v-5.5c0-2.114-.307-4.005-.881-5.5h2.421c.925,1.57,1.459,3.409,1.459,5.365v3.135Z"/></svg>
