<?xml version="1.0" encoding="UTF-8"?>
<svg xmlns="http://www.w3.org/2000/svg" id="Layer_1" data-name="Layer 1" viewBox="0 0 24 24">
  <path d="m23.707,22.293l-6.317-6.317,2.105-3.43c.606-.894.668-2.041.163-2.995-.506-.954-1.491-1.547-2.569-1.547l-3.833-.003,1.205-5.227c.309-1.078-.139-2.172-1.064-2.6-.88-.407-1.865-.086-2.473.826l-3.236,5.273L1.707.293C1.316-.098.684-.098.293.293S-.098,1.316.293,1.707l22,22c.195.195.451.293.707.293s.512-.098.707-.293c.391-.391.391-1.023,0-1.414ZM12.548,2.177c-.005.029-.013.062-.023.099l-1.5,6.5c-.068.297.002.608.192.847s.478.378.782.378l5.089.004c.494,0,.726.338.803.483.077.145.226.527-.076.974l-1.88,3.061-6.794-6.794,3.406-5.551Zm2.356,17.847l-1.83,2.979c-.432.65-1.057,1-1.699,1-.259,0-.521-.057-.773-.174-.925-.428-1.373-1.521-1.064-2.6l1.025-4.454c.125-.539.663-.875,1.199-.75.538.124.874.661.75,1.199l-1.039,4.504c-.01.036-.018.068-.023.098l1.749-2.85c.288-.472.903-.617,1.375-.329.471.289.618.905.329,1.376Zm-4.904-4.02h-3.088c-1.08,0-2.064-.593-2.57-1.547-.506-.954-.443-2.103.163-2.996l.603-.984c.289-.47.906-.616,1.375-.329.471.289.618.905.33,1.376l-.627,1.022c-.302.446-.153.829-.076.975.077.146.309.483.803.483h3.088c.552,0,1,.447,1,1s-.448,1-1,1Z"/>
</svg>
