<?xml version="1.0" encoding="UTF-8"?>
<svg xmlns="http://www.w3.org/2000/svg" id="Layer_1" data-name="Layer 1" viewBox="0 0 24 24" width="512" height="512"><path d="m21.499,19.002c-.322,0-.626.066-.909.177l-1.566-1.566c.545-.681.992-1.443,1.323-2.264l2.402.621c.083.022.168.032.25.032.445,0,.851-.299.968-.75.138-.534-.183-1.08-.718-1.218l-2.373-.613c.074-.463.123-.935.123-1.419s-.049-.955-.123-1.418l2.373-.614c.535-.138.856-.684.718-1.219-.138-.534-.683-.861-1.219-.717l-2.402.622c-.331-.822-.778-1.583-1.323-2.265l1.565-1.565c.283.111.588.177.909.177,1.381,0,2.5-1.119,2.5-2.5S22.88.002,21.499.002s-2.5,1.119-2.5,2.5c0,.322.066.627.177.909l-1.565,1.565c-.681-.545-1.443-.992-2.264-1.323l.621-2.402c.138-.534-.183-1.08-.718-1.218-.538-.143-1.081.184-1.219.718l-.614,2.373c-.463-.074-.934-.123-1.418-.123s-.955.049-1.418.123l-.613-2.373c-.138-.534-.681-.86-1.219-.718-.535.138-.856.684-.718,1.218l.621,2.402c-.821.331-1.583.777-2.264,1.323l-1.566-1.566c.111-.282.177-.587.177-.909C4.999,1.121,3.88.002,2.499.002S0,1.121,0,2.502s1.119,2.5,2.5,2.5c.322,0,.627-.066.91-.177l1.565,1.565c-.545.681-.992,1.443-1.323,2.265l-2.402-.622c-.536-.143-1.08.184-1.219.717-.138.535.183,1.081.718,1.219l2.373.614c-.074.463-.123.934-.123,1.418,0,.49.05.967.126,1.436l-2.369.595c-.536.134-.861.678-.726,1.213.114.454.521.757.969.757.081,0,.163-.01.245-.03l2.415-.606c.33.815.775,1.571,1.317,2.247l-1.566,1.566c-.282-.111-.587-.177-.909-.177C1.119,19.002,0,20.121,0,21.502s1.119,2.5,2.5,2.5,2.5-1.119,2.5-2.5c0-.322-.066-.627-.177-.909l1.566-1.566c.681.545,1.442.992,2.264,1.323l-.621,2.402c-.138.534.183,1.08.718,1.218.084.022.168.032.251.032.445,0,.851-.299.968-.75l.613-2.373c.463.074.935.123,1.418.123s.955-.049,1.418-.123l.614,2.373c.117.451.522.75.968.75.083,0,.167-.01.251-.032.535-.138.856-.684.718-1.218l-.621-2.402c.821-.331,1.583-.777,2.264-1.323l1.566,1.566c-.111.283-.177.588-.177.91,0,1.381,1.119,2.5,2.5,2.5s2.5-1.119,2.5-2.5-1.119-2.5-2.5-2.5Zm-9.5,0c-3.86,0-7-3.141-7-7s3.14-7,7-7,7,3.141,7,7-3.14,7-7,7Zm1.06-4.525c.586.586.586,1.536,0,2.121s-1.536.586-2.121,0-.586-1.536,0-2.121c.586-.586,1.536-.586,2.121,0Zm3.536-1.414c-.586.586-1.536.586-2.121,0-.586-.586-.586-1.536,0-2.121.586-.586,1.536-.586,2.121,0,.586.586.586,1.536,0,2.121Zm-3.536-5.657c.586.586.586,1.536,0,2.121-.586.586-1.536.586-2.121,0-.586-.586-.586-1.536,0-2.121.586-.586,1.536-.586,2.121,0Zm-3.536,3.536c.586.586.586,1.536,0,2.121-.586.586-1.536.586-2.121,0-.586-.586-.586-1.536,0-2.121s1.536-.586,2.121,0Z"/></svg>
