<?xml version="1.0" encoding="UTF-8"?>
<svg xmlns="http://www.w3.org/2000/svg" id="Layer_1" data-name="Layer 1" viewBox="0 0 24 24" width="512" height="512"><path d="M12,0C5.383,0,0,5.383,0,12s5.383,12,12,12,12-5.383,12-12S18.617,0,12,0Zm0,22c-5.514,0-10-4.486-10-10S6.486,2,12,2s10,4.486,10,10-4.486,10-10,10Zm6-11.5c0,.828-.672,1.5-1.5,1.5-.652,0-1.202-.419-1.408-1h-1.092c-.552,0-1-.448-1-1s.448-1,1-1h2.5c.828,0,1.5,.672,1.5,1.5Zm-10.908,.5h-1.092c-.552,0-1-.448-1-1s.448-1,1-1h2.5c.828,0,1.5,.672,1.5,1.5s-.672,1.5-1.5,1.5c-.652,0-1.202-.419-1.408-1Zm8.505,6.198c.443,.33,.535,.957,.205,1.399-.196,.264-.498,.403-.803,.403-.208,0-.417-.064-.596-.198-.007-.005-1.114-.802-2.403-.802s-2.396,.797-2.407,.805c-.444,.324-1.07,.23-1.396-.213-.326-.443-.235-1.065,.206-1.394,.066-.049,1.632-1.198,3.597-1.198s3.531,1.149,3.597,1.198Z"/></svg>
