<?xml version="1.0" encoding="UTF-8"?>
<svg xmlns="http://www.w3.org/2000/svg" id="Layer_1" data-name="Layer 1" viewBox="0 0 24 24" width="512" height="512"><path d="m22,9.501c0,3.067-1.495,5.961-3.998,7.743-.999.71-1.835,1.798-2.632,3.425-.458.935-1.171,1.745-2.061,2.34-.984.659-2.144.985-3.303.985-1.266,0-2.531-.389-3.569-1.163-1.553-1.157-2.437-2.92-2.426-4.837.003-.55.45-.994,1-.994h.006c.552.003.997.454.994,1.006-.008,1.274.583,2.449,1.621,3.222,1.32.983,3.198,1.033,4.563.119.606-.406,1.069-.93,1.377-1.558.949-1.938,1.988-3.264,3.269-4.175,1.978-1.406,3.158-3.691,3.158-6.113,0-2.132-.913-4.171-2.504-5.594-1.614-1.441-3.693-2.099-5.87-1.857-3.335.375-6.09,3.056-6.551,6.375-.07.505-.091,1.016-.062,1.517.032.551-.389,1.024-.94,1.056-.539.033-1.024-.39-1.056-.941-.037-.631-.011-1.273.078-1.908C3.68,3.94,7.174.539,11.403.063c2.708-.308,5.412.554,7.426,2.353,2.015,1.801,3.171,4.384,3.171,7.085Zm-9.5-3.5c1.93,0,3.5,1.57,3.5,3.5,0,.552.447,1,1,1s1-.448,1-1c0-3.033-2.468-5.5-5.5-5.5-2.823,0-5.186,2.102-5.494,4.889-.004.036-.006.073-.006.11,0,1.298,1.03,2,2,2.001.552,0,1,.449,1,1s-.448,1-1,1-1,.448-1,1,.447,1,1,1c1.654,0,3-1.346,3-3s-1.342-2.996-2.992-3.001c.245-1.717,1.728-2.999,3.492-2.999Z"/></svg>
