<?xml version="1.0" encoding="UTF-8"?>
<svg xmlns="http://www.w3.org/2000/svg" id="Layer_1" data-name="Layer 1" viewBox="0 0 24 24" width="512" height="512"><path d="M8.5,16c-.828,0-1.5-.672-1.5-1.5s.672-1.5,1.5-1.5,1.5,.672,1.5,1.5-.672,1.5-1.5,1.5Zm7-3c-.828,0-1.5,.672-1.5,1.5s.672,1.5,1.5,1.5,1.5-.672,1.5-1.5-.672-1.5-1.5-1.5Zm8.5-2.451v1.086c0,6.698-5.283,12.245-11.776,12.363-.076,0-.152,.002-.227,.002-3.165,0-6.141-1.215-8.403-3.437C1.276,18.288,0,15.247,0,12v-1.499c0-.599,.358-1.138,.912-1.372,.545-.23,1.169-.116,1.59,.292,.572,.555,1.489,.579,1.498,.579h4.5c.276,0,.5-.225,.5-.5v-1.5c0-.523-.154-.774-.316-.894-.656,.598-1.385,.894-2.184,.894-1.064,0-2.059-.476-2.727-1.306-.668-.829-.919-1.912-.689-2.97,.247-1.132,1.088-2.091,2.197-2.502,.658-.245,1.332-.287,1.987-.135C8.515-.08,10.517-.322,12,.546c1.485-.869,3.486-.627,4.732,.543,1.324-.31,2.712,.202,3.539,1.272,.669,.866,.891,1.983,.609,3.064-.294,1.128-1.167,2.047-2.277,2.399-1.07,.339-2.239,.061-3.219-.745-.255,.136-.384,.444-.384,.92v1.5c0,.275,.224,.5,.5,.5h4.5s.899-.021,1.476-.559c.435-.406,1.068-.515,1.617-.275,.551,.239,.907,.782,.907,1.383Zm-2,.944c-.941,.488-1.869,.507-2,.507h-4.5c-1.378,0-2.5-1.121-2.5-2.5v-1.5c0-1.241,.511-1.951,.939-2.328,.733-.646,1.624-.693,1.878-.664,.227,.029,.438,.136,.596,.302,.245,.257,.886,.834,1.583,.609,.456-.145,.827-.536,.948-.999,.126-.483,.036-.958-.256-1.336-.417-.539-1.149-.754-1.831-.431-.435,.207-.958,.074-1.24-.317-.384-.531-.973-.836-1.617-.836-.621,0-1.066,.283-1.331,.521-.38,.342-.958,.342-1.338,0-.265-.238-.71-.521-1.331-.521-.644,0-1.233,.305-1.617,.836-.283,.393-.806,.526-1.242,.316-.385-.183-.767-.202-1.166-.054-.467,.173-.835,.586-.937,1.052-.103,.471,.001,.929,.292,1.289,.287,.356,.713,.561,1.169,.561,.484,0,.832-.337,1.05-.591,.059-.068,.185-.191,.26-.241,.164-.109,.357-.168,.555-.168,1.059,0,2.635,.799,2.635,3v1.5c0,1.379-1.122,2.5-2.5,2.5H4c-.132,0-1.06-.019-2-.506v.506c0,2.706,1.063,5.24,2.995,7.137,1.93,1.895,4.487,2.903,7.193,2.861,5.411-.099,9.812-4.747,9.812-10.363v-.142Zm-10,5.507c-1.44,0-2.597,1.148-2.972,2.22-.134,.383,.168,.78,.573,.78,1.158,0,3.638,0,4.788,0,.403,0,.706-.393,.576-.775-.365-1.074-1.53-2.224-2.965-2.224Z"/></svg>
