<?xml version="1.0" encoding="UTF-8"?>
<svg xmlns="http://www.w3.org/2000/svg" id="Layer_1" data-name="Layer 1" viewBox="0 0 24 24" width="512" height="512"><path d="M12,16c1.965,0,3.531,1.149,3.597,1.198,.443,.329,.535,.956,.205,1.398-.196,.264-.498,.403-.803,.403-.208,0-.417-.064-.596-.198-.007-.005-1.114-.802-2.403-.802s-2.396,.797-2.407,.805c-.444,.323-1.07,.23-1.396-.213-.326-.443-.235-1.065,.206-1.394,.066-.049,1.632-1.198,3.597-1.198ZM12,0C7.469,0,3.373,2.508,1.309,6.545c-.251,.491-.056,1.094,.436,1.346,.492,.25,1.094,.056,1.346-.436,1.72-3.365,5.134-5.455,8.91-5.455,5.514,0,10,4.486,10,10s-4.486,10-10,10c-2.563,0-5.001-.969-6.863-2.728-.401-.377-1.034-.36-1.414,.041-.379,.401-.361,1.034,.041,1.414,2.235,2.11,5.16,3.272,8.236,3.272,6.617,0,12-5.383,12-12S18.617,0,12,0Zm5.726,8.962c.092,.025,.184,.038,.275,.038,.435,0,.835-.286,.961-.726,.152-.531-.156-1.084-.687-1.236-.965-.275-1.977-.941-2.46-1.619-.32-.448-.945-.555-1.395-.232-.449,.32-.554,.945-.233,1.395,.746,1.045,2.135,1.979,3.54,2.381Zm-9.54-3.543c-.484,.678-1.496,1.344-2.46,1.619-.531,.152-.839,.705-.687,1.236,.125,.439,.526,.726,.961,.726,.091,0,.183-.013,.275-.038,1.404-.401,2.793-1.336,3.54-2.381,.321-.449,.216-1.074-.233-1.395-.45-.321-1.074-.217-1.395,.232Zm.314,5.581c-.828,0-1.5,.672-1.5,1.5s.672,1.5,1.5,1.5,1.5-.672,1.5-1.5-.672-1.5-1.5-1.5Zm7,3c.828,0,1.5-.672,1.5-1.5s-.672-1.5-1.5-1.5-1.5,.672-1.5,1.5,.672,1.5,1.5,1.5Zm-10.5,.5c0-1.403-1.184-3.372-1.922-4.235-.303-.355-.849-.353-1.151,.004-.738,.874-1.927,2.861-1.927,4.231,0,1.381,1.119,2.5,2.5,2.5s2.5-1.119,2.5-2.5Z"/></svg>
