<?xml version="1.0" encoding="UTF-8"?>
<svg xmlns="http://www.w3.org/2000/svg" id="Layer_1" data-name="Layer 1" viewBox="0 0 24 24" width="512" height="512"><path d="m9.37,12.735l2.677-2.677.649.649c.195.195.451.293.707.293s.512-.098.707-.293c.391-.391.391-1.023,0-1.414l-.736-.736c.294-.484.484-1.014.57-1.557h1.056c.552,0,1-.448,1-1s-.448-1-1-1h-1.207c-.105-.328-.249-.646-.434-.946l.883-.883c.391-.391.391-1.023,0-1.414s-1.023-.391-1.414,0l-.883.883c-.3-.185-.618-.329-.946-.434v-1.206c0-.552-.448-1-1-1s-1,.448-1,1v1.056c-.544.086-1.074.277-1.558.571l-.889-.889c-.391-.391-1.024-.391-1.414,0-.391.391-.391,1.024,0,1.414l.802.802-1.987,1.987-.802-.802c-.391-.391-1.023-.391-1.414,0s-.391,1.023,0,1.414l.889.889c-.291.477-.485,1.004-.572,1.559H1C.448,9,0,9.448,0,10s.448,1,1,1h1.204c.104.325.246.636.424.928l-.892.844c-.401.38-.418,1.013-.039,1.414.197.208.461.312.726.312.247,0,.494-.091.688-.274l.925-.876c.305.19.629.338.963.444v1.207c0,.552.448,1,1,1s1-.448,1-1v-1.057c.868-.138,1.702-.541,2.37-1.208Zm-1.414-1.414c-.903.904-2.374.903-3.277,0-.438-.438-.679-1.02-.679-1.639s.241-1.201.679-1.639l3.365-3.365c.452-.452,1.045-.678,1.639-.678s1.187.226,1.639.678c.903.904.903,2.374,0,3.277l-3.365,3.365Zm2.044-4.321c0,.552-.448,1-1,1s-1-.448-1-1,.448-1,1-1,1,.448,1,1Zm13,6h-1.206c-.102-.321-.244-.633-.423-.928l.893-.845c.401-.38.418-1.013.039-1.414-.38-.401-1.013-.417-1.414-.039l-.924.875c-.302-.189-.625-.338-.963-.446v-1.204c0-.552-.448-1-1-1s-1,.448-1,1v1.054c-.894.141-1.718.559-2.37,1.211l-2.677,2.677-.649-.649c-.391-.391-1.023-.391-1.414,0s-.391,1.023,0,1.414l.735.735c-.29.476-.484,1.004-.572,1.558h-1.053c-.552,0-1,.448-1,1s.448,1,1,1h1.204c.106.332.252.649.436.946l-.882.882c-.391.391-.391,1.023,0,1.414.195.195.451.293.707.293s.512-.098.707-.293l.883-.883c.3.185.618.329.946.434v1.206c0,.552.448,1,1,1s1-.448,1-1v-1.056c.543-.086,1.073-.276,1.558-.57l.89.889c.195.195.451.293.707.293s.512-.098.707-.293c.391-.391.391-1.024,0-1.414l-.802-.802,1.987-1.987.802.802c.195.195.451.293.707.293s.512-.098.707-.293c.391-.391.391-1.023,0-1.414l-.889-.889c.294-.484.484-1.015.57-1.558h1.056c.552,0,1-.448,1-1s-.448-1-1-1Zm-6.956-.321c.438-.438,1.02-.679,1.639-.679s1.201.241,1.639.679c.903.903.903,2.374,0,3.277l-3.365,3.365c-.904.904-2.375.903-3.277,0-.438-.438-.679-1.02-.679-1.639s.241-1.201.679-1.639l3.365-3.365Zm-2.044,4.321c0-.552.448-1,1-1s1,.448,1,1-.448,1-1,1-1-.448-1-1Z"/></svg>
