<?xml version="1.0" encoding="UTF-8"?>
<svg xmlns="http://www.w3.org/2000/svg" id="Layer_1" data-name="Layer 1" viewBox="0 0 24 24">
  <path d="m19,1H5C2.243,1,0,3.243,0,6v12c0,2.757,2.243,5,5,5h14c2.757,0,5-2.243,5-5V6c0-2.757-2.243-5-5-5Zm0,2c.068,0,.136.003.203.008l-3.992,3.992h-3.422l4-4h3.211Zm-6.039,0l-4,4h-3.519l4.093-4h3.426ZM2,6c0-1.654,1.346-3,3-3h1.674L2.596,7h-.596v-1Zm20,12c0,1.654-1.346,3-3,3H5c-1.654,0-3-1.346-3-3v-9h20v9Zm0-11h-3.961l3.1-3.1c.532.542.861,1.283.861,2.1v1Z"/>
</svg>
