<?xml version="1.0" encoding="UTF-8"?>
<svg xmlns="http://www.w3.org/2000/svg" id="Layer_1" data-name="Layer 1" viewBox="0 0 24 24" width="512" height="512"><path d="m20,0H4C1.794,0,0,1.794,0,4v12c0,2.206,1.794,4,4,4h2.923l3.749,3.157c.382.339.861.507,1.337.507.468,0,.931-.163,1.292-.484l3.848-3.18h2.852c2.206,0,4-1.794,4-4V4c0-2.206-1.794-4-4-4Zm2,16c0,1.103-.897,2-2,2h-3.212c-.232,0-.458.081-.637.229l-4.171,3.416-4.048-3.41c-.181-.152-.409-.235-.645-.235h-3.288c-1.103,0-2-.897-2-2V4c0-1.103.897-2,2-2h16c1.103,0,2,.897,2,2v12ZM12.879,4.879l-5.707,5.707c-.756.755-1.172,1.76-1.172,2.828v1.586c0,.552.447,1,1,1h1.586c1.068,0,2.073-.417,2.828-1.172l5.707-5.707c.566-.567.879-1.32.879-2.122s-.313-1.555-.879-2.121c-1.17-1.17-3.072-1.17-4.242,0Zm2.828,2.828l-5.707,5.707c-.378.378-.88.586-1.414.586h-.586v-.586c0-.526.214-1.042.586-1.414l5.707-5.707c.391-.39,1.023-.39,1.414,0,.189.188.293.439.293.707s-.104.518-.293.707Z"/></svg>
