<?xml version="1.0" encoding="UTF-8"?>
<svg xmlns="http://www.w3.org/2000/svg" id="Layer_1" data-name="Layer 1" viewBox="0 0 24 24" width="512" height="512"><path d="M12,0C5.383,0,0,5.383,0,12s5.383,12,12,12,12-5.383,12-12S18.617,0,12,0Zm0,2c3.728,0,6.98,2.054,8.699,5.086-.227-.054-.461-.086-.7-.086h-4.085c-1.023,0-1.981,.364-2.765,1h-2.298c-.784-.636-1.742-1-2.765-1H4.001c-.239,0-.473,.032-.7,.086,1.72-3.032,4.972-5.086,8.699-5.086Zm0,20c-5.294,0-9.629-4.139-9.967-9.349,.74,.832,1.815,1.349,2.988,1.349h2.137c1.839,0,3.436-1.246,3.881-3.03l.242-.97h1.439l.242,.97c.445,1.784,2.042,3.03,3.881,3.03h2.137c1.173,0,2.247-.517,2.987-1.349-.338,5.21-4.673,9.349-9.967,9.349Zm5.746-6.664c.366,.412,.331,1.042-.08,1.409-.103,.092-2.559,2.254-5.666,2.254s-5.563-2.162-5.666-2.254c-.412-.368-.447-1-.08-1.412,.369-.411,.998-.446,1.41-.081,.025,.022,2.008,1.748,4.336,1.748s4.316-1.73,4.336-1.748c.412-.364,1.043-.329,1.41,.084Z"/></svg>
