<?xml version="1.0" encoding="UTF-8"?>
<svg xmlns="http://www.w3.org/2000/svg" id="Layer_1" data-name="Layer 1" viewBox="0 0 24 24" width="512" height="512"><path d="m8,14v4c0,1-.648,1-1,1-1.654,0-3-1.346-3-3s1.346-3,3-3c.352,0,1,0,1,1ZM24,5v14c0,2.757-2.243,5-5,5h-4c-2.757,0-5-2.243-5-5V5c0-2.757,2.243-5,5-5h4c2.757,0,5,2.243,5,5Zm-2,0c0-1.654-1.346-3-3-3h-4c-1.654,0-3,1.346-3,3v14c0,1.654,1.346,3,3,3h4c1.654,0,3-1.346,3-3V5ZM9,1c0-.552-.447-1-1-1h-3C2.243,0,0,2.243,0,5v14c0,2.757,2.243,5,5,5h3c.553,0,1-.448,1-1s-.447-1-1-1h-3c-1.654,0-3-1.346-3-3V5c0-1.654,1.346-3,3-3h3c.553,0,1-.448,1-1Zm8,12c-1.654,0-3,1.346-3,3s1.346,3,3,3,3-1.346,3-3-1.346-3-3-3Zm0-4c1.105,0,2-.895,2-2s-.895-2-2-2-2,.895-2,2,.895,2,2,2Zm-9-3.245c0-.34-.239-.629-.57-.705-.319-.074-.667-.07-1.033.045-.7.22-1.388.905-1.388,1.905s.688,1.685,1.388,1.905c.365.115.714.119,1.033.045.331-.077.57-.366.57-.705v-2.49Z"/></svg>
