<?xml version="1.0" encoding="UTF-8"?>
<svg xmlns="http://www.w3.org/2000/svg" id="Layer_1" data-name="Layer 1" viewBox="0 0 24 24" width="512" height="512"><path d="m12.039.019C5.422.019.039,5.402.039,12.019s5.383,12,12,12,12-5.384,12-12S18.655.019,12.039.019Zm0,22c-5.514,0-10-4.486-10-10S6.524,2.019,12.039,2.019s10,4.486,10,10-4.486,10-10,10Zm4.631-9.131c.376.531.471,1.184.258,1.789-.72,2.048-2.822,3.592-4.889,3.592-2.757,0-5-2.243-5-5v-2.5c0-2.757,2.243-5,5-5,1.434,0,2.8.617,3.75,1.693.365.414.326,1.046-.088,1.412-.414.365-1.047.326-1.412-.088-.57-.646-1.39-1.016-2.25-1.016-1.654,0-3,1.346-3,3v2.5c0,1.654,1.346,3,3,3,1.218,0,2.565-1.012,3.002-2.255l-2.002.005c-.552,0-1-.447-1-1s.448-1,1-1h1.953c.665,0,1.292.325,1.678.869Z"/></svg>
