<?xml version="1.0" encoding="UTF-8"?>
<svg xmlns="http://www.w3.org/2000/svg" id="Layer_1" data-name="Layer 1" viewBox="0 0 24 24" width="512" height="512"><path d="M21,13h-3c-1.1,0-2,.9-2,2s-.9,2-2,2h-4c-1.1,0-2-.9-2-2s-.9-2-2-2H3c-1.65,0-3,1.35-3,3v3c0,2.76,2.24,5,5,5h14c2.76,0,5-2.24,5-5v-3c0-1.65-1.35-3-3-3Zm1,6c0,1.65-1.35,3-3,3H5c-1.65,0-3-1.35-3-3v-3c0-.55,.45-1,1-1h3s0,0,0,0c0,2.21,1.79,4,4,4h4c2.21,0,4-1.79,4-4h3c.55,0,1,.45,1,1v3ZM21,0h-3c-1.1,0-2,.9-2,2s-.9,2-2,2h-4c-1.1,0-2-.9-2-2S7.1,0,6,0H3C1.35,0,0,1.35,0,3v3c0,2.76,2.24,5,5,5h14c2.76,0,5-2.24,5-5V3c0-1.65-1.35-3-3-3Zm1,6c0,1.65-1.35,3-3,3H5c-1.65,0-3-1.35-3-3V3c0-.55,.45-1,1-1h3s0,0,0,0c0,2.21,1.79,4,4,4h4c2.21,0,4-1.79,4-4h3c.55,0,1,.45,1,1v3Z"/></svg>
