<?xml version="1.0" encoding="UTF-8"?>
<svg xmlns="http://www.w3.org/2000/svg" id="Layer_1" data-name="Layer 1" viewBox="0 0 24 24" width="512" height="512"><path d="m19,0H5C2.243,0,0,2.243,0,5v14c0,2.757,2.243,5,5,5h14c2.757,0,5-2.243,5-5V5c0-2.757-2.243-5-5-5Zm3,19c0,1.654-1.346,3-3,3H5c-1.654,0-3-1.346-3-3V5c0-1.654,1.346-3,3-3h14c1.654,0,3,1.346,3,3v14Zm-9-1c0,.553-.448,1-1,1s-1-.447-1-1c0-2.757-2.243-5-5-5-.552,0-1-.447-1-1s.448-1,1-1c3.86,0,7,3.141,7,7Zm6,0c0,.553-.448,1-1,1s-1-.447-1-1c0-6.065-4.935-11-11-11-.552,0-1-.447-1-1s.448-1,1-1c7.168,0,13,5.832,13,13Zm-11-.5c0,.828-.672,1.5-1.5,1.5s-1.5-.672-1.5-1.5.672-1.5,1.5-1.5,1.5.672,1.5,1.5Z"/></svg>
