<?xml version="1.0" encoding="UTF-8"?>
<svg xmlns="http://www.w3.org/2000/svg" id="Layer_1" data-name="Layer 1" viewBox="0 0 24 24" width="512" height="512"><path d="m19.5,13h-1.699c-.366-1.603-1.149-3.027-2.221-4.166l1.517-1.517c1.355,1.054,3.057,1.683,4.903,1.683.553,0,1-.447,1-1s-.447-1-1-1c-3.309,0-6-2.691-6-6,0-.553-.447-1-1-1s-1,.447-1,1c0,1.846.629,3.548,1.683,4.903l-1.632,1.632c-1.187-.799-2.57-1.321-4.051-1.482v-1.053c0-.553-.447-1-1-1s-1,.447-1,1v1.055C3.49,6.556,0,10.55,0,15.286v3.214c0,2.481,2.019,4.5,4.5,4.5h15c2.481,0,4.5-2.019,4.5-4.5v-1c0-2.481-2.019-4.5-4.5-4.5ZM2,18.5v-3.214c0-3.803,2.836-6.994,6.456-7.266,3.345-.25,6.349,1.877,7.278,4.987-2.634.139-4.734,2.325-4.734,4.993v3h-6.5c-1.379,0-2.5-1.121-2.5-2.5Zm20,0c0,1.379-1.121,2.5-2.5,2.5h-6.5v-3c0-1.654,1.346-3,3-3h3.5c1.379,0,2.5,1.121,2.5,2.5v1Zm-14-2.5v1c0,.552-.448,1-1,1h-1c-.552,0-1-.448-1-1v-1c0-.552.448-1,1-1h1c.552,0,1,.448,1,1Z"/></svg>
