<?xml version="1.0" encoding="UTF-8"?>
<svg xmlns="http://www.w3.org/2000/svg" id="Layer_1" data-name="Layer 1" viewBox="0 0 24 24" width="512" height="512"><path d="m23.707,22.293l-2.707-2.707V2.5c0-1.379-1.122-2.5-2.5-2.5h-1c-1.378,0-2.5,1.121-2.5,2.5v2.55c-.162-.033-.329-.05-.5-.05h-1c-1.378,0-2.5,1.121-2.5,2.5v2.086L1.707.293C1.316-.098.684-.098.293.293S-.098,1.316.293,1.707l22,22c.195.195.451.293.707.293s.512-.098.707-.293c.391-.391.391-1.023,0-1.414ZM17,2.5c0-.275.224-.5.5-.5h1c.276,0,.5.225.5.5v15.086l-2-2V2.5Zm-4,5c0-.275.224-.5.5-.5h1c.276,0,.5.225.5.5v6.086l-2-2v-4.086Zm5,14.5h-1v-1c0-.553-.448-1-1-1s-1,.447-1,1v1h-2v-5c0-.553-.448-1-1-1s-1,.447-1,1v5h-2v-9c0-.553-.448-1-1-1s-1,.447-1,1v3.05c-.162-.033-.329-.05-.5-.05h-1c-1.378,0-2.5,1.121-2.5,2.5v3c0,1.379,1.122,2.5,2.5,2.5h12.5c.552,0,1-.447,1-1s-.448-1-1-1Zm-13-.5v-3c0-.275.224-.5.5-.5h1c.276,0,.5.225.5.5v3.5h-1.5c-.276,0-.5-.225-.5-.5Z"/></svg>
