<?xml version="1.0" encoding="UTF-8"?>
<svg xmlns="http://www.w3.org/2000/svg" id="Layer_1" data-name="Layer 1" viewBox="0 0 24 24" width="512" height="512"><path d="m12,0C5.383,0,0,5.383,0,12s5.383,12,12,12,12-5.383,12-12S18.617,0,12,0Zm0,22c-5.514,0-10-4.486-10-10S6.486,2,12,2s10,4.486,10,10-4.486,10-10,10Zm7.975-11.326c-.184-1.123-.595-2.177-1.225-3.134-.35-.531-.76-1.019-1.221-1.451-.444-.417-1.044-.608-1.644-.545-.588.069-1.112.394-1.438.889l-1.745,2.651c-.225-.054-.461-.084-.702-.084s-.477.03-.702.084l-1.745-2.651c-.326-.495-.851-.819-1.438-.889-.598-.067-1.199.127-1.645.545-.46.433-.87.92-1.221,1.451-.629.957-1.04,2.011-1.224,3.135-.094.58.071,1.17.452,1.619.381.447.935.705,1.521.706h2.781c.139,0,.27,0,.392,0,.142.4.366.761.652,1.062-.382.689-1.052,1.875-1.514,2.578-.306.464-.392,1.036-.235,1.571.153.523.524.951,1.019,1.172.918.41,1.896.618,2.906.618s1.987-.208,2.905-.618c.494-.221.865-.648,1.019-1.173.155-.534.069-1.107-.207-1.523l-1.531-2.636c.282-.3.503-.659.643-1.055.851-.002,2.201-.004,3.151-.006.596,0,1.158-.262,1.545-.717.378-.445.542-1.028.449-1.601Zm-6.975,1.326c0,.552-.448,1-1,1s-1-.448-1-1,.448-1,1-1,1,.448,1,1Zm-7-1.004c.138-.844.447-1.637.92-2.356.264-.399.572-.768.963-1.107l1.739,2.642c-.19.248-.343.525-.45.825l-3.172-.003Zm4.058,6.625c.508-.791,1.179-1.981,1.548-2.648.129.017.26.027.394.027.14,0,.278-.01.414-.029l1.563,2.636c-1.242.521-2.673.525-3.919.015Zm4.777-6.603c-.106-.304-.258-.586-.45-.836l1.777-2.634c.347.324.655.692.918,1.092.474.72.783,1.513.898,2.352-1.411.002-2.42.003-3.143.027Z"/></svg>
