<?xml version="1.0" encoding="UTF-8"?>
<svg xmlns="http://www.w3.org/2000/svg" id="Layer_1" data-name="Layer 1" viewBox="0 0 24 24">
  <path d="m17,11c1.103,0,2-.897,2-2s-.897-2-2-2-2,.897-2,2,.897,2,2,2ZM22.717.334c-.81-.461-1.773-.449-2.575.028-1.333.793-4.795,2.638-8.142,2.638S5.191,1.155,3.858.362c-.802-.478-1.765-.488-2.575-.028C.479.791,0,1.616,0,2.542v18.913c0,.926.479,1.751,1.283,2.208.81.46,1.772.45,2.575-.028,1.332-.792,4.79-2.635,8.142-2.635s6.811,1.843,8.142,2.635c.41.244.861.366,1.312.366.433,0,.866-.112,1.263-.338.803-.457,1.283-1.282,1.283-2.208V2.542c0-.926-.479-1.751-1.283-2.208ZM2.271,2.072c.084-.047.308-.144.564.009,1.475.878,5.321,2.919,9.165,2.919s7.689-2.041,9.165-2.919c.256-.152.479-.056.564-.009.102.058.271.195.271.47v18.913c0,.01,0,.02-.001.031l-10.313-10.314c-1.51-1.511-4.146-1.513-5.657,0l-4.029,4.028V2.542c0-.274.17-.412.271-.47Zm.564,19.844c-.256.151-.479.057-.564.009-.102-.058-.271-.195-.271-.47v-3.427l5.443-5.442c.756-.757,2.073-.755,2.829,0l7.768,7.768c-1.736-.716-3.886-1.354-6.039-1.354-3.848,0-7.691,2.039-9.165,2.916Z"/>
</svg>
