<?xml version="1.0" encoding="UTF-8"?>
<svg xmlns="http://www.w3.org/2000/svg" id="Layer_1" data-name="Layer 1" viewBox="0 0 24 24" width="512" height="512"><path d="M9.99,24c-.22,0-.44-.02-.65-.07C3.93,22.75,0,17.74,0,12S3.93,1.25,9.33,.07c.9-.2,1.83,.02,2.55,.6,.71,.57,1.12,1.42,1.12,2.33V21c0,.91-.41,1.76-1.12,2.33-.54,.44-1.21,.67-1.9,.67Zm0-22c-.07,0-.15,0-.22,.02C5.34,2.99,2,7.28,2,12s3.34,9.01,7.76,9.98c.31,.07,.62,0,.87-.2,.14-.11,.37-.36,.37-.77V3c0-.41-.23-.66-.37-.77-.18-.15-.41-.23-.64-.23Z"/></svg>
