<?xml version="1.0" encoding="UTF-8"?>
<svg xmlns="http://www.w3.org/2000/svg" id="Layer_1" data-name="Layer 1" viewBox="0 0 24 24" width="512" height="512"><path d="M17.001,22.801c-.364,0-.715-.199-.892-.545-.251-.492-.057-1.094,.436-1.346,3.365-1.72,5.455-5.134,5.455-8.91,0-5.514-4.486-10-10-10S2,6.486,2,12c0,2.073,.629,4.062,1.817,5.75,.318,.452,.21,1.076-.242,1.394-.451,.317-1.075,.209-1.393-.242C.755,16.874,0,14.487,0,12,0,5.383,5.383,0,12,0s12,5.383,12,12c0,4.531-2.508,8.627-6.545,10.691-.146,.074-.301,.109-.454,.109ZM8.5,8c-.828,0-1.5,.672-1.5,1.5,0,.828,.672,1.5,1.5,1.5s1.5-.672,1.5-1.5c0-.828-.672-1.5-1.5-1.5Zm7,1c-.828,0-1.5,.672-1.5,1.5,0,.828,.672,1.5,1.5,1.5s1.5-.672,1.5-1.5c0-.828-.672-1.5-1.5-1.5Zm-4.126-1.073c.513-.207,.76-.79,.554-1.302-.395-.975-1.56-2.625-3.428-2.625-1.444,0-2.398,.929-2.734,1.478-.285,.464-.14,1.063,.319,1.356,.462,.293,1.074,.156,1.377-.297,.036-.055,.376-.537,1.038-.537,.966,0,1.562,1.348,1.574,1.379,.159,.387,.532,.622,.926,.622,.125,0,.252-.024,.374-.073Zm-2.261,5.945c.156,0,.315,.037,.463,.114,.489,.256,.679,.86,.423,1.349l-.482,.921,6.196-1.955c.099-.031,.198-.046,.297-.046,.422,0,.812,.271,.945,.695,.164,.522-.127,1.078-.649,1.242l-2.302,.721-.005,5.029c0,.645-.414,1.218-1.026,1.422l-1.309,.436c-.43,.135-.865,.199-1.293,.199-.708,0-1.396-.175-2.009-.495-1.267-.662-2.208-1.945-2.324-3.587-.057-.809,.155-1.617,.531-2.336l1.659-3.172c.179-.341,.527-.537,.887-.537h0Z"/></svg>
