<?xml version="1.0" encoding="UTF-8"?>
<svg xmlns="http://www.w3.org/2000/svg" id="Layer_1" data-name="Layer 1" viewBox="0 0 24 24">
  <path d="m19,6h-8.954L21.338,1.941c.521-.187.79-.759.604-1.279-.188-.52-.762-.793-1.279-.603L3.447,6.247c-1.999.655-3.447,2.538-3.447,4.753v8c0,2.757,2.243,5,5,5h14c2.757,0,5-2.243,5-5v-8c0-2.757-2.243-5-5-5Zm-14,2h14c1.304,0,2.415.836,2.828,2H2.172c.292-.823.828-2,2.828-2Zm14,14H5c-1.654,0-3-1.346-3-3v-7h20v7c0,1.654-1.346,3-3,3Zm-8-7c0,.552-.447,1-1,1h-5c-.553,0-1-.448-1-1s.447-1,1-1h5c.553,0,1,.448,1,1Zm0,4c0,.552-.447,1-1,1h-5c-.553,0-1-.448-1-1s.447-1,1-1h5c.553,0,1,.448,1,1Zm5.5-5.5c-1.93,0-3.5,1.57-3.5,3.5s1.57,3.5,3.5,3.5,3.5-1.57,3.5-3.5-1.57-3.5-3.5-3.5Zm0,5c-.827,0-1.5-.673-1.5-1.5s.673-1.5,1.5-1.5,1.5.673,1.5,1.5-.673,1.5-1.5,1.5Z"/>
</svg>
