<?xml version="1.0" encoding="UTF-8"?>
<svg xmlns="http://www.w3.org/2000/svg" id="Layer_1" data-name="Layer 1" viewBox="0 0 24 24" width="512" height="512"><path d="m17.5,11c-3.584,0-6.5,2.916-6.5,6.5s2.916,6.5,6.5,6.5,6.5-2.916,6.5-6.5-2.916-6.5-6.5-6.5Zm0,2c.879,0,1.701.254,2.394.692l-6.203,6.203c-.438-.694-.692-1.515-.692-2.394,0-2.481,2.019-4.5,4.5-4.5Zm0,9c-.879,0-1.701-.254-2.394-.692l6.203-6.203c.438.694.692,1.515.692,2.394,0,2.481-2.019,4.5-4.5,4.5ZM2,13v4.5c0,2.481,2.019,4.5,4.5,4.5.722,0,1.409-.165,2.044-.49.493-.249,1.095-.057,1.346.436.251.491.057,1.094-.435,1.346-.907.464-1.929.709-2.956.709C2.916,24,0,21.084,0,17.5V6.5C0,2.916,2.916,0,6.5,0s6.5,2.916,6.5,6.5v2.5c0,.553-.448,1-1,1s-1-.447-1-1v-2.5c0-2.481-2.019-4.5-4.5-4.5S2,4.019,2,6.5v4.5h7c.552,0,1,.447,1,1s-.448,1-1,1H2Z"/></svg>
