<?xml version="1.0" encoding="UTF-8"?>
<svg xmlns="http://www.w3.org/2000/svg" id="Layer_1" data-name="Layer 1" viewBox="0 0 24 24" width="512" height="512"><path d="M0,12C0,5.383,5.383,0,12,0s12,5.383,12,12c0,.553-.447,1-1,1s-1-.447-1-1c0-5.514-4.486-10-10-10S2,6.486,2,12c0,.553-.447,1-1,1s-1-.447-1-1Zm12.911,9.959c-.6,.053-1.223,.053-1.822,0-.557-.049-1.036,.358-1.085,.907-.049,.551,.357,1.036,.907,1.085,.358,.032,.722,.049,1.089,.049s.73-.017,1.089-.049c.55-.049,.956-.534,.907-1.085-.048-.549-.518-.955-1.085-.907Zm3.888-16.938c-1.218,.25-2.656,1.196-3.581,2.356-.344,.432-.272,1.061,.159,1.405,.184,.146,.404,.218,.622,.218,.294,0,.586-.129,.783-.377,.634-.795,1.65-1.486,2.419-1.644,.541-.11,.89-.64,.778-1.181-.11-.54-.636-.889-1.181-.778Zm-9.598,0c-.545-.11-1.07,.238-1.181,.778-.111,.541,.237,1.07,.778,1.181,.769,.157,1.785,.849,2.419,1.644,.197,.248,.489,.377,.783,.377,.218,0,.438-.071,.622-.218,.432-.345,.503-.974,.159-1.405-.925-1.16-2.363-2.106-3.581-2.356Zm3.799,5.979c0-.553-.447-1-1-1h-3c-.553,0-1,.447-1,1s.447,1,1,1h3c.553,0,1-.447,1-1Zm7,0c0-.553-.447-1-1-1h-3c-.553,0-1,.447-1,1s.447,1,1,1h3c.553,0,1-.447,1-1Zm-8.809,3.053c-1.331,.595-3.06,1.392-4.417,2.098-.321-.672-.979-1.151-1.774-1.151-1.105,0-2,.895-2,2,0,.415,.126,.8,.343,1.12-.78,.273-1.343,1.007-1.343,1.88,0,1.105,.895,2,2,2,.017,0,.033-.005,.05-.005,.23,1.143,1.239,2.005,2.45,2.005s2.22-.862,2.45-2.005c.017,0,.033,.005,.05,.005,1.105,0,2-.895,2-2,0-.959-.676-1.759-1.578-1.953,.817-1.018,1.726-2.181,2.454-3.121,.365-.471-.141-1.115-.685-.872Zm13.466,4.067c.216-.32,.343-.705,.343-1.12,0-1.105-.895-2-2-2-.795,0-1.453,.479-1.774,1.151-1.357-.707-3.086-1.504-4.417-2.098-.544-.243-1.049,.401-.685,.872,.728,.94,1.637,2.103,2.454,3.121-.901,.194-1.578,.994-1.578,1.953,0,1.105,.895,2,2,2,.017,0,.033-.005,.05-.005,.23,1.143,1.239,2.005,2.45,2.005s2.22-.862,2.45-2.005c.017,0,.033,.005,.05,.005,1.105,0,2-.895,2-2,0-.873-.563-1.608-1.343-1.88Z"/></svg>
