<?xml version="1.0" encoding="UTF-8"?>
<svg xmlns="http://www.w3.org/2000/svg" id="Layer_1" data-name="Layer 1" viewBox="0 0 24 24" width="512" height="512"><path d="m24,13.5c0-4.687-3.813-8.5-8.5-8.5h-2.5c0-1.304-.836-2.415-2-2.828v-1.172c0-.552-.447-1-1-1s-1,.448-1,1v1.172c-1.164.413-2,1.524-2,2.828v8c0,.552.447,1,1,1h4c.553,0,1-.448,1-1v-6h2.5c3.584,0,6.5,2.916,6.5,6.5s-2.916,6.5-6.5,6.5h-4.5v-2h4c.553,0,1-.448,1-1s-.447-1-1-1H5c-.553,0-1,.448-1,1s.447,1,1,1h4v2H2c-.553,0-1,.448-1,1s.447,1,1,1h1v1c0,.552.447,1,1,1s1-.448,1-1v-1h10v1c0,.552.447,1,1,1s1-.448,1-1v-1.133c3.974-.711,7-4.192,7-8.367Zm-13-1.5h-2v-7c0-.551.448-1,1-1s1,.449,1,1v7Z"/></svg>
