<?xml version="1.0" encoding="UTF-8"?>
<svg xmlns="http://www.w3.org/2000/svg" id="Layer_1" data-name="Layer 1" viewBox="0 0 24 24" width="512" height="512"><path d="M24,12c0,6.617-5.383,12-12,12-3.076,0-6-1.162-8.236-3.273-.401-.379-.42-1.012-.041-1.414,.379-.402,1.012-.42,1.414-.041,1.863,1.758,4.3,2.727,6.863,2.727,5.514,0,10-4.486,10-10S17.514,2,12,2c-3.776,0-7.19,2.09-8.91,5.455-.251,.491-.854,.686-1.346,.436-.492-.251-.687-.854-.436-1.346C3.373,2.508,7.469,0,12,0c6.617,0,12,5.383,12,12Zm-6.274-3.039c.092,.026,.184,.039,.275,.039,.435,0,.835-.287,.961-.726,.152-.531-.156-1.084-.687-1.236-.965-.276-1.977-.941-2.46-1.62-.32-.449-.945-.554-1.395-.233-.449,.321-.554,.945-.233,1.395,.746,1.045,2.135,1.979,3.54,2.38Zm-9.54-3.542c-.484,.678-1.496,1.344-2.46,1.62-.531,.151-.839,.705-.687,1.236,.125,.439,.526,.726,.961,.726,.091,0,.183-.013,.275-.039,1.404-.401,2.793-1.335,3.54-2.38,.321-.45,.216-1.074-.233-1.395-.45-.32-1.074-.216-1.395,.233Zm.314,4.581c-.828,0-1.5,.672-1.5,1.5s.672,1.5,1.5,1.5,1.5-.672,1.5-1.5-.672-1.5-1.5-1.5Zm7,3c.828,0,1.5-.672,1.5-1.5s-.672-1.5-1.5-1.5-1.5,.672-1.5,1.5,.672,1.5,1.5,1.5Zm-10.5,1.5c0-1.403-1.184-3.372-1.922-4.235-.303-.355-.849-.353-1.151,.004-.738,.874-1.927,2.861-1.927,4.231,0,1.381,1.119,2.5,2.5,2.5s2.5-1.119,2.5-2.5Zm7-1.5c2.393,0,4.333,1.917,4.942,3.707,.216,.636-.288,1.292-.96,1.292-.289,0-.642,0-1.017,0-.168,1.51-1.263,3.001-2.966,3.001s-2.797-1.49-2.966-3c-.38,0-.738,0-1.032,0-.676,0-1.179-.662-.956-1.3,.625-1.787,2.554-3.7,4.953-3.7Zm1,4.6v-1.384c-.285-.125-.606-.216-1-.216s-.715,.092-1,.216v1.384c0,.662,.411,1.4,1,1.4s1-.738,1-1.4Z"/></svg>
