<?xml version="1.0" encoding="UTF-8"?>
<svg xmlns="http://www.w3.org/2000/svg" id="Layer_1" data-name="Layer 1" viewBox="0 0 24 24" width="512" height="512"><path d="m19.95,5.536l-3.485-3.485c-1.322-1.322-3.08-2.05-4.95-2.05h-4.515C4.243,0,2,2.243,2,5v14c0,2.757,2.243,5,5,5h10c2.757,0,5-2.243,5-5v-8.515c0-1.87-.728-3.627-2.05-4.95Zm-1.414,1.414c.318.318.587.671.805,1.05h-4.341c-.551,0-1-.449-1-1V2.659c.379.218.733.487,1.05.805l3.485,3.485Zm1.464,12.05c0,1.654-1.346,3-3,3H7c-1.654,0-3-1.346-3-3V5c0-1.654,1.346-3,3-3h4.515c.163,0,.325.008.485.023v4.977c0,1.654,1.346,3,3,3h4.977c.015.16.023.322.023.485v8.515Zm-5.419-4.814c-.449-.32-1.074-.218-1.395.233l-.972,1.36-1.606-2.249c.836-.533,1.392-1.468,1.392-2.531,0-1.654-1.346-3-3-3h-1c-1.654,0-3,1.346-3,3v5c0,.552.448,1,1,1s1-.448,1-1v-2h1.485l2.5,3.5-1.371,1.919c-.321.449-.217,1.074.233,1.395.176.125.379.186.58.186.312,0,.62-.146.815-.419l.972-1.36.972,1.36c.195.273.503.419.815.419.201,0,.404-.061.58-.186.45-.321.554-.946.233-1.395l-1.371-1.919,1.371-1.919c.321-.449.217-1.074-.233-1.395Zm-7.581-3.186c0-.551.449-1,1-1h1c.551,0,1,.449,1,1s-.446.997-.994,1c-.012,0-.023,0-.035,0h-1.971v-1Z"/></svg>
