<?xml version="1.0" encoding="UTF-8"?>
<svg xmlns="http://www.w3.org/2000/svg" id="Layer_1" data-name="Layer 1" viewBox="0 0 24 24" width="512" height="512"><path d="m17,10c0,.552-.447,1-1,1h-8c-.553,0-1-.448-1-1s.447-1,1-1h8c.553,0,1,.448,1,1Zm7-6v12c0,2.206-1.794,4-4,4h-2.852l-3.848,3.18c-.361.322-.824.484-1.292.484-.476,0-.955-.168-1.337-.507l-3.749-3.157h-2.923c-2.206,0-4-1.794-4-4V4C0,1.794,1.794,0,4,0h16c2.206,0,4,1.794,4,4Zm-2,0c0-1.103-.897-2-2-2H4c-1.103,0-2,.897-2,2v12c0,1.103.897,2,2,2h3.288c.235,0,.464.083.645.235l4.048,3.41,4.171-3.416c.179-.148.404-.229.637-.229h3.212c1.103,0,2-.897,2-2V4Z"/></svg>
