<?xml version="1.0" encoding="UTF-8"?>
<svg xmlns="http://www.w3.org/2000/svg" id="Layer_1" data-name="Layer 1" viewBox="0 0 24 24">
  <path d="m20.016,13.695c.207-.532.318-1.102.318-1.682,0-2.35-1.734-4.302-3.985-4.634.207-.532.318-1.102.318-1.682,0-2.583-2.093-4.684-4.667-4.684s-4.667,2.101-4.667,4.684c0,.579.11,1.148.321,1.682-2.253.331-3.988,2.283-3.988,4.634,0,.581.111,1.15.318,1.682-2.251.332-3.984,2.283-3.984,4.633,0,2.583,2.093,4.685,4.667,4.685,1.486,0,2.812-.701,3.667-1.79.855,1.089,2.181,1.79,3.667,1.79s2.811-.701,3.667-1.79c.855,1.089,2.181,1.79,3.667,1.79,2.573,0,4.667-2.102,4.667-4.685,0-2.35-1.733-4.301-3.984-4.633ZM12.529,3.064c1.268.247,2.137,1.436,2.137,2.728,0,1.429-1.194,2.588-2.623,2.588-1.678,0-2.71-1.21-2.71-2.683,0-1.654,1.495-2.964,3.196-2.632Zm-7.819,17.948c-1.678,0-2.71-1.21-2.71-2.683,0-1.654,1.495-2.964,3.196-2.632,1.268.247,2.137,1.436,2.137,2.728,0,1.429-1.194,2.588-2.623,2.588Zm3.667-6.317c-1.678,0-2.71-1.21-2.71-2.683,0-1.654,1.495-2.964,3.196-2.632,1.268.247,2.137,1.436,2.137,2.728,0,1.429-1.194,2.588-2.623,2.588Zm3.667,6.317c-1.678,0-2.71-1.21-2.71-2.683,0-1.654,1.495-2.964,3.196-2.632,1.268.247,2.137,1.436,2.137,2.728,0,1.429-1.194,2.588-2.623,2.588Zm3.918-6.421c-1.678,0-2.71-1.21-2.71-2.683,0-1.654,1.495-2.964,3.196-2.632,1.268.247,2.137,1.436,2.137,2.728,0,1.429-1.194,2.588-2.623,2.588Zm3.415,6.421c-1.678,0-2.71-1.21-2.71-2.683,0-1.654,1.495-2.964,3.196-2.632,1.268.247,2.137,1.436,2.137,2.728,0,1.429-1.194,2.588-2.623,2.588Z"/>
</svg>
