<?xml version="1.0" encoding="UTF-8"?>
<svg xmlns="http://www.w3.org/2000/svg" id="Layer_1" data-name="Layer 1" viewBox="0 0 24 24" width="512" height="512"><path d="M7,12.5c0-.828,.672-1.5,1.5-1.5s1.5,.672,1.5,1.5-.672,1.5-1.5,1.5-1.5-.672-1.5-1.5Zm10,0c0-.828-.672-1.5-1.5-1.5s-1.5,.672-1.5,1.5,.672,1.5,1.5,1.5,1.5-.672,1.5-1.5Zm6.707-6.793c-.175,.176-4.377,4.293-11.707,4.293S.468,5.883,.293,5.707c-.391-.391-.391-1.023,0-1.414s1.023-.391,1.412-.002c.026,.026,.934,.895,2.588,1.786,.369-.917,1.098-2.721,1.43-3.478C6.665,.451,8.24,0,9.395,0c.869,0,1.853,.376,2.566,.98,.759-.607,1.727-.98,2.587-.98,1.621,0,3.016,.972,3.729,2.598,.332,.758,1.061,2.563,1.43,3.48,1.661-.895,2.569-1.768,2.587-1.786,.394-.389,1.025-.385,1.413,.005,.389,.391,.389,1.021,0,1.411Zm-11.707,2.293c2.328,0,4.303-.478,5.887-1.089-.352-.874-1.113-2.76-1.441-3.51-.185-.421-.74-1.401-1.897-1.401-.384,0-.887,.201-1.222,.49-.755,.649-1.898,.659-2.657,.017-.353-.299-.877-.507-1.274-.507-.605,0-1.298,.167-1.84,1.402-.328,.749-1.09,2.635-1.441,3.509,1.584,.611,3.559,1.089,5.887,1.089Zm8.155,2.057c-.521,.184-.794,.755-.61,1.276,.302,.855,.455,1.753,.455,2.667,0,4.411-3.589,8-8,8s-8-3.589-8-8c0-.914,.153-1.812,.455-2.667,.184-.521-.09-1.093-.61-1.276-.522-.181-1.092,.091-1.276,.61-.377,1.07-.568,2.191-.568,3.333,0,5.514,4.486,10,10,10s10-4.486,10-10c0-1.142-.191-2.263-.568-3.333-.185-.52-.754-.79-1.276-.61Zm-13.027,7.177c.849,1.282,2.372,2.767,4.871,2.767s4.016-1.484,4.865-2.767c.395-.597-.157-1.365-.877-1.214-.93,.195-1.956,.98-3.988,.981-2.032,0-3.065-.785-3.995-.981-.72-.151-1.272,.617-.877,1.214Z"/></svg>
