<?xml version="1.0" encoding="UTF-8"?>
<svg xmlns="http://www.w3.org/2000/svg" id="Layer_1" data-name="Layer 1" viewBox="0 0 24 24" width="512" height="512"><path d="m18,15c0,.552-.447,1-1,1h-2c-.553,0-1-.448-1-1s.447-1,1-1h2c.553,0,1,.448,1,1Zm-11-1h-2c-.553,0-1,.448-1,1s.447,1,1,1h2c.553,0,1-.448,1-1s-.447-1-1-1Zm5,0h-2c-.553,0-1,.448-1,1s.447,1,1,1h2c.553,0,1-.448,1-1s-.447-1-1-1Zm8-7v4c0,.552-.447,1-1,1H5c-.553,0-1-.448-1-1v-4c0-.552.447-1,1-1h14c.553,0,1,.448,1,1Zm-2,1H6v2h12v-2Zm6-1v10c0,2.757-2.243,5-5,5H5c-2.757,0-5-2.243-5-5V7C0,4.243,2.243,2,5,2h14c2.757,0,5,2.243,5,5Zm-2,0c0-1.654-1.346-3-3-3H5c-1.654,0-3,1.346-3,3v10c0,1.654,1.346,3,3,3h14c1.654,0,3-1.346,3-3V7Z"/></svg>
