<?xml version="1.0" encoding="UTF-8"?>
<svg xmlns="http://www.w3.org/2000/svg" id="Layer_1" data-name="Layer 1" viewBox="0 0 24 24">
  <path d="m23,22h-1c0-1.474-.801-2.764-1.991-3.458,1.919-2.024,2.991-4.688,2.991-7.542C23,4.935,18.065,0,12,0S1,4.935,1,11c0,2.853,1.072,5.517,2.992,7.542-1.19.694-1.992,1.984-1.992,3.458h-1c-.553,0-1,.448-1,1s.447,1,1,1h22c.553,0,1-.448,1-1s-.447-1-1-1ZM12,2c4.963,0,9,4.038,9,9,0,2.749-1.217,5.282-3.349,7h-4.651v-2h1.641c.843,0,1.325-.963.819-1.637l-1.022-1.363h.295c.732,0,1.149-.835.71-1.421l-2.414-3.219c-.495-.66-1.485-.66-1.98,0l-2.414,3.219c-.439.585-.021,1.421.71,1.421h.218l-1.022,1.363c-.506.675-.025,1.637.819,1.637h1.641v2h-4.652c-2.132-1.719-3.348-4.252-3.348-7C3,6.038,7.037,2,12,2Zm-6,18h12c1.103,0,2,.897,2,2H4c0-1.103.897-2,2-2Zm7-14.5c0-.828.672-1.5,1.5-1.5s1.5.672,1.5,1.5-.672,1.5-1.5,1.5-1.5-.672-1.5-1.5Zm4,5c0-.828.672-1.5,1.5-1.5s1.5.672,1.5,1.5-.672,1.5-1.5,1.5-1.5-.672-1.5-1.5Zm-10.5-.5c-.828,0-1.5-.672-1.5-1.5s.672-1.5,1.5-1.5,1.5.672,1.5,1.5-.672,1.5-1.5,1.5Z"/>
</svg>
