<?xml version="1.0" encoding="UTF-8"?>
<svg xmlns="http://www.w3.org/2000/svg" id="Layer_1" data-name="Layer 1" viewBox="0 0 24 24" width="512" height="512"><path d="M23.32,4.1c-.57-.7-1.42-1.1-2.32-1.1H7.24l-.04-.35c-.18-1.51-1.46-2.65-2.98-2.65h-1.22c-.55,0-1,.45-1,1s.45,1,1,1h1.22c.51,0,.93,.38,.99,.88l1.38,11.7c.3,2.52,2.43,4.42,4.97,4.42h8.44c.55,0,1-.45,1-1s-.45-1-1-1H11.56c-1.29,0-2.41-.82-2.83-2h9.43c2.38,0,4.44-1.69,4.9-4.02l.88-4.39c.18-.88-.05-1.79-.62-2.49Zm-1.34,2.1l-.88,4.39c-.28,1.4-1.52,2.41-2.94,2.41H8.42l-.94-8h13.52c.3,0,.58,.13,.77,.37,.19,.23,.27,.54,.21,.83Zm-10.98,15.8c0,1.1-.9,2-2,2s-2-.9-2-2,.9-2,2-2,2,.9,2,2Zm9,0c0,1.1-.9,2-2,2s-2-.9-2-2,.9-2,2-2,2,.9,2,2ZM0,6c0-.55,.45-1,1-1h1.54c.55,0,1,.45,1,1s-.45,1-1,1H1c-.55,0-1-.45-1-1Zm0,4c0-.55,.45-1,1-1H3c.55,0,1,.45,1,1s-.45,1-1,1H1c-.55,0-1-.45-1-1Zm5,4c0,.55-.45,1-1,1H1c-.55,0-1-.45-1-1s.45-1,1-1h3c.55,0,1,.45,1,1Z"/></svg>
