<?xml version="1.0" encoding="UTF-8"?>
<svg xmlns="http://www.w3.org/2000/svg" id="Layer_1" data-name="Layer 1" viewBox="0 0 24 24">
  <path d="m19.382,9.477c-1.081,0-2.034-.766-2.267-1.82l-.23-1.042c-.861-3.895-4.248-6.615-8.237-6.615C3.879,0,0,3.879,0,8.648v10.352c0,2.757,2.243,5,5,5h14c2.757,0,5-2.243,5-5v-4.905c0-2.546-2.072-4.618-4.618-4.618ZM8.648,2c2.995,0,5.637,2.123,6.284,5.046l.23,1.042h0c.441,1.996,2.177,3.389,4.22,3.389,1.444,0,2.618,1.174,2.618,2.618v.905H2v-6.352c0-3.666,2.982-6.648,6.648-6.648Zm10.352,20H5c-1.654,0-3-1.346-3-3v-2h3v2c0,.552.448,1,1,1s1-.448,1-1v-2h2v2c0,.552.448,1,1,1s1-.448,1-1v-2h2v2c0,.552.448,1,1,1s1-.448,1-1v-2h2v2c0,.552.448,1,1,1s1-.448,1-1v-2h3v2c0,1.654-1.346,3-3,3Z"/>
</svg>
