<?xml version="1.0" encoding="UTF-8"?>
<svg xmlns="http://www.w3.org/2000/svg" id="Layer_1" data-name="Layer 1" viewBox="0 0 24 24" width="512" height="512"><path d="m23.161,7.476l-3.055-2.5c-.429-.35-1.059-.287-1.407.141-.351.427-.287,1.058.14,1.407l.754.617-1.425,1.742c-.669-.45-1.394-.832-2.167-1.132V2c.553,0,1-.448,1-1s-.447-1-1-1h-8c-.553,0-1,.448-1,1s.447,1,1,1v5.75c-4.217,1.639-7,5.668-7,10.25.062,3.19,2.756,6,6.004,6h9.992c3.248,0,5.942-2.806,6.004-6,0-3.04-1.226-5.836-3.282-7.853l1.423-1.739.753.616c.187.152.41.226.633.226.29,0,.577-.125.774-.367.351-.427.287-1.058-.14-1.407Zm-2.161,10.524c-.04,2.108-1.838,4-4.004,4H7.004c-2.166,0-3.964-1.896-4.004-4,0-.685.076-1.354.221-2h13.779c.553,0,1-.448,1-1s-.447-1-1-1H3.928c1.06-2.148,2.963-3.83,5.371-4.587.417-.131.7-.517.7-.954V2h4v6.459c0,.437.283.823.7.954,3.769,1.184,6.3,4.635,6.3,8.587Z"/></svg>
