<?xml version="1.0" encoding="UTF-8"?>
<svg xmlns="http://www.w3.org/2000/svg" id="Layer_1" data-name="Layer 1" viewBox="0 0 24 24" width="512" height="512"><path d="M21,9h-2V5c0-2.757-2.243-5-5-5h-4c-2.757,0-5,2.243-5,5v4H3c-.552,0-1,.447-1,1s.448,1,1,1h.947c-.613,1.237-.947,2.607-.947,4,0,4.963,4.038,9,9,9s9-4.037,9-9c0-1.393-.334-2.763-.947-4h.947c.552,0,1-.447,1-1s-.448-1-1-1ZM7,5c0-1.654,1.346-3,3-3h4c1.654,0,3,1.346,3,3v4H7V5Zm5,17c-3.86,0-7-3.141-7-7,0-1.457,.456-2.823,1.283-4h11.433c.827,1.177,1.283,2.543,1.283,4,0,3.859-3.14,7-7,7Zm-2-7.5c0,.828-.672,1.5-1.5,1.5s-1.5-.672-1.5-1.5,.672-1.5,1.5-1.5,1.5,.672,1.5,1.5Zm7,0c0,.828-.672,1.5-1.5,1.5s-1.5-.672-1.5-1.5,.672-1.5,1.5-1.5,1.5,.672,1.5,1.5Zm-3.5,2.995c0,.398-.349,1.687-.71,2.914-.232,.787-1.349,.787-1.581,0-.361-1.228-.71-2.516-.71-2.914,0-.826,.672-1.495,1.5-1.495s1.5,.669,1.5,1.495Z"/></svg>
