<?xml version="1.0" encoding="UTF-8"?>
<svg xmlns="http://www.w3.org/2000/svg" id="Layer_1" data-name="Layer 1" viewBox="0 0 24 24" width="512" height="512"><path d="M20.943,8.714c-.673-.571-1.562-.816-2.439-.674-.571,.093-1.081,.365-1.494,.749-.533-.485-1.234-.789-2.01-.789-1.083,0-2.026,.583-2.553,1.446l-.064-.133,2.421-5.096c.357-.806,.343-1.724-.04-2.518-.384-.794-1.098-1.379-1.96-1.604-1.396-.362-2.916,.405-3.515,1.759l-.259,.533-.239-.492C8.182,.507,6.667-.265,5.266,.094c-.862,.222-1.577,.805-1.963,1.598s-.403,1.711-.038,2.542l2.396,5.081-1.464,3.01-.568,.567c-1.034,1.032-1.604,2.404-1.605,3.865,0,1.461,.567,2.835,1.601,3.868l1.033,1.033c1.511,1.511,3.52,2.343,5.656,2.343h6.687c2.757,0,5-2.243,5-5V11c0-.881-.385-1.714-1.057-2.286Zm-2.119,1.3c.302-.047,.596,.03,.823,.224,.224,.19,.353,.468,.353,.762v2c0,.551-.448,1-1,1s-1-.449-1-1v-1.893c0-.538,.362-1.018,.824-1.093Zm-4.824,.986c0-.551,.448-1,1-1s1,.449,1,1v2c0,.551-.448,1-1,1s-1-.449-1-1v-2Zm-1.701-8.969c.298,.078,.533,.269,.663,.537,.127,.265,.133,.571,.024,.815l-3.912,8.231c-.535-.516-1.214-.787-1.906-.827L11.103,2.697c.218-.493,.747-.785,1.196-.666Zm-7.214,1.374c-.118-.269-.112-.575,.017-.84,.13-.268,.366-.458,.663-.535,.457-.118,.979,.177,1.21,.704l.941,1.944-1.133,2.329-1.699-3.601Zm11.915,18.595h-6.687c-1.603,0-3.109-.624-4.242-1.757l-1.033-1.033c-.655-.655-1.016-1.526-1.015-2.452s.362-1.796,1.018-2.451l1.248-1.244c.391-.388,1.026-.388,1.415,.003,.188,.188,.293,.439,.292,.706,0,.267-.104,.518-.292,.706l-1.41,1.407c-.392,.39-.392,1.023-.002,1.414,.39,.391,1.022,.392,1.414,.002l1.411-1.407c.358-.358,.601-.795,.741-1.267l1.423-2.995,.733,1.515c.078,1.585,1.381,2.854,2.985,2.854,.771,0,1.468-.301,2-.78,.532,.48,1.229,.78,2,.78,.352,0,.686-.072,1-.184v3.184c0,1.654-1.346,3-3,3Z"/></svg>
