<?xml version="1.0" encoding="UTF-8"?>
<svg xmlns="http://www.w3.org/2000/svg" id="Layer_1" data-name="Layer 1" viewBox="0 0 24 24" width="512" height="512"><path d="m21.03,2.98C17.831-.219,13.556-.959,11.3,1.298c-3.098,3.098-4.876,7.202-5.286,12.198-.073.884.135,1.753.581,2.494l-3.783,3.784c-.256-.461-.748-.773-1.312-.773-.828,0-1.5.672-1.5,1.5s.672,1.5,1.5,1.5c.231,0,.45-.052.646-.146-.093.196-.146.415-.146.646,0,.828.672,1.5,1.5,1.5s1.5-.672,1.5-1.5c0-.565-.312-1.057-.774-1.312l3.783-3.784c.644.388,1.386.596,2.149.596.115,0,.23-.005.345-.014,5.011-.411,9.119-2.187,12.208-5.276,2.256-2.256,1.518-6.53-1.682-9.73Zm-1.414,1.414c2.326,2.327,3.097,5.487,1.682,6.902-1.414,1.415-4.575.644-6.902-1.683-1.198-1.198-2.011-2.618-2.29-3.998-.25-1.231-.033-2.263.608-2.904.481-.481,1.165-.709,1.949-.709,1.52,0,3.418.858,4.953,2.392Zm-9.275,11.598c-.64.061-1.262-.175-1.71-.623-.448-.448-.675-1.071-.623-1.709.234-2.854.954-5.375,2.148-7.541.36,1.659,1.321,3.403,2.826,4.908s3.245,2.464,4.903,2.825c-2.163,1.188-4.686,1.905-7.544,2.139Zm5.939-8.262c-.725-.725-.988-1.637-.587-2.038s1.313-.138,2.038.587c.725.725.988,1.637.587,2.038s-1.313.138-2.038-.587Z"/></svg>
