<?xml version="1.0" encoding="UTF-8"?>
<svg xmlns="http://www.w3.org/2000/svg" id="Layer_1" data-name="Layer 1" viewBox="0 0 24 24" width="512" height="512"><path d="m22.819,15.831c.121.38.181.771.181,1.169,0,2.206-1.794,4-4,4s-4-1.794-4-4c0-.036,0-.072.001-.108l-3.001-.862-3.001.862c0,.036.001.072.001.108,0,2.206-1.794,4-4,4s-4-1.794-4-4c0-.398.061-.789.181-1.169-.751-.742-1.181-1.752-1.181-2.831,0-2.206,1.794-4,4-4,1.461,0,2.774.798,3.471,2.03l2.24-.677c.532-.159,1.087.14,1.247.667.16.529-.139,1.087-.667,1.247l-3.106.939c-.26.079-.542.048-.779-.085-.237-.133-.41-.357-.478-.621-.229-.883-1.021-1.5-1.926-1.5-1.103,0-2,.897-2,2,0,.684.35,1.314.935,1.685.451.286.598.874.335,1.338-.179.316-.27.645-.27.977,0,1.103.897,2,2,2s2-.897,2-2c0-.173-.027-.353-.084-.548-.074-.255-.043-.529.085-.761s.344-.404.6-.478l4.124-1.185c.18-.052.372-.052.552,0l4.124,1.185c.255.073.471.245.6.478s.159.506.085.761c-.057.196-.084.375-.084.548,0,1.103.897,2,2,2s2-.897,2-2c0-.333-.091-.661-.27-.977-.263-.464-.116-1.052.335-1.338.585-.371.935-1.001.935-1.685,0-1.103-.897-2-2-2-.92,0-1.715.628-1.935,1.527-.064.265-.234.491-.47.628-.235.137-.516.172-.778.096l-3.094-.888c-.531-.152-.838-.706-.685-1.237.152-.531.707-.841,1.237-.685l2.222.638c.687-1.261,2.013-2.079,3.502-2.079,2.206,0,4,1.794,4,4,0,1.079-.43,2.089-1.181,2.831ZM12,7c.552,0,1-.448,1-1v-3c0-.552-.448-1-1-1s-1,.448-1,1v3c0,.552.448,1,1,1Zm3.779.377c.159.093.333.137.505.137.343,0,.677-.177.864-.494l1.474-2.514c.279-.477.12-1.089-.357-1.369-.477-.28-1.089-.119-1.369.357l-1.474,2.514c-.279.477-.12,1.089.357,1.369Zm-8.87-.274c.184.325.522.507.871.507.167,0,.336-.042.492-.13.48-.272.649-.882.377-1.363l-1.478-2.61c-.272-.481-.881-.65-1.363-.377-.48.272-.649.882-.377,1.363l1.478,2.61Z"/></svg>
