<?xml version="1.0" encoding="UTF-8"?>
<svg xmlns="http://www.w3.org/2000/svg" id="Layer_1" data-name="Layer 1" viewBox="0 0 24 24">
  <path d="m23.242,7.182l-1.185-.833.901-3.239c.129-.582-.044-1.181-.466-1.602-.422-.421-1.023-.595-1.652-.453l-3.072.855s-.565-1.128-.602-1.178c-.36-.48-.932-.761-1.535-.73-.6.022-1.151.338-1.509.903l-2.272,4.159-1.676-3.146c-.28-.467-.749-.791-1.286-.887-.539-.097-1.088.044-1.514.384-.042.034-1.188,1.295-1.188,1.295l-1.495-1.431c-.29-.278-.716-.355-1.084-.197-.369.157-.607.519-.607.919v2h-1.289c-.597,0-1.14.303-1.454.81s-.343,1.128-.045,1.722l2.838,4.839c.126.274.122.59-.01.858,0,0-1.737,2.207-1.755,2.235-.32.504-.373,1.135-.143,1.686s.715.957,1.396,1.101l2.502.295L.293,22.293c-.391.391-.391,1.023,0,1.414.195.195.451.293.707.293s.512-.098.707-.293l4.748-4.748.309,2.6c.128.583.533,1.069,1.084,1.299s1.181.177,1.686-.143c.029-.019,2.235-1.755,2.235-1.755.267-.132.579-.139.772-.056l4.986,2.917c.242.121.503.18.763.18.312,0,.623-.086.899-.258.507-.314.81-.857.81-1.454v-1.289h2c.4,0,.762-.239.919-.607.158-.368.08-.795-.197-1.084l-1.463-1.528s1.303-1.292,1.327-1.323c.348-.436.486-1,.377-1.547-.108-.547-.451-1.015-1.027-1.329l-2.946-1.267s4.168-2.107,4.203-2.131c.49-.331.792-.881.806-1.472.015-.591-.259-1.156-.757-1.529Zm-5.783,3.69c-.469.375-.729.957-.694,1.557s.36,1.148.869,1.467c.043.027,3.272,1.42,3.272,1.42l-1.753,1.736c-.388.384-.396,1.008-.019,1.402l.523.547h-.658c-.552,0-1,.448-1,1v1.782l-4.533-2.649c-.399-.184-.828-.275-1.256-.275-.515,0-1.029.132-1.487.394-.043.024-2.034,1.59-2.034,1.59l-.434-3.683,4.452-4.452c.391-.391.391-1.023,0-1.414s-1.023-.391-1.414,0l-4.453,4.453-3.685-.431s1.568-1.996,1.593-2.039c.479-.839.524-1.865.074-2.83l-2.605-4.447h1.784c.552,0,1-.448,1-1v-.658l.547.523c.195.187.446.287.728.277.27-.01.524-.128.706-.329l1.557-1.721,1.744,3.273c.318.509.866.834,1.466.869.599.027,1.182-.225,1.558-.693.036-.045,2.38-4.331,2.38-4.331l.657,1.328c.213.431.704.65,1.165.52l3.375-.94-.939,3.375c-.114.408.042.843.389,1.086l1.505,1.057s-4.323,2.191-4.376,2.234Z"/>
</svg>
