<?xml version="1.0" encoding="UTF-8"?>
<svg xmlns="http://www.w3.org/2000/svg" id="Layer_1" data-name="Layer 1" viewBox="0 0 24 24" width="512" height="512"><path d="m3.066,12.001h17.875c.568,0,1.111-.243,1.491-.667.382-.426.565-.997.503-1.565C22.325,4.2,17.625,0,12.004,0S1.695,4.199,1.072,9.767c-.063.569.119,1.139.501,1.566.38.425.924.668,1.493.668ZM12.004,2.001c4.6,0,8.444,3.433,8.938,8H3.066l-.007-.012c.509-4.554,4.354-7.988,8.944-7.988ZM1.004,15.001c0-.552.448-1,1-1h7.999,0s11,0,11,0h0s1.001,0,1.001,0c.552,0,1,.448,1,1s-.448,1-1,1h-3.001l-2.544,2.544c-.528.528-1.383.528-1.911,0l-2.544-2.544H2.004c-.552,0-1-.448-1-1Zm22,5c0,2.206-1.794,4-4,4H5.004c-2.206,0-4-1.794-4-4,0-1.103.897-2,2-2h7.999c.552,0,1,.448,1,1s-.448,1-1,1H3.004c0,1.103.897,2,2,2h14c1.103,0,2-.897,2-2h-1c-.552,0-1-.448-1-1s.448-1,1-1h1c1.103,0,2,.897,2,2Z"/></svg>
