<?xml version="1.0" encoding="UTF-8"?>
<svg xmlns="http://www.w3.org/2000/svg" id="Layer_1" data-name="Layer 1" viewBox="0 0 24 24" width="512" height="512"><path d="M17.981,9.376l-5.981-1.196V3.107C12,1.591,10.924,.273,9.497,.041c-.879-.142-1.768,.103-2.439,.674-.672,.571-1.057,1.404-1.057,2.289l.003,.997H2.617c-.549,0-.766,.526-.378,.914l1.762,1.086-1.749,1.118c-.388,.388-.183,.882,.365,.882h3.397l.006,2.274-3.945,3.919c-.691,.687-1.073,1.602-1.075,2.576-.001,.974,.377,1.89,1.066,2.579l2.308,2.308c1.51,1.511,3.52,2.343,5.657,2.343h6.969c2.757,0,5-2.243,5-5v-4.721c0-2.375-1.69-4.437-4.019-4.903ZM8,3c0-.294,.128-.572,.353-.762,.228-.193,.518-.273,.823-.224,.462,.076,.825,.556,.825,1.093v.893h-1.997l-.003-1Zm12,16c0,1.654-1.346,3-3,3h-6.969c-1.603,0-3.11-.624-4.243-1.757l-2.308-2.308c-.31-.311-.481-.723-.48-1.162,0-.439,.172-.851,.484-1.161l2.544-2.527,.011,3.917c.001,.551,.449,.997,1,.997h.003c.552-.001,.999-.451,.997-1.003l-.025-8.997h1.986v1c0,.477,.336,.887,.804,.98l6.785,1.357c1.397,.28,2.412,1.517,2.412,2.942v4.721Z"/></svg>
