<?xml version="1.0" encoding="UTF-8"?>
<svg xmlns="http://www.w3.org/2000/svg" id="Layer_1" data-name="Layer 1" viewBox="0 0 24 24" width="512" height="512"><path d="m13.538,6.02h-3c-1.654,0-3,1.346-3,3v8c0,.553.448,1,1,1s1-.447,1-1v-3h4c2.206,0,4-1.794,4-4s-1.794-4-4-4Zm0,6h-4v-3c0-.552.449-1,1-1h3c1.103,0,2,.897,2,2s-.897,2-2,2ZM12.039.02C5.422.02.039,5.402.039,12.02s5.383,12,12,12,12-5.383,12-12S18.655.02,12.039.02Zm0,22c-5.514,0-10-4.486-10-10S6.524,2.02,12.039,2.02s10,4.486,10,10-4.485,10-10,10Z"/></svg>
