<?xml version="1.0" encoding="UTF-8"?>
<svg xmlns="http://www.w3.org/2000/svg" id="Layer_1" data-name="Layer 1" viewBox="0 0 24 24" width="512" height="512"><path d="m12.038.019C5.421.019.038,5.402.038,12.019s5.383,12,12,12,12-5.383,12-12S18.655.019,12.038.019Zm0,22c-5.514,0-10-4.486-10-10S6.524,2.019,12.038,2.019s10,4.486,10,10-4.486,10-10,10Zm-.25-16.25h-1.75c-1.654,0-3,1.346-3,3v6.5c0,1.654,1.346,3,3,3h1.75c3.446,0,6.25-2.804,6.25-6.25s-2.804-6.25-6.25-6.25Zm0,10.5h-1.75c-.552,0-1-.449-1-1v-6.5c0-.551.448-1,1-1h1.75c2.344,0,4.25,1.907,4.25,4.25s-1.906,4.25-4.25,4.25Z"/></svg>
