<?xml version="1.0" encoding="UTF-8"?>
<svg xmlns="http://www.w3.org/2000/svg" id="Layer_1" data-name="Layer 1" viewBox="0 0 24 24" width="512" height="512"><path d="M18.71,17.29l2.15-5.74,2.85-2.85c.39-.39,.39-1.02,0-1.41s-1.02-.39-1.41,0l-2.29,2.29-5.59-5.59,2.29-2.29c.39-.39,.39-1.02,0-1.41s-1.02-.39-1.41,0l-2.85,2.85-5.74,2.15L1.71,.29C1.32-.1,.68-.1,.29,.29S-.1,1.32,.29,1.71L22.29,23.71c.2,.2,.45,.29,.71,.29s.51-.1,.71-.29c.39-.39,.39-1.02,0-1.41l-5-5ZM12.75,5.16l6.09,6.09-1.68,4.49L8.26,6.85l4.49-1.68Zm2.21,14.42c.15,.53-.16,1.08-.69,1.24l-10.83,3.08c-.25,.07-.5,.11-.75,.11-.7,0-1.39-.28-1.9-.79-.7-.7-.96-1.72-.68-2.66L3.19,9.73c.15-.53,.7-.84,1.24-.69,.53,.15,.84,.7,.69,1.24l-2.86,10.06,4.84-4.84s-.03-.09-.04-.14c-.18-.84,.14-1.62,.72-2.09,.5-.41,1.25-.33,1.7,.13l1.13,1.13c.46,.46,.54,1.2,.13,1.7-.47,.58-1.25,.9-2.09,.72-.05-.01-.09-.02-.14-.04l-4.84,4.84,10.06-2.86c.53-.15,1.08,.16,1.24,.69Z"/></svg>
