<?xml version="1.0" encoding="UTF-8"?>
<svg xmlns="http://www.w3.org/2000/svg" id="Layer_1" data-name="Layer 1" viewBox="0 0 24 24">
  <path d="m9.895,21.667c-.56-.372-.895-.995-.895-1.667v-1c0-.553-.448-1-1-1h-3.999c-.594,0-1.153-.261-1.534-.716s-.54-1.052-.436-1.636l1.282-7.176c.255-1.433,1.498-2.473,2.953-2.473h9.467c1.369,0,2.563.925,2.905,2.249.138.535.684.856,1.218.72.535-.138.856-.684.719-1.218-.561-2.179-2.505-3.708-4.747-3.75.111-.313.172-.65.172-1.001,0-1.654-1.346-3-3-3h-4c-1.654,0-3,1.346-3,3,0,.351.061.688.172,1.001-2.385.044-4.407,1.763-4.828,4.12L.063,15.297c-.208,1.169.109,2.361.871,3.271.762.91,1.88,1.432,3.067,1.432h2.999c0,1.344.668,2.589,1.788,3.333.17.113.362.167.552.167.324,0,.642-.157.834-.446.306-.46.18-1.081-.28-1.387Zm-.895-19.667h4c.551,0,1,.448,1,1s-.449,1-1,1h-4c-.551,0-1-.448-1-1s.449-1,1-1Zm8,8c-3.86,0-7,3.141-7,7s3.14,7,7,7,7-3.141,7-7-3.14-7-7-7Zm0,12c-2.757,0-5-2.243-5-5s2.243-5,5-5,5,2.243,5,5-2.243,5-5,5Zm3-5c0,.553-.448,1-1,1h-1v1c0,.553-.448,1-1,1s-1-.447-1-1v-1h-1c-.552,0-1-.447-1-1s.448-1,1-1h1v-1c0-.553.448-1,1-1s1,.447,1,1v1h1c.552,0,1,.447,1,1Z"/>
</svg>
