<?xml version="1.0" encoding="UTF-8"?>
<svg xmlns="http://www.w3.org/2000/svg" id="Layer_1" data-name="Layer 1" viewBox="0 0 24 24">
  <path d="m23.707,22.293l-3.803-3.803V6h1c.552,0,1-.447,1-1s-.448-1-1-1h-3.101c-.465-2.279-2.485-4-4.899-4h-2c-2.414,0-4.435,1.721-4.899,4h-.504c-.028,0-.055.001-.082.004L1.707.293C1.316-.098.684-.098.293.293S-.098,1.316.293,1.707l22,22c.195.195.451.293.707.293s.512-.098.707-.293c.391-.391.391-1.023,0-1.414Zm-5.803-5.803L7.414,6h10.49v10.49ZM10.904,2h2c1.304,0,2.415.836,2.828,2h-7.656c.413-1.164,1.524-2,2.828-2Zm6.947,19.882c.29.471.144,1.087-.326,1.376-.786.485-1.693.742-2.621.742h-5.904c-2.757,0-5-2.243-5-5v-8.5c0-.553.448-1,1-1s1,.447,1,1v8.5c0,1.654,1.346,3,3,3h5.904c.557,0,1.101-.153,1.571-.443.469-.292,1.086-.144,1.376.325Z"/>
</svg>
