<?xml version="1.0" encoding="UTF-8"?>
<svg xmlns="http://www.w3.org/2000/svg" id="Layer_1" data-name="Layer 1" viewBox="0 0 24 24" width="512" height="512"><path d="m12,5.5c-1.93,0-3.5,1.57-3.5,3.5,0,1.582,1.056,2.923,2.5,3.354v10.646c0,.552.448,1,1,1s1-.448,1-1v-10.646c1.444-.431,2.5-1.772,2.5-3.354,0-1.93-1.57-3.5-3.5-3.5Zm0,5c-.827,0-1.5-.673-1.5-1.5s.673-1.5,1.5-1.5,1.5.673,1.5,1.5-.673,1.5-1.5,1.5Zm-4.243-5.667c-1.133,1.133-1.757,2.64-1.757,4.243s.624,3.109,1.757,4.243c.391.39.391,1.023,0,1.414-.195.195-.451.293-.707.293s-.512-.098-.707-.293c-1.511-1.511-2.343-3.52-2.343-5.657s.832-4.146,2.343-5.657c.391-.391,1.023-.391,1.414,0s.391,1.023,0,1.414Zm12.243,4.243c0,2.137-.832,4.146-2.343,5.657-.195.195-.451.293-.707.293s-.512-.098-.707-.293c-.391-.391-.391-1.024,0-1.414,1.133-1.133,1.757-2.64,1.757-4.243s-.624-3.109-1.757-4.243c-.391-.391-.391-1.023,0-1.414s1.023-.391,1.414,0c1.511,1.511,2.343,3.52,2.343,5.657Zm-15.071,7.071c.391.391.391,1.023,0,1.414-.195.195-.451.293-.707.293s-.512-.098-.707-.293C-1.164,12.882-1.164,5.269,3.515.59c.391-.391,1.023-.391,1.414,0s.391,1.023,0,1.414c-3.898,3.899-3.898,10.243,0,14.142Zm15.557,1.414c-.195.195-.451.293-.707.293s-.512-.098-.707-.293c-.391-.391-.391-1.023,0-1.414,3.898-3.899,3.898-10.243,0-14.142-.391-.391-.391-1.023,0-1.414s1.023-.391,1.414,0c4.679,4.678,4.679,12.292,0,16.97Z"/></svg>
