<?xml version="1.0" encoding="UTF-8"?>
<svg xmlns="http://www.w3.org/2000/svg" id="Layer_1" data-name="Layer 1" viewBox="0 0 24 24" width="512" height="512"><path d="M20,12V7c0-2.76-2.24-5-5-5h-6c-2.76,0-5,2.24-5,5v5c-2.21,0-4,1.79-4,4v2c0,2.21,1.79,4,4,4H20c2.21,0,4-1.79,4-4v-2c0-2.21-1.79-4-4-4ZM6,7c0-1.65,1.35-3,3-3h6c1.65,0,3,1.35,3,3v9H6V7Zm16,11c0,1.1-.9,2-2,2H4c-1.1,0-2-.9-2-2v-2c0-1.1,.9-2,2-2v3c0,.55,.45,1,1,1h14c.55,0,1-.45,1-1v-3c1.1,0,2,.9,2,2v2Zm-12.71-6.71l1.29-1.29-1.29-1.29c-.39-.39-.39-1.02,0-1.41s1.02-.39,1.41,0l1.29,1.29,1.29-1.29c.39-.39,1.02-.39,1.41,0s.39,1.02,0,1.41l-1.29,1.29,1.29,1.29c.39,.39,.39,1.02,0,1.41-.2,.2-.45,.29-.71,.29s-.51-.1-.71-.29l-1.29-1.29-1.29,1.29c-.2,.2-.45,.29-.71,.29s-.51-.1-.71-.29c-.39-.39-.39-1.02,0-1.41Z"/></svg>
