<?xml version="1.0" encoding="UTF-8"?>
<svg xmlns="http://www.w3.org/2000/svg" id="Layer_1" data-name="Layer 1" viewBox="0 0 24 24">
  <path d="m19.142,23.99c-.048.007-.096.01-.143.01-.489,0-.917-.359-.988-.858-.419-2.932-3.003-5.142-6.01-5.142s-5.591,2.21-6.01,5.142c-.079.547-.589.922-1.131.849-.547-.078-.927-.585-.848-1.132.559-3.91,3.994-6.858,7.99-6.858s7.431,2.948,7.99,6.858c.079.547-.301,1.054-.848,1.132ZM6,8V.764c0-.754.978-1.051,1.397-.423l1.603,2.659L11.297.32c.37-.431,1.037-.431,1.406,0l2.297,2.68,1.603-2.659c.419-.628,1.397-.331,1.397.423v7.236c0,3.309-2.691,6-6,6s-6-2.691-6-6Zm2-1v1c0,2.206,1.794,4,4,4s4-1.794,4-4v-1h-8Z"/>
</svg>
