<?xml version="1.0" encoding="UTF-8"?>
<svg xmlns="http://www.w3.org/2000/svg" id="Layer_1" data-name="Layer 1" viewBox="0 0 24 24" width="512" height="512"><path d="M19,4h-1.1c-.46-2.28-2.48-4-4.9-4H5C2.24,0,0,2.24,0,5v12.86c0,.79,.43,1.52,1.13,1.89,.32,.17,.67,.25,1.01,.25,.42,0,.83-.12,1.19-.36l2.97-1.98c.69,1.94,2.52,3.34,4.69,3.34h5.7l3.96,2.64c.36,.24,.77,.36,1.19,.36,.35,0,.7-.08,1.01-.25,.7-.37,1.13-1.1,1.13-1.89V9c0-2.76-2.24-5-5-5ZM2.23,17.98s-.07,.05-.15,0c-.08-.04-.08-.11-.08-.13V5c0-1.65,1.35-3,3-3H13c1.65,0,3,1.35,3,3v7c0,1.65-1.35,3-3,3H7c-.2,0-.39,.06-.55,.17l-4.21,2.81Zm19.77,3.88s0,.09-.08,.13c-.08,.04-.13,0-.15,0l-4.21-2.81c-.16-.11-.36-.17-.55-.17h-6c-1.3,0-2.4-.84-2.82-2h4.82c2.76,0,5-2.24,5-5V6h1c1.65,0,3,1.35,3,3v12.86ZM7.73,13c-1.07,0-2.06-.57-2.6-1.5-.28-.48-.11-1.09,.36-1.37,.48-.28,1.09-.11,1.37,.36,.18,.31,.51,.5,.87,.5h2.64c.34,0,.62-.28,.62-.62,0-.31-.22-.57-.52-.62l-3.29-.55c-1.27-.21-2.19-1.3-2.19-2.59,0-1.45,1.18-2.62,2.62-2.62h.38c0-.55,.45-1,1-1s1,.45,1,1h.27c1.07,0,2.06,.57,2.6,1.5,.28,.48,.11,1.09-.36,1.37-.48,.28-1.09,.11-1.37-.36-.18-.31-.51-.5-.87-.5h-2.64c-.34,0-.62,.28-.62,.62,0,.31,.22,.56,.52,.62l3.28,.55c1.27,.21,2.19,1.3,2.19,2.59,0,1.45-1.18,2.62-2.62,2.62h-.38c0,.55-.45,1-1,1s-1-.45-1-1h-.27Z"/></svg>
