<?xml version="1.0" encoding="UTF-8"?>
<svg xmlns="http://www.w3.org/2000/svg" id="Layer_1" data-name="Layer 1" viewBox="0 0 24 24" width="512" height="512"><path d="m5,4.146V1c0-.553-.447-1-1-1s-1,.447-1,1v3.146c-1.444.431-2.5,1.772-2.5,3.354s1.056,2.923,2.5,3.354v12.146c0,.553.447,1,1,1s1-.447,1-1v-12.146c1.444-.431,2.5-1.772,2.5-3.354s-1.056-2.923-2.5-3.354Zm-1,4.854c-.827,0-1.5-.673-1.5-1.5s.673-1.5,1.5-1.5,1.5.673,1.5,1.5-.673,1.5-1.5,1.5Zm9,4.146V1c0-.553-.447-1-1-1s-1,.447-1,1v12.146c-1.444.431-2.5,1.772-2.5,3.354s1.056,2.923,2.5,3.354v3.146c0,.553.447,1,1,1s1-.447,1-1v-3.146c1.444-.431,2.5-1.772,2.5-3.354s-1.056-2.923-2.5-3.354Zm-1,4.854c-.827,0-1.5-.673-1.5-1.5s.673-1.5,1.5-1.5,1.5.673,1.5,1.5-.673,1.5-1.5,1.5Zm11.5-10.5c0-1.582-1.056-2.923-2.5-3.354V1c0-.553-.447-1-1-1s-1,.447-1,1v3.146c-1.444.431-2.5,1.772-2.5,3.354s1.056,2.923,2.5,3.354v12.146c0,.553.447,1,1,1s1-.447,1-1v-12.146c1.444-.431,2.5-1.772,2.5-3.354Zm-3.5,1.5c-.827,0-1.5-.673-1.5-1.5s.673-1.5,1.5-1.5,1.5.673,1.5,1.5-.673,1.5-1.5,1.5Z"/></svg>
