<?xml version="1.0" encoding="UTF-8"?>
<svg xmlns="http://www.w3.org/2000/svg" id="Layer_1" data-name="Layer 1" viewBox="0 0 24 24">
  <path d="m23.112,5.165c.573-.571.888-1.331.889-2.14,0-.809-.314-1.568-.886-2.14-1.178-1.179-3.095-1.18-4.275,0l-2.438,2.438c-1.013,1.013-3.124.79-4.58-.015-.991-.543-2.246-.353-3.057.459-.492.492-.764,1.146-.764,1.843s.271,1.351.764,1.844l1.416,1.416L2.025,17.025c-1.119,1.119-1.32,2.813-.604,4.139l-1.129,1.129c-.391.391-.391,1.023,0,1.414.195.195.451.293.707.293s.512-.098.707-.293l1.127-1.127c.506.274,1.074.42,1.666.42.935,0,1.814-.364,2.475-1.025l8.155-8.154,1.416,1.416c.492.493,1.147.764,1.843.764s1.351-.271,1.843-.764c.814-.812,1.002-2.07.458-3.058-.801-1.456-1.025-3.567-.012-4.579l2.435-2.435ZM5.56,20.561c-.565.566-1.554.566-2.121,0-.584-.585-.584-1.536,0-2.121l2.439-2.439h4.243l-4.561,4.561Zm6.562-6.561h-4.243l3.715-3.715,2.122,2.122-1.594,1.593Zm7.141-7.814c-1.759,1.758-1.496,4.831-.325,6.958.117.213.068.491-.12.679-.229.23-.629.23-.857,0h0l-7.781-7.781c-.115-.114-.178-.268-.178-.43s.063-.314.178-.429c.119-.12.276-.183.429-.183.087,0,.173.021.25.062,2.127,1.171,5.199,1.436,6.958-.324l2.438-2.438c.4-.398,1.049-.398,1.447,0,.194.193.3.451.3.725,0,.274-.107.531-.301.725l-2.438,2.437Z"/>
</svg>
