<?xml version="1.0" encoding="UTF-8"?>
<svg xmlns="http://www.w3.org/2000/svg" id="Layer_1" data-name="Layer 1" viewBox="0 0 24 24" width="512" height="512"><path d="M12,24C5.383,24,0,18.617,0,12S5.383,0,12,0s12,5.383,12,12-5.383,12-12,12Zm0-22C6.486,2,2,6.486,2,12s4.486,10,10,10,10-4.486,10-10S17.514,2,12,2Zm3.802,17.598c.33-.443,.238-1.069-.204-1.399-.066-.049-1.632-1.198-3.598-1.198s-3.531,1.149-3.598,1.198c-.441,.328-.532,.951-.205,1.394,.325,.442,.949,.537,1.396,.213,.011-.008,1.117-.805,2.406-.805s2.396,.797,2.402,.802c.18,.134,.39,.198,.597,.198,.306,0,.606-.139,.803-.402Zm3.16-11.323c.151-.531-.156-1.084-.688-1.236-.964-.275-1.977-.941-2.461-1.619-.321-.45-.946-.555-1.395-.232-.449,.32-.554,.945-.232,1.395,.746,1.045,2.136,1.979,3.539,2.381,.092,.025,.184,.038,.275,.038,.435,0,.835-.286,.961-.726Zm-12.688,.688c1.403-.401,2.793-1.336,3.539-2.381,.321-.449,.217-1.074-.232-1.395-.448-.321-1.073-.217-1.395,.232-.484,.678-1.497,1.344-2.461,1.619-.531,.152-.839,.705-.688,1.236,.126,.439,.526,.726,.961,.726,.092,0,.184-.013,.275-.038Zm1.726,.038c-.304,0-.592,.059-.869,.144,.512,.239,.869,.755,.869,1.356,0,.828-.672,1.5-1.5,1.5-.602,0-1.117-.357-1.356-.869-.085,.277-.144,.565-.144,.869,0,1.654,1.346,3,3,3s3-1.346,3-3-1.346-3-3-3Zm1,5c-.552,0-1-.448-1-1s.448-1,1-1,1,.448,1,1-.448,1-1,1Zm7-5c-.304,0-.592,.059-.869,.144,.512,.239,.869,.755,.869,1.356,0,.828-.672,1.5-1.5,1.5-.602,0-1.117-.357-1.356-.869-.085,.277-.144,.565-.144,.869,0,1.654,1.346,3,3,3s3-1.346,3-3-1.346-3-3-3Zm1,5c-.552,0-1-.448-1-1s.448-1,1-1,1,.448,1,1-.448,1-1,1Z"/></svg>
