<?xml version="1.0" encoding="UTF-8"?>
<svg xmlns="http://www.w3.org/2000/svg" id="Layer_1" data-name="Layer 1" viewBox="0 0 24 24" width="512" height="512"><path d="M5,7h1v1c0,.552,.448,1,1,1h2c.552,0,1-.448,1-1v-1h1c.552,0,1-.448,1-1v-2C12,1.663,9.986-.212,7.601,.019c-2.078,.202-3.601,2.07-3.601,4.158v1.822c0,.552,.448,1,1,1ZM10,3c.552,0,1,.448,1,1s-.448,1-1,1-1-.448-1-1,.448-1,1-1Zm-4,0c.552,0,1,.448,1,1s-.448,1-1,1-1-.448-1-1,.448-1,1-1Zm17.018,5.785c-.595-.542-1.356-.821-2.169-.782-.804,.037-1.545,.386-2.085,.981l-3.217,3.534c-.551-.909-1.551-1.519-2.689-1.519H4c-2.206,0-4,1.794-4,4v5c0,2.206,1.794,4,4,4h4.965c2.85,0,5.57-1.22,7.467-3.348l6.804-7.637c1.094-1.225,.996-3.123-.218-4.23Zm-1.275,2.899l-6.805,7.638c-1.517,1.702-3.693,2.678-5.973,2.678H4c-1.103,0-2-.897-2-2v-5c0-1.103,.897-2,2-2H12.857c.63,0,1.143,.512,1.143,1.142,0,.564-.422,1.051-.98,1.131l-5.161,.737c-.547,.078-.927,.584-.849,1.131,.078,.546,.581,.922,1.132,.848l5.161-.737c1.175-.168,2.128-.988,2.514-2.058l4.427-4.865c.181-.2,.43-.316,.699-.329,.271-.005,.528,.082,.728,.262,.407,.372,.44,1.009,.072,1.421Z"/></svg>
