<?xml version="1.0" encoding="UTF-8"?>
<svg xmlns="http://www.w3.org/2000/svg" id="Layer_1" data-name="Layer 1" viewBox="0 0 24 24" width="512" height="512"><path d="m19.5,10.002h-.5v-1c0-1.279-.805-2.373-1.934-2.804.362-.444.559-.994.559-1.575,0-.667-.26-1.295-.732-1.768l-2.122-2.122c-.945-.944-2.592-.944-3.536,0l-.55.55C10.257.52,9.439.002,8.503.002h-3C4.124.002,3.002,1.124,3.002,2.502v3c0,.222.03.437.084.643-1.209.387-2.087,1.521-2.087,2.857v10c0,2.757,2.243,5,5,5h8c2.414,0,4.435-1.721,4.899-4h.601c1.93,0,3.5-1.57,3.5-3.5v-3c0-1.93-1.57-3.5-3.5-3.5Zm-6.851-7.854c.127-.127.276-.146.354-.146.077,0,.226.019.354.146l2.122,2.122c.127.127.146.276.146.354,0,.078-.019.226-.146.354l-1.025,1.025h-2.9l-1.025-1.025c-.183-.183-.194-.474-.034-.67l2.155-2.159Zm-7.646.354c0-.276.224-.5.5-.5h3c.276,0,.5.224.5.5v.472c-.751.854-.82,2.102-.207,3.028h-3.293c-.276,0-.5-.224-.5-.5v-3Zm8.998,19.5H6c-1.654,0-3-1.346-3-3v-10c0-.551.449-1,1-1h12c.551,0,1,.449,1,1v10c0,1.654-1.346,3-3,3Zm7-5.5c0,.827-.673,1.5-1.5,1.5h-.5v-6h.5c.827,0,1.5.673,1.5,1.5v3Z"/></svg>
