<?xml version="1.0" encoding="UTF-8"?>
<svg xmlns="http://www.w3.org/2000/svg" id="Layer_1" data-name="Layer 1" viewBox="0 0 24 24" width="512" height="512"><path d="M12,0C5.383,0,0,5.383,0,12s5.383,12,12,12,12-5.383,12-12S18.617,0,12,0Zm0,22c-5.514,0-10-4.486-10-10S6.486,2,12,2s10,4.486,10,10-4.486,10-10,10Zm4-8H8c-.553,0-1,.447-1,1s.447,1,1,1h1v.6c0,1.636,1.147,3.4,3,3.4s3-1.765,3-3.4v-.6h1c.553,0,1-.447,1-1s-.447-1-1-1Zm-3,2.6c0,.662-.411,1.4-1,1.4s-1-.738-1-1.4v-.6h2v.6Zm2.5-10.6c-1.93,0-3.5,1.57-3.5,3.5s1.57,3.5,3.5,3.5,3.5-1.57,3.5-3.5-1.57-3.5-3.5-3.5Zm0,5c-.827,0-1.5-.673-1.5-1.5s.673-1.5,1.5-1.5,1.5,.673,1.5,1.5-.673,1.5-1.5,1.5Zm-7.256-.349c-.349-.402-.844-.651-1.294-.651h-.007c-.425,.002-.821,.219-1.18,.643-.198,.233-.48,.354-.765,.354-.228,0-.457-.078-.646-.236-.421-.357-.474-.988-.117-1.41,.938-1.108,1.983-1.346,2.695-1.35,1.035,.033,2.092,.495,2.824,1.341,.361,.418,.316,1.05-.101,1.411s-1.048,.315-1.411-.101Z"/></svg>
