<?xml version="1.0" encoding="UTF-8"?>
<svg xmlns="http://www.w3.org/2000/svg" id="Layer_1" data-name="Layer 1" viewBox="0 0 24 24" width="512" height="512"><path d="m13.5,12c0,.828-.672,1.5-1.5,1.5s-1.5-.672-1.5-1.5.672-1.5,1.5-1.5,1.5.672,1.5,1.5Zm10.5,2.255h0c0,.682-.382,1.286-.998,1.577-.613.29-1.318.202-1.839-.227-.686-.563-1.492-1.02-2.449-1.386.11,1.034.035,2.078-.226,3.113-.982,3.889-4.551,6.616-8.705,6.667-.013,0-.025,0-.038,0-.01,0-.016,0-.024,0h-.053c-.65-.029-1.219-.406-1.5-.998-.289-.612-.203-1.317.227-1.839.563-.686,1.02-1.492,1.386-2.449-1.034.111-2.078.035-3.113-.226C2.743,17.496.001,13.901,0,9.745c0-.682.382-1.286.998-1.577.613-.291,1.318-.203,1.839.227.686.563,1.492,1.02,2.449,1.386-.11-1.034-.035-2.078.226-3.113C6.504,2.743,10.099.001,14.255,0c.682,0,1.286.382,1.577.998.289.612.203,1.317-.227,1.839-.563.686-1.02,1.492-1.386,2.449,1.035-.109,2.078-.034,3.113.226,3.925.991,6.667,4.586,6.667,8.742Zm-2.021-.545c-.223-3.004-2.272-5.535-5.136-6.258-1.011-.254-2.031-.283-3.032-.081-.534.107-1.067-.07-1.429-.472-.366-.407-.486-.965-.32-1.491.413-1.316.955-2.431,1.649-3.388-3.004.223-5.535,2.272-6.258,5.136-.255,1.011-.282,2.032-.081,3.032.107.534-.07,1.068-.472,1.429-.407.366-.965.484-1.491.32-1.316-.413-2.431-.955-3.388-1.649.223,3.004,2.272,5.535,5.136,6.258,1.01.254,2.028.283,3.026.083.103-.021.205-.03.306-.03.428,0,.835.179,1.129.506.365.407.485.962.321,1.485-.413,1.315-.953,2.428-1.646,3.383,3.014-.251,5.537-2.291,6.254-5.131.255-1.011.282-2.032.081-3.032-.107-.534.07-1.068.472-1.429.406-.367.964-.487,1.491-.32,1.316.413,2.431.955,3.388,1.649Z"/></svg>
