<?xml version="1.0" encoding="UTF-8"?>
<svg xmlns="http://www.w3.org/2000/svg" id="Layer_1" data-name="Layer 1" viewBox="0 0 24 24" width="512" height="512"><path d="m17.5,0c-2.346,0-4.359,2.19-5.5,5.54C10.859,2.19,8.846,0,6.5,0,2.855,0,0,5.271,0,12s2.855,12,6.5,12c2.346,0,4.359-2.19,5.5-5.54,1.141,3.35,3.154,5.54,5.5,5.54,3.645,0,6.5-5.271,6.5-12S21.145,0,17.5,0ZM6.5,22c-1.48,0-3.075-1.988-3.911-5.178.283.111.589.178.911.178,1.379,0,2.5-1.121,2.5-2.5s-1.121-2.5-2.5-2.5c-.559,0-1.07.191-1.487.502-.004-.168-.013-.331-.013-.502C2,6.106,4.372,2,6.5,2s4.5,4.106,4.5,10-2.372,10-4.5,10Zm11,0c-1.48,0-3.075-1.988-3.911-5.178.283.111.589.178.911.178,1.379,0,2.5-1.121,2.5-2.5s-1.121-2.5-2.5-2.5c-.559,0-1.07.191-1.487.502-.004-.168-.013-.331-.013-.502,0-5.894,2.372-10,4.5-10s4.5,4.106,4.5,10-2.372,10-4.5,10Z"/></svg>
