<?xml version="1.0" encoding="UTF-8"?>
<svg xmlns="http://www.w3.org/2000/svg" id="Layer_1" data-name="Layer 1" viewBox="0 0 24 24" width="512" height="512"><path d="M10.968,15.003c.138,.535-.184,1.08-.719,1.217-3.091,.796-5.25,3.583-5.25,6.78,0,.552-.448,1-1,1s-1-.448-1-1c0-4.109,2.776-7.693,6.75-8.716,.539-.137,1.08,.184,1.218,.719Zm12.739,8.704c-.195,.195-.451,.293-.707,.293s-.512-.098-.707-.293L.293,1.707C-.098,1.316-.098,.684,.293,.293S1.316-.098,1.707,.293L6.139,4.725C6.726,2.028,9.129,0,12,0c3.309,0,6,2.691,6,6,0,2.871-2.028,5.274-4.725,5.861l10.432,10.432c.391,.391,.391,1.023,0,1.414ZM8.065,6.651l3.284,3.284c.215,.035,.432,.065,.651,.065,2.206,0,4-1.794,4-4s-1.794-4-4-4-4,1.794-4,4c0,.218,.03,.436,.065,.651Z"/></svg>
