<?xml version="1.0" encoding="UTF-8"?>
<svg xmlns="http://www.w3.org/2000/svg" id="Layer_1" data-name="Layer 1" viewBox="0 0 24 24" width="512" height="512"><path d="m20.249,8.157c-.526-.136-1.08.185-1.218.72-.138.534.185,1.08.72,1.218,1.324.341,2.249,1.535,2.249,2.905v2h-12v-2c0-1.654,1.346-3,3-3,.553,0,1-.447,1-1s-.447-1-1-1c-1.92,0-3.591,1.089-4.428,2.681-.58-.428-1.297-.681-2.072-.681-1.93,0-3.5,1.57-3.5,3.5,0,.536.122,1.045.338,1.5h-1.338V5c0-.553-.447-1-1-1s-1,.447-1,1v18c0,.553.447,1,1,1s1-.447,1-1v-2h20v2c0,.553.447,1,1,1s1-.447,1-1v-10c0-2.282-1.542-4.273-3.751-4.843Zm-15.249,5.343c0-.827.673-1.5,1.5-1.5s1.5.673,1.5,1.5-.673,1.5-1.5,1.5-1.5-.673-1.5-1.5Zm-3,5.5v-2h20v2H2ZM7,4c0-.553.447-1,1-1h3.965l1.703-2.555c.204-.308.564-.474.929-.44.367.035.685.271.826.61l1.865,4.477,1.443-1.732c.19-.228.472-.359.769-.359h3.5c.553,0,1,.447,1,1s-.447,1-1,1h-3.031l-2.2,2.641c-.191.229-.475.359-.769.359-.05,0-.1-.004-.149-.011-.346-.053-.639-.282-.773-.604l-1.781-4.275-.964,1.445c-.186.278-.498.445-.832.445h-4.5c-.553,0-1-.447-1-1Z"/></svg>
