<?xml version="1.0" encoding="UTF-8"?>
<svg xmlns="http://www.w3.org/2000/svg" id="Layer_1" data-name="Layer 1" viewBox="0 0 24 24">
  <path d="m9,0h-4C2.243,0,0,2.243,0,5v2c0,1.103.897,2,2,2h7c1.103,0,2-.897,2-2V2c0-1.103-.897-2-2-2ZM2,7v-2c0-1.654,1.346-3,3-3h4l.002,5H2Zm20,8h-7c-1.103,0-2,.897-2,2v5c0,1.103.897,2,2,2h4c2.757,0,5-2.243,5-5v-2c0-1.103-.897-2-2-2Zm0,4c0,1.654-1.346,3-3,3h-4v-5h7v2ZM19,0h-4c-1.103,0-2,.897-2,2v9c0,1.103.897,2,2,2h7c1.103,0,2-.897,2-2v-6c0-2.757-2.243-5-5-5Zm-4,11V2h4c1.654,0,3,1.346,3,3l.002,6h-7.002Zm-6,0H2c-1.103,0-2,.897-2,2v6c0,2.757,2.243,5,5,5h4c1.103,0,2-.897,2-2v-9c0-1.103-.897-2-2-2Zm-4,11c-1.654,0-3-1.346-3-3v-6h7l.002,9h-4.002Z"/>
</svg>
