<?xml version="1.0" encoding="UTF-8"?>
<svg xmlns="http://www.w3.org/2000/svg" id="Layer_1" data-name="Layer 1" viewBox="0 0 24 24" width="512" height="512"><path d="M24,12c0,1.912-.461,3.814-1.333,5.502-.254,.49-.857,.681-1.347,.43-.491-.254-.683-.857-.429-1.348,.736-1.426,1.11-2.968,1.11-4.584,0-5.514-4.486-10-10-10S2,6.486,2,12c0,3.775,2.09,7.189,5.455,8.91,.492,.252,.687,.854,.435,1.346-.177,.346-.527,.545-.891,.545-.153,0-.309-.035-.454-.109C2.508,20.627,0,16.53,0,12,0,5.383,5.383,0,12,0s12,5.383,12,12ZM15.5,5c-.828,0-1.5,.672-1.5,1.5s.672,1.5,1.5,1.5,1.5-.672,1.5-1.5-.672-1.5-1.5-1.5Zm-7,0c-.828,0-1.5,.672-1.5,1.5s.672,1.5,1.5,1.5,1.5-.672,1.5-1.5-.672-1.5-1.5-1.5Zm4.5,10v-4c0-.553-.448-1-1-1s-1,.447-1,1v4c0,.553,.448,1,1,1s1-.447,1-1Zm5.324,5.483l-.625,.772c-.382,.473-.949,.744-1.556,.744h-3.144c-.551,0-1-.448-1-1v-1c0-.552,.449-1,1-1h1c.551,0,1,.448,1,1s.448,1,1,1,1-.447,1-1c0-1.654-1.346-3-3-3h-1c-1.654,0-3,1.346-3,3v1c0,1.654,1.346,3,3,3h3.144c1.214,0,2.348-.542,3.112-1.486l.625-.772c.347-.43,.28-1.06-.149-1.406-.429-.348-1.059-.28-1.407,.148Zm-2.856-9.604c-.467,.294-.608,.911-.314,1.379,.19,.302,.515,.468,.848,.468,.182,0,.366-.05,.531-.153,.679-.427,1.089-.787,1.134-.827,.411-.367,.447-.997,.081-1.409-.367-.413-.998-.449-1.411-.085-.003,.003-.329,.289-.868,.628Zm-6.936,0c-.534-.335-.859-.619-.868-.628-.413-.365-1.042-.327-1.41,.082-.368,.412-.332,1.044,.08,1.412,.045,.04,.455,.4,1.134,.827,.166,.104,.35,.153,.531,.153,.333,0,.658-.166,.848-.468,.294-.468,.153-1.085-.314-1.379Z"/></svg>
