<?xml version="1.0" encoding="UTF-8"?>
<svg xmlns="http://www.w3.org/2000/svg" id="Layer_1" data-name="Layer 1" viewBox="0 0 24 24" width="512" height="512"><path d="m20,0H4C1.794,0,0,1.794,0,4v12c0,2.206,1.794,4,4,4h2.923l3.748,3.157c.382.339.862.507,1.337.507.467,0,.931-.162,1.293-.484l3.847-3.18h2.852c2.206,0,4-1.794,4-4V4c0-2.206-1.794-4-4-4Zm2,16c0,1.103-.897,2-2,2h-3.211c-.232,0-.458.081-.637.229l-4.171,3.416-4.047-3.41c-.181-.152-.409-.235-.645-.235h-3.289c-1.103,0-2-.897-2-2V4c0-1.103.897-2,2-2h16c1.103,0,2,.897,2,2v12Zm-5-6c0,.552-.448,1-1,1h-3v3c0,.552-.448,1-1,1s-1-.448-1-1v-3h-3c-.552,0-1-.448-1-1s.448-1,1-1h3v-3c0-.552.448-1,1-1s1,.448,1,1v3h3c.552,0,1,.448,1,1Z"/></svg>
