<?xml version="1.0" encoding="UTF-8"?>
<svg xmlns="http://www.w3.org/2000/svg" id="Layer_1" data-name="Layer 1" viewBox="0 0 24 24" width="512" height="512"><path d="m18,6v7c0,3.309-2.691,6-6,6s-6-2.691-6-6v-7c0-.553.448-1,1-1s1,.447,1,1v7c0,2.206,1.794,4,4,4s4-1.794,4-4v-7c0-.553.448-1,1-1s1,.447,1,1Zm6-1v14c0,2.757-2.243,5-5,5H5c-2.757,0-5-2.243-5-5V5C0,2.243,2.243,0,5,0h14c2.757,0,5,2.243,5,5Zm-2,0c0-1.654-1.346-3-3-3H5c-1.654,0-3,1.346-3,3v14c0,1.654,1.346,3,3,3h14c1.654,0,3-1.346,3-3V5Z"/></svg>
