<?xml version="1.0" encoding="UTF-8"?>
<svg xmlns="http://www.w3.org/2000/svg" id="Layer_1" data-name="Layer 1" viewBox="0 0 24 24" width="512" height="512"><path d="M24,12.039c0,6.617-5.383,12-12,12S0,18.655,0,12.039c0-.367,.017-.73,.049-1.089,.049-.55,.53-.954,1.085-.907,.55,.049,.956,.535,.907,1.085-.027,.3-.041,.604-.041,.911,0,5.514,4.486,10,10,10s10-4.486,10-10c0-.308-.014-.611-.041-.911-.049-.55,.357-1.036,.907-1.085,.557-.051,1.036,.358,1.085,.907,.032,.358,.048,.722,.048,1.089ZM15.193,7.251l3.286,.548c.302,.05,.521,.309,.521,.616,0,.344-.28,.624-.624,.624h-2.644c-.356,0-.688-.192-.867-.501-.277-.477-.888-.641-1.367-.364-.478,.277-.641,.889-.364,1.367,.536,.924,1.531,1.499,2.598,1.499h.268c0,.552,.448,1,1,1s1-.448,1-1h.376c1.447,0,2.624-1.177,2.624-2.624,0-1.289-.922-2.377-2.192-2.588l-3.286-.548c-.302-.05-.521-.309-.521-.616,0-.344,.28-.624,.625-.624h2.644c.356,0,.688,.192,.866,.5,.277,.479,.889,.643,1.366,.365,.479-.277,.642-.888,.365-1.366-.535-.925-1.53-1.499-2.598-1.499h-.268c0-.552-.448-1-1-1s-1,.448-1,1h-.375c-1.447,0-2.625,1.177-2.625,2.624,0,1.288,.922,2.377,2.193,2.588Zm-10,0l3.286,.548c.302,.05,.521,.309,.521,.616,0,.344-.28,.624-.624,.624h-2.644c-.356,0-.688-.192-.867-.501-.277-.477-.887-.641-1.367-.364-.478,.277-.641,.889-.364,1.367,.536,.924,1.531,1.499,2.598,1.499h.268c0,.552,.448,1,1,1s1-.448,1-1h.376c1.447,0,2.624-1.177,2.624-2.624,0-1.289-.922-2.377-2.192-2.588l-3.286-.548c-.302-.05-.521-.309-.521-.616,0-.344,.28-.624,.625-.624h2.644c.356,0,.688,.192,.866,.5,.277,.479,.89,.643,1.366,.365,.479-.277,.642-.888,.365-1.366-.535-.925-1.53-1.499-2.598-1.499h-.268c0-.552-.448-1-1-1s-1,.448-1,1h-.375c-1.447,0-2.625,1.177-2.625,2.624,0,1.288,.922,2.377,2.193,2.588Zm3.807,9.388v-.6h-2c-.552,0-1-.448-1-1s.448-1,1-1h10c.552,0,1,.448,1,1s-.448,1-1,1h-2v.6c0,1.635-1.147,3.4-3,3.4s-3-1.765-3-3.4Zm4-.6h-2v.6c0,.662,.411,1.4,1,1.4s1-.738,1-1.4v-.6Z"/></svg>
