<?xml version="1.0" encoding="UTF-8"?>
<svg xmlns="http://www.w3.org/2000/svg" id="Layer_1" data-name="Layer 1" viewBox="0 0 24 24" width="512" height="512"><path d="m22.941,2.065c-.688-.69-1.532-1.056-2.443-1.056h0c-.742,0-1.881.256-3.089,1.468L1.035,18.697c-.335.424-.677.866-.838,1.215-.308.666-.251,1.436.151,2.06.415.644,1.117,1.027,1.877,1.027.239.004.469-.004.651-.012,4.16-.166,7.814-1.625,10.294-4.115l2.106-2.144.846.849c.469.47,1.198.559,1.773.213.573-.345.825-1.004.628-1.638-.701-2.262-.771-3.695.793-5.26l3.625-3.697c1.409-1.415,1.409-3.716,0-5.13Zm-11.193,15.4c-2.087,2.096-5.35,3.38-8.953,3.523-.158.006-.355.009-.566.01-.119-.039-.183-.084-.199-.11-.047-.072-.026-.118-.017-.137.054-.113.252-.386.59-.812.035-.044,7.985-7.918,7.985-7.918l3.277,3.29-2.117,2.154Zm9.771-11.676l-3.624,3.696c-1.769,1.768-2.016,3.575-1.766,5.266l-4.119-4.135,6.808-6.722c.578-.579,1.158-.886,1.679-.886h0c.373,0,.718.157,1.026.467.634.636.634,1.671-.005,2.313Z"/></svg>
