<?xml version="1.0" encoding="UTF-8"?>
<svg xmlns="http://www.w3.org/2000/svg" id="Layer_1" data-name="Layer 1" viewBox="0 0 24 24" width="512" height="512"><path d="M24,12v9c0,.553-.448,1-1,1s-1-.447-1-1V12c0-5.514-4.486-10-10-10S2,6.486,2,12v8c0,.553-.448,1-1,1s-1-.447-1-1V12C0,5.383,5.383,0,12,0s12,5.383,12,12Zm-13.819,9.835c-1.663-.306-3.234-1.039-4.544-2.121-.426-.35-1.056-.29-1.408,.135-.352,.426-.292,1.057,.134,1.408,1.573,1.298,3.46,2.179,5.457,2.545,.061,.012,.122,.017,.182,.017,.474,0,.894-.337,.982-.819,.1-.543-.26-1.064-.803-1.164Zm-.181-12.335c0-.828-.672-1.5-1.5-1.5s-1.5,.672-1.5,1.5,.672,1.5,1.5,1.5,1.5-.672,1.5-1.5Zm7,0c0-.828-.672-1.5-1.5-1.5s-1.5,.672-1.5,1.5,.672,1.5,1.5,1.5,1.5-.672,1.5-1.5Zm2,6.5v7c0,.553-.448,1-1,1s-1-.447-1-1v-4.184c-.314,.112-.648,.184-1,.184h-1v2c0,.553-.448,1-1,1s-1-.447-1-1v-2h-5c-1.654,0-3-1.346-3-3s1.346-3,3-3h8c1.654,0,3,1.346,3,3Zm-11,1h1v-2h-1c-.551,0-1,.448-1,1s.449,1,1,1Zm5,0v-2h-2v2h2Zm4-1c0-.552-.449-1-1-1h-1v2h1c.551,0,1-.448,1-1Z"/></svg>
