<?xml version="1.0" encoding="UTF-8"?>
<svg xmlns="http://www.w3.org/2000/svg" id="Layer_1" data-name="Layer 1" viewBox="0 0 24 24" width="512" height="512"><path d="M21.95,20.54c.87-.78,1.54-1.86,1.99-3.22,.17-.52-.11-1.09-.63-1.27-.53-.18-1.09,.11-1.27,.63-.36,1.07-.86,1.88-1.52,2.44l-3.08-3.08c.35-.93,.55-1.84,.55-2.59,0-1.84-1.63-3.45-3.49-3.45-.8,0-1.6,.31-2.24,.85l-1.47-1.47c.13-.69,.2-1.32,.2-1.88,0-2.88-2.66-5.5-5.57-5.5-.58,0-1.16,.1-1.71,.3L1.71,.29C1.32-.1,.68-.1,.29,.29S-.1,1.32,.29,1.71L22.29,23.71c.2,.2,.45,.29,.71,.29s.51-.1,.71-.29c.39-.39,.39-1.02,0-1.41l-1.75-1.75Zm-7.45-8.54c.75,0,1.49,.72,1.49,1.45,0,.28-.05,.62-.14,.99l-2.17-2.17c.25-.17,.54-.28,.82-.28ZM5.43,4c1.84,0,3.57,1.7,3.57,3.5,0,.03,0,.06,0,.09l-3.58-3.58s0,0,.01,0Zm14.46,5.65c-.36-.42-.32-1.05,.1-1.41,.42-.36,1.05-.32,1.41,.1,1.07,1.24,1.85,2.71,2.32,4.38,.15,.53-.16,1.08-.69,1.23-.09,.03-.18,.04-.27,.04-.44,0-.84-.29-.96-.73-.39-1.39-1.04-2.6-1.91-3.62Zm-5.29,9.27c.35,.43,.29,1.06-.13,1.41-1.34,1.1-2.84,1.66-4.47,1.66s-3.23-.95-4.63-2.41c-1.17,1.13-3.21,2.41-4.37,2.41-.46,0-.88-.33-.98-.8-.11-.54,.24-1.07,.78-1.18,1.08-.22,2.2-.91,3.27-1.96C1.64,14.79,0,10.24,0,7.5c0-.33,.03-.66,.09-.98,.11-.54,.63-.89,1.17-.79,.54,.11,.9,.63,.79,1.17-.04,.2-.06,.4-.06,.6,0,2.4,1.48,6.21,3.42,9,.67-.89,1.3-1.93,1.87-3.09,.24-.49,.84-.7,1.34-.46,.5,.24,.7,.84,.46,1.34-.45,.91-1.25,2.39-2.38,3.81,1.08,1.15,2.22,1.9,3.29,1.9,1.15,0,2.23-.41,3.19-1.21,.42-.35,1.06-.29,1.41,.13Z"/></svg>
