<?xml version="1.0" encoding="UTF-8"?>
<svg xmlns="http://www.w3.org/2000/svg" id="Layer_1" data-name="Layer 1" viewBox="0 0 24 24" width="512" height="512"><path d="m16.985,15.062c1.592-2.064,3.015-4.63,3.015-7.201,0-4.335-3.589-7.861-8-7.861S4,3.526,4,7.861c0,2.572,1.424,5.137,3.015,7.201-2.443,1.411-4.015,4.064-4.015,6.938v1c0,.553.447,1,1,1s1-.447,1-1v-1c0-2.277,1.316-4.369,3.327-5.373.508.56.997,1.056,1.429,1.47.63.605,1.437.907,2.244.907s1.615-.302,2.244-.907c.431-.414.921-.91,1.429-1.47,2.012,1.004,3.327,3.095,3.327,5.373v1c0,.553.447,1,1,1s1-.447,1-1v-1c0-2.874-1.572-5.526-4.015-6.938Zm-4.127,1.594c-.48.463-1.234.463-1.715,0-1.921-1.846-5.143-5.443-5.143-8.795,0-3.232,2.691-5.861,6-5.861s6,2.629,6,5.861c0,3.352-3.222,6.949-5.143,8.795Zm3.642-9.437c-.032.637-.176,1.548-.704,2.076-.528.528-1.44.672-2.076.704-.406.02-.739-.313-.718-.718.032-.637.176-1.548.704-2.076.528-.528,1.44-.672,2.076-.704.406-.02.739.313.718.718Zm-6.204-.015c.528.528.672,1.44.704,2.076.02.406-.313.739-.718.718-.637-.032-1.548-.176-2.076-.704-.528-.528-.672-1.44-.704-2.076-.02-.406.313-.739.718-.718.637.032,1.548.176,2.076.704Z"/></svg>
