<?xml version="1.0" encoding="UTF-8"?>
<svg xmlns="http://www.w3.org/2000/svg" id="Layer_1" data-name="Layer 1" viewBox="0 0 24 24" width="512" height="512"><path d="m19.95,5.536l-3.485-3.485c-1.322-1.322-3.08-2.05-4.95-2.05h-4.515C4.243,0,2,2.243,2,5v14c0,2.757,2.243,5,5,5h10c2.757,0,5-2.243,5-5v-8.515c0-1.87-.728-3.628-2.05-4.95Zm-1.414,1.414c.318.318.587.671.805,1.05h-4.341c-.552,0-1-.449-1-1V2.659c.38.218.733.488,1.051.805l3.485,3.485Zm1.464,12.05c0,1.654-1.346,3-3,3H7c-1.654,0-3-1.346-3-3V5c0-1.654,1.346-3,3-3h4.515c.163,0,.325.008.485.023v4.977c0,1.654,1.346,3,3,3h4.977c.015.16.023.322.023.485v8.515Zm-3-2.98c0,1.105-.895,2-2,2v-4c1.105,0,2,.895,2,2Zm-4-3v5.936c0,.5-.071,1.231-1,1s-2.886-2-2.886-2h-.614c-.828,0-1.5-.672-1.5-1.5v-.936c0-.828.672-1.5,1.5-1.5h.614s1.956-1.769,2.886-2,1,.5,1,1Z"/></svg>
