<?xml version="1.0" encoding="UTF-8"?>
<svg xmlns="http://www.w3.org/2000/svg" id="Layer_1" data-name="Layer 1" viewBox="0 0 24 24">
  <path d="m16.5,13.5c0,.553-.447,1-1,1h-2.5v2.5c0,.553-.447,1-1,1s-1-.447-1-1v-2.5h-2.5c-.553,0-1-.447-1-1s.447-1,1-1h2.5v-2.5c0-.553.447-1,1-1s1,.447,1,1v2.5h2.5c.553,0,1,.447,1,1Zm6.5-8.5c0,.553-.447,1-1,1h-.886l-1.277,13.472c-.244,2.581-2.384,4.528-4.977,4.528h-5.728c-2.59,0-4.729-1.943-4.977-4.521l-1.296-13.479h-.861c-.553,0-1-.447-1-1s.447-1,1-1h4.101c.465-2.279,2.485-4,4.899-4h2c2.414,0,4.435,1.721,4.899,4h4.101c.553,0,1,.447,1,1Zm-14.828-1h7.656c-.413-1.164-1.524-2-2.828-2h-2c-1.304,0-2.415.836-2.828,2Zm10.934,2H4.87l1.277,13.287c.149,1.547,1.433,2.713,2.986,2.713h5.728c1.556,0,2.839-1.168,2.986-2.717l1.259-13.283Z"/>
</svg>
