<?xml version="1.0" encoding="UTF-8"?>
<svg xmlns="http://www.w3.org/2000/svg" id="Layer_1" data-name="Layer 1" viewBox="0 0 24 24" width="512" height="512"><path d="m8,10.998c0-1.522.861-2.892,2.247-3.573.255-.125.444-.353.521-.626.076-.272.034-.565-.117-.806l-2.439-3.86c-.367-.58-.966-.982-1.643-1.103-.657-.119-1.336.046-1.86.447C2.17,3.422.463,6.258.025,9.256c-.1.679.104,1.37.559,1.896.466.538,1.14.847,1.849.847h4.567c.552,0,1-.448,1-1Zm-5.565-1h0c-.129,0-.252-.057-.337-.155-.054-.062-.112-.163-.093-.298.363-2.487,1.792-4.849,3.922-6.479.073-.057.293-.066.293-.066.125.022.235.097.303.203l1.897,3.003c-1.246.921-2.079,2.272-2.335,3.792h-3.649Z"/><path d="m15.597,14.667c-.133-.256-.37-.442-.65-.511-.279-.066-.577-.013-.812.153-1.289.907-2.996.9-4.271.004-.23-.163-.522-.22-.796-.157-.275.062-.512.239-.65.485-.521.929-.872,1.639-1.21,2.325-.285.578-.554,1.124-.904,1.746-.323.576-.389,1.267-.179,1.895.213.638.692,1.16,1.312,1.433,1.447.637,2.983.96,4.564.96s3.12-.322,4.564-.959c.623-.273,1.102-.797,1.315-1.436.209-.626.143-1.315-.165-1.861l-2.118-4.077Zm.386,5.306c-.021.062-.077.174-.224.238-2.377,1.046-5.133,1.049-7.519-.002-.145-.062-.2-.175-.221-.236-.022-.067-.036-.17.025-.28.369-.655.653-1.231.954-1.841.21-.426.425-.86.683-1.35,1.45.653,3.158.656,4.617.005l1.657,3.188c.062.11.048.211.026.277Z"/><circle cx="12" cy="11" r="2"/><path d="m23.975,9.256c-.438-2.998-2.145-5.834-4.684-7.778-.524-.401-1.202-.565-1.86-.447-.677.12-1.275.522-1.644,1.104l-2.438,3.859c-.151.24-.193.533-.117.806.077.273.267.501.521.626,1.386.682,2.246,2.051,2.247,3.573,0,.552.448.999,1,.999h4.563s.003,0,.003,0c.71,0,1.384-.309,1.85-.847.455-.525.658-1.217.559-1.896Zm-2.071.587c-.085.099-.208.155-.338.155h-3.649c-.256-1.521-1.089-2.872-2.335-3.793l1.896-3.002c.068-.107.179-.182.304-.204.077-.012.189-.014.293.066,2.13,1.631,3.559,3.992,3.922,6.479.02.135-.039.236-.093.298Z"/></svg>
