<?xml version="1.0" encoding="UTF-8"?>
<svg xmlns="http://www.w3.org/2000/svg" id="Layer_1" data-name="Layer 1" viewBox="0 0 24 24" width="512" height="512"><path d="m19.777,3.222c-2.077-2.077-4.84-3.222-7.777-3.222s-5.7,1.145-7.778,3.222C-.067,7.511-.067,14.489,4.25,18.806l3.942,3.642c1.024,1.001,2.377,1.553,3.808,1.553s2.783-.552,3.786-1.533l3.991-3.688c4.289-4.289,4.289-11.268,0-15.557Zm-1.386,14.115l-3.983,3.681c-1.295,1.268-3.5,1.287-4.838-.02l-3.935-3.634c-3.509-3.51-3.509-9.219,0-12.729,1.7-1.699,3.961-2.636,6.364-2.636s4.663.937,6.363,2.636c3.509,3.51,3.509,9.219.028,12.701Zm-7.392-5.837v-5.5c0-.553.447-1,1-1s1,.447,1,1v5.5c0,.553-.447,1-1,1s-1-.447-1-1Zm2.5,4c0,.828-.672,1.5-1.5,1.5s-1.5-.672-1.5-1.5.672-1.5,1.5-1.5,1.5.672,1.5,1.5Z"/></svg>
