<?xml version="1.0" encoding="UTF-8"?>
<svg xmlns="http://www.w3.org/2000/svg" id="Layer_1" data-name="Layer 1" viewBox="0 0 24 24" width="512" height="512"><path d="m23.714,9.657c.373-.563.384-1.269.03-1.842-.357-.578-1.006-.881-1.675-.802-1.454.178-4.017.601-6.319,1.54-.567-2.745-1.572-5.899-2.201-7.499-.251-.64-.858-1.054-1.546-1.054h-.002c-.69,0-1.299.417-1.55,1.059-.616,1.571-1.624,4.8-2.197,7.51-2.211-.892-4.716-1.393-6.369-1.56-.668-.069-1.289.245-1.635.814-.346.57-.334,1.27.032,1.828.734,1.12,2.172,2.747,3.703,4.22-.685.214-1.966.673-1.966.673-.628.225-1.04.801-1.05,1.468-.01.665.383,1.251,1.003,1.495,1.643.643,3.135,1.077,4.522,1.313-.18.406-.344.819-.437,1.154-.157.57.01,1.177.435,1.584.421.404,1.026.543,1.585.364.665-.215,1.815-.726,2.922-1.528v2.605c0,.552.447,1,1,1s1-.448,1-1v-2.59c1.108.794,2.258,1.3,2.926,1.513.159.051.322.076.484.076.403,0,.799-.155,1.1-.444.423-.407.589-1.012.432-1.579-.077-.277-.226-.664-.443-1.154,2.19-.359,3.97-1.047,4.536-1.283.618-.256,1-.854.974-1.522-.027-.67-.456-1.237-1.095-1.443,0,0-1.42-.469-1.901-.615,1.6-1.569,2.997-3.24,3.702-4.302Zm-6.683,5.051c.093.366.385.647.753.729.865.19,1.656.432,2.377.666-1.212.403-2.746.78-4.241.9-.331.026-.627.215-.791.505-.163.289-.172.641-.023.938.262.525.449.926.584,1.231-.86-.407-1.936-1.077-2.689-1.925v-2.752c0-.552-.447-1-1-1s-1,.448-1,1v2.722c-.005.006-1.839,1.544-2.696,1.953.157-.358.358-.777.585-1.218.154-.298.147-.654-.016-.946-.164-.293-.464-.484-.798-.509-1.296-.097-2.709-.413-4.293-.96.74-.253,1.568-.512,2.437-.708.369-.083.659-.366.751-.732s-.03-.753-.315-1c-1.603-1.387-3.351-3.223-4.33-4.526,1.588.224,4.178.784,6.226,1.816.284.144.619.143.903-.001.283-.145.481-.415.533-.729.385-2.332,1.333-5.582,2.016-7.53.688,1.942,1.632,5.122,2.011,7.523.05.318.25.593.538.738.288.144.628.142.914-.008,1.994-1.046,4.542-1.561,6.205-1.802-.938,1.26-2.611,3.127-4.327,4.623-.284.248-.405.635-.312,1.001Z"/></svg>
