<?xml version="1.0" encoding="UTF-8"?>
<svg xmlns="http://www.w3.org/2000/svg" id="Layer_1" data-name="Layer 1" viewBox="0 0 24 24" width="512" height="512"><path d="m17,3h-5v-1c0-.552-.448-1-1-1s-1,.448-1,1v1h-3V1c0-.552-.448-1-1-1s-1,.448-1,1v2.418c-1.764.773-3,2.536-3,4.582v3.597c0,1.131.389,2.24,1.096,3.124l.685.857c.142.176.219.398.219.625v2.798c0,2.757,2.243,5,5,5h6c2.757,0,5-2.243,5-5v-2.798c0-.226.078-.448.219-.625l.685-.856c.707-.883,1.096-1.993,1.096-3.124v-3.597c0-2.757-2.243-5-5-5Zm3,8.597c0,.679-.233,1.344-.657,1.875l-.685.856c-.424.53-.658,1.196-.658,1.875v2.798c0,1.654-1.346,3-3,3h-6c-1.654,0-3-1.346-3-3v-2.798c0-.679-.233-1.344-.658-1.874l-.685-.856c-.424-.53-.657-1.196-.657-1.875v-3.597c0-1.654,1.346-3,3-3h10c1.654,0,3,1.346,3,3v3.597Zm-4-4.597h-8c-1.103,0-2,.897-2,2v2c0,1.103.897,2,2,2h8c1.103,0,2-.897,2-2v-2c0-1.103-.897-2-2-2Zm-8,4v-2h8v2s-8,0-8,0Z"/></svg>
