<?xml version="1.0" encoding="UTF-8"?>
<svg xmlns="http://www.w3.org/2000/svg" id="Layer_1" data-name="Layer 1" viewBox="0 0 24 24" width="512" height="512"><path d="M23.12,11.88c-1.17-1.17-3.07-1.17-4.24,0l-6.71,6.71c-.76,.76-1.17,1.76-1.17,2.83v1.59c0,.55,.45,1,1,1h1.59c1.07,0,2.07-.42,2.83-1.17l6.71-6.71c.57-.57,.88-1.32,.88-2.12s-.31-1.55-.88-2.12Zm-1.41,2.83l-6.71,6.71c-.38,.38-.88,.59-1.41,.59h-.59v-.59c0-.53,.21-1.04,.59-1.41l6.71-6.71c.39-.39,1.02-.39,1.41,0,.19,.19,.29,.44,.29,.71s-.1,.52-.29,.71Zm-12.71,6.29c0,.55-.45,1-1,1h-3c-2.76,0-5-2.24-5-5V5C0,2.24,2.24,0,5,0h12c2.76,0,5,2.24,5,5v3c0,.55-.45,1-1,1s-1-.45-1-1v-3c0-1.65-1.35-3-3-3H5c-1.65,0-3,1.35-3,3v12c0,1.65,1.35,3,3,3h3c.55,0,1,.45,1,1Zm1-4c0,.55-.45,1-1,1h-3c-1.1,0-2-.9-2-2V6c0-1.1,.9-2,2-2h2c.4,0,.77,.24,.92,.62,.16,.37,.07,.8-.22,1.09l-2.71,2.71v7.59h3c.55,0,1,.45,1,1Zm3-3h-3c-1.1,0-2-.9-2-2v-1.67c0-.8,.31-1.56,.88-2.12l3.33-3.33c.57-.57,1.32-.88,2.12-.88h1.67c1.1,0,2,.9,2,2v4c0,.55-.45,1-1,1s-1-.45-1-1V6h-1.67c-.26,0-.52,.11-.71,.29l-3.33,3.33c-.19,.19-.29,.44-.29,.71v1.67h3c.55,0,1,.45,1,1s-.45,1-1,1Z"/></svg>
