<?xml version="1.0" encoding="UTF-8"?>
<svg xmlns="http://www.w3.org/2000/svg" id="Layer_1" data-name="Layer 1" viewBox="0 0 24 24" width="512" height="512"><path d="M16,2.5c0-.828,.672-1.5,1.5-1.5s1.5,.672,1.5,1.5-.672,1.5-1.5,1.5-1.5-.672-1.5-1.5Zm-7.181,1.552c.749,.121,1.428,.434,2.024,.861,.094-.29,.157-.593,.157-.914,0-.101-.02-.196-.03-.294,.302,.183,.652,.294,1.03,.294,1.103,0,2-.897,2-2s-.897-2-2-2c-1.034,0-1.876,.791-1.979,1.797-.534-.49-1.24-.797-2.021-.797-1.654,0-3,1.346-3,3,0,.309,.061,.602,.148,.883,1.063-.739,2.374-1.042,3.671-.83Zm14.353,13.759l-4.132,4.132c-1.38,1.38-3.193,2.07-5.005,2.07s-3.625-.69-5.005-2.07l-1.979-1.979c-1.322-1.322-2.05-3.08-2.05-4.95v-6.015c0-.881,.385-1.714,1.057-2.286,.671-.571,1.561-.816,2.439-.674,1.218,.198,2.181,1.187,2.437,2.416l2.678-2.678c.552-.553,1.321-.835,2.094-.77,.779,.063,1.49,.466,1.951,1.105,.052,.072,.089,.151,.132,.227,.523-.412,1.175-.625,1.85-.573,.778,.063,1.489,.466,1.95,1.106,.411,.57,.542,1.278,.429,1.958,.528,.176,.996,.51,1.331,.974,.749,1.04,.6,2.539-.348,3.487l-.293,.293c.314,.186,.594,.433,.814,.738,.749,1.041,.6,2.54-.348,3.487Zm-1.275-2.319c-.161-.223-.375-.271-.488-.28-.192-.017-.382,.053-.519,.19l-2.106,2.106c-.391,.391-1.023,.391-1.414,0s-.391-1.023,0-1.414l4.215-4.215c.257-.258,.319-.655,.139-.904-.161-.224-.375-.272-.488-.281-.2-.015-.383,.054-.52,.19l-4.278,4.278c-.391,.391-1.023,.391-1.414,0s-.391-1.023,0-1.414l4.801-4.801c.257-.258,.319-.655,.139-.904-.161-.224-.375-.272-.488-.281-.2-.015-.383,.054-.52,.19l-4.864,4.864c-.195,.195-.451,.293-.707,.293s-.512-.098-.707-.293c-.391-.391-.391-1.023,0-1.414l3.215-3.215c.258-.258,.319-.655,.139-.904-.161-.223-.375-.272-.488-.281-.193-.017-.383,.053-.52,.19l-4.318,4.318c-.286,.286-.717,.371-1.09,.217-.374-.155-.617-.52-.617-.924v-1.697c0-.538-.362-1.018-.824-1.092-.304-.05-.595,.03-.823,.223-.224,.19-.353,.468-.353,.762v6.015c0,1.335,.52,2.591,1.464,3.536l1.979,1.979c1.98,1.98,5.202,1.98,7.183,0l4.132-4.132c.258-.258,.319-.655,.139-.905Zm-15.332,6.672c-.333-.206-.643-.452-.867-.671l-2.511-2.961c-.766-.902-1.187-2.051-1.187-3.234v-6.298c0-.294,.128-.572,.353-.762,.228-.193,.522-.271,.823-.224,.549,.094,1.059-.282,1.147-.826,.089-.545-.281-1.059-.826-1.147-.879-.143-1.768,.103-2.439,.674-.672,.571-1.057,1.404-1.057,2.286v6.298c0,1.656,.59,3.264,1.662,4.528l2.567,3.022c.389,.388,.82,.73,1.283,1.017,.164,.102,.346,.15,.525,.15,.335,0,.662-.168,.851-.474,.291-.47,.146-1.086-.324-1.376Z"/></svg>
