<?xml version="1.0" encoding="UTF-8"?>
<svg xmlns="http://www.w3.org/2000/svg" id="Layer_1" data-name="Layer 1" viewBox="0 0 24 24" width="512" height="512"><path d="m11,6V1c0-.552.447-1,1-1s1,.448,1,1v5c0,.552-.447,1-1,1s-1-.448-1-1Zm-6.316,15.895c-.192.064-.455.104-.686.105h-.003c-.521,0-1.036-.215-1.412-.591-.376-.375-.583-.876-.583-1.412,0-1.251.143-2.502.424-3.72l1.656-7.178c.421-1.825,2.023-3.1,3.897-3.1.553,0,1-.448,1-1s-.447-1-1-1c-2.811,0-5.215,1.913-5.847,4.651L.475,15.828c-.314,1.364-.475,2.767-.475,4.169,0,1.07.415,2.074,1.17,2.827.748.748,1.777,1.176,2.826,1.176h.006c.448,0,.916-.075,1.314-.208.524-.175.807-.742.632-1.266-.174-.523-.74-.807-1.265-.632Zm18.842-6.066l-1.656-7.178c-.632-2.738-3.036-4.651-5.847-4.651-.553,0-1,.448-1,1s.447,1,1,1c1.874,0,3.477,1.275,3.897,3.1l1.656,7.178c.281,1.217.424,2.468.424,3.719,0,.535-.207,1.037-.583,1.412-.376.375-.891.591-1.412.591-.25-.01-.729-.131-.749-.137-.528-.14-1.034.171-1.188.688-.154.517.155,1.07.668,1.242.41.137.836.207,1.263.208h.006c1.049,0,2.078-.428,2.826-1.176.755-.753,1.17-1.757,1.17-2.827,0-1.402-.16-2.805-.475-4.169Zm-7.717-3.223c.267.423.465.893.579,1.394h.612c.553,0,1,.448,1,1s-.447,1-1,1h-.612c-.114.502-.313.972-.579,1.394l.608.608c.028-.002.055-.002.083-.002.828,0,1.5.672,1.5,1.5s-.672,1.5-1.5,1.5-1.5-.672-1.5-1.5c0-.028,0-.056.002-.083l-.608-.608c-.423.267-.893.465-1.394.579v.612c0,.552-.447,1-1,1s-1-.448-1-1v-.612c-.502-.114-.972-.313-1.394-.579l-.608.608c.002.028.002.055.002.083,0,.828-.672,1.5-1.5,1.5s-1.5-.672-1.5-1.5.672-1.5,1.5-1.5c.028,0,.056,0,.083.002l.608-.608c-.267-.423-.465-.893-.579-1.394h-.612c-.553,0-1-.448-1-1s.447-1,1-1h.612c.114-.502.313-.972.579-1.394l-.608-.608c-.028.002-.055.002-.083.002-.828,0-1.5-.672-1.5-1.5s.672-1.5,1.5-1.5,1.5.672,1.5,1.5c0,.028,0,.056-.002.083l.608.608c.423-.267.893-.465,1.394-.579v-.612c0-.552.447-1,1-1s1,.448,1,1v.612c.502.114.972.313,1.394.579l.608-.608c-.002-.028-.002-.055-.002-.083,0-.828.672-1.5,1.5-1.5s1.5.672,1.5,1.5-.672,1.5-1.5,1.5c-.028,0-.056,0-.083-.002l-.608.608Zm-1.308,2.394c0-1.378-1.121-2.5-2.5-2.5s-2.5,1.122-2.5,2.5,1.121,2.5,2.5,2.5,2.5-1.122,2.5-2.5Z"/></svg>
