<?xml version="1.0" encoding="UTF-8"?>
<svg xmlns="http://www.w3.org/2000/svg" id="Layer_1" data-name="Layer 1" viewBox="0 0 24 24" width="512" height="512"><path d="m16,15.5v2c0,.552-.447,1-1,1s-1-.448-1-1v-2c0-1.103-.897-2-2-2h-1.898l1.293,1.293c.391.391.391,1.024,0,1.414-.195.195-.451.293-.707.293s-.512-.098-.707-.293l-1.613-1.614c-1.154-1.154-1.154-3.032,0-4.187l1.613-1.614c.391-.391,1.023-.391,1.414,0,.391.39.391,1.023,0,1.414l-1.293,1.293h1.898c2.206,0,4,1.794,4,4Zm7-10.5c0,.552-.447,1-1,1h-.886l-1.276,13.472c-.244,2.582-2.384,4.528-4.977,4.528h-5.728c-2.59,0-4.729-1.944-4.977-4.521l-1.296-13.479h-.861c-.553,0-1-.448-1-1s.447-1,1-1h4.101c.465-2.279,2.485-4,4.899-4h2c2.414,0,4.435,1.721,4.899,4h4.101c.553,0,1,.448,1,1Zm-14.828-1h7.656c-.413-1.164-1.524-2-2.828-2h-2c-1.304,0-2.415.836-2.828,2Zm10.934,2H4.87l1.277,13.287c.149,1.546,1.433,2.713,2.986,2.713h5.728c1.556,0,2.839-1.168,2.986-2.717l1.259-13.283Z"/></svg>
