<?xml version="1.0" encoding="UTF-8"?>
<svg xmlns="http://www.w3.org/2000/svg" id="Layer_1" data-name="Layer 1" viewBox="0 0 24 24" width="512" height="512"><path d="m16,0h-8C5.243,0,3,2.243,3,5v14c0,2.757,2.243,5,5,5h8c2.757,0,5-2.243,5-5V5c0-2.757-2.243-5-5-5Zm3,19c0,1.654-1.346,3-3,3h-8c-1.654,0-3-1.346-3-3V5c0-1.654,1.346-3,3-3h8c1.654,0,3,1.346,3,3v14Zm-7-8c-2.757,0-5,2.243-5,5s2.243,5,5,5,5-2.243,5-5-2.243-5-5-5Zm0,8c-1.654,0-3-1.346-3-3s1.346-3,3-3,3,1.346,3,3-1.346,3-3,3Zm1.5-3c0,.828-.672,1.5-1.5,1.5s-1.5-.672-1.5-1.5.672-1.5,1.5-1.5,1.5.672,1.5,1.5Zm1.5-12h-6c-1.103,0-2,.897-2,2v2c0,1.103.897,2,2,2h6c1.103,0,2-.897,2-2v-2c0-1.103-.897-2-2-2Zm-6,4v-2h6v2s-6,0-6,0Z"/></svg>
