<?xml version="1.0" encoding="UTF-8"?>
<svg xmlns="http://www.w3.org/2000/svg" id="Layer_1" data-name="Layer 1" viewBox="0 0 24 24" width="512" height="512"><path d="m19.812,18.169c-.543-1.326-1.771-2.157-3.213-2.169h-3.599v-2h3c.552,0,1-.447,1-1s-.448-1-1-1h-3v-2h4c.552,0,1-.447,1-1s-.448-1-1-1h-4v-2h5c.552,0,1-.447,1-1s-.448-1-1-1h-5V2h6c.552,0,1-.447,1-1S19.552,0,19,0H5C4.448,0,4,.447,4,1s.448,1,1,1h6v2h-5c-.552,0-1,.447-1,1s.448,1,1,1h5v2h-4c-.552,0-1,.447-1,1s.448,1,1,1h4v2h-3c-.552,0-1,.447-1,1s.448,1,1,1h3v2h-3.607c-1.434.012-2.662.843-3.205,2.169-.543,1.327-.251,2.781.763,3.795l.572.571c.944.944,2.2,1.465,3.535,1.465h5.885c1.335,0,2.591-.521,3.535-1.465l.572-.571c1.014-1.014,1.306-2.468.763-3.795Zm-2.177,2.381l-.572.571c-.567.566-1.32.879-2.121.879h-5.885c-.801,0-1.554-.312-2.121-.879l-.572-.571c-.44-.44-.562-1.047-.326-1.623.235-.575.748-.922,1.362-.927.827,0,1.599.673,1.599,1.5v.5c0,.553.448,1,1,1s1-.447,1-1v-.5c0-.536-.122-1.045-.338-1.5h2.677c-.217.455-.338.964-.338,1.5v.5c0,.553.448,1,1,1s1-.447,1-1v-.5c0-.827.764-1.5,1.591-1.5.622.005,1.134.352,1.37.927.236.576.114,1.183-.326,1.623Z"/></svg>
