<?xml version="1.0" encoding="UTF-8"?>
<svg xmlns="http://www.w3.org/2000/svg" id="Layer_1" data-name="Layer 1" viewBox="0 0 24 24">
  <path d="m23.931,8.842C22.964,3.719,17.945,0,12,0S1.036,3.719.069,8.842c-.249,1.314.177,2.661,1.145,3.609l6.022,5.787c-.152.392-.235.817-.235,1.262v1c0,1.93,1.57,3.5,3.5,3.5h3c1.93,0,3.5-1.57,3.5-3.5v-1c0-.445-.084-.87-.235-1.262l6.028-5.793c.961-.942,1.387-2.289,1.138-3.604Zm-2.633-1.617c-.385-.14-.817-.225-1.298-.225-1.193,0-2.304.506-3.149,1.045-.385-2.499-1.449-4.462-2.412-5.796,3.087.644,5.628,2.487,6.859,4.976Zm-8.629,8.775h-1.338l-2.211-5.676c.654-.553,1.803-1.324,2.879-1.324s2.227.772,2.88,1.323l-2.211,5.677Zm-3.443-8.181c.544-2.6,1.944-4.477,2.774-5.402.83.926,2.23,2.803,2.774,5.402-.787-.446-1.75-.819-2.774-.819s-1.987.373-2.774.819Zm.335-5.57c-.963,1.334-2.027,3.297-2.412,5.796-.845-.539-1.957-1.045-3.149-1.045-.481,0-.913.085-1.298.225,1.231-2.489,3.773-4.332,6.859-4.976Zm-7.445,7.998c.321-.526.933-1.248,1.884-1.248,1.161,0,2.407.897,3.023,1.448l2.249,5.775c-.287.108-.556.252-.802.428l-5.863-5.635c-.225-.22-.39-.483-.492-.768Zm12.884,10.252c0,.827-.673,1.5-1.5,1.5h-3c-.827,0-1.5-.673-1.5-1.5v-1c0-.827.673-1.5,1.5-1.5h3c.827,0,1.5.673,1.5,1.5v1Zm.53-3.849c-.246-.175-.515-.32-.802-.428l2.249-5.775c.617-.553,1.862-1.448,3.023-1.448.951,0,1.564.722,1.885,1.249-.101.283-.264.545-.485.761l-5.869,5.641Z"/>
</svg>
