<?xml version="1.0" encoding="UTF-8"?>
<svg xmlns="http://www.w3.org/2000/svg" id="Layer_1" data-name="Layer 1" viewBox="0 0 24 24" width="512" height="512"><path d="M12,2C6.486,2,2,6.486,2,12c0,.552-.447,1-1,1s-1-.448-1-1C0,5.383,5.383,0,12,0s12,5.383,12,12c0,.552-.447,1-1,1s-1-.448-1-1c0-5.514-4.486-10-10-10Zm6.799,4.398c-.331-.441-.96-.53-1.4-.197,0,0-2.794,2.103-2.838,2.138l-.008,.006s-.001,.001-.002,.002c-.334,.275-.551,.687-.551,1.153,0,.828,.672,1.5,1.5,1.5s1.5-.672,1.5-1.5c0-.154-.03-.3-.073-.439l1.675-1.262c.441-.333,.529-.959,.197-1.4Zm-9.35,1.949s-.001-.001-.002-.002l-.008-.006c-.044-.036-2.838-2.138-2.838-2.138-.441-.333-1.069-.244-1.4,.197-.332,.441-.244,1.068,.197,1.4l1.675,1.262c-.043,.14-.073,.285-.073,.439,0,.828,.672,1.5,1.5,1.5s1.5-.672,1.5-1.5c0-.466-.217-.878-.551-1.153Zm-3.642,9.44l-3.285-.548c-.302-.05-.521-.309-.521-.616,0-.344,.28-.624,.624-.624h2.644c.356,0,.688,.192,.867,.5,.275,.478,.886,.642,1.366,.365,.478-.277,.642-.888,.364-1.366-.534-.925-1.53-1.499-2.598-1.499h-.268c0-.553-.447-1-1-1s-1,.448-1,1h0s-.376,0-.376,0c-1.447,0-2.624,1.177-2.624,2.624,0,1.288,.923,2.377,2.193,2.588l3.285,.548c.302,.05,.521,.309,.521,.616,0,.344-.28,.624-.624,.624H2.732c-.356,0-.688-.192-.867-.5-.275-.479-.887-.643-1.366-.365-.478,.277-.642,.888-.364,1.366,.534,.925,1.53,1.499,2.598,1.499h.268c0,.553,.447,1,1,1s1-.448,1-1h0s.376,0,.376,0c1.447,0,2.624-1.177,2.624-2.624,0-1.288-.923-2.377-2.193-2.588Zm5.193-3.788c-.553,0-1,.448-1,1v5c0,.552,.447,1,1,1s1-.448,1-1v-5c0-.552-.447-1-1-1Zm11,4v2h1c.553,0,1,.448,1,1s-.447,1-1,1h-1v1c0,.552-.447,1-1,1s-1-.448-1-1v-1h-2v1c0,.552-.447,1-1,1s-1-.448-1-1v-1h-1c-.553,0-1-.448-1-1s.447-1,1-1h1v-2h-1c-.553,0-1-.448-1-1s.447-1,1-1h1v-1c0-.552,.447-1,1-1s1,.448,1,1v1h2v-1c0-.552,.447-1,1-1s1,.448,1,1v1h1c.553,0,1,.448,1,1s-.447,1-1,1h-1Zm-2,0h-2v2h2v-2Zm-9,4c-.552,0-1,.448-1,1s.448,1,1,1,1-.448,1-1-.448-1-1-1Z"/></svg>
