<?xml version="1.0" encoding="UTF-8"?>
<svg xmlns="http://www.w3.org/2000/svg" id="Layer_1" data-name="Layer 1" viewBox="0 0 24 24" width="512" height="512"><path d="m19,4h-4v-1c0-1.654-1.346-3-3-3s-3,1.346-3,3v1h-4C2.243,4,0,6.243,0,9v10c0,2.757,2.243,5,5,5h14c2.757,0,5-2.243,5-5v-10c0-2.757-2.243-5-5-5Zm-8-1c0-.552.449-1,1-1s1,.448,1,1v1.995s0,.003,0,.005,0,.003,0,.005v.995s-2.001,0-2.001,0v-3Zm11,16c0,1.654-1.346,3-3,3H5c-1.654,0-3-1.346-3-3v-10c0-1.654,1.346-3,3-3h4c0,1.103.897,2,2,2h2c1.103,0,2-.897,2-2h4c1.654,0,3,1.346,3,3v10Zm-12.5-6.5c0-1.381,1.119-2.5,2.5-2.5s2.5,1.119,2.5,2.5-1.119,2.5-2.5,2.5-2.5-1.119-2.5-2.5Zm7.468,7.251c.138.534-.184,1.08-.719,1.218-.538.139-1.08-.185-1.218-.72-.331-1.282-1.634-2.249-3.032-2.249s-2.702.967-3.032,2.249c-.116.451-.522.751-.968.751-.082,0-.166-.01-.25-.031-.535-.138-.857-.683-.719-1.218.559-2.174,2.648-3.751,4.968-3.751s4.409,1.577,4.968,3.751Z"/></svg>
