<?xml version="1.0" encoding="UTF-8"?>
<svg xmlns="http://www.w3.org/2000/svg" id="Layer_1" data-name="Layer 1" viewBox="0 0 24 24" width="512" height="512"><path d="M12,8.01c-2.21,0-4,1.79-4,4s1.79,4,4,4,4-1.79,4-4-1.79-4-4-4Zm0,6c-1.1,0-2-.9-2-2s.9-2,2-2,2,.9,2,2-.9,2-2,2ZM20,0H4C1.79,0,0,1.8,0,4.01v1C0,7.21,1.79,9.01,4,9.01v10c0,2.76,2.24,5,5,5h6c2.76,0,5-2.24,5-5V9.01c2.21,0,4-1.79,4-4v-1C24,1.8,22.21,0,20,0Zm2,5c0,1.1-.9,2-2,2v-2c0-.55-.45-1-1-1s-1,.45-1,1v14c0,1.65-1.35,3-3,3h-6c-1.65,0-3-1.35-3-3V5.01c0-.55-.45-1-1-1s-1,.45-1,1v2c-1.1,0-2-.9-2-2v-1c0-1.1,.9-2,2-2H20c1.1,0,2,.9,2,2v1Z"/></svg>
