<?xml version="1.0" encoding="UTF-8"?>
<svg xmlns="http://www.w3.org/2000/svg" id="Layer_1" data-name="Layer 1" viewBox="0 0 24 24" width="512" height="512"><path d="M19.006,1.954L9.899,.084c-1.207-.248-2.444,.057-3.398,.834-.954,.778-1.501,1.93-1.501,3.161v.181l-3.815,3.782c-1.543,1.529-1.574,4.047-.067,5.615l4.883,5.065v1.277c0,2.206,1.794,4,4,4h7c2.206,0,4-1.794,4-4v-2.808l1.428-3.569c.38-.949,.572-1.948,.572-2.971v-3.8c0-2.363-1.68-4.423-3.994-4.898Zm1.994,8.698c0,.767-.145,1.517-.43,2.229l-1.499,3.749c-.047,.118-.071,.244-.071,.371v3c0,1.103-.897,2-2,2h-7c-1.103,0-2-.897-2-2v-1.68c0-.259-.101-.508-.28-.694L2.558,12.271c-.752-.783-.736-2.042,.035-2.808l2.407-2.387v3.923c0,.552,.447,1,1,1s1-.448,1-1V4.08c0-.627,.279-1.214,.766-1.611,.486-.396,1.119-.55,1.731-.425l9.106,1.869c1.389,.285,2.396,1.521,2.396,2.939v3.8Z"/></svg>
