<?xml version="1.0" encoding="UTF-8"?>
<svg xmlns="http://www.w3.org/2000/svg" id="Layer_1" data-name="Layer 1" viewBox="0 0 24 24" width="512" height="512"><path d="M19,1H9c-2.76,0-5,2.24-5,5V14c0,2.76,2.24,5,5,5h10c2.76,0,5-2.24,5-5V6c0-2.76-2.24-5-5-5ZM9,3h10c.89,0,1.69,.39,2.24,1l-5.12,5.12c-1.17,1.17-3.07,1.17-4.24,0L6.76,4c.55-.62,1.35-1,2.24-1Zm10,14H9c-1.65,0-3-1.35-3-3V6.07l4.46,4.46c.97,.97,2.26,1.46,3.54,1.46s2.56-.49,3.54-1.46l4.46-4.46v7.93c0,1.65-1.35,3-3,3Zm0,5c0,.55-.45,1-1,1H5c-2.76,0-5-2.24-5-5V7c0-.55,.45-1,1-1s1,.45,1,1v11c0,1.65,1.35,3,3,3h13c.55,0,1,.45,1,1Z"/></svg>
