<?xml version="1.0" encoding="UTF-8"?>
<svg xmlns="http://www.w3.org/2000/svg" id="Layer_1" data-name="Layer 1" viewBox="0 0 24 24">
  <path d="m23.298.699c-.542-.542-1.289-.785-2.052-.672-3.629.548-10.529,2.282-15.971,7.74-1.537,1.541-2.363,3.675-2.266,5.853.072,1.617.627,3.12,1.585,4.371L.293,22.293c-.391.391-.391,1.023,0,1.414.195.195.451.293.707.293s.512-.098.707-.293l4.304-4.304c1.363,1.064,3.003,1.604,4.665,1.604,2.109,0,4.239-.843,5.832-2.488,5.443-5.622,7.03-12.912,7.46-15.785.113-.755-.131-1.496-.669-2.034ZM5.008,13.531c-.072-1.62.542-3.206,1.684-4.352,5.036-5.052,11.468-6.663,14.854-7.174.023-.004.215-.039.34.108.046.054.129.158.105.323-.18,1.2-.578,3.226-1.41,5.562h-3.923c-1.335,0-2.591.521-3.535,1.465l-7.093,7.093c-.613-.884-.971-1.919-1.021-3.026Zm13.222-.531h-5.815l2.121-2.121c.559-.559,1.332-.879,2.121-.879h3.126c-.435.984-.946,1.994-1.553,3Zm-3.158,4.128c-2.077,2.146-5.337,2.464-7.625.84l2.968-2.968h6.465c-.546.728-1.144,1.442-1.808,2.128Z"/>
</svg>
