<?xml version="1.0" encoding="UTF-8"?>
<svg xmlns="http://www.w3.org/2000/svg" id="Layer_1" data-name="Layer 1" viewBox="0 0 24 24" width="512" height="512"><path d="m16,4.836v-.336c0-.827-.673-1.5-1.5-1.5h-.771c.17-.294.268-.636.268-1,0-1.105-.895-2-2-2s-2,.895-2,2c0,.364.098.706.268,1h-.766c-.827,0-1.5.673-1.5,1.5v.336c-3.529,1.546-6,5.072-6,9.164,0,5.514,4.486,10,10,10s10-4.486,10-10c0-4.093-2.471-7.618-6-9.164Zm-4,1.164c4.173,0,7.609,3.212,7.968,7.293l-1.519-1.519c-1.029-1.029-2.704-1.03-3.692-.039l-2.325,2.078c-.119.119-.276.185-.445.187-.19.006-.341-.065-.504-.23l-2.188-1.979c-.497-.503-1.159-.783-1.866-.787h-.015c-.702,0-1.361.272-1.859.767l-1.522,1.511c.364-4.076,3.798-7.282,7.967-7.282Zm0,16c-3.755,0-6.913-2.601-7.77-6.095l2.734-2.715c.121-.12.28-.186.451-.186h.003c.171,0,.332.069.493.23l2.188,1.979c.501.509,1.18.768,1.913.787.693-.008,1.344-.283,1.793-.734l2.325-2.079c.242-.242.663-.242.905,0l2.732,2.732c-.862,3.487-4.017,6.081-7.767,6.081Z"/></svg>
