<?xml version="1.0" encoding="UTF-8"?>
<svg xmlns="http://www.w3.org/2000/svg" id="Layer_1" data-name="Layer 1" viewBox="0 0 24 24" width="512" height="512"><path d="M6.445,10.168l1.752-1.168-1.752-1.168c-.46-.306-.584-.927-.277-1.387,.306-.459,.926-.584,1.387-.277l3,2c.278,.186,.445,.498,.445,.832s-.167,.646-.445,.832l-3,2c-.171,.114-.363,.168-.554,.168-.323,0-.641-.156-.833-.445-.307-.459-.183-1.081,.277-1.387Zm4.262,3.125c.232,.232,.336,.564,.276,.887l-1.52,8.321c-.116,.639-.549,1.156-1.157,1.383-.211,.079-.429,.117-.644,.117-.406,0-.806-.137-1.137-.403l-1.203-.962-1.033,.31c-.915,.274-1.902,.023-2.575-.656-.673-.679-.915-1.668-.632-2.581l.321-1.042-.956-1.194c-.404-.507-.511-1.171-.284-1.779,.227-.608,.743-1.041,1.382-1.159l8.273-1.518c.329-.062,.655,.044,.888,.276Zm-1.951,1.953l-6.564,1.204,1.106,1.382c.207,.259,.272,.604,.174,.92l-.479,1.548c-.093,.301,.068,.507,.143,.582,.074,.075,.278,.242,.58,.148l1.535-.46c.095-.028,.191-.042,.287-.042,.225,0,.445,.076,.625,.219l1.386,1.109,1.207-6.61ZM12,0C5.383,0,0,5.383,0,12c0,.552,.447,1,1,1s1-.448,1-1C2,6.486,6.486,2,12,2s10,4.486,10,10-4.486,10-10,10c-.553,0-1,.448-1,1s.447,1,1,1c6.617,0,12-5.383,12-12S18.617,0,12,0Zm5.832,6.445c-.306-.459-.926-.584-1.387-.277l-3,2c-.278,.186-.445,.498-.445,.832s.167,.646,.445,.832l3,2c.171,.114,.363,.168,.554,.168,.323,0,.641-.156,.833-.445,.307-.459,.183-1.081-.277-1.387l-1.752-1.168,1.752-1.168c.46-.306,.584-.927,.277-1.387Zm-5.543,10.472c.388,.391,1.022,.396,1.414,.007l.729-.721,1.371,1.356c.283,.281,.799,.44,1.196,.44,.402-.004,.65-.169,.935-.46l1.786-1.844c.384-.397,.374-1.03-.023-1.414-.395-.383-1.028-.375-1.414,.022l-1.432,1.479-1.364-1.349c-.581-.576-1.527-.577-2.11,0l-1.08,1.069c-.393,.389-.396,1.022-.008,1.415Z"/></svg>
