<?xml version="1.0" encoding="UTF-8"?>
<svg xmlns="http://www.w3.org/2000/svg" id="Layer_1" data-name="Layer 1" viewBox="0 0 24 24" width="512" height="512"><path d="M20.943,8.714c-.671-.571-1.56-.817-2.439-.674-.571,.093-1.081,.365-1.494,.749-.533-.485-1.234-.789-2.01-.789-.771,0-1.468,.301-2,.78-.532-.48-1.229-.78-2-.78V3.107C11,1.591,9.924,.273,8.497,.041c-.878-.144-1.769,.103-2.439,.674-.672,.571-1.057,1.404-1.057,2.286v1H1.617c-.549,0-.766,.526-.378,.914l1.762,1.086-1.749,1.118c-.388,.388-.183,.882,.365,.882h3.383v3.547c-.04,.036-1.41,1.383-1.41,1.383-1.024,1.021-1.589,2.379-1.59,3.826s.562,2.806,1.584,3.829l1.072,1.072c1.511,1.511,3.52,2.343,5.657,2.343h6.687c2.757,0,5-2.243,5-5V11c0-.881-.385-1.714-1.057-2.286Zm-6.943,2.286c0-.551,.449-1,1-1s1,.449,1,1v2c0,.551-.449,1-1,1s-1-.449-1-1v-2Zm-4,0c0-.551,.449-1,1-1s1,.449,1,1v2c0,.551-.449,1-1,1s-1-.449-1-1v-2ZM7,3c0-.294,.128-.572,.353-.762,.227-.193,.518-.271,.823-.224,.462,.076,.825,.556,.825,1.093v.893h-2v-1Zm0,5h2v.78c-.599,.54-.983,1.31-.995,2.175-.325-.116-.664-.183-1.005-.183v-2.772Zm13,11c0,1.654-1.346,3-3,3h-6.687c-1.603,0-3.109-.624-4.243-1.757l-1.072-1.072c-.645-.645-.999-1.502-.999-2.414,0-.911,.356-1.768,1.002-2.411l1.287-1.283c.39-.389,1.023-.389,1.413,0,.189,.189,.293,.44,.293,.708,0,.267-.104,.519-.294,.707l-1.408,1.405c-.391,.39-.392,1.023-.001,1.415,.39,.391,1.023,.392,1.415,.001l1.408-1.405c.112-.111,.205-.235,.296-.36,.462,.291,1.004,.466,1.589,.466,.771,0,1.468-.301,2-.78,.532,.48,1.229,.78,2,.78s1.468-.301,2-.78c.532,.48,1.229,.78,2,.78,.351,0,.687-.061,1-.171v3.171Zm0-6c0,.551-.449,1-1,1s-1-.449-1-1v-2c0-.552,.448-1,1-1s1,.448,1,1v2Z"/></svg>
