<?xml version="1.0" encoding="UTF-8"?>
<svg xmlns="http://www.w3.org/2000/svg" id="Layer_1" data-name="Layer 1" viewBox="0 0 24 24" width="512" height="512"><path d="m24,12c0-.964-.502-3.481-1.502-5.065-.321-.51-.498-1.074-.498-1.588,0-.354.621-.919.992-1.256.242-.221.456-.422.597-.592.536-.646.647-1.519.292-2.276-.354-.753-1.093-1.221-1.927-1.221h-7.954c-1.033,0-1.954.009-2.603.041C5.345.338.356,5.301.042,11.338c-.196,3.764.558,6.877,2.442,10.096.09.153.038.289,0,.355-.04.069-.135.186-.319.186h-1.165c-.553,0-1,.448-1,1s.447,1,1,1h1.165c.858,0,1.627-.445,2.055-1.191.425-.742.422-1.625-.009-2.361-1.699-2.9-2.349-5.586-2.171-8.981C2.302,6.417,6.455,2.286,11.495,2.039c.625-.031,1.511-.039,2.505-.039h7.954c.027,0,.083,0,.116.072.037.079-.005.13-.021.15-.094.114-.241.242-.403.389-.655.596-1.646,1.498-1.646,2.735,0,.9.279,1.818.807,2.655.729,1.154,1.193,3.275,1.193,3.999,0,3.267-.54,5.323-2.221,8.463-.404.756-.386,1.644.051,2.373.428.714,1.183,1.14,2.018,1.14h1.152c.553,0,1-.448,1-1s-.447-1-1-1h-1.152c-.166,0-.256-.091-.302-.168-.034-.058-.104-.213-.003-.401,1.837-3.432,2.457-5.805,2.457-9.407Z"/><path d="m12,6c-3.859,0-7,3.346-7,7.458,0,3.85,3.099,7.694,4.944,9.643.549.58,1.279.899,2.056.899s1.507-.319,2.055-.898c1.847-1.949,4.945-5.793,4.945-9.644,0-4.112-3.141-7.458-7-7.458Zm.603,15.726c-.334.354-.87.354-1.206,0-1.642-1.732-4.396-5.111-4.396-8.268,0-3.01,2.243-5.458,5-5.458s5,2.448,5,5.458c0,3.157-2.755,6.535-4.397,8.268Z"/></svg>
