<?xml version="1.0" encoding="UTF-8"?>
<svg xmlns="http://www.w3.org/2000/svg" id="Layer_1" data-name="Layer 1" viewBox="0 0 24 24" width="512" height="512"><path d="m12,0C5.383,0,0,5.383,0,12s5.383,12,12,12,12-5.383,12-12S18.617,0,12,0Zm0,22c-5.514,0-10-4.486-10-10S6.486,2,12,2s10,4.486,10,10-4.486,10-10,10Zm3.561-10.836c.272-.491.431-1.053.439-1.65.014-.996-.363-1.935-1.063-2.645-.699-.71-1.634-1.101-2.63-1.101h-2.269c-1.654,0-3,1.346-3,3v6.5c0,1.654,1.346,3,3,3h4.23c1.007,0,1.951-.395,2.657-1.112.707-.717,1.088-1.666,1.074-2.657,0-1.561-1.026-2.886-2.439-3.336Zm-6.522-2.395c0-.551.449-1,1-1h2.269c.457,0,.885.179,1.205.504.321.325.494.756.487,1.212-.012.835-.701,1.514-1.536,1.514h-3.426v-2.231Zm6.463,6.984c-.328.333-.766.516-1.233.516h-4.23c-.551,0-1-.449-1-1v-2.269h5.462c.826,0,1.499.673,1.499,1.514.007.466-.17.906-.498,1.239Z"/></svg>
