<?xml version="1.0" encoding="UTF-8"?>
<svg xmlns="http://www.w3.org/2000/svg" id="Layer_1" data-name="Layer 1" viewBox="0 0 24 24" width="512" height="512"><path d="M23,0c-1.22,0-2.362,.6-3.057,1.604l-6.568,9.498c-1.157-.29-2.423,.119-3.193,1.158l-.662,.983c-.018-.078-.15-.67-.15-.67-.205-.918-1.006-1.562-1.948-1.563l-4.61-.008h-.004c-.93,0-1.75,.657-1.952,1.563l-.1,.445C.366,14.739-.002,16.371,0,19.021c.003,2.745,2.245,4.979,5,4.979h1.055c2.191,0,4.25-1.071,5.521-2.888l3.543-5.354c.47-.673,.645-1.488,.492-2.295-.088-.468-.291-.89-.57-1.257L21.588,2.74c.321-.463,.849-.74,1.412-.74,.553,0,1-.447,1-1s-.447-1-1-1ZM13.465,14.635l-3.542,5.352c-.883,1.261-2.329,2.014-3.868,2.014h-1.055c-1.652,0-2.999-1.337-3-2.98-.002-2.427,.326-3.883,.706-5.568l.101-.449,4.61,.007,.098,.438c.188,.834,.365,1.621,.496,2.505,.061,.409,.365,.738,.769,.83,.402,.091,.82-.075,1.05-.417l1.984-2.949c.327-.439,.939-.544,1.394-.242,.231,.154,.388,.39,.438,.663,.052,.273-.007,.55-.181,.799Z"/></svg>
