<?xml version="1.0" encoding="UTF-8"?>
<svg xmlns="http://www.w3.org/2000/svg" id="Layer_1" data-name="Layer 1" viewBox="0 0 24 24" width="512" height="512"><path d="m23.82,15.16c-.29-.64-.879-1.073-1.576-1.159-.866-.107-1.599-.375-2.009-.734-.769-.672-1.143-1.476-1.413-2.087.115-.373.178-.77.178-1.18,0-2.063-1.57-3.766-3.578-3.978.349-.594.55-1.285.55-2.022,0-2.206-1.794-4-4-4s-4,1.794-4,4c0,.74.202,1.433.554,2.028-1.983.235-3.526,1.927-3.526,3.972,0,.411.062.807.178,1.18-.269.61-.644,1.415-1.413,2.087-.411.359-1.143.627-2.009.734-.697.086-1.287.52-1.577,1.159-.289.638-.227,1.365.167,1.944.496.73.676,1.266.681,1.396,0,.359-.164.961-.438,1.612-.276.655-.134,1.41.361,1.921.495.512,1.243.679,1.906.423.357-.137,1.193-.457,1.67-.457.189,0,.611.08,1.313.616.343.262.751.397,1.165.397.23,0,.461-.042.685-.127.622-.238,1.068-.774,1.193-1.434.191-1.009.495-1.783.833-2.122.66-.663,1.409-1.12,2.284-1.393.875.273,1.624.731,2.284,1.393.337.339.641,1.112.833,2.121.125.66.571,1.196,1.193,1.434.223.085.455.127.685.127.413,0,.821-.135,1.165-.397.702-.536,1.124-.616,1.313-.616.477,0,1.313.32,1.669.456.666.254,1.413.088,1.907-.423.496-.511.637-1.266.361-1.921-.274-.651-.438-1.253-.438-1.61.005-.132.185-.667.681-1.398.394-.579.456-1.306.167-1.944Zm-6.82-5.16c0,1.103-.897,2-2,2s-2-.897-2-2,.897-2,2-2,2,.897,2,2ZM11.973,2c1.103,0,2,.897,2,2s-.897,2-2,2-2-.897-2-2,.897-2,2-2Zm-2.973,6c1.103,0,2,.897,2,2s-.897,2-2,2-2-.897-2-2,.897-2,2-2Zm-.701,9.919c-.62.623-1.075,1.64-1.354,3.024-.852-.626-1.665-.944-2.417-.944-.597,0-1.257.182-1.907.412.213-.584.407-1.287.407-1.912,0-.877-.644-1.955-1.025-2.514.736-.091,2.115-.37,3.08-1.213.623-.545,1.059-1.142,1.377-1.686.691.57,1.577.913,2.541.913.728,0,1.411-.196,2-.537v2.702c-1.019.379-1.908.957-2.701,1.754Zm12.674.581c0,.625.193,1.328.407,1.912-.65-.229-1.31-.412-1.907-.412-.753,0-1.565.317-2.417.944-.279-1.385-.734-2.402-1.354-3.024-.793-.797-1.682-1.375-2.701-1.754v-2.702c.589.341,1.272.537,2,.537.964,0,1.85-.343,2.541-.913.318.544.754,1.141,1.377,1.686.964.843,2.343,1.122,3.081,1.208-.383.565-1.027,1.643-1.027,2.52Z"/></svg>
