<?xml version="1.0" encoding="UTF-8"?>
<svg xmlns="http://www.w3.org/2000/svg" id="Layer_1" data-name="Layer 1" viewBox="0 0 24 24" width="512" height="512"><path d="M6,12c-.552,0-1-.448-1-1,0-1.892,1.232-4,3-4s3,2.108,3,4c0,.552-.448,1-1,1s-1-.448-1-1c0-1.054-.679-2-1-2s-1,.946-1,2c0,.552-.448,1-1,1Zm12.466,4.161c.836,1.383,.768,3.486-.818,4.445-.454,.274-.932,.395-1.404,.395-1.18,0-2.318-.753-2.922-1.753l-.767-1.27c-.182,.014-.367,.021-.555,.021-3.107,0-5.563-2.162-5.666-2.254-.412-.368-.448-1-.08-1.412,.367-.411,.999-.448,1.41-.082,.022,.02,2.006,1.748,4.336,1.748,2.35,0,4.068-1.527,4.085-1.542,.224-.202,.528-.294,.825-.246,.298,.047,.559,.226,.71,.487l.846,1.462Zm-1.722,1.019l-.301-.521c-.467,.292-1.085,.62-1.819,.879l.409,.677c.342,.567,1.075,.987,1.58,.681,.504-.305,.474-1.149,.131-1.715Zm-.745-10.18c-1.768,0-3,2.108-3,4,0,.552,.448,1,1,1s1-.448,1-1c0-1.054,.679-2,1-2s1,.946,1,2c0,.552,.448,1,1,1s1-.448,1-1c0-1.892-1.232-4-3-4ZM12,0C5.383,0,0,5.383,0,12s5.383,12,12,12c.733,0,1.467-.066,2.181-.198,.543-.1,.903-.621,.803-1.164-.099-.542-.618-.901-1.164-.803-.595,.109-1.207,.165-1.819,.165-5.514,0-10-4.486-10-10S6.486,2,12,2s10,4.486,10,10c0,1.601-.367,3.13-1.09,4.545-.251,.492-.056,1.094,.436,1.346,.492,.25,1.094,.056,1.346-.436,.869-1.699,1.309-3.535,1.309-5.456C24,5.383,18.617,0,12,0Z"/></svg>
