<?xml version="1.0" encoding="UTF-8"?>
<svg xmlns="http://www.w3.org/2000/svg" id="Layer_1" data-name="Layer 1" viewBox="0 0 24 24" width="512" height="512"><path d="M10,11c-.552,0-1-.447-1-1,0-1.054-.679-2-1-2s-1,.946-1,2c0,.553-.448,1-1,1s-1-.447-1-1c0-1.892,1.232-4,3-4s3,2.108,3,4c0,.553-.448,1-1,1Zm9-1c0-1.892-1.232-4-3-4s-3,2.108-3,4c0,.553,.448,1,1,1s1-.447,1-1c0-1.054,.679-2,1-2s1,.946,1,2c0,.553,.448,1,1,1s1-.447,1-1ZM4.687,20.277c.401-.38,.42-1.013,.041-1.414-1.759-1.862-2.727-4.3-2.727-6.863C2,6.486,6.486,2,12,2s10,4.486,10,10c0,2.074-.628,4.062-1.817,5.75-.318,.452-.21,1.075,.242,1.394,.452,.317,1.076,.21,1.393-.241,1.428-2.027,2.183-4.414,2.183-6.902C24,5.383,18.617,0,12,0S0,5.383,0,12c0,3.076,1.162,6.001,3.273,8.236,.197,.208,.461,.313,.727,.313,.247,0,.493-.091,.687-.272Zm9.284-7.777c.212,0,.424,.081,.585,.242,.323,.323,.323,.847,0,1.171l-2.961,2.961,1.002,1.002,3.634-3.634c.162-.162,.373-.242,.585-.242s.424,.081,.585,.242c.323,.323,.323,.847,0,1.171l-3.631,3.631,.985,.985,1.84-1.84c.162-.162,.374-.242,.585-.242s.424,.081,.585,.242c.294,.294,.307,.747,.066,1.071-.003,.029-3.426,3.47-3.426,3.47-.845,.845-1.954,1.267-3.064,1.267-1.43,0-2.858-.701-3.722-2.102-.425-.69-.612-1.505-.612-2.316v-3.58c0-.552,.448-1,1-1s1,.448,1,1v1.119l4.377-4.377c.162-.162,.374-.242,.585-.242h0Z"/></svg>
