<?xml version="1.0" encoding="UTF-8"?>
<svg xmlns="http://www.w3.org/2000/svg" id="Layer_1" data-name="Layer 1" viewBox="0 0 24 24" width="512" height="512"><path d="M9.005,24c-.712,0-1.402-.249-1.948-.714-.672-.571-1.057-1.404-1.057-2.286l.02-7.274-3.945-3.919c-.691-.687-1.073-1.602-1.075-2.576-.001-.974,.377-1.89,1.066-2.579l2.308-2.308C5.884,.832,7.894,0,10.031,0h6.969c2.757,0,5,2.243,5,5v4.721c0,2.375-1.69,4.437-4.019,4.903l-5.981,1.196v5.073c0,1.516-1.076,2.834-2.503,3.066-.164,.027-.329,.04-.492,.04ZM7.039,6h.003c.552,.001,.999,.451,.997,1.003l-.039,14c0,.291,.128,.569,.353,.759,.228,.193,.522,.272,.823,.224,.462-.076,.825-.556,.825-1.093v-5.893c0-.477,.336-.887,.804-.98l6.785-1.357c1.397-.28,2.412-1.517,2.412-2.942V5c0-1.654-1.346-3-3-3h-6.969c-1.603,0-3.11,.624-4.243,1.757l-2.308,2.308c-.31,.311-.481,.723-.48,1.162,0,.439,.172,.851,.484,1.161l2.544,2.527,.011-3.917c.001-.551,.449-.997,1-.997Z"/></svg>
