<?xml version="1.0" encoding="UTF-8"?>
<svg xmlns="http://www.w3.org/2000/svg" id="Layer_1" data-name="Layer 1" viewBox="0 0 24 24">
  <path d="m23,22h-1v-1c0-2.206-1.794-4-4-4h-2v-1c0-1.103.897-2,2-2h2c2.206,0,4-1.794,4-4s-1.794-4-4-4h-2.776c-.811-.242-5.597-1.778-9.202-5.323C7.358.024,6.399-.155,5.521.214c-.924.387-1.521,1.276-1.521,2.264v9.196c0,.957.578,1.818,1.473,2.195.295.124.599.185.898.185.565,0,1.11-.217,1.533-.631,3.711-3.635,8.509-5.18,9.32-5.422h2.776c1.103,0,2,.897,2,2s-.897,2-2,2h-2c-2.206,0-4,1.794-4,4v1H6c-2.206,0-4,1.794-4,4v1h-1c-.552,0-1,.448-1,1s.448,1,1,1h22c.552,0,1-.448,1-1s-.448-1-1-1ZM6.504,11.994c-.029.028-.099.097-.256.032-.115-.048-.248-.169-.248-.351V2.478c0-.218.159-.362.295-.419.057-.023.105-.033.146-.033.101,0,.156.055.179.077,2.498,2.457,5.442,4.013,7.526,4.899-2.096.896-5.073,2.476-7.641,4.992Zm-2.504,9.006c0-1.103.897-2,2-2h12c1.103,0,2,.897,2,2v1H4v-1Z"/>
</svg>
