<?xml version="1.0" encoding="UTF-8"?>
<svg xmlns="http://www.w3.org/2000/svg" id="Layer_1" data-name="Layer 1" viewBox="0 0 24 24" width="512" height="512"><path d="m18,7v6.5c0,.017,0,.035-.001.052-.028,1.357-1.135,2.448-2.499,2.448-1.381,0-2.5-1.119-2.5-2.5s1.119-2.5,2.5-2.5c.171,0,.338.017.5.05v-4.05c0-.552-.449-1-1-1h-3c-.551,0-1,.448-1,1v6.5c0,.017,0,.035-.001.052-.028,1.357-1.135,2.448-2.499,2.448-1.381,0-2.5-1.119-2.5-2.5s1.119-2.5,2.5-2.5c.171,0,.338.017.5.05v-4.05c0-1.654,1.346-3,3-3h3c1.654,0,3,1.346,3,3Zm6-3v12c0,2.206-1.794,4-4,4h-2.852l-3.847,3.18c-.362.322-.825.485-1.292.485-.476,0-.956-.169-1.338-.509l-3.748-3.156h-2.923c-2.206,0-4-1.794-4-4V4C0,1.794,1.794,0,4,0h16c2.206,0,4,1.794,4,4Zm-2,0c0-1.103-.897-2-2-2H4c-1.103,0-2,.897-2,2v12c0,1.103.897,2,2,2h3.289c.236,0,.464.083.644.235l4.047,3.409,4.172-3.415c.179-.148.405-.229.637-.229h3.211c1.103,0,2-.897,2-2V4Z"/></svg>
