<?xml version="1.0" encoding="UTF-8"?>
<svg xmlns="http://www.w3.org/2000/svg" id="Layer_1" data-name="Layer 1" viewBox="0 0 24 24" width="512" height="512"><path d="m21.5,17H6.971c-3.226,0-6.392,2.079-6.524,2.167C.167,19.353,0,19.666,0,20.001s.169.648.449.833c.134.088,3.316,2.166,6.522,2.166h14.529c1.378,0,2.5-1.122,2.5-2.5v-1c0-1.378-1.122-2.5-2.5-2.5Zm-9.086,4l-2-2h4.172l2,2h-4.172Zm-9.32-1.003c1.042-.483,2.478-.997,3.877-.997h.615l2,2h-2.615c-1.386,0-2.829-.518-3.877-1.003Zm18.906.503c0,.276-.224.5-.5.5h-2.086l-2-2h4.086c.276,0,.5.224.5.5v1ZM13,4.856v-1.856c0-.552.448-1,1-1s1,.448,1,1v1.856c0,1.047.558,2.033,1.457,2.573l1.602.961c1.198.718,1.942,2.033,1.942,3.43v2.18c0,.552-.448,1-1,1s-1-.448-1-1v-2.18c0-.699-.372-1.355-.971-1.715l-1.602-.961c-1.497-.899-2.427-2.542-2.427-4.288Zm11,5.408v1.735c0,.552-.448,1-1,1s-1-.448-1-1v-1.735c0-1.048-.558-2.033-1.457-2.572l-2.087-1.252c-.898-.539-1.457-1.524-1.457-2.572V1c0-.552.448-1,1-1s1,.448,1,1v2.868c0,.349.186.678.485.857l2.087,1.252c1.497.898,2.427,2.541,2.427,4.287Z"/></svg>
