<?xml version="1.0" encoding="UTF-8"?>
<svg xmlns="http://www.w3.org/2000/svg" id="Layer_1" data-name="Layer 1" viewBox="0 0 24 24" width="512" height="512"><path d="M16,18c0,.553-.447,1-1,1h-6c-.553,0-1-.447-1-1s.447-1,1-1h6c.553,0,1,.447,1,1Zm1.273-5.651c-.351,.404-.867,.69-1.302,.651-.424-.002-.82-.219-1.179-.643-.356-.42-.986-.474-1.41-.117-.421,.357-.474,.988-.117,1.41,.938,1.107,1.983,1.346,2.694,1.35h.019c1.029,0,2.077-.5,2.807-1.341,.361-.417,.316-1.049-.101-1.411-.417-.361-1.048-.316-1.411,.101Zm-6.589-.101c-.417-.361-1.048-.316-1.411,.101-.349,.402-.844,.651-1.295,.651h-.007c-.424-.002-.82-.219-1.179-.643-.357-.42-.986-.474-1.41-.117-.421,.357-.474,.988-.117,1.41,.938,1.107,1.983,1.346,2.694,1.35h.019c1.029,0,2.077-.5,2.807-1.341,.361-.417,.316-1.049-.101-1.411Zm13.315-.248c0,6.617-5.383,12-12,12S0,18.617,0,12,5.383,0,12,0s12,5.383,12,12Zm-2,0c0-5.514-4.486-10-10-10S2,6.486,2,12s4.486,10,10,10,10-4.486,10-10Zm-4.274-3.038c.092,.025,.184,.038,.275,.038,.435,0,.835-.286,.961-.726,.151-.531-.156-1.084-.688-1.236-.964-.275-1.977-.941-2.461-1.619-.321-.45-.945-.555-1.395-.232-.449,.32-.554,.945-.232,1.395,.746,1.045,2.136,1.979,3.539,2.381Zm-11.727,.038c.092,0,.184-.013,.275-.038,1.403-.401,2.793-1.336,3.539-2.381,.321-.449,.217-1.074-.232-1.395-.447-.321-1.073-.217-1.395,.232-.484,.678-1.497,1.344-2.461,1.619-.531,.152-.839,.705-.688,1.236,.126,.439,.526,.726,.961,.726Z"/></svg>
