<?xml version="1.0" encoding="UTF-8"?>
<svg xmlns="http://www.w3.org/2000/svg" id="Layer_1" data-name="Layer 1" viewBox="0 0 24 24" width="512" height="512"><path d="m19.801,4.419C17.362,1.164,13.488-.45,9.453.106,4.457.793.501,4.946.046,9.982c-.25,2.77.536,5.501,2.215,7.691.477.624.739,1.46.739,2.355v.971c0,1.654,1.346,3,3,3h7c1.654,0,3-1.346,3-3h.494c2.498,0,4.629-1.867,4.957-4.345l.219-1.655h.33c1.299,0,2-1.03,2-2,0-1.42-2.932-7.014-4.199-8.581Zm-8.801,4.581c1.103,0,2,.897,2,2s-.897,2-2,2-2-.897-2-2,.897-2,2-2Zm9.794,4c-.502,0-.926.372-.991.869l-.334,2.523c-.197,1.486-1.476,2.607-2.975,2.607h-1.494c-.553,0-1,.447-1,1v1c0,.552-.448,1-1,1h-7c-.552,0-1-.448-1-1v-.971c0-1.332-.409-2.601-1.151-3.571-1.372-1.791-2.016-4.027-1.811-6.296.372-4.118,3.604-7.514,7.687-8.074.092-.013.184-.024.275-.034v5.072c-1.724.445-3,2.013-3,3.874,0,2.206,1.794,4,4,4s4-1.794,4-4c0-1.861-1.276-3.429-3-3.874V2.054c2.448.268,4.673,1.526,6.223,3.594,1.307,1.616,3.65,6.453,3.775,7.353h-1.204Z"/></svg>
