<?xml version="1.0" encoding="UTF-8"?>
<svg xmlns="http://www.w3.org/2000/svg" id="Layer_1" data-name="Layer 1" viewBox="0 0 24 24">
  <path d="m18,22c0,.553-.448,1-1,1H5c-2.757,0-5-2.243-5-5v-7.764c0-1.136.486-2.223,1.333-2.981.41-.368,1.044-.334,1.412.078.369.411.334,1.043-.078,1.412-.424.38-.667.923-.667,1.491v7.764c0,1.654,1.346,3,3,3h12c.552,0,1,.447,1,1Zm6-16.5v9c0,2.481-2.019,4.5-4.5,4.5h-10c-2.481,0-4.5-2.019-4.5-4.5V5.5c0-2.481,2.019-4.5,4.5-4.5h10c2.481,0,4.5,2.019,4.5,4.5Zm-2,7.5v-2h-2v2h2Zm-2-4h2v-2h-2v2Zm0-5.95v1.95h1.95c-.199-.978-.972-1.75-1.95-1.95Zm-13,3.95v2h2v-2h-2Zm0,6h2v-2h-2v2Zm.05-8h1.95v-1.95c-.978.199-1.75.971-1.95,1.95Zm1.95,11.95v-1.95h-1.95c.199.978.972,1.75,1.95,1.95Zm9,.05V3h-7v14h7Zm3.95-2h-1.95v1.95c.978-.199,1.75-.971,1.95-1.95Z"/>
</svg>
