<?xml version="1.0" encoding="UTF-8"?>
<svg xmlns="http://www.w3.org/2000/svg" id="Layer_1" data-name="Layer 1" viewBox="0 0 24 24" width="512" height="512"><path d="M18.655,10.244c.417,.361,.462,.993,.101,1.411-.729,.841-1.777,1.342-2.807,1.342h-.019c-.711-.005-1.756-.242-2.694-1.352-.356-.421-.304-1.052,.118-1.409,.422-.355,1.053-.305,1.41,.118,.358,.424,.755,.64,1.179,.643h.007c.451,0,.946-.25,1.294-.652,.361-.415,.994-.463,1.411-.101Zm-10.706,2.753c1.03,0,2.078-.501,2.807-1.342,.361-.418,.316-1.05-.101-1.411-.417-.362-1.049-.314-1.411,.101-.349,.402-.844,.652-1.294,.652h-.007c-.424-.003-.82-.219-1.179-.643-.358-.423-.987-.474-1.41-.118-.421,.357-.474,.988-.118,1.409,.938,1.109,1.983,1.347,2.694,1.352h.019Zm8.387,2.256c-.02,.017-2.005,1.747-4.336,1.747-2.314,0-4.287-1.705-4.335-1.747-.411-.367-1.043-.33-1.411,.081-.368,.412-.333,1.044,.08,1.412,.103,.092,2.559,2.254,5.666,2.254s5.563-2.162,5.666-2.254c.411-.367,.447-.997,.081-1.409-.366-.412-.997-.45-1.411-.084Zm7.635-3.253c0,6.617-5.383,12-12,12S-.029,18.617-.029,12,5.354,0,11.971,0s12,5.383,12,12Zm-2,0c0-5.514-4.486-10-10-10S1.971,6.486,1.971,12s4.486,10,10,10,10-4.486,10-10ZM5.971,9c.294,0,.585-.129,.783-.377,.625-.784,1.629-1.463,2.441-1.648,.539-.123,.875-.659,.751-1.197-.123-.538-.657-.879-1.198-.752-1.252,.286-2.649,1.209-3.559,2.352-.344,.432-.273,1.061,.159,1.405,.184,.146,.404,.218,.623,.218Zm8.777-2.025c.812,.186,1.816,.864,2.441,1.648,.198,.248,.489,.377,.783,.377,.219,0,.438-.071,.623-.218,.432-.345,.503-.974,.159-1.405-.91-1.143-2.307-2.065-3.559-2.352-.537-.126-1.074,.213-1.198,.752-.124,.538,.213,1.074,.751,1.197Z"/></svg>
