<?xml version="1.0" encoding="UTF-8"?>
<svg xmlns="http://www.w3.org/2000/svg" id="Layer_1" data-name="Layer 1" viewBox="0 0 24 24" width="512" height="512"><path d="m15.728,10.111c-.743-.742-1.912-.807-2.73-.195-.044-1.065-.923-1.917-1.998-1.917h-4c-1.103,0-2,.897-2,2v4c0,1.103.897,2,2,2h3.385l2.388,2.389c.407.407.942.61,1.478.61s1.07-.204,1.478-.611l2.66-2.661c.395-.395.612-.919.612-1.478s-.218-1.083-.612-1.477l-2.66-2.662Zm-8.728-.111h4v2.276c0,.016,0,.031,0,.046v1.678s-4.001,0-4.001,0v-4Zm9.974,4.313l-2.66,2.661c-.035.035-.092.035-.127,0l-1.671-1.671c.302-.35.484-.805.484-1.303v-1.287l1.187-1.187c.036-.035.093-.033.127,0l2.66,2.661v.126ZM23.235,1.987c-.568-.627-1.379-.987-2.226-.987H3.009c-.842,0-1.65.357-2.218.979C.225,2.602-.057,3.44.021,4.279l1.324,14.186c.241,2.586,2.381,4.536,4.979,4.536h11.275c2.58,0,4.72-1.936,4.976-4.502l1.42-14.199c.084-.842-.192-1.684-.76-2.312Zm-1.23,2.112l-1.42,14.199c-.153,1.54-1.438,2.701-2.985,2.701H6.324c-1.559,0-2.843-1.17-2.986-2.721l-1.324-14.186c-.027-.284.064-.556.256-.767.192-.211.455-.327.739-.327h18.001c.286,0,.55.117.742.329.191.212.281.486.253.771Z"/></svg>
