<?xml version="1.0" encoding="UTF-8"?>
<svg xmlns="http://www.w3.org/2000/svg" id="Layer_1" data-name="Layer 1" viewBox="0 0 24 24" width="512" height="512"><path d="M4.999,21.485c-.224,0-.449-.075-.636-.229C1.591,18.967,0,15.593,0,12,0,5.383,5.383,0,12,0s12,5.383,12,12c0,1.746-.367,3.431-1.092,5.007-.23,.501-.824,.721-1.326,.49-.501-.23-.722-.824-.49-1.326,.603-1.312,.908-2.716,.908-4.171,0-5.514-4.486-10-10-10S2,6.486,2,12c0,2.994,1.325,5.806,3.637,7.714,.426,.352,.486,.982,.135,1.408-.198,.239-.484,.363-.772,.363Zm1.637-12.714c1.132-.933,2.362-1.552,3.56-1.791,.542-.107,.894-.635,.785-1.176-.107-.541-.637-.898-1.176-.785-1.521,.303-3.056,1.067-4.44,2.209-.427,.352-.487,.981-.136,1.407,.197,.24,.483,.364,.772,.364,.224,0,.449-.075,.635-.229Zm12.13-.128c.355-.423,.301-1.054-.122-1.409-1.394-1.171-2.848-1.896-4.447-2.215-.539-.112-1.069,.241-1.177,.784-.108,.542,.243,1.068,.784,1.177,1.262,.252,2.424,.836,3.553,1.785,.188,.157,.416,.234,.643,.234,.285,0,.568-.121,.767-.356Zm-3.803,3.856c.212,0,.424,.081,.585,.242,.323,.323,.323,.847,0,1.171l-2.961,2.961,1.002,1.002,3.634-3.634c.162-.162,.373-.242,.585-.242s.424,.081,.585,.242c.323,.323,.323,.847,0,1.171l-3.631,3.631,.985,.985,1.84-1.84c.162-.162,.374-.242,.585-.242s.424,.081,.585,.242c.294,.294,.307,.747,.066,1.071-.003,.029-3.426,3.47-3.426,3.47-.845,.845-1.954,1.267-3.064,1.267-1.43,0-2.858-.701-3.722-2.102-.425-.69-.612-1.505-.612-2.316v-3.58c0-.552,.448-1,1-1s1,.448,1,1v1.119l4.377-4.377c.162-.162,.374-.242,.585-.242h0Zm-5.962,.498c.646,0,1.246,.205,1.736,.555l2.227-2.227c.576-.576,1.382-.831,2.171-.786-.732-.932-1.857-1.542-3.134-1.542-2.209,0-4,1.791-4,4,0,.061,.015,.118,.018,.179,.309-.108,.636-.179,.982-.179Z"/></svg>
