<?xml version="1.0" encoding="UTF-8"?>
<svg xmlns="http://www.w3.org/2000/svg" id="Layer_1" data-name="Layer 1" viewBox="0 0 24 24">
  <path d="m23.707,22.293l-4.934-4.934c2.061-1.891,3.227-4.529,3.227-7.359C22,4.486,17.514,0,12,0c-2.83,0-5.467,1.166-7.359,3.227L1.707.293C1.316-.098.684-.098.293.293S-.098,1.316.293,1.707l22,22c.195.195.451.293.707.293s.512-.098.707-.293c.391-.391.391-1.023,0-1.414ZM12,2c4.411,0,8,3.589,8,8,0,2.292-.957,4.425-2.644,5.942l-2.126-2.126c1.109-.94,1.77-2.331,1.77-3.816,0-2.757-2.243-5-5-5-1.479,0-2.874.662-3.816,1.77l-2.126-2.126c1.517-1.687,3.65-2.644,5.942-2.644Zm-2.394,6.192c.563-.743,1.45-1.192,2.394-1.192,1.654,0,3,1.346,3,3,0,.947-.448,1.831-1.192,2.394l-4.202-4.202Z"/>
  <path d="m17.231,23.938c-.174.041-.354.062-.535.062H7.302c-.827,0-1.569-.427-1.986-1.142-.417-.716-.424-1.573-.017-2.293.42-.743.977-1.405,1.631-1.949-2.948-1.741-4.93-4.951-4.93-8.616,0-.56.046-1.12.138-1.666.092-.544.603-.912,1.152-.82.544.092.912.607.82,1.152-.074.437-.111.885-.111,1.334,0,4.411,3.589,8,8,8,.449,0,.897-.037,1.334-.111.548-.094,1.06.276,1.152.82.091.545-.276,1.061-.82,1.152-.546.092-1.106.138-1.666.138-1.013,0-1.99-.152-2.912-.433-.852.447-1.572,1.141-2.048,1.982-.074.131-.03.245.003.301.032.056.109.149.258.149h9.394c.537-.125,1.113.201,1.241.738.127.538-.168,1.072-.706,1.2Z"/>
</svg>
