<?xml version="1.0" encoding="UTF-8"?>
<svg xmlns="http://www.w3.org/2000/svg" id="Layer_1" data-name="Layer 1" viewBox="0 0 24 24" width="512" height="512"><path d="M10,10c-.552,0-1-.448-1-1,0-1.054-.679-2-1-2s-1,.946-1,2c0,.552-.448,1-1,1s-1-.448-1-1c0-1.892,1.232-4,3-4s3,2.108,3,4c0,.552-.448,1-1,1Zm9-1c0-1.892-1.232-4-3-4s-3,2.108-3,4c0,.552,.448,1,1,1s1-.448,1-1c0-1.054,.679-2,1-2s1,.946,1,2c0,.552,.448,1,1,1s1-.448,1-1Zm-2.372,3.778c.425-.343,.489-.958,.154-1.388s-.96-.508-1.397-.178c-.011,.008-1.073,.788-3.385,.788-2.275,0-3.341-.756-3.383-.787-.428-.336-1.049-.268-1.395,.159-.347,.43-.28,1.059,.15,1.406,.155,.125,1.601,1.222,4.628,1.222s4.473-1.097,4.628-1.222Zm6.372-1.795c.543-.1,.903-.621,.803-1.164C22.757,4.129,17.793,0,12,0S1.243,4.129,.198,9.819c-.1,.543,.259,1.064,.803,1.164,.542,.098,1.064-.26,1.164-.803C3.036,5.44,7.172,2,12,2s8.964,3.44,9.835,8.181c.088,.482,.509,.819,.982,.819,.06,0,.121-.005,.182-.017Zm-3.037,1.517c.212,0,.424,.081,.585,.242,.323,.323,.323,.847,0,1.171l-2.961,2.961,1.002,1.002,3.634-3.634c.162-.162,.373-.242,.585-.242s.424,.081,.585,.242c.323,.323,.323,.847,0,1.171l-3.631,3.631,.985,.985,1.84-1.84c.162-.162,.374-.242,.585-.242s.424,.081,.585,.242c.294,.294,.307,.747,.066,1.071-.003,.029-3.426,3.47-3.426,3.47-.845,.845-1.954,1.267-3.064,1.267-1.43,0-2.858-.701-3.722-2.102-.425-.69-.612-1.505-.612-2.316v-3.58c0-.552,.448-1,1-1s1,.448,1,1v1.119l4.377-4.377c.162-.162,.374-.242,.585-.242h0Zm-15.932,0c.212,0,.424,.081,.585,.242l4.377,4.377v-1.119c0-.552,.448-1,1-1s1,.448,1,1v3.58c0,.811-.186,1.625-.612,2.316-.863,1.401-2.292,2.102-3.722,2.102-1.11,0-2.219-.422-3.064-1.267,0,0-3.424-3.441-3.426-3.47-.24-.324-.228-.777,.066-1.071,.162-.162,.373-.242,.585-.242s.424,.081,.585,.242l1.84,1.84,.985-.985L.598,15.413c-.323-.323-.323-.847,0-1.171,.162-.162,.374-.242,.585-.242s.424,.081,.585,.242l3.634,3.634,1.002-1.002-2.961-2.961c-.323-.323-.323-.847,0-1.171,.162-.162,.373-.242,.585-.242h0Z"/></svg>
