<?xml version="1.0" encoding="UTF-8"?>
<svg xmlns="http://www.w3.org/2000/svg" id="Layer_1" data-name="Layer 1" viewBox="0 0 24 24">
  <path d="m24,18.5c0,3.032-2.468,5.5-5.5,5.5h-1.5c-.553,0-1-.447-1-1s.447-1,1-1h1.5c1.93,0,3.5-1.57,3.5-3.5,0-1.256-.695-2.422-1.813-3.044-.449-.249-.637-.799-.433-1.271.163-.377.246-.775.246-1.185,0-1.12-.63-2.139-1.645-2.657-.464-.237-.668-.79-.47-1.271.076-.184.114-.376.114-.571,0-.827-.673-1.5-1.5-1.5h-.5c-.553,0-1-.447-1-1,0-1.211-1.008-2.984-2.101-3.691-.577,3.595-3.448,4.595-3.583,4.64-.103.034-.209.052-.316.052h-1.5c-.827,0-1.5.673-1.5,1.5,0,.195.038.388.114.571.198.481-.006,1.034-.47,1.271-1.015.519-1.645,1.537-1.645,2.657,0,.409.083.808.246,1.185.204.473.017,1.022-.433,1.271-1.118.622-1.813,1.788-1.813,3.044,0,1.93,1.57,3.5,3.5,3.5h.5c.553,0,1,.447,1,1s-.447,1-1,1h-.5c-3.032,0-5.5-2.468-5.5-5.5,0-1.701.803-3.296,2.14-4.329-.093-.382-.14-.773-.14-1.171,0-1.6.763-3.073,2.035-4.007-.023-.163-.035-.327-.035-.493,0-1.93,1.57-3.5,3.5-3.5h1.306c.482-.222,2.194-1.208,2.194-4,0-.553.447-1,1-1,2.4,0,4.408,2.747,4.89,5.021,1.747.194,3.11,1.681,3.11,3.479,0,.166-.012.33-.035.493,1.272.934,2.035,2.407,2.035,4.007,0,.397-.047.789-.14,1.171,1.337,1.033,2.14,2.628,2.14,4.329Zm-6.819-1.554l-4.262,6.236c-.366.53-.934.819-1.527.819-.271,0-.549-.061-.814-.186-.847-.399-1.258-1.307-1.002-2.207l.539-1.622h-1.691c-.614,0-1.177-.283-1.543-.775-.366-.494-.475-1.114-.297-1.703l2.132-6.174c.277-.806,1.036-1.348,1.89-1.348h1.895c.659,0,1.275.324,1.648.868.373.543.455,1.235.219,1.85l-.453,1.282h1.681c.703,0,1.346.385,1.679,1.005.332.62.297,1.369-.092,1.954Zm-1.733-1.008l-2.947.049c-.324,0-.629-.157-.816-.423-.188-.265-.234-.604-.127-.91l.933-2.641-1.885-.026-2.083,6.031,2.979-.031c.321,0,.623.154.811.415.188.261.24.596.139.9l-.663,1.992,3.661-5.356Z"/>
</svg>
