<?xml version="1.0" encoding="UTF-8"?>
<svg xmlns="http://www.w3.org/2000/svg" id="Layer_1" data-name="Layer 1" viewBox="0 0 24 24" width="512" height="512"><path d="m22,17.338V6.662c1.181-.563,2-1.769,2-3.162,0-1.93-1.57-3.5-3.5-3.5-1.393,0-2.599.819-3.162,2H6.662c-.563-1.181-1.769-2-3.162-2C1.57,0,0,1.57,0,3.5c0,1.393.819,2.599,2,3.162v10.677c-1.181.563-2,1.769-2,3.162,0,1.93,1.57,3.5,3.5,3.5,1.393,0,2.599-.819,3.162-2h10.677c.563,1.181,1.769,2,3.162,2,1.93,0,3.5-1.57,3.5-3.5,0-1.393-.819-2.599-2-3.162Zm-4.964,2.662H6.964c-.22-1.53-1.434-2.744-2.964-2.964V6.964c1.53-.22,2.744-1.434,2.964-2.964h10.072c.22,1.53,1.434,2.744,2.964,2.964v10.072c-1.53.22-2.744,1.434-2.964,2.964Zm3.464-18c.827,0,1.5.673,1.5,1.5s-.673,1.5-1.5,1.5-1.5-.673-1.5-1.5.673-1.5,1.5-1.5ZM3.5,2c.827,0,1.5.673,1.5,1.5s-.673,1.5-1.5,1.5-1.5-.673-1.5-1.5.673-1.5,1.5-1.5Zm0,20c-.827,0-1.5-.673-1.5-1.5s.673-1.5,1.5-1.5,1.5.673,1.5,1.5-.673,1.5-1.5,1.5Zm17,0c-.827,0-1.5-.673-1.5-1.5s.673-1.5,1.5-1.5,1.5.673,1.5,1.5-.673,1.5-1.5,1.5Z"/></svg>
