<?xml version="1.0" encoding="UTF-8"?>
<svg xmlns="http://www.w3.org/2000/svg" id="Layer_1" data-name="Layer 1" viewBox="0 0 24 24" width="512" height="512"><path d="m6,11v1c0,3.309,2.691,6,6,6,.286,0,.575-.021.859-.061.551-.079,1.053.303,1.131.85.078.547-.303,1.053-.85,1.131-.377.053-.761.081-1.141.081-4.411,0-8-3.589-8-8v-1c0-.552.448-1,1-1s1,.448,1,1Zm17.707,11.293c.391.391.391,1.023,0,1.414-.195.195-.451.293-.707.293s-.512-.098-.707-.293L.293,1.707C-.098,1.316-.098.684.293.293S1.316-.098,1.707.293l3.49,3.49c1.44-2.335,3.984-3.783,6.803-3.783,4.411,0,8,3.589,8,8v4c0,1.797-.591,3.508-1.68,4.906l1.423,1.423c1.46-1.783,2.257-4.004,2.257-6.329,0-.552.448-1,1-1s1,.448,1,1c0,2.857-1.003,5.583-2.837,7.748l2.544,2.544ZM6.665,5.25l10.226,10.226c.527-.739.877-1.583,1.026-2.477h-2.917c-.552,0-1-.448-1-1s.448-1,1-1h3v-2h-3c-.552,0-1-.448-1-1s.448-1,1-1h2.916c-.477-2.834-2.948-5-5.916-5-2.275,0-4.313,1.259-5.335,3.25Zm9.507,15.841c-1.312.603-2.715.909-4.171.909-5.514,0-10-4.486-10-10,0-.552-.448-1-1-1s-1,.448-1,1c0,6.617,5.383,12,12,12,1.747,0,3.431-.367,5.006-1.091.502-.231.722-.825.491-1.326-.23-.502-.825-.723-1.326-.491Z"/></svg>
