<?xml version="1.0" encoding="UTF-8"?>
<svg xmlns="http://www.w3.org/2000/svg" id="Layer_1" data-name="Layer 1" viewBox="0 0 24 24">
  <path d="m21.657,4.657l-2.778-2.778c-1.134-1.134-3.104-1.14-4.249.006l-2.981,3.03-7.975-1.838c-.823-.19-1.694-.021-2.389.461C.591,4.022.131,4.783.023,5.627c-.189,1.479.893,2.97,2.403,3.319l2.3.554-2.292.552C.916,10.404-.167,11.894.023,13.374c.108.843.568,1.604,1.262,2.087s1.565.652,2.397.46l5.042-1.208.653,3.267c.466,2.329,2.528,4.019,4.903,4.019h4.721c2.757,0,5-2.243,5-5v-6.687c0-2.137-.832-4.146-2.343-5.657Zm.343,12.343c0,1.654-1.346,3-3,3h-4.721c-1.425,0-2.662-1.014-2.942-2.412l-.857-4.285c-.053-.266-.212-.5-.441-.646-.163-.104-.462-.196-.772-.13l-6.043,1.447c-.278.064-.562.009-.796-.154s-.384-.412-.421-.7c-.058-.449.377-1.004.887-1.122l6.34-1.526c.45-.108.766-.51.766-.972s-.317-.864-.766-.972l-6.349-1.527c-.501-.116-.936-.671-.879-1.12.037-.288.187-.537.422-.701.234-.165.518-.219.796-.154l12.551,2.892c.54.124,1.075-.212,1.199-.75s-.212-1.075-.75-1.199l-2.289-.527,2.115-2.149c.377-.378,1.036-.378,1.414,0l2.778,2.778c1.133,1.133,1.757,2.64,1.757,4.243v6.687Z"/>
</svg>
