<?xml version="1.0" encoding="UTF-8"?>
<svg xmlns="http://www.w3.org/2000/svg" id="Layer_1" data-name="Layer 1" viewBox="0 0 24 24" width="512" height="512"><path d="M24,12c0,.733-.066,1.467-.198,2.181-.1,.544-.625,.904-1.164,.803-.543-.1-.903-.621-.803-1.164,.109-.595,.165-1.207,.165-1.819,0-5.514-4.486-10-10-10S2,6.486,2,12s4.486,10,10,10c.927,0,1.844-.127,2.728-.376,.534-.151,1.084,.158,1.234,.689,.15,.532-.159,1.085-.69,1.234-1.061,.3-2.162,.452-3.272,.452C5.383,24,0,18.617,0,12S5.383,0,12,0s12,5.383,12,12ZM7,16c.948,0,3.465,0,5.168,2.555,.193,.289,.51,.445,.833,.445,.19,0,.383-.055,.554-.168,.459-.307,.583-.927,.277-1.387-1.524-2.286-3.823-3.445-6.832-3.445-.552,0-1,.447-1,1s.448,1,1,1Zm.5-6c.828,0,1.5-.672,1.5-1.5s-.672-1.5-1.5-1.5-1.5,.672-1.5,1.5,.672,1.5,1.5,1.5Zm12.5,.5v12.5c0,.553-.448,1-1,1s-1-.447-1-1V14.238c-.716,.48-1.575,.762-2.5,.762-2.481,0-4.5-2.019-4.5-4.5s2.019-4.5,4.5-4.5,4.5,2.019,4.5,4.5Zm-2,0c0-1.379-1.122-2.5-2.5-2.5s-2.5,1.121-2.5,2.5,1.122,2.5,2.5,2.5,2.5-1.121,2.5-2.5Z"/></svg>
