<?xml version="1.0" encoding="UTF-8"?>
<svg xmlns="http://www.w3.org/2000/svg" id="Layer_1" data-name="Layer 1" viewBox="0 0 24 24" width="512" height="512"><path d="m21.187,17.18l2.772-13.687c.146-.872-.099-1.758-.67-2.432s-1.406-1.061-2.29-1.061h-9.999c-1.654,0-3,1.346-3,3v14.127c-1.724.445-3,2.013-3,3.873,0,1.654,1.346,3,3,3h13c1.654,0,3-1.346,3-3,0-1.793-1.185-3.314-2.813-3.82ZM11,2h9.999c.299,0,.57.125.764.354.193.228.272.516.229.776l-2.81,13.87h-9.182v-2h2c.553,0,1-.448,1-1s-.447-1-1-1h-2v-2h2c.553,0,1-.448,1-1s-.447-1-1-1h-2v-2h2c.553,0,1-.448,1-1s-.447-1-1-1h-2v-2c0-.551.448-1,1-1Zm10,20h-13c-.552,0-1-.449-1-1,0-1.103.897-2,2-2h11c1.103,0,2,.897,2,2,0,.551-.448,1-1,1ZM4.905,15.947l-1.038.053c-.747,0-1.416-.314-1.906-.804C-.75,12.485-.556,5.321,1.961,2.804c.49-.49,1.159-.805,1.906-.804l1.038.053c.605,0,1.095.49,1.095,1.095l-.205,1.56c0,.605-.49,1.095-1.095,1.095l-1.578.148c-.868,1.939-.91,3.968,0,6.099l1.578.148c.605,0,1.095.49,1.095,1.095l.205,1.56c0,.605-.49,1.095-1.095,1.095Z"/></svg>
