<?xml version="1.0" encoding="UTF-8"?>
<svg xmlns="http://www.w3.org/2000/svg" id="Layer_1" data-name="Layer 1" viewBox="0 0 24 24" width="512" height="512"><path d="m14.888,7.885v4.463c0,.341-.277.618-.618.618h-.003c-.341,0-.618-.277-.618-.618v-3.231l-1.273,1.379c-.245.265-.664.265-.909,0l-1.274-1.38-.002,3.233c0,.341-.277.618-.618.618s-.618-.277-.618-.618v-4.463c0-.471.382-.852.852-.852.246,0,.48.106.642.292l1.473,1.686,1.473-1.686c.162-.185.396-.292.642-.292.471,0,.852.382.852.852Zm-8.436,1.589c-.651-.24-1.243-.501-1.258-.501-.141-.096-.136-.24-.128-.299.012-.078.069-.27.358-.357.65-.194,1.251.276,1.276.296.26.218.647.185.866-.075l.005-.005c.219-.26.185-.648-.075-.866l-.003-.002c-.044-.038-1.122-.924-2.425-.531-.664.2-1.133.723-1.226,1.365-.086.604.176,1.184.769,1.562,0,0,.67.299,1.414.574.157.058.664.273.604.614-.045.253-.357.516-.801.516-.463,0-.908-.186-1.191-.498l-.002-.002c-.228-.251-.617-.27-.868-.042l-.005.005c-.251.228-.27.617-.042.868l.002.002c.522.575,1.289.904,2.106.904,1.01,0,1.859-.646,2.017-1.535.12-.67-.183-1.545-1.393-1.991Zm12.571-.033c-.651-.24-1.243-.501-1.258-.501-.141-.096-.136-.24-.128-.299.012-.078.069-.27.358-.357.65-.194,1.251.276,1.276.296.26.218.647.185.866-.075l.005-.005c.219-.26.185-.648-.075-.866l-.003-.002c-.044-.038-1.122-.924-2.425-.531-.663.2-1.133.723-1.226,1.365-.086.604.176,1.184.769,1.562,0,0,.67.299,1.414.574.157.058.664.273.604.614-.045.253-.357.516-.801.516-.463,0-.908-.186-1.191-.498l-.002-.002c-.228-.251-.617-.27-.868-.042l-.005.005c-.251.228-.27.617-.042.868l.002.002c.522.575,1.289.904,2.106.904,1.01,0,1.859-.646,2.017-1.535.12-.67-.183-1.545-1.393-1.991Zm4.976-5.441v12c0,2.206-1.794,4-4,4h-2.852l-3.847,3.18c-.362.322-.825.485-1.292.485-.476,0-.956-.169-1.338-.509l-3.748-3.156h-2.923c-2.206,0-4-1.794-4-4V4C0,1.794,1.794,0,4,0h16c2.206,0,4,1.794,4,4Zm-2,0c0-1.103-.897-2-2-2H4c-1.103,0-2,.897-2,2v12c0,1.103.897,2,2,2h3.289c.236,0,.464.083.644.235l4.047,3.409,4.172-3.415c.179-.148.405-.229.637-.229h3.211c1.103,0,2-.897,2-2V4Z"/></svg>
