<?xml version="1.0" encoding="UTF-8"?>
<svg xmlns="http://www.w3.org/2000/svg" id="Layer_1" data-name="Layer 1" viewBox="0 0 24 24">
  <path d="m22.967,17.298c-.021-.03-1.557-1.815-1.557-1.815.319-.235.589-.543.781-.91.462-.88.399-1.935-.165-2.753-.025-.037-1.886-2.091-1.886-2.091.458-.231.84-.601,1.084-1.073.42-.811.353-1.779-.176-2.526-.021-.03-4.663-5.284-4.663-5.284-.949-1.076-2.823-1.075-3.771,0l-.615.696-.615-.695c-.949-1.075-2.821-1.075-3.771,0,0,0-4.643,5.254-4.664,5.284-.528.748-.596,1.715-.176,2.526.244.472.626.842,1.083,1.073,0,0-1.859,2.055-1.885,2.091-.564.818-.627,1.874-.166,2.753.192.366.461.675.781.91,0,0-1.537,1.785-1.557,1.814-.635.921-.706,2.107-.186,3.098.52.99,1.538,1.604,2.656,1.604h4.997v1c0,.552.448,1,1,1s1-.448,1-1v-1h3v1c0,.552.447,1,1,1s1-.448,1-1v-1h4.997c1.118,0,2.136-.615,2.655-1.604.521-.99.449-2.177-.186-3.098ZM4.562,7.318l4.551-5.148c.131-.148.299-.17.387-.17s.256.022.387.17l.779.881s-2.694,3.049-2.714,3.079c-.391.554-.527,1.228-.401,1.87h-2.547c-.284,0-.41-.185-.451-.264-.042-.082-.095-.242.011-.418Zm-.97,5.682l2.722-3h2.299s-1.614,1.784-1.639,1.82c-.447.647-.566,1.44-.373,2.18h-2.432c-.364,0-.534-.25-.59-.356-.053-.102-.154-.361.013-.644Zm-.974,6.465c-.082-.156-.238-.56.037-.994l2.13-2.471h2.36s-1.091,1.268-1.111,1.298c-.553.803-.651,1.801-.329,2.702h-2.201c-.545,0-.801-.374-.885-.535Zm18.764,0c-.084.161-.34.535-.885.535h-11.994c-.545,0-.801-.374-.885-.535-.082-.156-.238-.56.037-.994l2.429-2.818c.255-.296.314-.714.152-1.069-.163-.355-.518-.583-.909-.583h-.157c-.364,0-.534-.25-.59-.356-.053-.102-.154-.361.013-.644l3.02-3.328c.266-.293.334-.715.173-1.077-.16-.361-.519-.595-.914-.595h-.868c-.284,0-.41-.185-.451-.264-.042-.082-.095-.242.011-.418l4.552-5.148c.13-.147.298-.169.386-.169s.256.022.387.17l4.551,5.147c.105.177.054.336.011.418-.041.079-.167.264-.451.264h-.868c-.396,0-.754.233-.914.595s-.093.784.174,1.077l3.02,3.328c.167.282.066.541.013.643-.057.107-.227.357-.591.357h-.157c-.391,0-.746.228-.909.583s-.104.773.152,1.069l2.429,2.818c.191.305.206.673.037.995Z"/>
</svg>
