<?xml version="1.0" encoding="UTF-8"?>
<svg xmlns="http://www.w3.org/2000/svg" id="Layer_1" data-name="Layer 1" viewBox="0 0 24 24" width="512" height="512"><path d="m23.204,14.384l-5.327-10.009c-1.479-2.696-4.635-3.966-7.531-3.112-1.078-.794-2.408-1.263-3.846-1.263C2.916,0,0,2.916,0,6.5v11C0,21.084,2.916,24,6.5,24c2.312,0,4.346-1.214,5.499-3.038.846,1.348,2.14,2.327,3.681,2.777.603.176,1.218.263,1.829.263,1.078,0,2.145-.271,3.117-.804,1.522-.835,2.628-2.212,3.115-3.879.486-1.667.294-3.423-.535-4.935Zm-7.087-9.058l2.273,4.27-5.39,2.956v-6.053c0-1.286-.375-2.486-1.022-3.496,1.669-.073,3.3.792,4.14,2.322ZM6.5,2c2.481,0,4.5,2.019,4.5,4.5v4.5H2v-4.5c0-2.481,2.019-4.5,4.5-4.5Zm0,20c-2.481,0-4.5-2.019-4.5-4.5v-4.5h9v4.5c0,2.481-2.019,4.5-4.5,4.5Zm15.319-3.241c-.337,1.154-1.103,2.108-2.157,2.686s-2.271.71-3.423.375c-1.154-.337-2.108-1.103-2.68-2.146l-.634-1.19c.049-.321.074-.649.074-.983v-2.666l6.33-3.471,2.114,3.972c.578,1.054.711,2.27.375,3.424Z"/></svg>
